<svg width="550" height="93" viewBox="0 0 550 93" fill="none" xmlns="http://www.w3.org/2000/svg">
<path d="M16.0021 15.3553V13.7557V12.77L21.258 17.5316L21.4352 18.2074L21.6123 18.8831L21.7894 19.5589L21.7864 19.7454L21.7792 19.9035L21.8851 20.9086L22.0008 21.778L22.1164 22.6475L22.232 23.5169L22.3477 24.3864L22.3327 24.544L22.3143 24.6991L22.2295 25.7282L22.1664 26.6052L22.1033 27.4822L22.0401 28.3593L21.977 29.2363L21.9139 30.1133L21.8508 30.9903L21.7876 31.8673L21.7816 31.906L21.7758 31.9415L21.6495 32.9634L21.5286 33.9527L21.4077 34.942L21.2869 35.9312L21.166 36.9205L21.0451 37.9098L20.9242 38.8991L20.8034 39.8883L20.6825 40.8776L20.5616 41.8669L20.5681 41.8281L20.5745 41.7884L20.4564 42.7026L20.332 43.6575L20.2076 44.6124L20.0833 45.5673L19.9589 46.5222L19.8345 47.4771L19.7101 48.432L19.5857 49.3869L19.4613 50.3418L19.3369 51.2967L19.2126 52.2516L19.0882 53.2065L18.9638 54.1613L18.968 54.1334L18.9721 54.1054L18.8583 55.0326L18.7404 55.9876L18.6225 56.9427L18.5046 57.8978L18.3867 58.8529L18.2687 59.808L18.1508 60.7631L18.0329 61.7181L17.915 62.6732L17.7971 63.6283L17.6792 64.5834L17.5613 65.5385L17.4434 66.4936L17.3255 67.4487L17.341 67.3336L17.3555 67.214L17.2824 67.9963L17.1962 68.9028L17.11 69.8093L17.0238 70.7158L16.9376 71.6223L16.8514 72.5288L16.7652 73.4353L16.6789 74.3418L16.6961 74.1416L16.7084 73.9421L16.6918 74.6614L16.6678 75.5794L16.6437 76.4973L16.6197 77.4153L16.5956 78.3333L16.5969 78.2752L16.5979 78.2058L16.49 78.8148L16.3817 79.5081H0.216248L0.810455 78.8324L1.40467 78.1566L1.99888 77.4808L2.63259 76.6277L3.2663 75.7746L3.9 74.9214L4.53371 74.0683L5.16742 73.2152H11.4305L12.0642 74.0683L12.6979 74.9214L13.3316 75.7746L13.9653 76.6277L14.599 77.4808L15.1932 78.1566L15.7874 78.8324L16.3817 79.5081H0.216248L0.10791 78.8148L0 78.037L0.000991821 77.9677L0.00227356 77.9096L0.0251007 76.9916L0.0479279 76.0736L0.070755 75.1556L0.0935822 74.2377L0.123856 73.1211L0.136147 72.9215L0.153336 72.7213L0.244858 71.8153L0.336388 70.9094L0.42791 70.0034L0.519432 69.0974L0.610962 68.1914L0.702484 67.2854L0.794006 66.3794L0.898666 65.3492L0.913101 65.2296L0.928658 65.1145L1.08195 64.1645L1.23525 63.2144L1.38856 62.2643L1.54185 61.3143L1.69515 60.3643L1.84845 59.4142L2.00175 58.4642L2.15505 57.5141L2.30835 56.5641L2.46165 55.614L2.61494 54.664L2.76825 53.7139L2.92155 52.7639L3.07888 51.7859L3.08301 51.7579L3.08723 51.73L3.25432 50.7816L3.4214 49.8333L3.58848 48.8849L3.75556 47.9366L3.92265 46.9882L4.08973 46.0399L4.25681 45.0915L4.42389 44.1431L4.59097 43.1948L4.75805 42.2464L4.92513 41.2981L5.09222 40.3497L5.26563 39.3607L5.27203 39.321L5.2785 39.2822L5.48965 38.3082L5.7008 37.3342L5.91195 36.3602L6.12311 35.3862L6.33426 34.4122L6.54541 33.4382L6.75656 32.4642L6.96771 31.4901L7.17886 30.5161L7.38457 29.5748L7.37882 29.6103L7.37276 29.649L7.57623 28.7936L7.77971 27.9382L7.98318 27.0828L8.18667 26.2274L8.39014 25.3719L8.59362 24.5165L8.7971 23.6611L8.97894 22.9579L8.96052 23.1129L8.94552 23.2705L9.20335 22.4322L9.46118 21.5938L9.71901 20.7555L9.97684 19.9171L10.225 19.2143L10.2177 19.3725L10.2147 19.5589L10.3918 18.8831L10.569 18.2074L10.7461 17.5316L16.0021 22.2932V21.3074V15.3553Z" fill="black" style="fill:black;fill-opacity:1;"/>
<path d="M16.2399 26.9954L16.0016 27.8224V29.1686L12.295 28.6884L10.1338 26.7217L12.3926 18.6693L13.655 18.0564L14.885 17.7285L16.5939 17.3535L17.3831 17.1677L18.1724 16.9818L18.0595 16.9978L17.9552 17.0143L18.7291 16.7706L19.5998 16.5103L20.4704 16.25L21.341 15.9896L22.2116 15.7293L23.0822 15.469L23.0473 15.4753L23.0142 15.4815L23.9376 15.2552L24.8922 15.0229L25.8467 14.7906L26.8013 14.5582L27.7559 14.3259L28.7105 14.0936L29.6651 13.8613L30.6197 13.6289L30.5141 13.6502L30.4084 13.673L31.2478 13.4616L32.1931 13.2259L33.1385 12.9902L34.0838 12.7545L35.0291 12.5187L35.9745 12.283L36.9198 12.0473L37.8651 11.8116L38.8105 11.5759L38.8049 11.5772L38.7994 11.5785L39.7421 11.3528L40.6903 11.1258L41.6385 10.8987L42.5868 10.6717L43.535 10.4446L44.4833 10.2176L45.4315 9.99051L46.3798 9.76346L46.7075 9.69223L47.0544 9.63232L48.343 9.67953L49.2661 9.77301L50.1892 9.86649L51.1123 9.95996L52.0354 10.0534L52.9584 10.1469L53.8815 10.2404L54.8046 10.3339L57.045 10.4937L59.4955 11.6996L60.4002 14.9248L59.7196 16.3186L59.039 17.7124L54.5033 20.3437L52.9555 20.2427L51.4077 20.1417L51.4452 21.8721L53.8957 23.078L56.1361 23.2378L55.2516 23.5178L54.367 23.7979L53.4825 24.0779L52.598 24.3578L51.7134 24.6378L50.8289 24.9178L49.9443 25.1978L49.4254 25.4316L49.7723 25.3717L50.1 25.3004L49.1518 25.5275L48.2035 25.7545L47.2553 25.9816L46.307 26.2086L45.3588 26.4357L44.4106 26.6628L43.4623 26.8898L42.5085 27.1182L42.503 27.1195L42.4974 27.1208L41.5469 27.3348L40.5964 27.5487L39.6459 27.7626L38.6954 27.9766L37.7449 28.1905L36.7944 28.4044L35.8439 28.6184L34.8934 28.8323L33.837 29.0706L33.7313 29.0934L33.6257 29.1147L32.6536 29.2563L31.6814 29.398L30.7092 29.5397L29.737 29.6815L28.7649 29.8232L27.7927 29.9648L26.8205 30.1065L25.8171 30.2542L25.7841 30.2604L25.7491 30.2668L24.8424 30.3268L23.9356 30.3868L23.0289 30.4467L22.1222 30.5067L21.2155 30.5667L20.2121 30.6434L20.1077 30.6599L19.9949 30.6758L19.1845 30.7029L18.3741 30.7299L18.4835 30.5678L18.1138 30.4528L19.3762 29.8399L21.8694 22.4282L19.7082 20.4615L16.0016 19.9812V21.3274L16.2399 26.9954Z" fill="black" style="fill:black;fill-opacity:1;"/>
<path d="M9.60403 45.9863V44.3044V43.1901L9.90533 42.8165L10.5799 42.7999L11.2545 42.7832L11.9291 42.7666L11.7298 42.7595L11.5783 42.7586L12.4485 42.6201L13.4377 42.4796L14.4268 42.3391L15.4159 42.1987L16.405 42.0582L17.3941 41.9177L18.3832 41.7772L19.3723 41.6367L19.008 41.6563L18.6199 41.6988L19.0818 41.5389L19.9538 41.3095L20.8257 41.0801L21.6976 40.8507L22.5696 40.6213L23.4415 40.3919L24.3134 40.1624L25.1854 39.933L26.0573 39.7036L25.8929 39.7386L25.7333 39.7765L26.4746 39.5547L27.3708 39.2927L28.267 39.0306L29.1633 38.7685L30.0595 38.5064L30.9557 38.2443L31.8519 37.9822L32.7481 37.7201L33.6443 37.458L34.5405 37.1959L34.4487 37.2215L34.3585 37.248L35.1779 36.9881L36.0861 36.7011L36.9942 36.4142L37.9024 36.1272L38.8105 35.8402L39.7187 35.5532L40.6268 35.2662L41.5349 34.9792L42.4431 34.6922L42.485 34.6793L42.5264 34.6667L43.5175 34.4462L44.4677 34.2379L45.4178 34.0296L46.368 33.8214L47.3181 33.6131L48.2683 33.4048L49.2184 33.1965L49.6275 33.0894L50.0611 33.0039L51.5083 33.7081L52.5009 34.472L53.4935 35.2359L54.486 35.9998L55.4786 36.7637L56.4712 37.5276L56.8385 41.2702L56.0133 42.2124L55.1882 43.1547L54.3631 44.097L53.5379 45.0392L52.7128 45.9815L52.3423 46.8641L52.7759 46.7787L53.185 46.6715L52.2735 47.0112L51.3621 47.351L50.4506 47.6906L49.5391 48.0304L48.6277 48.3701L47.7162 48.7098L46.8457 49.0373L46.8872 49.0247L46.929 49.0117L46.0195 49.2942L45.1099 49.5767L44.2003 49.8591L43.2908 50.1416L42.3812 50.424L41.4717 50.7065L40.5621 50.9889L39.6525 51.2714L38.6543 51.581L38.564 51.6075L38.4722 51.6331L37.5669 51.8616L36.6615 52.0901L35.7562 52.3187L34.8508 52.5472L33.9455 52.7757L33.0401 53.0043L32.1348 53.2328L31.2294 53.4613L30.3241 53.6898L29.2638 53.9587L29.1042 53.9966L28.9398 54.0316L28.047 54.1572L27.1542 54.2829L26.2614 54.4085L25.3685 54.5341L24.4757 54.6597L23.5829 54.7853L22.6901 54.9109L21.7973 55.0366L20.4944 55.2318L20.1064 55.2742L19.742 55.2939L18.7467 55.2071L17.7515 55.1203L16.7562 55.0335L15.7609 54.9467L14.7657 54.86L13.7704 54.7732L12.7751 54.6864L11.661 54.6016L11.5095 54.6007L11.3102 54.5937L10.6411 54.5067L9.9719 54.4197L9.30273 54.3328L9.60403 53.9592V52.8449V45.9863Z" fill="black" style="fill:black;fill-opacity:1;"/>
<path d="M6.81429 73.9093L6.43687 75.2235L7.06961 76.46L7.36174 77.0308L3.9893 66.3775L4.91777 66.1695L5.84624 65.9614L6.77473 65.7533L7.7032 65.5453L8.63168 65.3372L9.56015 65.1292L10.4886 64.9211L11.4171 64.713L12.3456 64.505L13.274 64.2969L14.2025 64.0889L15.131 63.8808L14.9369 63.9131L14.7452 63.9509L15.4769 63.7144L16.3974 63.4349L17.318 63.1554L18.2386 62.876L19.1591 62.5965L20.0797 62.317L21.0002 62.0376L21.9208 61.7581L22.8413 61.4786L23.7619 61.1992L24.6824 60.9197L25.603 60.6402L26.5235 60.3607L27.4441 60.0813L28.3646 59.8018L29.2852 59.5224L29.2683 59.5265L29.2519 59.5305L30.2033 59.2839L31.1708 59.0333L32.1382 58.7827L33.1056 58.532L34.0731 58.2814L35.0405 58.0308L36.008 57.7802L36.9754 57.5296L37.9428 57.279L38.9103 57.0284L39.8777 56.7777L39.955 56.7589L40.0346 56.7402L41.0535 56.5215L41.9902 56.3209L42.9269 56.1204L43.8636 55.9198L44.8003 55.7192L45.7371 55.5187L46.6738 55.3181L47.6105 55.1176L48.5472 54.917L49.4839 54.7165L49.6915 54.6747L49.9028 54.6382L51.061 54.5653L52.0047 54.5232L52.9483 54.4811L53.8919 54.439L54.8355 54.3968L55.7792 54.3547L56.7228 54.3126L57.6664 54.2704L58.1306 54.2265L58.6091 54.2139L59.9612 54.8531L60.8267 55.4713L61.6923 56.0896L62.5578 56.7078L63.4234 57.326L64.2889 57.9443L65.1545 58.5625L66.0201 59.1808L66.8856 59.799L66.5718 63.8036L65.6205 64.2795L64.6693 64.7554L63.718 65.2313L62.7667 65.7072L61.8154 66.183L60.8641 66.6589L59.9128 67.1348L58.9615 67.6107L58.4968 68.1075L58.9753 68.0949L59.4394 68.051L58.5159 68.2491L57.5923 68.4472L56.6688 68.6453L55.7452 68.8434L54.8216 69.0415L53.8981 69.2396L52.9745 69.4377L52.2656 69.6051L52.4769 69.5686L52.6845 69.5268L51.7485 69.7309L50.8126 69.9351L49.8766 70.1392L48.9407 70.3434L48.0048 70.5475L47.0688 70.7516L46.1329 70.9557L45.1969 71.1599L44.261 71.364L43.4072 71.5499L43.4868 71.5313L43.5641 71.5124L42.5926 71.7469L41.6211 71.9814L40.6497 72.2158L39.6782 72.4503L38.7067 72.6848L37.7352 72.9193L36.7637 73.1537L35.7923 73.3882L34.8208 73.6227L33.8493 73.8571L32.8618 74.0956L32.8454 74.0996L32.8285 74.1037L31.8824 74.2779L30.9362 74.452L29.9901 74.6262L29.0439 74.8003L28.0978 74.9745L27.1516 75.1486L26.2055 75.3228L25.2593 75.4969L24.3132 75.6711L23.367 75.8452L22.4209 76.0193L21.4747 76.1935L20.5286 76.3676L19.5825 76.5418L18.6363 76.7159L17.5013 76.933L17.3096 76.9708L17.1155 77.0031L16.167 77.0789L15.2186 77.1547L14.2701 77.2305L13.3216 77.3063L12.3731 77.3821L11.4246 77.4579L10.4762 77.5337L9.52768 77.6095L8.5792 77.6853L7.63073 77.761L6.68225 77.8369L5.73377 77.9126L2.36133 67.2594L2.65346 67.8302L3.2862 69.0667L6.81429 73.9093Z" fill="black" style="fill:black;fill-opacity:1;"/>
<path d="M88.6493 12.0364L87.1597 11.1368L93.9252 15.8907L94.8268 14.9853L94.8445 15.3823L94.5248 16.281L94.205 17.1798L93.8853 18.0786L93.5655 18.9774L93.2458 19.8761L92.926 20.7749L93.0373 20.577L93.138 20.3819L92.9062 21.1272L92.5838 22.0641L92.2613 23.0009L91.9389 23.9378L91.6165 24.8747L91.2941 25.8116L90.9716 26.7484L90.998 26.6894L91.0249 26.6276L90.7386 27.4332L90.4248 28.3037L90.1111 29.1742L89.7973 30.0447L89.4836 30.9152L89.1698 31.7857L88.8561 32.6562L88.5424 33.5267L88.2286 34.3972L87.9149 35.2678L87.9198 35.256L87.9246 35.2444L87.5981 36.1402L87.267 37.0471L86.936 37.9541L86.6049 38.8611L86.2738 39.768L85.9428 40.6749L85.6117 41.5819L85.2807 42.4888L84.9496 43.3958L84.6185 44.3027L84.2875 45.2097L84.3036 45.1702L84.3195 45.1303L84.0015 45.9868L83.6676 46.8834L83.3338 47.78L82.9999 48.6766L82.6661 49.5733L82.3322 50.4699L81.9983 51.3665L81.6645 52.2631L81.3306 53.1597L80.9967 54.0563L80.6629 54.9529L80.329 55.8495L79.9951 56.7462L79.6613 57.6428L79.3274 58.5394L78.9936 59.436L78.6597 60.3326L78.6815 60.2762L78.7029 60.2196L78.3955 61.0639L78.0671 61.9647L77.7388 62.8656L77.4104 63.7664L77.082 64.6672L76.7537 65.5681L76.4253 66.4689L76.097 67.3698L75.7686 68.2706L75.8121 68.1486L75.856 68.0183L75.6427 68.7146L75.3851 69.5504L75.1274 70.3861L74.8698 71.2219L74.6121 72.0577L74.3545 72.8935L74.4674 72.4887L74.5599 72.0733L74.386 72.4865L74.1694 71.4106L62.6528 68.1245L61.832 69.4646L62.7109 68.8175L63.5676 68.2289L64.4739 67.5164L65.3802 66.8038L66.2865 66.0912L67.1929 65.3786L68.0992 64.666L69.0055 63.9535L69.9118 63.2409L70.1853 63.3462L70.3798 64.4825L70.5743 65.6189L70.7688 66.7553L70.9633 67.8917L71.1579 69.028L71.3524 70.1644L71.5469 71.3008L71.6917 72.5612L71.8589 73.7631L71.0381 75.1032L58.8105 73.0984L58.8322 70.3154L58.8965 69.0216L58.9891 68.6061L59.102 68.2014L59.3587 67.3653L59.6154 66.5292L59.872 65.6931L60.1287 64.857L60.3854 64.0209L60.6864 63.0453L60.7304 62.915L60.7738 62.793L61.1034 61.8926L61.4331 60.9922L61.7627 60.0919L62.0923 59.1915L62.422 58.2911L62.7516 57.3907L63.0812 56.4904L63.4108 55.59L63.7614 54.633L63.7828 54.5765L63.8046 54.5201L64.1679 53.635L64.5312 52.7499L64.8945 51.8648L65.2578 50.9797L65.621 50.0946L65.9843 49.2095L66.3476 48.3244L66.7109 47.4393L67.0742 46.5542L67.4375 45.6691L67.8008 44.784L68.164 43.8989L68.5273 43.0138L68.8906 42.1287L69.2539 41.2436L69.6172 40.3585L69.9963 39.4333L70.0123 39.3934L70.0284 39.3539L70.4303 38.4761L70.8322 37.5982L71.2341 36.7204L71.6359 35.8425L72.0378 34.9647L72.4397 34.0868L72.8416 33.209L73.2435 32.3311L73.6454 31.4532L74.0473 30.5754L74.4538 29.6863L74.4586 29.6748L74.4635 29.663L74.8607 28.8273L75.2579 27.9915L75.6551 27.1558L76.0523 26.3201L76.4494 25.4843L76.8466 24.6486L77.2439 23.8128L77.641 22.9771L78.0382 22.1414L78.4629 21.2407L78.4898 21.1789L78.5161 21.1198L79.0062 20.2587L79.4962 19.3976L79.9863 18.5365L80.4764 17.6754L80.9665 16.8143L81.4566 15.9532L82.0372 14.9005L82.1379 14.7053L82.2492 14.5074L82.8781 13.7902L83.507 13.0728L84.1359 12.3556L84.7648 11.6382L85.3938 10.921L86.0227 10.2037L86.9891 8.98459L87.8906 8.0791L94.6562 12.8331L88.6493 12.0364Z" fill="black" style="fill:black;fill-opacity:1;"/>
<path d="M89.7212 10.7482V9.67664V8.98389L93.4384 9.85294L94.0684 10.6124L94.6984 11.3719L95.3284 12.1313L95.9583 12.8908L96.5883 13.6502L97.2183 14.4097L97.8483 15.1692L98.4783 15.9286L99.1082 16.6881L99.7382 17.4475L100.368 18.207L100.998 18.9665L101.628 19.7259L102.258 20.4854L102.888 21.2448L103.518 22.0043L104.148 22.7637L104.419 23.1946L104.655 23.6542L105.239 25.0248L105.627 25.9166L106.014 26.8084L106.402 27.7003L106.789 28.5921L107.177 29.4839L107.564 30.3757L107.952 31.2675L108.339 32.1593L108.405 32.3516L108.465 32.5432L108.79 33.6877L109.062 34.6419L109.334 35.5962L109.606 36.5505L109.879 37.5047L110.151 38.459L110.423 39.4132L110.696 40.3675L110.968 41.3217L111.016 41.5195L111.059 41.7213L111.254 42.887L111.411 43.8471L111.569 44.8072L111.726 45.7672L111.884 46.7273L112.041 47.6874L112.199 48.6475L112.356 49.6076L112.513 50.5677L112.671 51.5277L112.828 52.4879L112.986 53.4479L113.02 53.6833L113.046 53.9161L113.074 55.144L113.085 56.1423L113.095 57.1407L113.106 58.139L113.116 59.1374L113.127 60.1357L113.138 60.4671L113.132 60.8119L112.777 62.0833L112.448 62.9987L112.119 63.9142L111.79 64.8296L111.461 65.7451L111.258 66.7545L110.831 67.7674L109.006 68.8197L107.797 68.9841L106.587 69.1485L105.378 69.3128L102.275 66.6568L102.251 65.4364L102.228 64.216L102.204 62.9956L101.565 62.6631L101.137 63.6761L100.935 64.6855L100.795 63.7228L100.655 62.7601L100.515 61.7975L100.375 60.8348L100.209 60.2281L100.203 60.5728L100.214 60.9042L100.106 59.9117L99.9979 58.9191L99.8899 57.9266L99.782 56.9341L99.674 55.9415L99.5836 55.1785L99.6095 55.4113L99.644 55.6467L99.4851 54.6868L99.3261 53.727L99.1671 52.7672L99.0082 51.8073L98.8492 50.8475L98.6903 49.8877L98.5313 48.9278L98.3724 47.968L98.2134 47.0081L98.0545 46.0483L97.8955 45.0885L97.7737 44.3342L97.8166 44.5361L97.8649 44.7338L97.6372 43.7679L97.4095 42.802L97.1819 41.8362L96.9542 40.8703L96.7265 39.9044L96.4988 38.9385L96.2711 37.9726L96.0434 37.0067L95.8684 36.2311L95.9276 36.4227L95.9937 36.615L95.7223 35.6813L95.4509 34.7476L95.1796 33.8138L94.9082 32.8802L94.6368 31.9464L94.3654 31.0127L94.094 30.079L93.8227 29.1453L93.7478 28.6904L93.9845 29.15L94.2552 29.5809L93.7699 28.7217L93.2845 27.8626L92.7991 27.0035L92.3138 26.1444L91.8284 25.2853L91.343 24.4262L90.8576 23.5671L90.3723 22.708L89.8869 21.8489L89.4015 20.9898L88.9161 20.1307L88.4308 19.2716L87.9454 18.4125L87.46 17.5534L86.9747 16.6943L86.4893 15.8351L86.0039 14.976L89.7212 15.8451V15.1523V10.7482Z" fill="black" style="fill:black;fill-opacity:1;"/>
<path d="M78.2247 48.7139V47.951V46.623L72.5359 50.4076L72.5041 49.4151L72.4723 48.4226L72.4404 47.4302L73.1105 45.463L74.9681 43.3336L78.2486 42.0126L79.0345 41.7839L79.8205 41.5551L80.6064 41.3263L80.8799 41.2778L81.1195 41.245L82.3217 41.093L83.3132 40.9627L84.3047 40.8324L85.2961 40.7021L86.2876 40.5717L86.3202 40.569L86.353 40.5664L87.3729 40.4823L88.3597 40.4007L89.3466 40.3191L90.3335 40.2375L91.3203 40.1559L92.3072 40.0742L92.3874 40.0689L92.4684 40.0645L93.526 40.057L94.5015 40.0529L95.477 40.0488L96.4526 40.0448L97.4281 40.0407L98.4037 40.0366L99.3792 40.0325L100.355 40.0285L101.33 40.0244L101.407 40.022L101.488 40.0205L102.481 40.4134L103.39 40.8068L104.299 41.2003L105.208 41.5937L106.117 41.9871L107.026 42.3805L107.934 42.774L108.843 43.1674L109.752 43.5608V49.7445L108.843 50.138L107.934 50.5314L107.026 50.9248L106.117 51.3183L105.208 51.7117L104.299 52.1051L103.39 52.4985L102.481 52.892L101.657 53.2849L101.738 53.2833L101.814 53.281L100.841 53.3481L99.868 53.4152L98.8948 53.4823L97.9215 53.5494L96.9483 53.6165L95.9751 53.6836L95.0018 53.7507L94.0286 53.8178L93.1373 53.8814L93.2184 53.877L93.2986 53.8717L92.3102 53.932L91.3218 53.9924L90.3334 54.0527L89.345 54.113L88.3566 54.1733L87.4012 54.2311L87.434 54.2285L87.4666 54.2258L86.4674 54.2674L85.4683 54.3089L84.4691 54.3505L83.47 54.392L82.6816 54.412L82.9211 54.3791L83.1946 54.3306L82.381 54.4202L81.5673 54.5098L80.7536 54.5994L82.4345 53.5967L84.2921 51.4674L84.9622 49.5002L84.6126 50.4296L84.2631 51.359L83.9135 52.2884L78.2247 56.0729V54.745V48.7139Z" fill="black" style="fill:black;fill-opacity:1;"/>
<path d="M145.414 16.0304L144.027 17.5214L146.511 19.2577L147.09 19.1669L146.987 19.3529L146.143 19.7605L145.299 20.168L144.455 20.5756L143.611 20.9832L142.767 21.3907L141.923 21.7983L141.079 22.2058L140.235 22.6134L139.391 23.021L138.547 23.4285L137.702 23.8361L136.858 24.2437L136.014 24.6512L136.275 24.5442L136.535 24.4229L136.023 24.7764L135.254 25.2652L134.484 25.7541L133.714 26.2429L132.944 26.7318L132.175 27.2206L131.405 27.7094L131.667 27.556L131.921 27.3908L131.445 27.7817L130.725 28.3481L130.006 28.9146L129.286 29.481L128.566 30.0475L127.846 30.614L128.652 29.8965L129.38 28.9831L129.6 28.7104L129.252 29.4872L128.905 30.2638L128.557 31.0405L128.21 31.8172L127.863 32.5939L128.354 30.7188L128.257 28.686L128.034 27.826L128.406 28.6481L128.779 29.4703L129.152 30.2924L128.589 29.3957L127.875 28.5953L127.828 28.4832L128.58 29.0151L129.333 29.547L130.086 30.0789L130.839 30.6109L131.591 31.1428L132.344 31.6747L132.173 31.5623L132.001 31.4573L132.653 31.8212L133.478 32.2827L134.303 32.7441L135.128 33.2057L135.953 33.6671L136.778 34.1286L137.603 34.5901L138.428 35.0516L138.576 35.135L138.719 35.2209L139.67 35.8424L140.482 36.3759L141.295 36.9093L142.107 37.4428L142.92 37.9763L143.732 38.5098L144.545 39.0432L145.115 39.4666L145.635 39.9548L146.674 41.2774L147.262 42.0675L147.85 42.8575L148.438 43.6476L149.026 44.4377L149.615 45.2277L150.203 46.0178L150.791 46.8079L151.375 47.7497L151.79 48.8179L152.14 50.8821L152.285 51.8586L152.429 52.8351L152.573 53.8115L152.718 54.788L152.747 55.463L152.698 56.1895L152.459 57.8436L152.361 58.7445L152.263 59.6454L152.165 60.5463L152.067 61.4472L151.969 62.3481L151.559 63.5345L150.959 64.6109L149.657 66.2694L149.067 67.037L148.478 67.8046L147.889 68.5722L147.299 69.3398L146.71 70.1073L146.121 70.8749L145.498 71.4665L144.804 71.9934L143.241 72.9331L142.419 73.4305L141.597 73.9278L140.776 74.4252L139.954 74.9226L139.132 75.42L138.311 75.9174L137.489 76.4147L136.667 76.9121L135.846 77.4095L135.024 77.9069L134.202 78.4043L133.445 78.7548L132.661 79.0279L130.914 79.4184L129.953 79.6173L128.993 79.8162L128.032 80.015L127.072 80.2139L126.111 80.4128L125.151 80.6117L124.19 80.8106L123.765 80.882L123.315 80.9339L121.927 80.9896L121.012 81.0164L120.098 81.0431L119.183 81.0699L118.268 81.0967L117.353 81.1234L116.439 81.1502L116.345 81.1529L116.249 81.1545L115.262 81.0261L114.374 80.8972L113.485 80.7682L112.596 80.6393L111.207 80.5187L109.187 79.8834L106.975 77.2196L107.192 76.3012L105.694 73.7507L105.478 70.843L108.503 69.3828L110.907 69.8593L114.051 71.4468L115.862 73.099L118.293 72.8146L118.077 69.9069L116.579 67.3564L117.507 67.1841L116.005 65.2664L113.986 64.6311L112.596 64.5105L113.485 64.3816L114.374 64.2526L115.262 64.1237L116.053 63.9953L115.957 63.9969L115.863 63.9996L116.778 63.965L117.692 63.9303L118.607 63.8957L119.521 63.8611L120.436 63.8265L121.35 63.7919L121.792 63.7862L121.342 63.8381L120.916 63.9095L121.882 63.7354L122.847 63.5612L123.812 63.387L124.777 63.2129L125.743 63.0387L126.708 62.8645L127.673 62.6904L127.852 62.7078L127.068 62.981L126.311 63.3315L127.187 62.9395L128.064 62.5475L128.941 62.1556L129.818 61.7637L130.695 61.3717L131.572 60.9798L132.449 60.5879L133.326 60.1959L134.203 59.804L135.079 59.412L135.956 59.0201L136.092 59.0704L135.397 59.5974L134.775 60.1889L135.506 59.5547L136.237 58.9205L136.968 58.2863L137.699 57.6521L138.43 57.0179L139.161 56.3837L139.179 56.6404L138.579 57.7168L138.169 58.9032L138.506 58.062L138.843 57.2206L139.179 56.3794L139.516 55.5381L139.853 54.6968L140.049 54.6087L140.001 55.3353L140.03 56.0103L139.985 55.0242L139.94 54.0382L139.896 53.0521L139.851 52.0661L140.011 52.1678L140.427 53.236L141.011 54.1779L140.414 53.3947L139.816 52.6115L139.219 51.8283L138.622 51.0451L138.024 50.262L137.427 49.4788L136.829 48.6956L136.683 48.4449L137.203 48.9332L137.773 49.3565L136.96 48.823L136.148 48.2896L135.335 47.7561L134.523 47.2226L133.71 46.6891L132.898 46.1556L132.223 45.7101L132.366 45.796L132.514 45.8794L131.68 45.4347L130.846 44.9899L130.012 44.5451L129.178 44.1004L128.343 43.6556L127.509 43.2109L126.675 42.7661L125.669 42.2237L125.496 42.1187L125.325 42.0063L124.553 41.5025L123.781 40.9987L123.01 40.495L122.238 39.9911L121.466 39.4874L120.694 38.9836L119.122 37.8357L118.408 37.0353L117.845 36.1386L117.39 35.3592L116.935 34.5798L116.479 33.8004L115.428 31.3388L115.33 29.306L115.822 27.4309L116.145 26.6438L116.468 25.8567L116.792 25.0695L117.115 24.2824L117.438 23.4953L118.328 21.6588L119.056 20.7455L119.862 20.028L120.604 19.4916L121.347 18.9552L122.089 18.4188L122.832 17.8824L123.574 17.346L124.561 16.6339L124.815 16.4688L125.077 16.3153L125.898 15.9203L126.72 15.5252L127.542 15.1301L128.364 14.735L129.186 14.3399L130.007 13.9449L131.087 13.4143L131.348 13.2931L131.608 13.186L132.508 12.9234L133.408 12.6608L134.307 12.3981L135.207 12.1355L136.107 11.8729L137.007 11.6102L137.906 11.3476L138.806 11.085L139.706 10.8223L140.606 10.5597L141.506 10.297L142.405 10.0344L143.305 9.77176L144.947 9.28754L145.525 9.19678L148.009 10.9331L145.414 16.0304Z" fill="black" style="fill:black;fill-opacity:1;"/>
<path d="M163.473 16.254L162.028 17.1423L161.329 17.918L166.296 10.1416L167.004 10.5319L167.928 10.7681L168.851 11.0042L169.774 11.2404L169.966 11.3733L170.145 11.5076L171.143 12.1458L171.975 12.6492L172.808 13.1526L173.64 13.656L174.472 14.1594L174.552 14.2278L174.631 14.297L175.474 14.9652L176.241 15.5633L177.007 16.1614L177.774 16.7596L178.54 17.3577L179.307 17.9558L179.409 18.0524L179.516 18.1574L180.273 18.8763L180.92 19.4811L181.566 20.086L182.212 20.6909L182.859 21.2957L183.505 21.9006L184.151 22.5054L184.163 22.5176L184.174 22.5292L184.843 23.227L185.502 23.9138L186.161 24.6005L186.819 25.2872L187.478 25.974L188.137 26.6607L188.213 26.7433L188.294 26.8329L188.924 27.5967L189.469 28.2635L190.015 28.9302L190.56 29.5969L191.106 30.2637L191.651 30.9304L192.197 31.5971L192.491 32.5441L192.18 32.8689L188.201 33.1328L184.032 35.5948L184.866 35.1569L185.367 35.5954L191.762 37.0147L191.908 39.0548L192.386 40.2185L188.216 42.6804L183.293 42.7334L181.798 41.6714L180.909 41.2318L180.336 40.5882L179.763 39.9446L179.19 39.3011L178.617 38.6576L178.045 38.0141L177.472 37.3705L176.984 36.8241L177.064 36.9136L177.14 36.9963L176.496 36.2963L175.851 35.5963L175.206 34.8963L174.562 34.1964L173.917 33.4964L173.283 32.8075L173.294 32.8191L173.305 32.8313L172.733 32.156L172.161 31.4807L171.588 30.8054L171.016 30.1302L170.444 29.4549L169.871 28.7796L169.41 28.2184L169.516 28.3233L169.619 28.42L168.964 27.7017L168.308 26.9834L167.653 26.2651L166.998 25.5468L166.342 24.8285L165.764 24.1803L165.842 24.2495L165.922 24.3179L165.284 23.5838L164.646 22.8497L164.008 22.1156L163.37 21.3815L162.898 20.7822L163.077 20.9165L163.269 21.0494L162.692 20.2908L162.115 19.5321L161.539 18.7735L162.247 19.1638L167.214 11.3875L166.515 12.1631L163.473 16.254Z" fill="black" style="fill:black;fill-opacity:1;"/>
<path d="M205.034 3.48001L204.615 1.98276L204.411 1.64551L203.836 0.694824L212.078 5.71677L212.09 6.62314L212.102 7.52954L212.114 8.43591L212.126 9.34229L212.138 10.2487L212.15 11.1551L212.161 12.0614L212.071 12.5385L211.95 12.9994L211.564 14.3383L211.326 15.2383L211.089 16.1384L210.851 17.0384L210.614 17.9385L210.376 18.8385L210.138 19.7386L209.901 20.6386L209.841 20.7912L209.78 20.9397L209.373 21.9753L209.03 22.8667L208.686 23.7581L208.343 24.6494L208 25.5408L207.656 26.4322L207.313 27.3236L206.969 28.215L206.626 29.1064L206.282 29.9977L205.939 30.8891L205.595 31.7805L205.252 32.6719L205.198 32.7892L205.143 32.9042L204.673 33.895L204.259 34.7729L203.845 35.6507L203.431 36.5286L203.017 37.4064L202.603 38.2843L202.189 39.1621L201.775 40.04L201.361 40.9178L200.947 41.7957L200.533 42.6735L200.119 43.5514L199.706 44.4292L199.292 45.3071L198.878 46.1849L198.464 47.0628L198.05 47.9406L197.636 48.8185L197.222 49.6964L196.808 50.5742L196.394 51.452L195.98 52.3299L195.566 53.2077L195.152 54.0856L194.738 54.9634L194.324 55.8413L193.91 56.7191L193.882 56.7745L193.854 56.8289L193.375 57.7658L192.925 58.6492L192.475 59.5327L192.025 60.4161L191.575 61.2996L191.125 62.183L190.675 63.0665L190.225 63.95L189.775 64.8334L189.325 65.7169L188.875 66.6003L188.425 67.4837L187.975 68.3672L187.525 69.2506L187.074 70.1341L187.079 70.1251L187.084 70.1156L186.666 70.9243L186.243 71.743L185.82 72.5616L185.397 73.3803L184.974 74.1989L184.551 75.0176L184.128 75.8362L183.704 76.6549L183.281 77.4735L182.858 78.2922L182.435 79.1108L182.444 79.0929L182.454 79.0752L182.031 79.8947L181.599 80.7316L181.168 81.5685L180.736 82.4055L180.304 83.2424L179.872 84.0793L179.853 84.1159L179.832 84.1551L179.407 84.9435L179.004 85.6901L178.601 86.4367L178.199 87.1833L177.796 87.9298L177.835 87.8565L177.872 87.7845L177.289 88.3833L176.67 89.0528L175.176 91.1091L174.095 92.272L161.995 83.9917L162.312 82.6733L163.829 82.0517L165.424 81.2747L166.84 80.908L168.256 80.5414L171.896 82.3113L172.483 83.6517L173.069 84.9921L173.834 85.9221L174.52 87.0076L174.837 85.6891L162.503 79.3307L161.422 80.4936L160.72 80.9848L160.892 80.0892L161.101 79.1229L161.138 79.0509L161.177 78.9776L161.579 78.2304L161.981 77.4832L162.383 76.7361L162.785 75.9889L163.164 75.2836L163.143 75.3227L163.124 75.3593L163.562 74.5257L164 73.692L164.438 72.8584L164.876 72.0247L165.314 71.1911L165.762 70.34L165.771 70.3223L165.78 70.3044L166.219 69.4938L166.657 68.6832L167.095 67.8726L167.534 67.062L167.972 66.2513L168.41 65.4407L168.849 64.6301L169.287 63.8195L169.726 63.0089L170.164 62.1983L170.608 61.3777L170.613 61.3683L170.617 61.3593L171.1 60.4932L171.583 59.6272L172.066 58.7612L172.548 57.8951L173.031 57.0291L173.514 56.1631L173.997 55.2971L174.479 54.431L174.962 53.565L175.445 52.699L175.928 51.8329L176.41 50.9669L176.893 50.1009L177.376 49.2348L177.83 48.4222L177.802 48.4766L177.774 48.532L178.238 47.6795L178.701 46.8271L179.165 45.9746L179.629 45.1221L180.093 44.2697L180.557 43.4172L181.021 42.5647L181.485 41.7122L181.949 40.8598L182.413 40.0073L182.877 39.1548L183.341 38.3023L183.805 37.4499L184.269 36.5974L184.733 35.7449L185.197 34.8925L185.661 34.04L186.125 33.1875L186.589 32.335L187.053 31.4825L187.517 30.6301L187.981 29.7776L188.445 28.9251L188.909 28.0727L189.373 27.2202L189.836 26.3677L190.244 25.6282L190.189 25.7433L190.135 25.8605L190.575 25.0127L191.016 24.1649L191.456 23.3171L191.896 22.4693L192.336 21.6215L192.776 20.7737L193.217 19.9259L193.657 19.0781L194.097 18.2303L194.537 17.3825L194.977 16.5347L195.418 15.687L195.795 14.9834L195.733 15.1318L195.674 15.2845L196.089 14.4511L196.503 13.6177L196.918 12.7844L197.333 11.951L197.748 11.1176L198.162 10.2843L198.577 9.45093L198.844 9.05649L198.722 9.51733L198.632 9.99442L198.914 9.13293L199.196 8.27145L199.478 7.40997L199.76 6.54852L200.042 5.68704L200.324 4.82556L200.606 3.96408L208.848 8.98602L208.273 8.03534L208.069 7.69809L205.034 3.48001Z" fill="black" style="fill:black;fill-opacity:1;"/>
<path d="M260.107 11.8226L258.953 11.5225L259.399 14.5934L259.102 15.3619L264.634 14.274L265.037 13.6208L265.191 14.1212L265.519 13.968L265.529 14.7601L265.538 15.5523L265.533 15.5764L265.527 15.5998L265.453 16.436L265.385 17.2495L265.316 18.063L265.312 18.0777L265.309 18.0904L265.135 19.0815L264.963 20.0614L264.792 21.0414L264.62 22.0213L264.449 23.0012L264.277 23.9811L264.106 24.9611L263.934 25.941L263.762 26.9209L263.591 27.9008L263.419 28.8808L263.431 28.8357L263.442 28.7904L263.265 29.7144L263.077 30.6839L262.89 31.6534L262.702 32.6229L262.514 33.5924L262.326 34.5619L262.138 35.5314L261.951 36.501L261.763 37.4705L261.575 38.44L261.387 39.4095L261.199 40.379L261.012 41.3485L260.824 42.3181L260.831 42.2881L260.838 42.2563L260.675 43.1054L260.504 43.9886L260.333 44.8717L260.162 45.7548L259.991 46.6379L259.82 47.5211L259.649 48.4042L259.478 49.2873L259.307 50.1704L259.332 50.0532L259.357 49.9326L259.234 50.6631L259.087 51.5174L258.941 52.3717L258.795 53.226L258.648 54.0803L258.502 54.9346L258.355 55.7889L258.384 55.6222L258.409 55.451L258.318 56.1056L258.206 56.9356L258.094 57.7657L257.982 58.5958L257.881 59.3209L257.885 59.2767L257.049 58.3829L242.527 57.35L243.431 56.7636L244.292 56.4157L244.33 56.2049L244.369 56.0243L245.541 55.1956L246.674 54.5228L247.808 53.85L248.942 53.1772L252.875 54.2061L253.534 55.3478L254.193 56.4894L254.852 57.6311L255.549 58.6169L255.588 58.4363L255.626 58.2255L256.249 59.3698L256.915 60.2755L242.392 59.2426L241.557 57.7082L241.561 57.664L241.651 56.725L241.729 55.8911L241.807 55.0571L241.886 54.2231L241.986 53.2136L242.011 53.0424L242.039 52.8757L242.198 52.0235L242.356 51.1714L242.514 50.3192L242.673 49.467L242.831 48.6149L242.989 47.7627L243.171 46.7867L243.195 46.6661L243.221 46.5489L243.445 45.6776L243.669 44.8064L243.892 43.9352L244.116 43.064L244.34 42.1928L244.564 41.3216L244.788 40.4504L245.012 39.5792L245.244 38.674L245.251 38.6421L245.258 38.6122L245.528 37.662L245.797 36.7119L246.066 35.7618L246.335 34.8117L246.604 33.8615L246.874 32.9114L247.143 31.9613L247.412 31.0112L247.681 30.061L247.951 29.1109L248.22 28.1608L248.489 27.2107L248.758 26.2605L249.039 25.2649L249.05 25.2195L249.061 25.1744L249.385 24.2339L249.71 23.2934L250.034 22.3529L250.358 21.4124L250.682 20.4718L251.006 19.5313L251.331 18.5908L251.655 17.6502L251.979 16.7097L252.303 15.7692L252.625 14.8398L252.621 14.8525L252.618 14.8672L252.942 14.1183L253.267 13.3693L253.587 12.6429L253.581 12.6663L253.575 12.6904L253.942 11.9885L254.309 11.2865L254.995 9.63907L255.507 8.64539L255.909 7.99213L262.621 6.26367L262.324 7.03217L262.77 10.103L260.107 11.8226Z" fill="black" style="fill:black;fill-opacity:1;"/>
<path d="M260.258 13.9262L259.365 14.6572L258.077 10.9507L257.555 10.3609L261.329 8.33673L261.513 8.36258L262.405 8.26236L263.497 8.20718L264.316 8.09503L264.061 8.04092L263.811 7.99939L264.385 7.87289L265.203 7.77606L266.022 7.67926L266.84 7.58246L266.61 7.5636L266.396 7.55344L267.098 7.43991L267.999 7.32944L268.9 7.21896L269.8 7.10849L270.701 6.99802L270.655 6.99817L270.609 6.99863L271.45 6.93192L272.338 6.86444L273.226 6.79697L274.113 6.72946L275.001 6.66199L275.889 6.59451L275.407 6.6199L274.959 6.67242L275.506 6.5408L276.468 6.33536L277.43 6.12994L278.392 5.92453L279.353 5.71909L280.315 5.51367L281.277 5.30826L282.239 5.10281L282.408 5.06979L282.577 5.04077L283.741 5.01007L284.736 5.00436L285.73 4.99866L286.725 4.99295L286.978 4.96335L287.281 4.94043L288.398 5.474L289.149 6.01733L289.9 6.56067L290.373 13.147L289.9 16.9872L289.149 17.5305L288.398 18.0739L288.012 18.6074L288.315 18.5845L288.568 18.5549L287.608 18.8148L286.647 19.0747L285.687 19.3347L284.896 19.5696L285.065 19.5406L285.234 19.5075L284.27 19.7025L283.306 19.8975L282.342 20.0924L281.378 20.2874L280.414 20.4824L279.45 20.6773L278.486 20.8723L277.108 21.1411L276.659 21.1936L276.178 21.219L275.288 21.1866L274.399 21.1543L273.509 21.122L272.619 21.0897L271.73 21.0573L270.793 21.0258L270.747 21.0262L270.701 21.0264L269.8 20.9159L268.9 20.8055L267.999 20.695L267.098 20.5845L265.999 20.471L265.785 20.4608L265.554 20.442L264.771 20.185L263.988 19.928L263.205 19.6711L262.178 19.3844L261.928 19.3429L261.673 19.2888L260.991 18.8224L260.584 18.4131L259.976 17.9587L260.159 17.9846L262.512 15.9604L261.99 15.3706L260.701 11.6641L260.258 13.9262Z" fill="black" style="fill:black;fill-opacity:1;"/>
<path d="M253.641 37.5258L253.603 39.5796L253.788 40.4076L254.018 41.4386L252.869 32.4242L253.81 32.2463L254.751 32.0685L255.692 31.8907L256.634 31.7129L257.575 31.5351L258.516 31.3572L259.457 31.1794L260.399 31.0016L260.241 31.0125L260.079 31.0279L260.795 30.822L261.678 30.5957L262.561 30.3694L263.444 30.1431L264.328 29.9168L265.211 29.6905L266.094 29.4641L266.092 29.4643L266.091 29.4645L266.96 29.3183L267.83 29.1718L268.7 29.0254L269.571 28.8789L270.441 28.7324L271.311 28.586L272.182 28.4395L273.052 28.293L273.106 28.2859L273.158 28.2793L274.139 28.1664L275.071 28.0594L276.002 27.9524L276.933 27.8454L277.865 27.7383L278.796 27.6313L279.727 27.5243L279.908 27.506L280.082 27.4927L281.25 27.6329L282.251 27.782L283.251 27.931L284.251 28.08L285.252 28.229L286.252 28.378L287.252 28.527L288.253 28.6761L288.669 28.6747L289.12 28.7083L290.217 30.192L290.835 31.5993L291.452 33.0066L290.716 36.6196L289.596 37.6728L288.477 38.726L287.837 39.8554L288.288 39.889L288.705 39.8877L287.72 40.1168L286.735 40.3459L285.75 40.575L284.765 40.804L283.78 41.0331L282.794 41.2622L281.809 41.4913L280.992 41.7117L281.167 41.6984L281.347 41.68L280.416 41.7862L279.484 41.8923L278.553 41.9985L277.622 42.1046L276.69 42.2108L275.759 42.317L274.877 42.4172L274.929 42.4107L274.983 42.4035L274.106 42.4963L273.228 42.5891L272.35 42.6819L271.473 42.7747L270.595 42.8675L269.717 42.9603L268.84 43.053L267.96 43.1461L267.959 43.1463L267.957 43.1465L267.046 43.1646L266.134 43.1827L265.223 43.2008L264.311 43.2189L263.4 43.237L262.488 43.2551L261.41 43.2936L261.247 43.3091L261.09 43.3199L260.135 43.2485L259.18 43.1772L258.224 43.1058L257.269 43.0344L256.314 42.963L255.359 42.8917L254.403 42.8203L253.448 42.7489L252.299 33.7345L252.529 34.7655L252.714 35.5935L253.641 37.5258Z" fill="black" style="fill:black;fill-opacity:1;"/>
<path d="M245.217 57.8636L246.068 59.2868L246.633 59.9126L246.421 52.4584L244.733 51.8647L245.636 51.8027L246.538 51.7408L247.441 51.6788L248.343 51.6169L249.246 51.5549L250.148 51.493L249.858 51.4525L249.573 51.4259L250.205 51.3064L251.118 51.2003L252.03 51.0944L252.942 50.9884L253.854 50.8824L254.767 50.7764L255.679 50.6704L256.591 50.5644L257.504 50.4584L257.436 50.4569L257.37 50.4561L258.255 50.4178L259.203 50.3799L260.151 50.342L261.099 50.3041L262.047 50.2661L262.995 50.2282L263.943 50.1903L263.614 50.1973L263.293 50.2175L263.965 50.1249L264.947 50.0002L265.929 49.8753L266.911 49.7505L267.893 49.6257L268.875 49.5009L269.856 49.3761L269.841 49.378L269.826 49.38L270.747 49.308L271.684 49.2339L272.622 49.1598L273.56 49.0857L274.497 49.0116L275.435 48.9375L276.372 48.8634L276.545 48.8429L276.721 48.8262L277.826 48.9671L278.751 49.1208L279.675 49.2745L280.6 49.4282L281.525 49.5819L282.449 49.7356L283.374 49.8893L284.299 50.0429L285.223 50.1966L286.148 50.3503L286.778 61.0887L285.877 61.3494L284.977 61.6101L284.077 61.8709L283.176 62.1316L282.276 62.3923L281.376 62.653L280.475 62.9138L279.575 63.1745L278.674 63.4352L277.954 63.6832L278.13 63.6664L278.303 63.6459L277.378 63.8151L276.453 63.9843L275.528 64.1535L274.603 64.3227L273.677 64.4919L272.752 64.6611L271.811 64.8325L271.795 64.8344L271.78 64.8363L270.798 64.956L269.815 65.0756L268.833 65.1952L267.85 65.3148L266.868 65.4344L265.885 65.554L264.593 65.7059L264.273 65.7261L263.943 65.7331L262.995 65.6952L262.047 65.6573L261.099 65.6193L260.151 65.5814L259.203 65.5435L258.255 65.5056L257.243 65.4673L257.177 65.4665L257.109 65.465L256.204 65.3113L255.299 65.1575L254.393 65.0038L253.488 64.8501L252.582 64.6963L251.677 64.5426L250.771 64.3889L249.866 64.2351L248.681 64.0678L248.395 64.0412L248.106 64.0007L247.27 63.6549L246.434 63.3091L245.598 62.9633L244.762 62.6175L243.926 62.2717L243.09 61.9259L241.403 61.3322L241.191 53.878L241.756 54.5038L245.217 57.8636Z" fill="black" style="fill:black;fill-opacity:1;"/>
<path d="M301.991 15.1049L301.647 14.2356L300.686 13.1499L304.031 11.4331L305.318 11.9355L306.207 12.0965L307.095 12.2575L307.984 12.4185L308.873 12.5796L309.761 12.7406L310.163 12.9959L310.547 13.2843L311.623 14.0761L312.342 14.5518L313.061 15.0274L313.78 15.503L314.499 15.9787L315.217 16.4543L315.315 16.5498L315.407 16.6425L316.187 17.3313L316.881 17.9301L317.576 18.5289L318.271 19.1277L318.965 19.7265L319.66 20.3253L320.354 20.9241L321.049 21.5229L321.243 21.7391L321.423 21.9549L322.198 22.9139L322.807 23.6587L323.415 24.4036L324.024 25.1484L324.632 25.8933L325.241 26.6382L325.85 27.383L326.458 28.1278L327.067 28.8727L327.676 29.6176L328.284 30.3624L328.893 31.1073L329.501 31.8521L330.11 32.597L330.29 32.8473L330.464 33.1086L331.113 34.1852L331.596 34.9905L332.079 35.7959L332.562 36.6012L333.045 37.4065L333.528 38.2118L334.012 39.0171L334.495 39.8224L334.978 40.6277L335.461 41.433L335.552 41.5927L335.638 41.7512L336.154 42.7734L336.589 43.6387L337.023 44.504L337.458 45.3693L337.893 46.2346L338.328 47.0999L338.762 47.9652L339.197 48.8305L339.632 49.6958L339.713 49.8619L339.791 50.0309L340.238 51.0869L340.61 51.9712L340.982 52.8554L341.354 53.7397L341.726 54.624L342.098 55.5082L342.469 56.3925L342.467 56.3861L342.464 56.3799L342.815 57.2934L343.168 58.213L343.521 59.1327L343.874 60.0524L344.017 60.412L344.184 60.9117L344.078 62.3099L343.789 62.9788L343.67 66.4492L329.628 67.4189L329.823 65.8337L330.195 64.6998L330.568 63.5659L330.94 62.432L331.312 61.2981L331.685 60.1642L337.476 58.1024L338.481 58.7458L339.486 59.3893L340.491 60.0327L341.496 60.6761L342.502 61.3196L343.329 61.5117L329.287 62.4814L329.168 65.9518L328.641 65.4489L328.296 65.6751L328.464 66.1748L328.607 66.5345L328.19 65.6416L327.774 64.7488L327.358 63.856L326.939 62.957L326.936 62.9507L326.933 62.9444L326.56 62.0608L326.186 61.1772L325.813 60.2936L325.439 59.41L325.065 58.5264L324.692 57.6428L324.393 56.9309L324.471 57.0999L324.552 57.266L324.118 56.4004L323.684 55.5348L323.25 54.6692L322.815 53.8036L322.381 52.938L321.947 52.0724L321.513 51.2068L321.079 50.3412L320.725 49.6325L320.811 49.791L320.902 49.9507L320.437 49.1349L319.972 48.3192L319.507 47.5034L319.041 46.6876L318.576 45.8718L318.111 45.056L317.646 44.2402L317.18 43.4244L316.715 42.6086L316.416 42.0642L316.589 42.3255L316.769 42.5758L316.227 41.7816L315.684 40.9874L315.141 40.1932L314.599 39.399L314.056 38.6048L313.514 37.8106L312.971 37.0164L312.428 36.2221L311.886 35.4279L311.343 34.6337L310.8 33.8395L310.258 33.0453L309.715 32.2511L309.339 31.6711L309.519 31.8868L309.713 32.1031L309.164 31.3688L308.614 30.6346L308.065 29.9004L307.515 29.1662L306.965 28.432L306.416 27.6978L305.866 26.9636L305.402 26.3193L305.494 26.4121L305.592 26.5075L305.085 25.81L304.579 25.1125L304.072 24.4149L303.566 23.7174L303.06 23.0198L302.911 22.6385L303.294 22.9268L303.696 23.1822L303.116 22.4901L302.536 21.798L301.956 21.1059L301.376 20.4138L300.796 19.7217L302.082 20.2241L305.428 18.5073L304.467 17.4216L301.991 15.1049Z" fill="black" style="fill:black;fill-opacity:1;"/>
<path d="M337.448 11.9077L337.5 10.7674L336.885 9.41403L343.152 15.0369L342.038 16.6232L341.482 17.3747L340.927 18.1262L340.371 18.8777L339.815 19.6291L339.26 20.3806L339.434 20.2052L339.601 20.022L339.26 20.6085L338.759 21.3851L338.258 22.1617L337.756 22.9383L337.255 23.7149L336.754 24.4915L336.253 25.2681L336.235 25.2909L336.217 25.3127L335.635 26.1225L335.07 26.9111L334.505 27.6998L333.94 28.4884L333.375 29.2771L332.81 30.0658L332.245 30.8544L331.68 31.6431L331.115 32.4317L330.55 33.2204L330.534 33.2402L330.517 33.2603L329.92 34.0234L329.339 34.7661L328.759 35.5089L328.178 36.2516L327.598 36.9943L327.017 37.737L326.437 38.4798L325.857 39.2225L325.276 39.9652L324.696 40.7079L324.115 41.4507L323.535 42.1934L322.954 42.9361L322.374 43.6788L321.793 44.4216L321.213 45.1643L321.248 45.1224L321.282 45.0809L320.729 45.8005L320.143 46.5614L319.556 47.3223L318.97 48.0833L318.383 48.8441L317.796 49.6051L317.21 50.366L316.623 51.1269L316.037 51.8878L315.45 52.6487L314.864 53.4096L314.277 54.1705L313.69 54.9315L313.104 55.6924L312.517 56.4533L311.931 57.2142L311.344 57.9751L310.757 58.736L310.171 59.4969L309.584 60.2578L308.998 61.0187L309.119 60.865L309.24 60.7041L308.845 61.3022L308.33 62.0684L307.815 62.8345L307.3 63.6007L306.784 64.3669L306.269 65.1331L305.754 65.8993L305.239 66.6654L304.724 67.4316L304.779 67.3515L304.83 67.275L304.339 68.0416L303.8 68.8814L303.26 69.7213L302.721 70.5611L302.182 71.4009L301.643 72.2407L301.103 73.0805L301.174 72.9698L301.245 72.8539L300.835 73.5456L300.353 74.3587L299.875 75.1649L299.877 75.1618L300.07 72.1701L286.595 66.3664L287.476 66.001L288.337 65.6625L289.264 65.241L290.19 64.8196L291.117 64.3982L292.043 63.9767L299.609 69.8604L299.429 70.8621L299.249 71.8639L299.068 72.8656L298.888 73.8673L298.642 74.9519L298.417 76.0097L284.941 70.2061L285.377 66.7847L285.379 66.7816L285.849 65.9523L286.315 65.13L286.853 64.1863L286.924 64.0704L286.995 63.9597L287.539 63.1232L288.083 62.2867L288.628 61.4501L289.172 60.6136L289.717 59.7771L290.261 58.9406L290.853 58.0309L290.905 57.9543L290.959 57.8742L291.497 57.1239L292.035 56.3736L292.573 55.6233L293.111 54.873L293.649 54.1227L294.187 53.3723L294.725 52.622L295.263 51.8717L295.92 50.9533L296.041 50.7924L296.163 50.6387L296.784 49.9059L297.405 49.1732L298.027 48.4404L298.648 47.7076L299.269 46.9749L299.891 46.2421L300.512 45.5093L301.134 44.7766L301.755 44.0438L302.376 43.311L302.998 42.5783L303.619 41.8455L304.241 41.1127L304.862 40.38L305.483 39.6472L306.105 38.9144L306.726 38.1817L307.347 37.4489L307.969 36.7162L308.59 35.9834L309.245 35.2094L309.279 35.1678L309.315 35.1259L309.949 34.4287L310.583 33.7315L311.218 33.0343L311.852 32.3371L312.487 31.6399L313.121 30.9426L313.755 30.2454L314.39 29.5482L315.024 28.851L315.658 28.1538L316.293 27.4565L316.927 26.7593L317.562 26.0621L318.196 25.3649L318.83 24.6677L319.448 23.9909L319.431 24.011L319.415 24.0308L320.082 23.3264L320.749 22.6222L321.416 21.9178L322.083 21.2135L322.75 20.5092L323.417 19.8049L324.084 19.1006L324.751 18.3963L325.419 17.692L326.068 17.0087L326.051 17.0306L326.032 17.0533L326.683 16.3969L327.334 15.7405L327.984 15.084L328.635 14.4276L329.286 13.7712L329.936 13.1147L330.746 12.2682L330.914 12.085L331.088 11.9096L331.859 11.3814L332.63 10.8532L333.401 10.325L334.172 9.79675L334.943 9.26855L333.828 10.8549L340.096 16.4778L339.481 15.1244L337.448 11.9077Z" fill="black" style="fill:black;fill-opacity:1;"/>
<path d="M362.198 14.2853V13.1776V11.7062V11.3613L368.091 16.0622L368.251 16.9989L368.412 17.9356L368.572 18.8723L368.733 19.809L368.893 20.7457L369.053 21.6824L369.214 22.6191L369.374 23.5558L369.535 24.4925L369.695 25.4292L369.855 26.3659L370.016 27.3026L370.176 28.2393L370.184 28.3335L370.19 28.4269L370.301 29.4765L370.407 30.4336L370.513 31.3907L370.62 32.3478L370.726 33.3049L370.832 34.262L370.938 35.2191L371.044 36.1762L371.048 36.2554L371.05 36.3332L371.104 37.3958L371.156 38.3821L371.209 39.3683L371.261 40.3546L371.314 41.3409L371.366 42.3271L371.418 43.3134L371.471 44.2996L371.471 44.2959L371.471 44.2919L371.497 45.1805L371.524 46.0733L371.55 46.9662L371.577 47.8591L371.603 48.752L371.629 49.6448L371.656 50.5377L371.682 51.4305L371.683 51.4743L371.683 51.5171L371.684 52.4834L371.686 53.4079L371.687 54.3324L371.688 55.2569L371.689 56.1814L371.69 57.1058L371.68 57.8793L371.671 58.6527L371.662 59.4261L371.653 60.1996L370.865 61.0551L358.556 62.2495L358.47 61.9823L359.385 60.4752L360.452 59.6053L361.47 58.5175L365.058 57.616L366.47 58.0934L367.93 58.7886L369.238 58.8466L369.153 58.5794L356.843 61.0551L356.055 60.1996L356.046 59.4261L356.037 58.6527L356.028 57.8793L356.019 57.1058L356.02 56.1814L356.021 55.2569L356.022 54.3324L356.023 53.4079L356.024 52.4834L356.025 51.6008L356.025 51.6436L356.026 51.6874L356.023 50.7941L356.02 49.9008L356.017 49.0076L356.014 48.1143L356.012 47.2211L356.009 46.3278L356.006 45.4345L356.003 44.537L356.003 44.533L356.003 44.5292L356.026 43.5419L356.049 42.5545L356.072 41.5671L356.095 40.5797L356.118 39.5923L356.142 38.605L356.165 37.6176L356.189 36.7066L356.192 36.7844L356.195 36.8636L356.212 35.9008L356.23 34.9379L356.247 33.9751L356.264 33.0123L356.282 32.0495L356.299 31.0866L356.316 30.1238L356.339 29.2535L356.345 29.347L356.352 29.4411L356.349 28.4908L356.345 27.5405L356.341 26.5902L356.338 25.6399L356.334 24.6895L356.33 23.7392L356.327 22.7889L356.323 21.8386L356.319 20.8882L356.316 19.9379L356.312 18.9876L356.308 18.0373L356.305 17.087L362.198 21.7878V21.443V19.9716V14.2853Z" fill="black" style="fill:black;fill-opacity:1;"/>
<path d="M359.232 16.4942V15.4898V14.1409V13.3318L357.05 13.0778L357.903 12.5684L358.756 12.0591L359.608 11.5497L360.461 11.0404L361.314 10.531L362.167 10.0217L363.02 9.51236L363.873 9.00302L364.726 8.49368L365.578 7.98434L366.431 7.47498L367.284 6.96564L367.748 6.76221L368.26 6.59006L369.699 6.24768L370.587 6.03528L371.476 5.82288L372.365 5.61044L373.254 5.39804L374.143 5.18564L375.032 4.97321L375.338 4.92389L375.651 4.88943L376.864 4.83423L377.761 4.79788L378.659 4.76151L379.556 4.72516L380.453 4.68881L381.35 4.65244L382.247 4.61609L382.569 4.61328L382.887 4.62668L384.107 4.76685L385.014 4.87817L385.922 4.9895L386.83 5.1008L387.737 5.21213L388.645 5.32346L389.814 5.57562L390.927 6.05176L392.58 7.3186L393.288 7.94989L393.996 8.58118L394.704 9.21246L395.412 9.84372L396.307 10.7423L397.052 11.9223L397.655 14.1101L397.805 14.9863L397.954 15.8625L398.104 16.7387L398.253 17.6149L398.403 18.4911L398.553 19.3673L398.702 20.2435L398.816 20.9814L398.831 21.7531L398.596 23.3732L398.449 24.2287L398.302 25.0841L398.155 25.9396L398.008 26.795L397.861 27.6505L397.616 28.5551L397.248 29.3742L396.264 30.856L395.725 31.6459L395.186 32.4359L394.648 33.2258L394.109 34.0157L393.57 34.8057L393.237 35.2123L392.856 35.6002L391.761 36.5909L391.086 37.2238L390.412 37.8567L389.737 38.4896L389.062 39.1225L388.388 39.7554L387.713 40.3883L387.137 40.7879L386.516 41.1266L385.023 41.7677L384.173 42.1414L383.323 42.515L382.473 42.8887L381.623 43.2623L380.773 43.636L379.923 44.0096L379.073 44.3833L378.223 44.757L377.373 45.1306L376.523 45.5043L375.871 45.7029L375.201 45.8409L373.6 46.0008L372.67 46.086L371.74 46.1712L370.811 46.2564L369.881 46.3416L368.951 46.4268L368.021 46.512L367.868 46.5204L367.704 46.526L366.679 46.5219L365.83 46.5158L364.98 46.5097L364.131 46.5036L363.281 46.4975L362.431 46.4914L361.922 46.4741L361.442 46.426L360.124 45.9717L359.255 45.5908L358.386 45.2099L356.159 44.3557L353.822 42.0386L353.537 38.2674L354.23 37.4078L354.924 36.5483L364.017 35.6404L364.867 36.346L365.716 37.0515L365.588 34.8455L363.251 32.5284L361.023 31.6741L361.972 31.6474L362.921 31.6206L363.421 31.5206L362.941 31.4724L362.431 31.4551L363.281 31.449L364.131 31.4429L364.98 31.4368L365.83 31.4307L366.679 31.4246L367.354 31.4205L367.191 31.4261L367.037 31.4346L367.97 31.3981L368.903 31.3617L369.836 31.3252L370.769 31.2887L371.701 31.2523L372.634 31.2158L372.897 31.2541L372.226 31.392L371.574 31.5907L372.469 31.3436L373.364 31.0965L374.259 30.8494L375.154 30.6024L376.049 30.3553L376.944 30.1082L377.839 29.8611L378.734 29.614L379.629 29.367L380.524 29.1199L380.776 29.1402L380.156 29.479L379.579 29.8785L380.361 29.3842L381.143 28.8899L381.925 28.3955L382.707 27.9012L383.489 27.4069L384.27 26.9126L384.631 26.776L384.251 27.1639L383.918 27.5705L384.525 26.8318L385.132 26.0931L385.739 25.3544L386.346 24.6157L386.953 23.877L387.115 23.8301L386.746 24.6493L386.502 25.5538L386.67 24.7023L386.838 23.8507L387.006 22.9991L387.174 22.1475L387.342 21.296L387.422 21.2091L387.438 21.9808L387.551 22.7187L387.316 21.8615L387.081 21.0043L386.846 20.1471L386.611 19.2899L386.375 18.4327L386.14 17.5755L385.905 16.7183L386.124 17.1726L386.869 18.3526L387.764 19.2513L387.001 18.6872L386.239 18.1232L385.476 17.5591L384.714 16.9951L384.897 17.0667L386.01 17.5428L387.179 17.795L386.27 17.6927L385.361 17.5905L384.453 17.4883L383.544 17.3861L382.635 17.2838L382.039 17.2105L382.357 17.2239L382.678 17.2211L381.781 17.2461L380.883 17.2711L379.986 17.2961L379.088 17.3212L378.191 17.3462L377.293 17.3712L376.712 17.3774L377.025 17.343L377.331 17.2936L376.425 17.416L375.519 17.5385L374.614 17.6609L373.708 17.7833L372.802 17.9057L371.896 18.0281L371.541 18.0205L372.052 17.8484L372.516 17.645L371.591 18.0067L370.666 18.3684L369.741 18.7302L368.816 19.0919L367.89 19.4537L366.965 19.8155L366.04 20.1772L365.115 20.539L364.19 20.9007L363.265 21.2625L362.34 21.6242L361.414 21.986L359.232 21.7319V20.9228V19.5739V16.4942Z" fill="black" style="fill:black;fill-opacity:1;"/>
<path d="M425.741 12.52L424.157 12.3052H422.875L423.102 15.9007L423.874 16.3748L422.952 16.3136L422.029 16.2524L422.769 16.543L423.544 16.7174L423.41 17.093L422.521 17.4136L423.053 17.3894L423.551 17.3224L423.105 17.6458L422.203 18.0696L421.301 18.4935L422.041 18.2505L422.75 17.9169L422.615 18.117L421.831 18.7249L421.047 19.3327L420.264 19.9406L419.48 20.5484L419.773 20.326L420.068 20.074L419.724 20.4535L419.087 21.1154L418.45 21.7774L417.812 22.4394L417.175 23.1014L416.538 23.7634L415.9 24.4254L415.263 25.0874L414.625 25.7494L413.988 26.4114L413.351 27.0734L412.713 27.7354L413.07 27.3396L413.379 26.9381L413.122 27.3935L412.603 28.247L412.085 29.1005L411.566 29.954L411.048 30.8076L410.529 31.6611L410.011 32.5146L409.492 33.3681L409.747 32.9089L409.973 32.411L409.883 32.7893L409.605 33.6969L409.327 34.6046L409.048 35.5122L408.77 36.4199L408.492 37.3275L408.213 38.2351L407.935 39.1428L408.084 38.575L408.184 37.9901L408.194 38.3462L408.156 39.2908L408.119 40.2354L408.081 41.1801L408.043 42.1247L408.006 43.0693L407.968 44.0139L407.966 43.4705L407.92 42.9384L408.021 43.3895L408.207 44.3516L408.393 45.3137L407.803 43.6349L406.638 42.0156L405.963 41.3231L406.786 41.7776L407.609 42.2321L408.432 42.6867L409.255 43.1412L410.078 43.5957L410.901 44.0502L411.724 44.5048L412.547 44.9593L413.37 45.4138L414.194 45.8683L415.017 46.3228L415.84 46.7773L414.781 46.2996L413.655 46.012L413.546 45.913L414.529 45.9034L415.511 45.8938L416.493 45.8842L417.475 45.8746L418.457 45.865L419.439 45.8554L418.574 45.9109L417.659 46.0936L417.573 46.0512L418.401 45.6879L419.229 45.3245L420.057 44.9612L420.885 44.5978L421.714 44.2344L422.542 43.8711L423.37 43.5077L422.835 43.7679L422.329 44.0712L422.587 43.834L423.311 43.2589L424.036 42.6839L424.761 42.1089L425.485 41.5338L426.21 40.9588L426.935 40.3838L427.659 39.8087L427.06 40.3421L426.533 40.9353L426.608 40.7514L427.123 39.942L427.638 39.1327L428.153 38.3233L428.668 37.5139L429.183 36.7046L429.698 35.8952L430.212 35.0859L430.727 34.2765L431.242 33.4672L431.757 32.6578L431.358 33.4002L431.051 34.1996L431.028 34.0745L431.205 33.1312L431.383 32.1879L431.56 31.2446L431.737 30.3013L431.914 29.358L432.092 28.4147L432.033 28.8074L431.999 29.1994L431.987 28.6086L431.986 27.6307L431.986 26.6528L431.985 25.675L431.985 24.6971L431.984 23.7192L432.083 24.8615L432.415 26.073L432.509 26.4622L432.034 25.6984L431.559 24.9346L431.084 24.1708L430.609 23.407L430.135 22.6432L430.787 23.5246L431.555 24.2698L431.54 24.3394L430.714 23.8358L429.888 23.332L429.062 22.8283L428.236 22.3246L427.41 21.8209L428.031 22.1505L428.708 22.4201L428.503 22.4114L427.59 22.2074L426.677 22.0033L425.763 21.7992L424.85 21.5952L423.937 21.3911L423.023 21.187L423.554 21.2794L424.074 21.3272L423.587 21.3475L422.6 21.3609L421.612 21.3742L420.624 21.3876L419.637 21.401L418.649 21.4143L417.661 21.4277L416.673 21.4411L415.686 21.4544L416.64 21.3604L417.593 21.1191L417.537 21.0661L416.594 21.3863L415.651 21.7065L414.708 22.0266L413.765 22.3468L414.461 21.9267L415.136 21.3706L414.928 21.2356L414.123 21.7726L413.318 22.3095L412.513 22.8464L411.707 23.3834L410.902 23.9203L404.75 19.2525L405.05 18.3325L405.35 17.4124L405.651 16.4923L405.951 15.5722L406.251 14.6521L407.149 13.0601L407.824 12.5039L408.52 12.0838L409.331 11.5071L410.143 10.9305L410.955 10.3537L411.767 9.77704L413.465 8.82718L414.418 8.58591L415.372 8.49185L416.36 8.45749L417.347 8.4231L418.334 8.38873L419.321 8.35434L420.308 8.31995L421.295 8.28558L422.283 8.25119L423.27 8.21683L424.758 8.18939L425.278 8.23724L425.808 8.32959L426.724 8.52173L427.64 8.71387L428.556 8.90601L429.472 9.09814L430.388 9.29028L431.304 9.48242L432.929 9.86996L433.605 10.1396L434.226 10.4691L435.059 10.9615L435.892 11.4539L436.725 11.9463L437.558 12.4387L438.391 12.9311L440.034 13.9968L440.802 14.742L441.455 15.6234L441.928 16.3882L442.401 17.1531L442.874 17.9179L443.347 18.6828L443.82 19.4477L444.862 21.3655L445.194 22.577L445.293 23.7192L445.292 24.6971L445.292 25.675L445.291 26.6528L445.291 27.6307L445.29 28.6086L445.278 29.9735L445.244 30.3654L445.186 30.7581L445.025 31.7044L444.864 32.6506L444.703 33.5968L444.542 34.543L444.381 35.4892L444.22 36.4354L443.859 38.1998L443.552 38.9992L443.153 39.7416L442.655 40.5615L442.157 41.3814L441.659 42.2013L441.161 43.0212L440.663 43.8411L440.165 44.661L439.667 45.481L439.17 46.3008L438.672 47.1208L438.174 47.9406L437.237 49.386L436.709 49.9792L436.11 50.5126L435.383 51.084L434.655 51.6555L433.928 52.2269L433.2 52.7983L432.473 53.3698L431.745 53.9413L431.018 54.5127L429.823 55.4219L429.317 55.7253L428.782 55.9854L427.951 56.3418L427.12 56.6982L426.289 57.0545L425.458 57.4109L424.627 57.7673L423.796 58.1236L422.965 58.48L421.219 59.1574L420.304 59.3401L419.439 59.3955L418.457 59.386L417.475 59.3763L416.493 59.3668L415.511 59.3572L414.529 59.3476L413.546 59.338L411.473 59.239L410.348 58.9514L409.289 58.4736L408.471 58.0093L407.654 57.5449L406.836 57.0806L406.019 56.6162L405.201 56.1519L404.384 55.6875L403.566 55.2232L402.748 54.7588L401.931 54.2945L401.113 53.8301L400.296 53.3658L399.478 52.9014L397.162 51.29L395.997 49.6708L395.407 47.992L395.197 47.0348L394.987 46.0776L394.693 44.6094L394.647 44.0774L394.645 43.5339L394.675 42.589L394.706 41.6441L394.736 40.6992L394.767 39.7544L394.797 38.8095L394.828 37.8646L394.906 36.3312L395.005 35.7463L395.154 35.1785L395.439 34.2727L395.723 33.3668L396.007 32.461L396.291 31.5552L396.575 30.6493L396.859 29.7435L397.144 28.8376L397.617 27.4025L397.843 26.9046L398.098 26.4454L398.616 25.5919L399.135 24.7383L399.653 23.8848L400.172 23.0313L400.69 22.1778L401.209 21.3243L401.727 20.4708L402.508 19.2191L402.816 18.8176L403.173 18.4218L403.82 17.7687L404.466 17.1156L405.113 16.4625L405.759 15.8094L406.405 15.1563L407.052 14.5032L407.698 13.8501L408.345 13.197L408.991 12.5439L409.638 11.8907L410.284 11.2376L411.224 10.302L411.52 10.05L411.813 9.82761L412.642 9.28232L413.47 8.73703L414.299 8.19174L415.128 7.64645L416.605 6.69348L417.315 6.35983L418.054 6.11688L419.048 6.04333L420.042 5.96979L421.492 5.79581L421.989 5.72879L422.521 5.70459L423.41 6.02521L425.054 6.40079L425.828 6.57516L426.568 6.86572L427.189 7.55063L427.81 8.2355L428.582 8.70966L428.808 12.3052H427.526L425.741 12.52Z" fill="black" style="fill:black;fill-opacity:1;"/>
<path d="M457.39 12.4146L455.947 11.8794L454.599 12.3167L453.629 12.4054L457.133 17.0913L465.021 13.7582L465.328 13.5137L465.486 13.2349L465.455 13.9164L465.452 13.9398L465.45 13.9584L465.471 14.9298L465.495 15.8861L465.519 16.8424L465.542 17.7987L465.566 18.755L465.565 18.7636L465.564 18.7724L465.492 19.6943L465.422 20.6073L465.351 21.5202L465.281 22.4332L465.21 23.3461L465.14 24.2591L465.069 25.172L464.999 26.085L464.998 26.0862L464.998 26.0872L464.913 27.0704L464.828 28.0526L464.743 29.0347L464.658 30.0168L464.573 30.999L464.488 31.9811L464.402 32.9633L464.317 33.9454L464.232 34.9275L464.147 35.9096L464.062 36.8918L463.977 37.8739L463.892 38.856L463.92 38.6123L463.942 38.3514L463.956 38.9665L463.956 39.8605V40.7546L463.956 41.6487L463.956 42.5427L463.956 43.4368V44.3308L463.956 45.2249L463.958 45.1347L463.96 45.0417L463.969 45.7993L463.977 46.6528L463.986 47.5063L463.995 48.3599L464.003 49.2134L464.012 50.0669L464.005 50.9562L463.998 51.8456L463.991 52.7349L463.762 53.5864L459.123 59.4396L449.135 56.0063L449.572 53.788L450.398 52.9978L451.215 52.1579L459.249 50.7493L460.303 51.261L461.366 51.8223L462.04 50.9556L452.052 47.5223L447.413 53.5864L447.184 52.7349L447.177 51.8456L447.17 50.9562L447.163 50.0669L447.172 49.2134L447.18 48.3599L447.189 47.5063L447.198 46.6528L447.206 45.7993L447.216 44.8499L447.217 44.7569L447.22 44.6667L447.279 43.7746L447.339 42.8826L447.398 41.9905L447.458 41.0984L447.517 40.2063L447.577 39.3143L447.636 38.4222L447.71 37.2511L447.732 36.9902L447.76 36.7465L447.93 35.7755L448.101 34.8045L448.271 33.8335L448.441 32.8625L448.611 31.8915L448.782 30.9205L448.952 29.9496L449.122 28.9785L449.293 28.0076L449.463 27.0366L449.633 26.0656L449.804 25.0946L449.974 24.1247L449.974 24.1258L449.973 24.1269L450.139 23.2264L450.305 22.3259L450.471 21.4254L450.637 20.5248L450.803 19.6243L450.968 18.7238L451.134 17.8232L451.299 16.9317L451.298 16.9405L451.297 16.9491L451.558 16.0288L451.819 15.1086L452.08 14.1883L452.341 13.268L452.6 12.3629L452.598 12.3815L452.595 12.4049L452.723 11.7349L453.04 10.1044L453.506 8.50842L461.394 5.17529L465.132 11.3534L464.162 11.4421L462.814 11.8794L457.39 12.4146Z" fill="black" style="fill:black;fill-opacity:1;"/>
<path d="M454.638 12.1875V10.6307V9.51337L449.988 12.2009L450.043 11.3361L450.098 10.4713L450.153 9.6066L450.207 8.74185L450.837 7.24084L452.061 5.84418L454.275 4.60263L455.008 4.21124L455.741 3.81985L456.474 3.42847L456.774 3.32364L457.044 3.24451L458.228 2.87271L459.169 2.56027L460.11 2.24783L461.051 1.93536L461.992 1.62292L462.933 1.31049L463.874 0.998047L464.815 0.685577L465.156 0.619202L465.524 0.568176L466.812 0.461975L467.708 0.387482L468.604 0.312988L469.5 0.238495L470.396 0.164001L471.291 0.0895081L472.187 0.0150146L472.308 0.00991821L472.424 0.00701904L473.485 0.00509644L474.433 0.00405884L475.38 0.00305176L476.328 0.00204468L477.276 0.00100708L478.224 0L479.01 0.0451355L479.805 0.184296L481.444 0.756561L482.313 1.09845L483.182 1.44034L484.051 1.78226L484.92 2.12415L485.9 2.57239L486.781 3.15927L488.171 4.57233L488.827 5.31665L489.484 6.06094L490.141 6.80524L490.94 7.83722L491.586 9.18652L491.977 11.5804L492.035 12.4512L492.094 13.322L492.153 14.1927L492.211 15.0635L492.27 15.9343L492.329 16.8051L492.352 17.7137L492.248 18.6157L491.76 20.3186L491.492 21.1771L491.224 22.0356L490.956 22.8942L490.688 23.7527L490.32 24.6337L489.832 25.4466L488.639 26.8478L488.018 27.5478L487.396 28.2477L486.774 28.9476L486.153 29.6475L485.609 30.1653L485.016 30.6154L483.586 31.5152L482.776 32.0452L481.966 32.5752L481.156 33.1052L480.345 33.6352L479.69 33.9383L478.967 34.1847L477.318 34.5737L476.44 34.791L475.563 35.0083L474.685 35.2256L473.808 35.4429L472.93 35.6602L472.053 35.8775L471.175 36.0948L470.747 36.1529L470.331 36.1863L468.979 36.2449L468.031 36.293L467.083 36.3411L466.134 36.3891L465.384 36.4603L464.634 36.5316L463.884 36.6028L462.935 36.7614L462.818 36.8194L469.508 32.9798L467.906 22.295L468.279 22.7202L468.916 23.3522L468.875 23.3218L468.834 23.2922L469.539 23.7903L470.284 24.3173L471.029 24.8443L471.773 25.3713L471.686 25.3092L471.601 25.2506L472.33 25.7213L473.141 26.2473L473.952 26.7732L474.764 27.2992L475.575 27.8251L475.448 27.7429L475.312 27.6585L475.939 28.014L476.711 28.4556L477.482 28.8971L478.254 29.3387L479.026 29.7803L479.798 30.2219L479.742 30.1898L479.687 30.1588L480.436 30.5666L481.24 31.0043L482.044 31.4421L482.847 31.8799L483.651 32.3177L484.455 32.7554L485.259 33.1932L486.062 33.631L486.866 34.0688L486.965 34.1238L487.058 34.1771L487.999 34.7399L488.852 35.2511L489.706 35.7623L490.559 36.2735L491.413 36.7847L491.516 36.848L491.621 36.9143L492.528 37.517L493.329 38.0502L494.13 38.5834L494.931 39.1166L494.997 39.1611L495.064 39.2076L495.883 39.7909L496.632 40.3256L497.382 40.8603L497.477 40.9294L497.591 41.0148L498.214 41.6107L498.766 42.1539L498.418 43.1679L491.685 50.0424L489.796 53.5519L488.972 54.1362L488.458 53.8279L488.013 53.5722L488.128 53.6576L488.223 53.7267L487.473 53.1937L486.722 52.6606L486.04 52.1763L486.108 52.2227L486.174 52.2672L485.373 51.734L484.573 51.2008L483.772 50.6676L483.077 50.2039L483.182 50.2703L483.286 50.3335L482.433 49.8213L481.58 49.309L480.727 48.7968L479.875 48.2845L479.109 47.8239L479.202 47.8773L479.301 47.9323L478.498 47.4933L477.695 47.0544L476.892 46.6154L476.089 46.1764L475.286 45.7375L474.483 45.2985L473.68 44.8596L472.877 44.4206L472.019 43.9516L471.964 43.9206L471.908 43.8885L471.14 43.4408L470.371 42.993L469.603 42.5453L468.834 42.0976L468.066 41.6498L467.152 41.1159L467.016 41.0316L466.889 40.9493L466.088 40.4081L465.287 39.8669L464.486 39.3257L463.684 38.7844L462.801 38.1879L462.716 38.1293L462.628 38.0672L461.893 37.5278L461.157 36.9884L460.421 36.449L459.645 35.8807L459.605 35.8511L459.564 35.8207L458.779 35.3864L457.73 34.7451L456.128 24.0603L462.818 20.2207L462.935 20.2787L463.884 20.4373L464.634 20.5085L465.384 20.5798L466.134 20.651L467.083 20.699L468.031 20.7471L468.979 20.7952L469.524 20.8538L469.107 20.8872L468.68 20.9453L469.58 20.8697L470.481 20.794L471.382 20.7183L472.283 20.6426L473.184 20.567L474.084 20.4913L474.985 20.4156L475.114 20.5117L474.391 20.7581L473.736 21.0611L474.632 20.6943L475.528 20.3274L476.424 19.9605L477.32 19.5937L477.597 19.5966L477.003 20.0467L476.46 20.5645L477.118 19.8987L477.776 19.233L478.434 18.5674L479.092 17.9016L479.179 17.9372L478.69 18.7502L478.323 19.6311L478.624 18.7834L478.924 17.9357L479.225 17.088L479.526 16.2403L479.607 16.2369L479.503 17.1389L479.526 18.0475L479.416 17.1817L479.306 16.3159L479.197 15.45L479.087 14.5842L478.977 13.7184L478.867 12.8526L479.09 13.5098L479.735 14.8591L480.534 15.8911L479.828 15.194L479.121 14.4969L478.414 13.7998L478.441 13.7715L479.322 14.3583L480.301 14.8066L479.416 14.5094L478.531 14.2122L477.645 13.9151L476.76 13.6179L476.644 13.5511L477.438 13.6903L478.224 13.7354L477.276 13.7344L476.328 13.7334L475.38 13.7324L474.433 13.7314L473.485 13.7303L472.649 13.7284L472.766 13.7255L472.886 13.7204L471.987 13.7374L471.089 13.7545L470.19 13.7715L469.291 13.7885L468.392 13.8055L467.493 13.8225L466.987 13.8079L467.355 13.7568L467.696 13.6905L466.712 13.8047L465.727 13.9191L464.742 14.0334L463.757 14.1477L462.772 14.262L461.787 14.3763L460.803 14.4906L460.061 14.5456L460.331 14.4665L460.631 14.3616L459.823 14.5562L459.015 14.7507L458.207 14.9453L458.88 14.2897L460.104 12.893L460.733 11.392L460.372 12.1796L460.011 12.9672L459.65 13.7548L459.288 14.5424L454.638 17.2299V16.1125V12.1875Z" fill="black" style="fill:black;fill-opacity:1;"/>
<path d="M507.643 7.39896L506.681 7.07864H505.13L503.756 8.10464L502.862 8.74094L510.773 12.2608L514.977 6.63113L515.193 7.03415L515.366 7.39005L515.569 8.28506L515.773 9.18005L515.75 8.97647L515.722 8.78284L515.984 9.53775L516.277 10.4767L516.571 11.4156L516.864 12.3544L517.157 13.2933L517.451 14.2322L517.488 14.4525L517.521 14.6876L517.675 15.8227L517.803 16.7072L517.931 17.5918L518.059 18.4763L518.188 19.3609L518.316 20.2454L518.444 21.13L518.572 22.0145L518.7 22.899L518.713 23.0697L518.723 23.2388L518.786 24.312L518.842 25.2178L518.899 26.1236L518.956 27.0294L519.012 27.9352L519.069 28.8409L519.126 29.7467L519.182 30.6525L519.239 31.5583L519.296 32.4641L519.297 32.5379L519.298 32.61L519.315 33.6223L519.331 34.5643L519.347 35.5064L519.364 36.4484L519.38 37.3905L519.396 38.3326L519.413 39.2746L519.429 40.2167L519.445 41.1587L519.461 42.1008L519.478 43.0428L519.494 43.9849L519.496 44.9669L519.498 45.9489L519.499 46.931L519.501 47.913L519.503 48.8951L519.501 49.7831L519.499 50.6711L519.497 51.5591L519.204 52.147L518.911 52.7349L509.085 59.3329L505.209 56.4983L505.898 55.0131L506.588 53.528L507.277 52.0428L507.967 50.5577L510.114 49.1465L511.751 49.1027L513.388 49.059L515.025 49.0153L516.662 48.9715L512.785 46.1369L502.959 52.7349L502.666 52.147L502.373 51.5591L502.371 50.6711L502.369 49.7831L502.367 48.8951L502.369 47.913L502.371 46.931L502.373 45.9489L502.375 44.9669L502.376 43.9849L502.393 43.0428L502.409 42.1008L502.425 41.1587L502.442 40.2167L502.458 39.2746L502.474 38.3326L502.49 37.3905L502.507 36.4484L502.523 35.5064L502.539 34.5643L502.555 33.6223L502.572 32.7504L502.573 32.8225L502.575 32.8963L502.584 31.9888L502.594 31.0813L502.604 30.1738L502.614 29.2663L502.624 28.3588L502.633 27.4513L502.643 26.5438L502.653 25.6363L502.663 24.7288L502.679 23.9888L502.688 24.1579L502.702 24.3286L502.671 23.4353L502.64 22.5421L502.609 21.6488L502.579 20.7556L502.548 19.8624L502.517 18.9691L502.486 18.0759L502.456 17.1827L502.451 16.54L502.484 16.7751L502.521 16.9954L502.459 16.0137L502.397 15.032L502.335 14.0503L502.273 13.0687L502.211 12.087L502.117 10.9213L502.089 10.7277L502.066 10.5241L502.092 9.6066L502.118 8.68912L502.113 7.23251L502.152 5.82303L506.356 0.193359L514.743 5.41635L513.848 6.05264L512.474 7.07864H510.924L507.643 7.39896Z" fill="black" style="fill:black;fill-opacity:1;"/>
<path d="M494.342 9.94052L493.869 10.7405V11.3417V12.5414V13.9243L493.752 2.16031L494.285 2.03976L494.818 1.91922L495.648 1.76901L496.478 1.61877L497.307 1.46857L498.137 1.31833L498.967 1.16809L499.958 1.08127L500.949 0.994415L501.94 0.907593L502.931 0.82074L503.922 0.733917L504.914 0.647064L505.905 0.560242L506.896 0.473389L507.887 0.386566L508.878 0.299713L509.869 0.212891L509.968 0.213501L510.07 0.215363L511.124 0.228455L512.073 0.238281L513.023 0.248138L513.972 0.257965L514.921 0.267822L515.871 0.277649L516.82 0.287476L517.769 0.297333L518.719 0.307159L518.894 0.315582L519.071 0.327789L520.183 0.435425L521.118 0.527008L522.054 0.618591L522.989 0.710175L523.924 0.801758L524.859 0.893341L525.794 0.984924L526.73 1.07651L527.665 1.16809L527.82 1.18518L527.973 1.20508L529.059 1.37509L529.992 1.52243L530.925 1.66977L531.858 1.81714L532.792 1.96448L533.725 2.11182L534.658 2.25919L535.591 2.40652L535.783 2.43909L535.973 2.47586L537.077 2.78668L537.992 3.05658L538.907 3.32651L539.823 3.59641L540.738 3.8663L541.653 4.1362L542.325 4.3212L542.978 4.56329L544.286 5.61823L544.975 6.38068L545.664 7.14316L546.353 7.90561L547.042 8.66809L548.424 9.65286L549.735 11.4114L549.38 14.4924L548.389 15.3817L547.398 16.271L541.317 16.878L540.17 16.2022L539.023 15.5264L538.511 17.0423L539.822 18.8009L541.204 19.7856L540.185 19.6512L539.166 19.5168L538.147 19.3824L537.129 19.248L536.729 19.4061L537.382 19.6482L538.054 19.8332L537.112 19.6773L536.171 19.5214L535.229 19.3655L534.288 19.2097L533.346 19.0538L532.593 18.9388L532.784 18.9756L532.976 19.0081L532.043 18.8615L531.109 18.715L530.176 18.5684L529.243 18.4218L528.31 18.2752L527.377 18.1286L526.444 17.982L525.663 17.858L525.817 17.8779L525.972 17.895L525.037 17.7974L524.103 17.6997L523.168 17.6021L522.234 17.5044L521.299 17.4068L520.364 17.3091L519.43 17.2115L518.495 17.1138L517.738 17.0322L517.915 17.0444L518.09 17.0528L517.143 16.9915L516.195 16.9301L515.248 16.8688L514.301 16.8075L513.353 16.7461L512.406 16.6848L511.458 16.6234L510.511 16.5621L509.668 16.504L509.77 16.5059L509.869 16.5065L508.878 16.4196L507.887 16.3328L506.896 16.246L505.905 16.1591L504.914 16.0723L503.922 15.9854L502.931 15.8986L501.94 15.8118L500.949 15.7249L499.958 15.6381L498.967 15.5513L498.137 15.401L497.307 15.2508L496.478 15.1006L495.648 14.9503L494.818 14.8001L494.285 14.6796L493.752 14.5591L493.869 2.7951V4.17795V5.37769V5.97888L494.342 9.94052Z" fill="black" style="fill:black;fill-opacity:1;"/>
</svg>
