<svg width="331" height="118" viewBox="0 0 331 118" fill="none" xmlns="http://www.w3.org/2000/svg">
<path d="M5.60056 11.4286V10.9572V10.7619V10.6544V10.5446V10.3345V10.1221V9.92554V9.68384V9.51401V9.33578V9.19662V8.98788V8.87909L8.61513 11.8192L8.29741 13.2902L8.53134 12.9969L8.54051 12.8755L8.65924 12.43L8.67378 12.563L8.72987 13.1004L8.78481 13.8465L8.83974 14.5926L8.87108 15.4455L8.9024 16.2983L8.93373 17.1512L8.96028 18.1385L8.98685 19.1258L9.0134 20.1131L9.03995 21.1004L9.0396 21.1497L9.03847 21.2026L9.00647 22.1483L8.97653 23.0374L8.94659 23.9265L8.91667 24.8156L8.88673 25.7048L8.8568 26.5939L8.85509 26.6284L8.85312 26.6619L8.78931 27.6245L8.72769 28.5546L8.66608 29.4847L8.60448 30.4148L8.54286 31.3449L8.48126 32.2751L8.41965 33.2052L8.42134 33.1806L8.42287 33.1562L8.37932 34.0744L8.33441 35.0167L8.28951 35.959L8.24458 36.9013L8.19968 37.8436L8.15477 38.7859L8.10986 39.7281L8.06496 40.6705L8.02005 41.6128L7.97514 42.5551L7.93024 43.4973L7.88533 44.4396L7.88745 44.3938L7.88901 44.3481L7.87947 45.2492L7.86894 46.1961L7.85841 47.1429L7.84787 48.0898L7.83734 49.0366L7.82681 49.9834L7.81628 50.9303L7.80576 51.8771L7.806 51.8586L7.80615 51.8392L7.81125 52.7127L7.81628 53.6063L7.82132 54.4998L7.82635 55.3934L7.83139 56.287L7.83643 57.1805L7.84146 58.0741L7.8465 58.9676L7.85402 59.9448L7.86154 60.9221L7.86908 61.8993L7.8766 62.8765L7.88412 63.8537L7.89166 64.8309L7.89006 64.7202L7.88519 64.6086L7.963 65.4564L8.049 66.4166L8.13501 67.3768L8.22101 68.337L8.30701 69.2973L8.39301 70.2575L8.479 71.2177L8.47322 71.1573L8.46593 71.0923L8.57837 71.8755L8.69994 72.7287L8.82149 73.5819L8.94305 74.4351L8.94414 74.443L8.94519 74.4507L9.06549 75.3461L9.18478 76.234L9.30409 77.1219L9.30055 77.0961L9.29642 77.0673L9.4099 77.783L9.5313 78.5504L9.5349 78.5746L9.66786 79.4765L9.67972 79.6487L9.68214 79.7578L9.70807 80.1942L5.83884 76.3237V76.325L9.70685 80.1942H9.70441V80.2997V80.7254V81.0457L9.70563 81.4715V81.6864L9.70685 82.0067V82.2176L9.70563 82.327L9.70685 82.6473L9.70563 82.8582V83.1786V83.7137L9.70685 84.034L9.70563 84.245V84.9911V85.6317V86.3778V87.2332L9.70624 87.7664L9.70685 88.2997L9.70726 89.0106L9.70766 89.7215L9.70807 90.4325V91.1786V91.9247V92.7254V93.5262L9.70868 94.4325L9.70929 95.3387L9.70888 95.3951L9.7077 95.4492L9.66591 96.461L9.62595 97.4207L9.586 98.3803L9.58789 98.3261L9.58904 98.2719L9.59003 99.1786L9.59064 100.139V101.098V102.057V102.966V103.874L9.59003 104.673L9.58942 105.472V106.272V107.073L9.58514 108.032L9.58087 108.991V109.579V110.167L9.58026 110.753L9.57965 111.339V112.032V112.725L9.57843 113.366L9.57477 113.686L9.57233 113.792L5.71774 109.937V109.94V109.952L6.66696 109.969L7.47321 109.969L8.27946 109.969L9.08571 109.968L9.89197 109.968L10.6982 109.968H11.6162H12.5341H13.4521H14.3701H15.3476H16.3252H17.3027H18.2802L19.0865 109.968L19.8927 109.967L20.699 109.967L21.5052 109.967L22.3115 109.967L23.2796 109.966L24.2477 109.966L25.2158 109.966L26.1839 109.966L27.152 109.966L28.1201 109.965L28.9795 109.965L29.8388 109.965L30.6982 109.964L31.5576 109.964L32.5446 109.964L33.5315 109.963L34.5185 109.963L35.3479 109.962L36.1774 109.962L37.0068 109.962L37.7581 109.962L38.5094 109.962L39.2607 109.963L39.0946 109.966L38.9538 109.975L39.7818 109.88L40.7301 109.774L41.6783 109.667L42.6265 109.561L42.5319 109.573L42.4382 109.587L43.2935 109.425L44.2414 109.246L45.1893 109.068L45.2361 109.06L45.2831 109.052L46.2784 108.902L47.2263 108.76L48.1742 108.618L48.2601 108.607L48.3449 108.597L49.4061 108.509L50.3837 108.429L51.3613 108.35L52.3388 108.27L52.3717 108.267L52.4119 108.265L53.1732 108.227L53.8842 108.191L54.5951 108.156L54.483 108.163L54.3828 108.173L55.1231 108.077L55.9534 107.971L55.9933 107.966L56.0429 107.96L56.6997 107.902L57.2935 107.85L57.1623 107.864L57.0233 107.884L57.41 107.804L57.9435 107.698L57.9973 107.687L58.0446 107.679L58.737 107.567L59.3875 107.462L59.4169 107.457L59.4389 107.454L60.4446 107.313L61.4333 107.173L62.422 107.034L62.431 107.033L62.4414 107.032L63.2439 106.923L64.0342 106.816L64.8246 106.71L64.8327 106.709L64.8406 106.707L65.6777 106.6L66.5072 106.494L67.3367 106.387L67.4331 106.376L67.5218 106.368L68.5511 106.312L69.4986 106.262L69.4919 106.262L69.4846 106.263L70.308 106.229L71.2019 106.192L71.0995 106.198L71.6106 106.216L72.1479 106.125L72.8125 106.028L72.6728 106.048L73.3397 105.94L73.9679 105.838L74.0374 105.827L74.117 105.816L74.7425 105.754L75.0572 105.731L75.0418 105.733L76.0266 105.515L76.6358 105.433L77.0208 105.433L77.4792 105.425L77.8974 105.422V105.425V105.429V105.428V105.419V105.411V105.408V105.405V105.402V105.4V105.389V105.379V105.368V105.358L74.1515 109.1H74.1405L74.139 109.17L74.1195 108.64L74.0194 107.988L74.0424 108.14L73.8939 107.593L73.7532 107.052L73.7497 107.038L73.7469 107.027L73.5089 106.059L73.2732 105.1L73.2351 104.928L73.202 104.735L73.1078 103.684L73.0387 102.852L72.9695 102.02L72.9004 101.188L72.8312 100.355L72.826 100.288L72.8222 100.223L72.7909 99.2798L72.7622 98.3998L72.7336 97.52L72.7049 96.64L72.7036 96.5966L72.703 96.5547L72.7031 95.5809L72.7034 94.6473L72.7037 93.7137L72.704 92.7801L72.7043 91.9002L72.7046 91.0204L72.7049 90.1405L72.7052 89.2606V88.4598V87.659V86.8582V86.0575V85.1621V84.2668V83.3715V82.4762V81.5809V80.6564V79.7319V78.8075L72.7048 77.8465L72.7044 76.8856L72.704 75.9247V75.0366V74.1486V73.2606V72.3713V71.4819V70.5926L72.7042 70.5523L72.7048 70.514L72.7347 69.5176L72.7637 68.5576L72.7927 67.5977L72.8217 66.6377L72.8208 66.6731L72.8202 66.7113L72.8199 65.8999V65.0471V64.1942L72.8204 64.1366L72.8217 64.0792L72.8629 63.1677L72.902 62.3135L72.9411 61.4593L72.9388 61.5182L72.9376 61.5757L72.9371 60.7437V59.8557V58.9676L72.9374 58.1137L72.9376 57.2598L72.9379 56.4059L72.9381 55.552L72.9384 54.6981L72.938 53.7736L72.9375 52.8491L72.9371 51.9247V51.0718V50.2189V49.3661L72.938 48.62L72.9388 47.8739L72.9396 47.1278V46.452V45.7762V45.1004L72.94 44.176L72.9404 43.2515L72.9408 42.327L72.9417 42.2442L72.9445 42.1604L73.011 41.1696L73.0727 40.2634L73.0725 40.2663L73.0723 40.2691L73.1411 39.3644L73.2101 38.4569L73.2104 38.452L73.2107 38.4469L73.2745 37.5883L73.338 36.7352L73.339 36.7211L73.3401 36.7057L73.4038 35.9429L73.4662 35.197L73.459 35.3064L73.4551 35.4068L73.4552 34.6454L73.4564 33.7918L73.4576 33.2586L73.4589 32.7254L73.4688 31.6649L73.472 31.5791L73.5294 30.8857L73.5872 30.1832L73.585 30.2318L73.5854 29.4491L73.5846 28.7801L73.587 28.245V27.9247V27.8192L73.5858 27.4989L73.587 27.3934L77.3037 23.6768V23.6755V23.6719V23.6523V31.1516L76.7292 31.1271L75.9716 31.0462L75.4986 30.938L74.6603 30.5836L74.4609 30.51L73.8404 30.2391L73.3541 30.025L73.3583 30.0269L73.362 30.0286L72.7731 29.765L72.1811 29.4999L72.098 29.4614L72.0242 29.4252L71.2846 29.0393L70.6108 28.6874L69.937 28.3355L69.9803 28.358L70.0204 28.3783L69.2843 28.0319L68.5107 27.6671L68.4675 27.6458L68.4174 27.6202L67.7661 27.2693L67.1735 26.9493L66.5808 26.6293L66.5101 26.5901L66.4447 26.5522L65.7512 26.1238L65.1181 25.7323L64.4851 25.3407L64.4733 25.3333L64.462 25.3263L63.779 24.8944L63.1067 24.4693L62.4344 24.0442L62.3717 24.0037L62.3136 23.9645L61.548 23.4209L60.8364 22.915L60.1247 22.4092L59.4131 21.9034L59.4172 21.9063L59.422 21.9097L58.874 21.5239L58.3201 21.1339L57.7663 20.7439L57.7408 20.7258L57.7184 20.7096L57.0477 20.215L56.397 19.735L56.3796 19.7221L56.3644 19.7107L55.5786 19.1135L54.8155 18.5335L54.7495 18.4824L54.0191 17.9356L53.2876 17.2815L53.3007 17.2921L52.8375 16.9332L52.5311 16.7008L52.38 16.5778L52.247 16.4583L51.7139 15.9176L51.2978 15.4918L51.4177 15.6093L51.5417 15.7208L51.1966 15.4529L50.724 15.0799L50.7748 15.1193L50.8198 15.1531L50.2661 14.7546L49.6746 14.3285L49.5807 14.2588L48.9577 13.8104L48.3171 13.238L48.3211 13.2412L47.7315 12.7683L47.4009 12.5004L47.4051 12.5034L46.7264 12.0758L46.2691 11.7334L45.7574 11.5011L45.5627 11.4158L45.6677 11.4357L45.4288 11.3012L44.888 10.9053L47.4365 4.10156V4.11133V4.1272V4.13696V4.14551V4.14795V4.15039V4.15283V4.15161V11.8083V11.8095L46.8466 11.8132L46.1338 11.815L45.4209 11.8168L45.8493 11.7928L46.1897 11.739L45.5132 11.9399L44.566 12.2065L43.6187 12.4731L42.6714 12.7397L42.7454 12.7181L42.8244 12.6932L42.0789 12.9574L41.2488 13.2504L40.4188 13.5434L39.5887 13.8363L39.5506 13.8496L39.5146 13.8616L38.562 14.1675L37.6433 14.4623L36.7246 14.7571L35.806 15.0519L35.6419 15.1004L35.4716 15.1425L34.3783 15.3397L33.4607 15.5019L32.5431 15.6642L31.6255 15.8264L31.4514 15.8527L31.2781 15.8709L30.1586 15.9171L29.2107 15.953L28.2629 15.989L27.315 16.025L26.3671 16.0609L25.4192 16.0969L25.3736 16.0983L25.326 16.0992L24.3867 16.0999L23.497 16.1002L22.6074 16.1005L21.7177 16.1008L20.7308 16.1016L19.7438 16.1024L18.7568 16.1032L18.7077 16.1029L18.6512 16.1018L17.795 16.0651L17.0045 16.0307L16.2142 15.9964L16.1471 15.9928L16.0754 15.9877L15.2878 15.9099L14.5767 15.8391L13.8657 15.7683L13.9264 15.774L13.9787 15.778L13.1354 15.7283L12.2467 15.6755L11.358 15.6228L10.4694 15.5701L10.5444 15.5738L10.6207 15.576L9.82841 15.5764L8.95863 15.576L8.08884 15.5756L7.3779 15.5744L6.66696 15.5732L5.95602 15.572L5.18649 15.5726L4.41696 15.5732L3.76462 15.575L3.11227 15.5768L2.87399 15.5793L2.75681 15.5817H2.51852H2.28024H2.16306V15.5793V15.5244L4.32611 8.92908L4.87154 9.76465L5.41696 10.6003L5.96237 11.4358L6.5078 12.2714L7.05322 13.107L7.59865 13.9426L8.14407 14.7782L6.61172 16.7508L5.66721 16.429L4.72267 16.1073L3.77814 15.7855L2.8336 15.4637L1.88907 15.1419L0.944534 14.8201L0 14.4984L2.16306 7.90308V7.84814V7.8457H2.28024H2.51852H2.75681L2.87399 7.84814L3.11227 7.85059L3.76462 7.85242L4.41696 7.85425L5.18649 7.85486L5.95602 7.85547L6.66696 7.85425L7.3779 7.85303L8.08884 7.85181L8.95863 7.85141L9.82841 7.85098L10.7757 7.85138L10.852 7.85364L10.927 7.85736L11.8157 7.9101L12.7044 7.96283L13.5931 8.01556L14.5271 8.07126L14.5794 8.07535L14.6401 8.08096L15.3509 8.15341L16.0618 8.22583L16.696 8.29129L16.6244 8.28619L16.5573 8.28262L17.3476 8.3186L18.1379 8.35455L18.8624 8.38815L18.8059 8.38702L18.7568 8.38672L19.7438 8.38754L20.7308 8.38834L21.7177 8.38916L22.6074 8.38947L23.497 8.38977L24.3867 8.39008L25.2267 8.39072L25.1791 8.3916L25.1335 8.39304L26.0814 8.3587L27.0294 8.32434L27.9773 8.29001L28.9253 8.25565L29.8732 8.22131L30.6496 8.19717L30.4762 8.21533L30.3022 8.24161L31.2205 8.08356L32.1389 7.92551L33.0572 7.76746L33.7998 7.64432L33.6295 7.68637L33.4654 7.73486L34.3847 7.44177L35.3039 7.14871L36.2231 6.85565L37.1084 6.57361L37.0724 6.58566L37.0343 6.59891L37.8644 6.30594L38.6945 6.01297L39.5245 5.72L40.4392 5.39828L40.5182 5.37338L40.5922 5.35178L41.5394 5.08517L42.4867 4.81857L43.434 4.55197L44.652 4.21967L44.9924 4.16583L45.4209 4.14185L46.1338 4.14368L46.8466 4.14551L47.4365 4.14917V4.15039V11.8071V11.8058V11.8083V11.8107V11.8132V11.8217V11.8315V11.8474V11.8571L49.9849 5.05334L49.4442 4.6575L49.2052 4.52295L49.5525 4.75385L49.8265 4.8873L50.2679 5.07684L50.9904 5.58597L51.9757 6.2287L51.9799 6.23175L52.7157 6.81534L53.1925 7.194L53.1965 7.1972L53.7356 7.69516L54.3001 8.0983L54.2062 8.02859L54.8022 8.45795L55.436 8.91495L55.481 8.94876L55.5318 8.98819L56.0045 9.36124L56.6047 9.83942L56.7287 9.95096L56.8486 10.0684L57.2646 10.4942L57.5635 10.8051L57.4305 10.6856L57.2794 10.5626L57.8011 10.9708L58.166 11.2525L58.1792 11.2631L58.8695 11.8902L59.561 12.406L59.495 12.3549L60.2748 12.9507L61.0321 13.5293L61.0168 13.5178L60.9994 13.5049L61.6495 13.9858L62.2796 14.4522L62.2572 14.436L62.2317 14.4179L62.7846 14.8092L63.3376 15.2004L63.8963 15.5958L63.9011 15.5993L63.9052 15.6022L64.6154 16.11L65.3257 16.6179L66.0359 17.1257L66.6922 17.5957L66.6341 17.5565L66.5714 17.516L67.2429 17.9425L67.9143 18.369L68.575 18.7886L68.5638 18.7816L68.5519 18.7743L69.1845 19.1665L69.8171 19.5588L70.3892 19.9143L70.3239 19.8764L70.2531 19.8372L70.8453 20.1578L71.4376 20.4785L71.9713 20.7681L71.9211 20.7426L71.8779 20.7213L72.6434 21.1026L73.4463 21.5022L73.4865 21.5225L73.5297 21.545L74.1997 21.9041L74.8696 22.2632L75.4738 22.5882L75.4 22.552L75.3169 22.5135L75.9084 22.7797L76.5032 23.0473L76.5068 23.0489L76.5111 23.0508L76.974 23.2664L77.3027 23.4252L77.1033 23.3516L77.6869 23.63L78.1592 23.7406L77.8781 23.6597L77.3037 23.6353V31.1345V31.1149V31.1113V31.11L81.0203 27.3934L81.0215 27.4989L81.0203 27.8192V27.9247V28.245L81.0228 28.7801L81.022 29.6033L81.0223 30.5238L81.0201 30.5724L80.9608 31.2566L80.9009 31.9499L80.9042 31.8641L80.9141 32.7254L80.9153 33.2586L80.9166 33.7918L80.9178 34.6454L80.9179 35.591L80.914 35.6913L80.9068 35.8008L80.8481 36.547L80.7906 37.2764L80.7918 37.261L80.7928 37.2469L80.7391 38.1008L80.6857 38.9493L80.6861 38.9442L80.6864 38.9393L80.6382 39.8481L80.5897 40.7599L80.5895 40.7627L80.5893 40.7656L80.53 41.6719L80.4754 42.4936L80.4781 42.4098L80.4791 42.327L80.4795 43.2515L80.4799 44.176L80.4803 45.1004V45.7762V46.452V47.1278L80.4811 47.8739L80.4819 48.62L80.4827 49.3661V50.2189V51.0718V51.9247L80.4823 52.8491L80.4819 53.7736L80.4815 54.6981L80.4818 55.552L80.482 56.4059L80.4822 57.2598L80.4825 58.1137L80.4827 58.9676V59.8557V60.7437L80.4823 61.6877L80.481 61.7451L80.4788 61.804L80.4397 62.6582L80.4007 63.5124L80.3638 64.3092L80.3651 64.2517L80.3655 64.1942V65.0471V65.8999L80.3653 66.7943L80.3647 66.8325L80.3638 66.8679L80.3342 67.8278L80.3046 68.7878L80.275 69.7477L80.2463 70.6713L80.2469 70.633L80.2471 70.5926V71.4819V72.3713V73.2606V74.1486V75.0366V75.9247L80.2467 76.8856L80.2463 77.8465L80.2459 78.8075V79.7319V80.6564V81.5809V82.4762V83.3715V84.2668V85.1621V86.0575V86.8582V87.659V88.4598V89.2606L80.2462 90.1405L80.2465 91.0204L80.2468 91.9002L80.2471 92.7801L80.2474 93.7137L80.2477 94.6473L80.248 95.5809L80.2481 96.4743L80.2475 96.4324L80.2462 96.3889L80.2762 97.2688L80.3061 98.1487L80.336 99.0285L80.3633 99.8454L80.3594 99.7801L80.3543 99.7126L80.4273 100.544L80.5003 101.376L80.5734 102.208L80.6464 103.04L80.6944 103.654L80.6613 103.46L80.6233 103.289L80.8602 104.247L81.0948 105.197L81.092 105.186L81.0885 105.172L81.3033 106.018L81.5103 106.857L81.5333 107.01L81.6753 108.069L81.6558 108.601L81.6544 109.1H81.6434L77.8974 112.843V112.833V112.822V112.812V112.801V112.799V112.796V112.793V112.79V112.782V112.773V112.772V112.776V112.779L78.0735 112.776L78.0632 112.768L77.7372 112.767L77.1589 112.896L76.2452 113.108L76.2299 113.111L75.4781 113.193L75.0372 113.236L75.1169 113.226L75.1863 113.215L74.5138 113.328L73.8799 113.434L73.7402 113.454L72.975 113.568L72.3327 113.688L71.6563 113.706L71.5539 113.712L70.7877 113.78L69.9508 113.852L69.9436 113.853L69.9369 113.853L68.9899 113.912L68.1246 113.966L68.2133 113.957L68.3097 113.946L67.4803 114.053L66.651 114.161L65.8293 114.267L65.8371 114.266L65.8452 114.265L65.0549 114.371L64.2645 114.478L63.4863 114.583L63.4967 114.582L63.5057 114.581L62.5178 114.725L61.53 114.87L60.5591 115.012L60.581 115.009L60.6105 115.004L59.9602 115.11L59.3518 115.21L59.3991 115.201L59.453 115.191L58.92 115.299L58.2403 115.434L58.1013 115.454L57.9701 115.468L57.3764 115.521L56.8457 115.569L56.8953 115.563L56.9352 115.558L56.1053 115.667L55.1855 115.786L55.0853 115.795L54.9732 115.802L54.2623 115.838L53.5513 115.873L52.8908 115.905L52.931 115.902L52.9639 115.9L51.9863 115.98L51.0088 116.061L50.0313 116.141L49.1375 116.214L49.2223 116.204L49.3082 116.192L48.3602 116.334L47.4123 116.476L46.5117 116.61L46.5588 116.602L46.6056 116.594L45.6576 116.772L44.7097 116.951L43.6692 117.145L43.5755 117.159L43.4808 117.171L42.5326 117.278L41.5843 117.384L40.6361 117.49L39.5676 117.608L39.4268 117.617L39.2607 117.621L38.5094 117.621L37.7581 117.622L37.0068 117.622L36.1774 117.622L35.3479 117.621L34.5185 117.621L33.5315 117.62L32.5446 117.62L31.5576 117.62L30.6982 117.619L29.8388 117.619L28.9795 117.619L28.1201 117.618L27.152 117.618L26.1839 117.618L25.2158 117.618L24.2477 117.618L23.2796 117.617L22.3115 117.617L21.5052 117.617L20.699 117.617L19.8927 117.616L19.0865 117.616L18.2802 117.616H17.3027H16.3252H15.3476H14.3701H13.4521H12.5341H11.6162H10.6982L9.89197 117.616L9.08571 117.615L8.27946 117.615L7.47321 117.615L6.66696 117.615L5.71774 117.632V117.644V117.646L1.86316 113.792L1.86072 113.686L1.85706 113.366L1.85583 112.725V112.032V111.339L1.85522 110.753L1.85461 110.167V109.579V108.991L1.85034 108.032L1.84607 107.073V106.272V105.472L1.84546 104.673L1.84485 103.874V102.966V102.057V101.098V100.139L1.84546 99.1786L1.84645 98.1634L1.8476 98.1091L1.84949 98.0549L1.89026 97.0953L1.93103 96.1357L1.96997 95.2282L1.9688 95.2823L1.96838 95.3387L1.96899 94.4325L1.9696 93.5262V92.7254V91.9247V91.1786V90.4325L1.97002 89.7215L1.97041 89.0106L1.97083 88.2997L1.97144 87.7664L1.97205 87.2332V86.3778V85.6317V84.9911V84.245L1.97083 84.034L1.97205 83.7137V83.1786V82.8582L1.97083 82.6473L1.97205 82.327L1.97083 82.2176V82.0067L1.97205 81.6864V81.4715L1.97327 81.0457V80.7254V80.2997V80.1942H1.97083L5.83884 84.0634V84.0646L1.9696 80.1942L1.99553 80.6306L1.99796 80.521L2.00981 80.4822L1.90059 79.6809L1.90419 79.7052L1.79121 78.9765L1.67032 78.196L1.66618 78.1673L1.66264 78.1415L1.54497 77.2534L1.42728 76.3652L1.31061 75.4846L1.31166 75.4923L1.31274 75.5002L1.19603 74.6463L1.0793 73.7924L0.962585 72.9386L0.836746 72.0148L0.829453 71.9499L0.823669 71.8894L0.741135 70.9289L0.658615 69.9683L0.576096 69.0078L0.493561 68.0473L0.411041 67.0867L0.328506 66.1262L0.237793 65.0533L0.232925 64.9416L0.231323 64.8309L0.238861 63.8537L0.246384 62.8765L0.253906 61.8993L0.261444 60.9221L0.268967 59.9448L0.276489 58.9676L0.281525 58.0741L0.28656 57.1805L0.291595 56.287L0.296631 55.3934L0.301666 54.4998L0.306702 53.6063L0.311737 52.7127L0.316833 51.7991L0.316986 51.7798L0.31723 51.7613L0.335999 50.8145L0.354767 49.8678L0.373535 48.9211L0.392303 47.9744L0.411057 47.0277L0.429825 46.081L0.448593 45.1342L0.468353 44.1419L0.46991 44.0961L0.472031 44.0503L0.526077 43.1085L0.580139 42.1667L0.634186 41.2248L0.688232 40.283L0.742279 39.3412L0.796341 38.3994L0.850388 37.4576L0.904434 36.5157L0.958481 35.5739L1.01254 34.6321L1.06659 33.6903L1.12199 32.7243L1.12352 32.6999L1.12521 32.6754L1.19865 31.7461L1.27208 30.8169L1.34552 29.8876L1.41896 28.9583L1.49239 28.0291L1.56583 27.0998L1.63705 26.203L1.63509 26.2365L1.63338 26.2711L1.68286 25.3828L1.73236 24.4946L1.78186 23.6064L1.83134 22.7181L1.88084 21.8299L1.92827 20.9983L1.92714 21.0511L1.92679 21.1004L1.95334 20.1131L1.97989 19.1258L2.00645 18.1385L2.033 17.1512L2.06433 16.2983L2.09566 15.4455L2.127 14.5926L2.18193 13.8465L2.23686 13.1004L2.29295 11.927L2.3075 11.849L2.42622 11.1926L2.66977 10.8524L2.9037 10.3482L2.58598 11.8192L5.60056 14.7593V14.6505V14.4417V14.3026V14.1244V13.9545V13.7128V13.5163V13.3039V13.0938V12.9839V12.8765V12.6812V11.4286Z" fill="#FF00F5" style="fill:#FF00F5;fill:color(display-p3 1.0000 0.0000 0.9608);fill-opacity:1;"/>
<path d="M46.3495 8.40512L46.1261 8.08481H45.5779H45.1946L46.6083 6.24121L48.8012 8.42923L49.1545 8.48474L49.1745 9.03198L49.1788 8.96317L49.2592 9.75L49.34 10.4663L49.419 11.284L49.4173 11.3853L49.4128 11.4756L49.3493 12.5206L49.2923 13.4846L49.2352 14.4486L49.1782 15.4126L49.1773 15.4219L49.1764 15.4315L49.0971 16.3604L49.0189 17.2792L48.9406 18.1981L48.8623 19.1169L48.7841 20.0358L48.7827 20.0488L48.7813 20.062L48.6891 20.97L48.5985 21.8646L48.5078 22.7591L48.4172 23.6537L48.3266 24.5482L48.2359 25.4428L48.1453 26.3373L48.0547 27.2319L48.0581 27.201L48.0614 27.1686L48.0014 27.9673L47.9384 28.8L47.8753 29.6327L47.8122 30.4654L47.7492 31.2981L47.7504 31.2836L47.7515 31.269L47.7019 32.0822L47.6511 32.91L47.6004 33.7378L47.5496 34.5656L47.5541 34.4916L47.5571 34.4123L47.5655 35.0731L47.5728 35.8192L47.5802 36.5653L47.5844 37.2059L47.5887 37.8465L47.5912 37.952H47.651H47.7254L44.2372 34.4284V34.4186V34.4211L44.831 34.4381L45.6995 34.4345L46.568 34.4308L47.4364 34.4272L47.2607 34.4315L47.081 34.4451L47.7277 34.3369L48.5568 34.2054L49.386 34.0739L50.2152 33.9424L51.0443 33.8109L50.9764 33.8221L50.9092 33.8345L51.672 33.6697L52.5013 33.4914L53.3306 33.3131L54.1599 33.1347L54.9892 32.9564L55.8185 32.7781L55.8353 32.7745L55.8513 32.7712L56.7558 32.59L57.6451 32.4119L58.5343 32.2337L59.4236 32.0556L60.3128 31.8775L61.202 31.6993L61.3016 31.6809L61.3994 31.6656L62.4283 31.5468L63.3614 31.4402L64.2945 31.3336L65.2276 31.227L66.1607 31.1204L67.0938 31.0138L68.0269 30.9072L68.9599 30.8006L68.9995 30.7963L69.0424 30.7922L69.9187 30.7245L70.7484 30.6606L71.5781 30.5968L72.4078 30.533L73.2375 30.4692L73.249 30.4683L73.2608 30.4675L74.0728 30.4135L74.8726 30.3604L75.6725 30.3073L76.4723 30.2542L76.4469 30.256L76.4214 30.258L77.1861 30.1903L77.9765 30.1204L78.7669 30.0505L78.6084 30.0682L78.4527 30.0927L79.0911 29.9455L79.8815 29.7675L80.6714 29.5897L80.6426 29.5963L81.6221 29.3745L81.9781 29.2689H82.0953L82.102 29.2661L82.8739 29.1713V29.1591V29.1504V29.1431V36.1087L82.2216 35.091L81.5693 34.0733V31.3776L82.2216 30.3599L82.8739 29.3422V36.3078V36.3005V36.2918V36.2796L83.6459 36.1847L83.6526 36.1819H83.5354L83.1805 36.2873L82.2615 36.4952L82.2327 36.5018L81.4418 36.6807L80.6516 36.8595L79.7093 37.0691L79.5536 37.0936L79.3951 37.1113L78.6047 37.182L77.8144 37.2527L76.9984 37.3257L76.9728 37.3277L76.9475 37.3295L76.1477 37.3838L75.3479 37.4381L74.5482 37.4924L73.7605 37.5459L73.7723 37.545L73.7838 37.5442L72.9541 37.6085L72.1245 37.6728L71.2948 37.7371L70.4651 37.8014L69.6821 37.8618L69.7249 37.8577L69.7645 37.8534L68.8314 37.9597L67.8983 38.0659L66.9651 38.1722L66.032 38.2785L65.0989 38.3849L64.1658 38.4911L63.2327 38.5974L62.3954 38.6915L62.4932 38.6762L62.5927 38.6578L61.7033 38.8351L60.8139 39.0125L59.9245 39.1898L59.0351 39.3671L58.1457 39.5445L57.2716 39.7187L57.2876 39.7154L57.3044 39.7119L56.4748 39.889L55.6452 40.0661L54.8157 40.2433L53.9861 40.4204L53.1566 40.5975L52.2605 40.7882L52.1933 40.8006L52.1254 40.8118L51.2952 40.9366L50.465 41.0613L49.6348 41.186L48.8046 41.3108L47.7919 41.4589L47.6122 41.4724L47.4364 41.4768L46.568 41.4732L45.6995 41.4695L44.831 41.4659L44.2372 41.4829V41.4854V41.4756L40.749 37.952H40.8235H40.8833L40.8857 37.8465L40.89 37.2059L40.8943 36.5653L40.9016 35.8192L40.9089 35.0731L40.9173 34.2417L40.9203 34.1624L40.9248 34.0884L40.9932 33.2619L41.0616 32.4354L41.13 31.6089L41.1995 30.7678L41.2007 30.7532L41.2019 30.7387L41.281 29.9073L41.3601 29.076L41.4392 28.2447L41.5184 27.4133L41.6006 26.5479L41.6039 26.5154L41.6073 26.4846L41.7237 25.593L41.8401 24.7014L41.9565 23.8099L42.0729 22.9183L42.1893 22.0267L42.3057 21.1351L42.4221 20.2436L42.5369 19.3654L42.5355 19.3786L42.5341 19.3916L42.6449 18.4761L42.7557 17.5606L42.8665 16.6451L42.9773 15.7296L43.0871 14.824L43.0862 14.8336L43.0853 14.843L43.208 13.8851L43.3306 12.9272L43.4533 11.9693L43.5695 11.0924L43.565 11.1828L43.5632 11.284L43.6422 10.4663L43.7231 9.54721L43.8035 8.69864L43.8077 8.62982L44.0621 7.68488L44.4155 7.74039L46.6083 9.92841L48.0221 8.08481H47.6388H47.0905L46.3495 8.40512Z" fill="#FF00F5" style="fill:#FF00F5;fill:color(display-p3 1.0000 0.0000 0.9608);fill-opacity:1;"/>
<path d="M29.8896 54.654L29.4936 54.2959L29.0977 53.9378L28.9873 54.3229L29.5419 54.9025L29.3036 55.1907L29.1864 55.4519V55.6741L29.0654 55.9355L28.9482 56.0185L28.831 56.2785L28.7099 56.4201L28.5927 56.5387L28.12 56.6608L27.6435 56.6925L27.1708 56.7255L26.5771 56.756L26.0439 56.7615L25.5107 56.767L26.0471 56.7207L26.5753 56.5807L26.5768 56.632L26.1031 56.9011L26.2224 56.8303L26.3175 56.7686L25.8054 57.144L25.2161 57.5733L25.2669 57.536L25.3154 57.4989L24.7735 57.9467L24.1852 58.4314L24.2665 58.3631L24.3519 58.286L23.9681 58.6807L23.4948 59.1624L23.6418 59.003L23.7596 58.8576L23.3789 59.419L22.9033 60.1117L23.0209 59.9264L23.1537 59.6749L23.1117 59.8579L22.9299 60.3898L22.9394 60.361L22.948 60.3338L22.7771 60.8936L22.5982 61.4792L22.5902 61.5049L22.5816 61.5321L22.3938 62.0939L22.2155 62.6269L22.3021 62.3144L22.3578 61.9791L22.3709 62.1647L22.3648 62.6979L22.3606 63.5515L22.3563 64.405L22.3519 64.2389L22.3325 64.0198L22.399 64.2566L22.5169 64.79L22.3215 64.1995L22.0659 63.7361L22.2747 63.9284L22.748 64.4629L22.6278 64.3352L22.506 64.2194L22.9742 64.5973L23.5645 65.0797L23.4722 65.0077L23.3716 64.9351L23.8536 65.2364L24.445 65.61L24.2418 65.4923L24.0626 65.4046L24.735 65.6604L25.5647 65.9819L25.4021 65.9243L25.201 65.8666L25.6023 65.922L26.2546 66.0294L26.0788 66.0056L25.9099 65.9922L26.4599 65.9874L27.1708 65.9868L28.1181 65.9856L29.0654 65.9844L29.5986 65.9838L29.5801 66.0324L29.0103 66.1919L29.4744 65.9825L29.6804 65.6523L29.6024 65.7132L29.7993 65.4769L30.146 65.1158L30.054 65.2151L29.9663 65.3184L30.2374 64.9455L30.5914 64.4659L30.4857 64.6172L30.417 64.7272L30.8432 63.9564L31.3173 63.1026L31.2198 63.293L31.1183 63.5351L31.1982 63.1509L31.3747 62.4573L31.3618 62.5096L31.3512 62.5556L31.519 61.7424L31.6955 60.8886L31.6668 61.0468L31.6449 61.2197L31.6602 60.6342L31.6883 59.8607L31.7164 59.0872L31.7444 58.3138L31.743 58.3591L31.7424 58.3982L31.7416 57.4733L31.741 56.5143L31.7373 55.7136L31.7336 54.9128L31.744 55.1671L31.7834 55.4697L31.6899 55.2387L31.511 54.6532L31.7102 55.1517L31.9783 55.5915L31.8067 55.4703L31.3308 54.9911L31.3758 55.0358L31.4199 55.0779L30.929 54.6378L30.395 54.1583L30.4739 54.2271L30.5397 54.281L29.8257 53.7384L29.2013 53.2565L29.3198 53.3328L28.7208 53.0352L28.7 53.0673L28.3863 53.0094L28.0481 53.0844L27.5263 53.0802L27.0988 53.1453L27.6115 53.0155L27.5424 53.2455L27.8771 53.1147L27.8755 53.1161L27.8742 53.1173L27.2787 53.6505L26.8493 54.0232L26.8298 54.0434L26.5352 54.5092L26.5732 54.3671L26.524 54.3331L26.288 54.3865L22.4368 53.1003L21.6552 50.9547L21.4192 50.7972L21.37 50.7631L21.8767 50.1992L22.2931 49.5947L22.2736 49.6148L23.0317 48.9212L23.6237 48.388L23.6224 48.3891L23.6208 48.3905L24.7836 47.5137L25.5426 46.9976L26.0554 46.8678L27.5263 46.7141L28.4264 46.71L29.7444 46.7849L30.3839 46.9457L31.5427 47.3997L32.6078 47.9615L32.7263 48.0378L33.6409 48.7278L34.466 49.357L34.5318 49.411L34.6107 49.4798L35.1431 49.9612L35.7186 50.4821L35.7627 50.5241L35.8077 50.5688L36.281 51.0506L37.0586 51.8903L37.3268 52.3301L37.5259 52.8286L37.7025 53.4149L37.9645 54.3559L38.0039 54.6585L38.0143 54.9128L38.0106 55.7136L38.0069 56.5143L38.0063 57.4733L38.0055 58.4664L38.0049 58.5055L38.0035 58.5508L37.9729 59.3242L37.9424 60.0976L37.9119 60.871L37.8686 61.8324L37.8467 62.0054L37.818 62.1635L37.639 63.0168L37.4514 63.9106L37.4408 63.9565L37.4279 64.0089L37.249 64.702L36.9733 65.7045L36.8719 65.9466L36.7744 66.1371L36.2992 66.9903L35.7762 67.9265L35.7075 68.0364L35.6018 68.1878L35.2448 68.6653L34.805 69.2494L34.7173 69.3527L34.6253 69.4519L34.1439 69.9463L33.5127 70.5655L33.4347 70.6263L32.2188 71.5774L31.2532 72.0087L30.6834 72.1682L29.5986 72.2168L29.0654 72.2162L28.1181 72.215L27.1708 72.2137L26.4599 72.2131L25.588 72.2083L25.4191 72.195L25.2433 72.1711L24.5909 72.0637L23.6875 71.9043L23.4864 71.8466L23.3238 71.789L22.4933 71.4698L21.5056 71.085L21.3264 70.9973L21.1232 70.8797L20.5311 70.5071L19.8294 70.0623L19.7288 69.9898L19.6366 69.9177L19.0432 69.4392L18.3279 68.8562L18.206 68.7403L18.0858 68.6127L17.6099 68.0807L16.8695 67.2067L16.6138 66.7432L16.4185 66.1527L16.2981 65.6198L16.1263 64.7901L16.1069 64.571L16.1025 64.405L16.0983 63.5515L16.094 62.6979L16.0879 62.1647L16.101 61.2839L16.1567 60.9487L16.2433 60.6362L16.4205 60.1028L16.5882 59.5981L16.5796 59.6253L16.5716 59.6511L16.7482 59.0648L16.9327 58.4527L16.9413 58.4255L16.9508 58.3967L17.1245 57.8622L17.438 56.9788L17.5708 56.7273L17.6883 56.542L18.1619 55.848L18.7305 55.0226L18.8483 54.8773L18.9953 54.7178L19.4712 54.2386L20.0366 53.6724L20.1221 53.5953L20.2034 53.527L20.7986 53.0508L21.4403 52.5376L21.4888 52.5005L21.5396 52.4632L22.1339 52.0409L22.8054 51.5648L22.9005 51.5031L23.0198 51.4323L23.4953 51.1663L24.446 50.6824L24.9743 50.5423L25.5107 50.4961L26.0439 50.5016L26.5771 50.5071L27.1708 50.5376L27.6435 50.5706L28.12 50.6023L28.5927 50.7244L28.7099 50.843L28.831 50.9846L28.9482 51.2446L29.0654 51.3276L29.1864 51.589V51.8111L29.3036 52.0724L29.5419 52.3606L30.0966 52.9401L29.9861 53.3253L30.18 53.8226L30.374 54.32L29.8896 54.654Z" fill="#FF00F5" style="fill:#FF00F5;fill:color(display-p3 1.0000 0.0000 0.9608);fill-opacity:1;"/>
<path d="M76.9792 94.4868L76.6569 94.1664H76.3664H76.061L77.0658 92.8979V92.5706V92.3631V96.2285V96.5473L76.4787 96.7007L75.6926 96.6851L75.1665 96.6389L74.4712 96.2412L73.5736 95.7921L73.4285 95.6966L73.0011 95.4198L72.4489 95.0527L72.3837 95.0016L71.6387 94.4916L70.8212 93.8014L70.7822 93.7668L70.203 93.2363L69.6056 92.6812L69.7152 92.7911L69.2202 92.3444L68.8374 92.1711L68.4599 91.8769L68.0216 91.5998L68.004 91.5867L67.4567 91.2141L66.737 90.7125L66.7558 90.7272L65.9706 90.0383L65.2552 89.5145L64.6607 88.9803L64.0777 88.5774L64.0129 88.5238L63.6333 88.1828L63.0963 87.7068L63.1006 87.7106L62.7254 87.3704L62.3569 87.0478L62.0456 86.8821L61.4477 86.3577L60.9069 85.9771L60.4939 85.5966L59.9751 85.2266L59.5176 85.0223L59.094 84.7078L58.649 84.4043L58.0831 84.1354L57.7362 83.8922L57.4185 83.6599L56.9169 83.4319L56.624 83.3574L56.4624 83.2838L56.107 83.0728L55.5825 82.7847L55.1131 82.573L54.7041 82.4966L54.5541 82.4273L54.5333 82.3953L54.1963 82.2184L54.1847 82.2711L54.1059 82.3038L54.3119 82.3221L54.4355 82.2746L54.772 82.2112L54.2959 82.386L53.9524 82.5117L54.3981 82.3152L54.783 82.0792L54.5644 82.3048L54.028 82.7839L54.1193 82.699L54.202 82.6164L53.7438 83.1225L53.2106 83.7084L53.2044 83.7153L53.1985 83.7217L52.6012 84.3683L52.0094 85.0089L52.0553 84.9583L52.1045 84.9016L51.6828 85.4238L51.2082 86.0097L51.1978 86.0226L51.188 86.0345L50.6456 86.6862L50.2094 87.2048L50.2163 87.1957L49.7292 87.9588L49.2881 88.5574L48.811 89.0894L48.2883 89.796L48.045 90.1227L48.0888 90.0656L47.5081 90.836L46.9318 91.6009L46.3573 92.3632L45.7828 93.1256L45.2083 93.8879L44.6338 94.6503L44.0459 95.4301L44.1045 95.3514L43.5248 96.0736L43.2484 96.5934L43.2751 96.5516L43.0734 96.9229L42.7759 97.4559L42.4939 97.962L42.4594 98.0191L41.9873 98.7655L41.4917 99.5494L41.463 99.5941L41.4293 99.6445L40.974 100.288L40.5584 100.874L40.6645 100.716L40.7558 100.563L40.4787 101.127L40.1236 101.838L39.7685 102.549L39.7471 102.591L39.7239 102.635L39.3438 103.322L38.9888 103.963L38.9665 104.003L38.9395 104.049L38.6093 104.585L38.3514 105L38.3341 105.03L37.882 105.847L37.4176 106.579L36.9342 107.446L36.9161 107.476L36.577 108.033L36.0981 108.814L35.4702 109.613L35.4258 109.674L35.1289 110.102L34.8923 110.446L34.9064 110.425L34.9185 110.407L34.5735 110.925L34.1187 111.599L34.218 111.458L33.6752 112.091L33.4438 112.618L33.1696 112.882L33.2963 112.716L32.9906 113.12L32.9302 113.415L32.9176 113.372L32.9505 113.124L32.2516 114.121L32.9559 113.221L33.38 111.553V111.659L32.9188 113.393L32.8113 113.474L33.0328 112.995L33.1237 112.825L33.254 111.979L33.0423 113.279L32.8164 113.773L31.9857 114.669L29.6596 115.56V108.608V108.618L32.0247 114.618L32.4387 114.152L32.7056 113.602L32.3046 114.32V114.535L32.3257 114.311L32.6426 113.538L32.5559 113.809L32.6414 113.749L32.6818 113.685L32.5635 113.79L32.433 114.338L32.2084 114.829L32.6336 113.151H32.63L32.6275 113.26H32.6263H32.6165L29.1869 109.849V109.91V110.021V110.226V110.417V110.75V114.369V115.77V116.104V116.294V116.499V116.61V116.672L25.7573 113.26H25.7476H25.7463L25.7439 113.151H25.7402L26.1654 111.472L25.9409 111.963L25.8104 112.301L25.9264 112.195L25.9669 111.912L26.0523 111.43L25.9657 111.701L26.2825 110.929L26.5381 110.704V110.49L26.3792 110.785L26.8804 110.017L27.2945 109.55L29.6596 115.551V115.56V108.608L27.3335 109.5L26.7371 110.396L26.5112 110.89L26.2996 111.979L26.4298 110.922L26.5208 110.533L26.7423 110.054L26.8769 109.924L26.4158 111.659V111.553L26.8399 109.885L27.5441 108.985L26.8452 109.763L27.1125 109.516L27.3343 109.261L27.2739 109.134L27.2104 109.32L27.5715 108.732L27.7738 108.566L28.019 108.023L28.4214 107.594L28.5208 107.452L28.7769 107.06L29.1429 106.512L29.155 106.494L29.1691 106.473L29.5262 105.961L29.8231 105.534L29.7787 105.595L30.3304 104.902L30.5625 104.51L30.9343 103.896L30.9162 103.926L31.386 103.082L31.8669 102.322L32.3601 101.436L32.3428 101.465L32.6786 100.92L32.9422 100.495L32.9152 100.541L32.8929 100.581L33.2489 99.9403L33.5797 99.3462L33.5565 99.3903L33.5351 99.4323L33.8909 98.7216L34.2468 98.0108L34.6806 97.1529L34.7719 96.9996L34.8779 96.8413L35.2944 96.2557L35.6711 95.7275L35.6374 95.7779L35.6087 95.8225L36.0584 95.1142L36.5316 94.3684L36.4972 94.4256L36.6917 94.0723L36.988 93.5389L37.38 92.8438L37.4067 92.802L37.8413 92.0405L38.4491 91.2706L38.5076 91.1918L39.0705 90.4482L39.6466 89.6872L40.2228 88.9261L40.799 88.165L41.3751 87.4039L41.9494 86.6453L42.5195 85.8923L42.5632 85.8352L42.7965 85.5213L43.2191 84.9466L43.6951 84.4161L44.1994 83.7334L44.6576 83.0044L44.6645 82.9953L45.2947 82.2326L45.8187 81.6031L45.8089 81.615L45.7985 81.6278L46.2731 81.0419L46.8006 80.3922L46.8499 80.3355L46.8957 80.2849L47.4875 79.6443L48.0738 79.0096L48.0679 79.0161L48.0617 79.0229L48.5949 78.437L49.2031 77.7711L49.2858 77.6886L49.3771 77.6036L49.911 77.1218L50.7627 76.3865L51.1476 76.1505L51.5934 75.954L52.4335 75.6539L53.141 75.403L53.4774 75.3396L54.3119 75.292L54.9945 75.3103L55.6266 75.343L56.0838 75.3957L56.6999 75.6407L57.1479 75.8275L57.4745 75.9691L58.0108 76.1036L58.4945 76.3217L59.1575 76.6741L59.513 76.885L59.8202 77.0302L60.2382 77.1666L60.6897 77.3683L61.3174 77.7689L61.9157 78.1663L62.303 78.327L62.8034 78.6642L63.5672 79.2012L64.055 79.4266L64.7237 79.9081L65.2561 80.3793L65.9028 80.8502L66.4923 81.3961L66.892 81.6601L67.2344 81.9703L67.8046 82.4894L67.8088 82.4933L68.0999 82.7634L68.5484 83.1684L68.4837 83.1149L69.0882 83.5635L69.6811 84.0996L70.3876 84.6383L71.0244 85.2307L71.0431 85.2454L71.507 85.5954L72.1433 86.0743L72.1257 86.0612L72.8749 86.6435L73.2084 86.9899L73.7709 87.4495L74.229 88.073L74.3386 88.1829L74.6865 88.5888L75.0526 89.0192L75.0136 88.9846L75.6257 89.5757L76.3027 90.1281L76.2374 90.0771L76.5134 90.3506L76.9141 90.7144L76.769 90.619L77.2933 91.0214L77.7855 91.4753L77.9703 91.6478L77.4186 91.6322L77.0658 91.7856V92.1043V95.9698V95.7622V95.4349L78.0707 94.1664H77.7653H77.4748L76.9792 94.4868Z" fill="#FF00F5" style="fill:#FF00F5;fill:color(display-p3 1.0000 0.0000 0.9608);fill-opacity:1;"/>
<path d="M167.495 10.3852V10.1189V9.73926V9.42538V9.01401V8.69281V8.38763V8.1203V7.9126V7.70996V7.62451L170.892 10.9675L170.909 11.5007L170.927 12.0339L170.984 12.8879L170.981 12.8134L171.081 13.7068L171.178 14.5526L171.28 15.4682L171.381 16.3838L171.483 17.2994L171.478 17.2448L171.473 17.193L171.609 18.1275L171.75 19.1111L171.891 20.0948L172.033 21.0785L172.031 21.0661L172.029 21.0529L172.159 21.9333L172.29 22.8276L172.421 23.722L172.552 24.6164L172.683 25.5107L172.691 25.5815L172.699 25.6562L172.777 26.5693L172.849 27.4037L172.921 28.2381L172.993 29.0726L173.065 29.907L173.137 30.7414L173.138 30.7595L173.139 30.7767L173.205 31.6934L173.27 32.5937L173.335 33.494L173.4 34.3943L173.464 35.2946L173.529 36.195L173.594 37.0953L173.659 37.9956L173.724 38.896L173.723 38.885L173.722 38.8739L173.788 39.7509L173.855 40.6392L173.921 41.5273L173.988 42.4155L174.054 43.3037L174.121 44.1919L174.12 44.1837L174.12 44.176L174.196 45.1496L174.273 46.1304L174.35 47.1112L174.427 48.0921L174.504 49.0729L174.503 49.0596L174.502 49.0451L174.576 49.882L174.651 50.7348L174.726 51.5876L174.801 52.4404L174.876 53.2932L174.873 53.2615L174.87 53.2292L174.958 54.0232L175.049 54.85L175.141 55.6769L175.233 56.5037L175.238 56.5553L175.242 56.6059L175.308 57.509L175.37 58.3624L175.432 59.2157L175.494 60.0691L175.493 60.0583L175.493 60.0465L175.551 60.7796L175.61 61.5257L175.609 61.5099L175.607 61.4925L175.665 62.1138L175.736 62.9028L175.738 62.9401L175.742 63.8607L175.745 64.405L175.746 64.5143H175.747H175.758L171.643 60.3985V60.4217L167.871 65.7674L168.05 65.1137L168.229 64.46L168.336 64.739L168.443 64.9602L168.7 64.1585L168.855 63.1801L169.009 62.2018L171.199 60.8503L172.143 61.1506L173.087 61.451L174.132 61.9279L174.24 62.1491L174.347 62.4281L174.882 62.8447L175.416 63.2613L171.643 68.607V68.6302L167.529 64.5143H167.54H167.541L167.542 64.405L167.545 64.0976L167.549 63.3152L167.551 63.3525L167.504 62.8602L167.445 62.2002L167.444 62.1828L167.443 62.1671L167.385 61.4209L167.326 60.6619L167.325 60.6501L167.324 60.6393L167.267 59.7856L167.21 58.9319L167.153 58.0782L167.099 57.2743L167.104 57.325L167.109 57.3765L167.023 56.5491L166.937 55.7216L166.85 54.8942L166.761 54.0339L166.758 54.0016L166.755 53.9699L166.688 53.1164L166.621 52.263L166.553 51.4095L166.486 50.5561L166.418 49.6867L166.417 49.6722L166.416 49.6589L166.35 48.6772L166.285 47.6956L166.22 46.7139L166.155 45.7322L166.089 44.7433L166.088 44.7357L166.088 44.7274L166.036 43.8383L165.984 42.9491L165.932 42.0599L165.88 41.1708L165.828 40.2816L165.775 39.3813L165.775 39.3703L165.774 39.3593L165.734 38.4576L165.694 37.5558L165.654 36.654L165.613 35.7523L165.573 34.8505L165.533 33.9487L165.493 33.047L165.453 32.1452L165.413 31.2598L165.414 31.277L165.416 31.2951L165.368 30.4589L165.32 29.6228L165.272 28.7867L165.224 27.9505L165.176 27.1143L165.135 26.3569L165.142 26.4315L165.151 26.5023L165.046 25.6045L164.941 24.7067L164.836 23.8089L164.731 22.911L164.625 21.9992L164.623 21.9861L164.621 21.9737L164.524 20.9847L164.427 19.9957L164.33 19.0067L164.228 17.9685L164.223 17.9167L164.218 17.8621L164.177 16.9417L164.137 16.0214L164.096 15.1011L164.051 14.1109L164.009 13.1684L164.006 13.0939L164.063 12.0339L164.081 11.5007L164.098 10.9675L167.495 14.3104V14.225V14.0223V13.8146V13.5473V13.2421V12.9209V12.5096V12.1957V11.816V10.3852Z" fill="#6900FF" style="fill:#6900FF;fill:color(display-p3 0.4118 0.0000 1.0000);fill-opacity:1;"/>
<path d="M154.503 43.3932L154.151 43.1783H153.6H153.127L154.932 40.8609V40.2077L158.204 43.1783H158.39L158.345 42.9265L158.247 42.6396L158.688 43.2581L159.001 43.6445L159.494 44.3901L159.986 45.1357L159.934 45.0473L159.876 44.9562L160.303 45.5345L160.793 46.2065L161.283 46.8784L161.773 47.5504L162.263 48.2223L162.764 48.9265L163.266 49.6319L163.768 50.3372L164.271 51.0426L164.773 51.748L165.275 52.4533L165.256 52.4265L165.237 52.4004L165.751 53.0857L166.283 53.7967L166.815 54.5076L167.347 55.2186L167.88 55.9295L168.412 56.6405L168.944 57.3514L168.919 57.3176L168.894 57.2846L169.434 57.9634L170 58.6745L170.565 59.3857L171.13 60.0968L171.696 60.8079L172.261 61.519L172.826 62.2302L172.793 62.1877L172.759 62.1459L173.321 62.8007L173.917 63.4965L174.513 64.1924L175.11 64.8883L175.706 65.5842L176.302 66.2801L176.899 66.976L177.495 67.6718L178.092 68.3677L178.066 68.338L178.041 68.3088L178.642 68.9695L179.269 69.6588L179.895 70.3481L180.522 71.0373L180.464 70.9741L180.404 70.9112L180.994 71.4891L181.628 72.1109L181.855 72.3011L177.261 71.4403L174.665 74.2286L174.486 74.9674L174.478 74.267L174.482 74.348L174.425 73.8535L174.384 73.5388L174.41 73.7354L174.438 73.8934L174.306 73.3118L174.148 72.601L173.99 71.8901L173.932 71.573L173.896 71.2455L173.887 70.2018L173.891 69.4908L173.894 68.7799L173.901 67.9801L173.907 67.1803L173.913 66.3805L173.919 65.5807L173.921 65.4552L173.925 65.343L174.004 64.3033L174.077 63.3644L174.15 62.4255L174.223 61.4866L174.296 60.5476L174.325 60.2699L174.375 59.982L174.684 58.8341L174.921 57.981L175.159 57.1278L175.396 56.2747L175.634 55.4216L175.871 54.5684L176.109 53.7153L176.124 53.6626L176.139 53.6131L176.445 52.6456L176.736 51.7247L177.028 50.8038L177.32 49.8829L177.611 48.962L177.903 48.0411L178.195 47.1202L178.486 46.1993L178.778 45.2784L179.07 44.3575L179.361 43.4366L179.386 43.3626L179.412 43.2861L179.763 42.354L180.085 41.501L180.407 40.6479L180.729 39.7949L181.05 38.9418L181.372 38.0888L181.694 37.2357L181.691 37.2435L181.689 37.2511L182.018 36.3624L182.35 35.4664L182.683 34.5703L183.015 33.6743L183.347 32.7783L183.375 32.7052L183.406 32.6291L183.797 31.7335L184.155 30.9169L184.455 30.2419L184.436 30.2897L184.686 29.5473L184.719 29.8728L184.918 29.9282L188.831 27.2368V27.7472V28.3285V32.4467V33.7079V34.2891V34.7995L192.744 32.1081L192.943 32.1635L192.975 32.489L192.749 33.4576L192.73 33.5053L192.319 34.4658L191.966 35.2846L191.647 36.0244L191.677 35.9483L191.705 35.8752L191.373 36.7714L191.041 37.6675L190.71 38.5637L190.378 39.4599L190.043 40.3634L190.04 40.3709L190.037 40.3787L189.717 41.2321L189.396 42.0856L189.075 42.939L188.754 43.7924L188.433 44.6458L188.112 45.4992L187.82 46.2737L187.846 46.1972L187.87 46.1231L187.58 47.0446L187.29 47.966L187 48.8874L186.71 49.8088L186.42 50.7303L186.13 51.6517L185.84 52.5732L185.55 53.4946L185.26 54.416L184.97 55.3374L184.695 56.2123L184.71 56.1628L184.725 56.1101L184.488 56.9634L184.251 57.8168L184.014 58.6701L183.777 59.5234L183.54 60.3767L183.304 61.2301L183.138 61.7887L183.188 61.5008L183.217 61.2231L183.148 62.1623L183.079 63.1014L183.009 64.0406L182.94 64.9798L182.877 65.8183L182.882 65.7061L182.883 65.5807L182.889 66.3805L182.895 67.1803L182.902 67.9801L182.908 68.7799L182.911 69.4908L182.915 70.2018L182.906 70.5799L182.87 70.2524L182.812 69.9352L182.969 70.6463L183.126 71.3573L183.31 72.1976L183.337 72.3556L183.363 72.5522L183.44 73.3039L183.5 73.8758L183.503 73.9568L183.496 74.9674L183.317 76.3389L180.72 79.1273L176.126 78.2664L175.885 78.0348L175.214 77.3753L174.5 76.672L174.44 76.6091L174.382 76.5459L173.764 75.8484L173.147 75.151L172.529 74.4536L171.886 73.7275L171.861 73.6983L171.835 73.6686L171.247 72.966L170.658 72.2635L170.07 71.5609L169.481 70.8584L168.893 70.1558L168.304 69.4533L167.716 68.7507L167.127 68.0482L166.504 67.3045L166.47 67.2627L166.437 67.2202L165.884 66.4994L165.331 65.7786L164.778 65.0578L164.225 64.337L163.672 63.6163L163.119 62.8955L162.541 62.1424L162.516 62.1093L162.491 62.0755L161.974 61.3534L161.457 60.6313L160.94 59.9093L160.423 59.1872L159.906 58.4651L159.389 57.743L158.854 56.9953L158.835 56.9691L158.816 56.9424L158.33 56.2259L157.844 55.5093L157.358 54.7928L156.872 54.0763L156.386 53.3598L155.899 52.6429L155.44 51.9485L154.982 51.2548L154.523 50.5611L154.064 49.8674L153.543 49.0801L153.485 48.989L153.433 48.9006L153.037 48.0993L152.641 47.298L152.065 46.1375L151.617 45.2092L151.52 44.9223L151.475 43.1783H151.66L154.932 46.1489V45.4957L156.738 43.1783H156.264H155.714L154.503 43.3932Z" fill="#6900FF" style="fill:#6900FF;fill:color(display-p3 0.4118 0.0000 1.0000);fill-opacity:1;"/>
<path d="M123.875 48.0846L123.249 47.8736H122.807H126.892H127.092L127.2 48.6929L127.196 48.6429L127.36 49.4432L127.516 50.1841L127.681 51.0081L127.846 51.8321L128.011 52.6562L128.017 52.7179L128.022 52.7769L128.112 53.7274L128.197 54.6215L128.283 55.5156L128.369 56.4097L128.454 57.3037L128.456 57.3389L128.457 57.373L128.502 58.3481L128.547 59.2903L128.591 60.2325L128.635 61.1747L128.68 62.1169L128.724 63.0591L128.725 63.0812L128.725 63.104L128.74 64.0265L128.755 64.9255L128.769 65.8245L128.784 66.7235L128.799 67.6225L128.814 68.5215L128.829 69.4205L128.84 70.3708L128.852 71.3211L128.863 72.2714L128.875 73.2216L128.886 74.1719L128.898 75.1222L128.909 76.0725L128.921 77.0228L128.932 77.9731L128.944 78.9233L128.956 79.8736L128.964 80.8641L128.973 81.8546L128.982 82.8452L128.991 83.8357L128.999 84.8262L129.008 85.8167L129.017 86.8072L129.017 86.8311L129.016 86.8555L129.003 87.8401L128.99 88.7999L128.976 89.7597L128.963 90.7195L128.95 91.6792L128.937 92.639L128.937 92.6158L128.937 92.5912L128.942 93.44L128.946 94.315L128.95 95.19L128.954 96.065L128.958 96.94L128.959 97.7135L128.959 98.4869L128.96 99.2603L128.961 100.034L128.961 101.029L128.962 102.023L128.963 103.018L128.964 103.606L128.966 104.194L128.967 105.151V106.006L128.968 106.432L128.967 106.647L125.304 102.983V102.962L125.421 102.908L126.134 102.902L126.847 102.895L126.63 102.901L126.446 102.917L127.172 102.773L128.057 102.61L128.941 102.447L129.825 102.283L129.733 102.298L129.647 102.314L130.532 102.108L131.498 101.885L132.463 101.661L133.428 101.438L134.393 101.215L135.359 100.992L135.375 100.988L135.392 100.984L136.321 100.788L137.232 100.595L138.143 100.402L139.054 100.209L139.965 100.016L140.876 99.8226L141.787 99.6295L142.698 99.4365L143.609 99.2435L144.52 99.0505L145.431 98.8575L146.342 98.6644L147.253 98.4714L147.294 98.4631L147.335 98.4554L148.322 98.2816L149.27 98.1149L150.218 97.9481L151.165 97.7814L152.113 97.6147L153.061 97.4479L154.009 97.2812L154.956 97.1144L155.904 96.9477L155.975 96.9359L156.045 96.9257L157.105 96.7965L158.098 96.6761L159.091 96.5556L160.083 96.4352L161.076 96.3148L162.069 96.1944L163.061 96.0739L164.054 95.9535L164.122 95.9459L164.192 95.9392L165.213 95.8707L166.161 95.8077L167.109 95.7448L168.057 95.6818L169.005 95.6188L169.953 95.5559L170.901 95.4929L171.85 95.4299L172.798 95.367L173.746 95.304L173.809 95.3002L173.871 95.2975L174.926 95.2755L175.921 95.2551L176.916 95.2347L177.912 95.2144L178.907 95.194L178.933 95.1935L178.961 95.1932L179.869 95.1934L180.746 95.1936L181.623 95.1938L182.501 95.1941L183.378 95.1943L184.255 95.1946L185.133 95.1948L186.01 95.1951L186.887 95.1953L187.765 95.1956L187.733 95.1957L187.701 95.1961L188.546 95.1759L189.422 95.155L190.299 95.1342L191.175 95.1133L192.052 95.0925L191.918 95.0979L191.78 95.1083L192.468 95.017L193.298 94.91L194.127 94.8029L194.957 94.6959L195.787 94.5889L195.69 94.6026L195.6 94.6174L196.432 94.4505L197.346 94.2678L198.261 94.0851L199.175 93.9025L200.09 93.7198L201.004 93.5372L201.919 93.3546L201.822 93.3753L201.719 93.3998L202.442 93.1934L203.272 92.9582L204.101 92.7231L204.931 92.4879L205.761 92.2527L205.742 92.258L205.723 92.2636L206.485 92.0349L207.267 91.8002L208.049 91.5656L208.831 91.331L209.613 91.0964L209.693 91.0735L209.772 91.0523L210.652 90.8463L211.452 90.6598L212.252 90.4733L213.051 90.2867L213.208 90.2536L213.354 90.2284L214.401 90.1079L215.31 90.006L216.302 89.8953L216.363 89.8898L217.033 89.8869L217.511 89.8794V89.8782V89.8757L217.632 89.877V89.8806V89.8879V89.8867V89.8855V89.8843V89.8867V89.8879V89.8843L213.655 93.8463H213.636L213.586 92.9908L213.578 92.1373L213.571 91.2838V90.3958V89.5078V88.6197V87.6598V86.6998V85.7398V84.7799L213.571 83.9264L213.571 83.0728L213.572 82.2193L213.572 81.3658L213.572 80.5123L213.572 79.6588L213.572 78.7201L213.573 77.7814L213.573 76.8428L213.573 75.9041L213.573 74.9654L213.573 74.0268L213.573 73.0881L213.573 72.1494L213.573 71.2107L213.573 70.2721V69.3123V68.3524V67.3926V66.4328V65.473V64.5131V63.5533L213.573 62.6236L213.573 61.6939L213.573 60.7643L213.573 59.8346L213.573 58.9049L213.572 57.9752L213.572 57.0455L213.572 57.0742L213.573 57.1016L213.553 56.1324L213.533 55.1369L213.513 54.1415L213.492 53.146L213.472 52.1506L213.452 51.1552L213.452 51.1734L213.453 51.1917L213.419 50.2195L213.384 49.2291L213.349 48.2386L213.314 47.2481L213.279 46.2577L213.244 45.2672L213.209 44.2767L213.211 44.3224L213.214 44.3737L213.158 43.6044L213.098 42.7773L213.039 41.9501L212.979 41.123L212.974 41.0324L212.97 40.9352L212.968 40.0846L212.966 39.3385L212.965 38.5924L212.966 38.6999L212.97 38.8022L212.916 38.0987L212.854 37.298L212.854 37.2882L212.853 37.2788L212.794 36.4164L212.753 35.7526L212.772 35.8947L212.676 35.7111L212.741 36.0661L212.739 35.952L212.623 35.7403L212.766 35.9827L212.943 36.2708L213.502 37.0078L216.206 37.9514L216.089 37.6987L215.261 32.4678L216.089 30.3142L216.206 30.0615L218.911 31.0051L219.711 31.742L219.889 32.0302L220.266 32.9132L220.384 33.1234L220.382 33.228L220.69 34.2237L220.828 34.6728L220.847 34.815L220.923 35.8582L220.981 36.7028L220.981 36.6934L220.98 36.6836L221.04 37.4845L221.106 38.3826L221.11 38.4849L221.111 38.5924L221.11 39.3385L221.109 40.0846L221.106 40.7262L221.103 40.6289L221.097 40.5383L221.157 41.3655L221.216 42.1926L221.276 43.0198L221.339 43.9048L221.342 43.9561L221.344 44.0018L221.376 44.9923L221.408 45.9829L221.44 46.9734L221.472 47.964L221.504 48.9546L221.536 49.9451L221.569 50.954L221.569 50.9723L221.57 50.9905L221.59 51.986L221.61 52.9814L221.63 53.9769L221.65 54.9723L221.671 55.9678L221.691 56.9894L221.691 57.0168L221.692 57.0455L221.691 57.9752L221.691 58.9049L221.691 59.8346L221.691 60.7643L221.691 61.6939L221.691 62.6236L221.69 63.5533V64.5131V65.473V66.4328V67.3926V68.3524V69.3123V70.2721L221.69 71.2107L221.691 72.1494L221.691 73.0881L221.691 74.0268L221.691 74.9654L221.691 75.9041L221.691 76.8428L221.691 77.7814L221.691 78.7201L221.692 79.6588L221.692 80.5123L221.692 81.3658L221.692 82.2193L221.692 83.0728L221.693 83.9264L221.693 84.7799V85.7398V86.6998V87.6598V88.6197V89.5078V90.3958V91.2838L221.685 92.1373L221.678 92.9908L221.628 93.8463H221.609L217.632 97.8083V97.8046V97.8058V97.8083V97.8071V97.8058V97.8046V97.812V97.8156L217.511 97.8168V97.8144V97.8132L217.52 97.8057L217.002 97.8027L217.064 97.7973L216.238 97.9001L215.329 98.0117L214.558 98.1048L214.705 98.0796L214.861 98.0464L214.061 98.233L213.261 98.4195L212.462 98.606L211.741 98.7731L211.821 98.7519L211.901 98.729L211.119 98.9631L210.336 99.1972L209.554 99.4314L208.772 99.6655L207.97 99.9055L207.951 99.9111L207.933 99.9164L207.103 100.152L206.273 100.387L205.444 100.622L204.614 100.857L203.677 101.121L203.575 101.145L203.478 101.166L202.563 101.348L201.648 101.531L200.734 101.713L199.819 101.895L198.904 102.078L197.99 102.26L196.992 102.458L196.902 102.473L196.805 102.487L195.976 102.594L195.146 102.701L194.316 102.808L193.487 102.915L192.515 103.037L192.377 103.048L192.243 103.053L191.367 103.075L190.49 103.096L189.614 103.117L188.737 103.139L187.829 103.161L187.797 103.161L187.765 103.161L186.887 103.161L186.01 103.162L185.133 103.162L184.255 103.162L183.378 103.162L182.501 103.163L181.623 103.163L180.746 103.163L179.869 103.163L179.022 103.163L179.05 103.163L179.076 103.163L178.08 103.184L177.085 103.206L176.09 103.228L175.095 103.25L174.159 103.27L174.22 103.267L174.284 103.264L173.336 103.329L172.388 103.394L171.44 103.459L170.492 103.524L169.544 103.589L168.596 103.655L167.648 103.72L166.7 103.785L165.752 103.85L164.877 103.91L164.947 103.903L165.015 103.895L164.022 104.015L163.029 104.135L162.037 104.255L161.044 104.375L160.051 104.494L159.059 104.614L158.066 104.734L157.141 104.845L157.21 104.835L157.282 104.823L156.333 104.988L155.385 105.153L154.437 105.318L153.489 105.482L152.541 105.647L151.593 105.812L150.645 105.977L149.697 106.142L148.788 106.3L148.829 106.292L148.87 106.284L147.957 106.468L147.044 106.652L146.131 106.837L145.218 107.021L144.306 107.206L143.393 107.39L142.48 107.574L141.567 107.759L140.654 107.943L139.741 108.127L138.828 108.312L137.916 108.496L137.02 108.677L137.037 108.673L137.054 108.67L136.084 108.874L135.114 109.077L134.145 109.281L133.175 109.485L132.206 109.689L131.156 109.909L131.07 109.925L130.978 109.94L130.085 110.045L129.192 110.149L128.298 110.253L127.248 110.378L127.063 110.393L126.847 110.399L126.134 110.392L125.421 110.386L125.304 110.332V110.311L121.641 106.647L121.64 106.432L121.641 106.006V105.151L121.642 104.194L121.643 103.606L121.645 103.018L121.645 102.023L121.646 101.029L121.647 100.034L121.648 99.2603L121.648 98.4869L121.649 97.7135L121.649 96.94L121.654 96.065L121.658 95.19L121.662 94.315L121.666 93.44L121.67 92.5388L121.671 92.5143L121.671 92.4911L121.697 91.5316L121.723 90.5721L121.748 89.6126L121.774 88.6531L121.8 87.6936L121.826 86.7589L121.825 86.7833L121.825 86.8072L121.834 85.8167L121.843 84.8262L121.851 83.8357L121.86 82.8452L121.869 81.8546L121.878 80.8641L121.886 79.8736L121.898 78.9233L121.909 77.9731L121.921 77.0228L121.933 76.0725L121.944 75.1222L121.956 74.1719L121.967 73.2216L121.979 72.2714L121.99 71.3211L122.002 70.3708L122.013 69.4205L122.028 68.5215L122.043 67.6225L122.058 66.7235L122.073 65.8245L122.087 64.9255L122.102 64.0265L122.117 63.1511L122.117 63.1739L122.118 63.196L122.123 62.2527L122.128 61.3095L122.134 60.3663L122.139 59.4231L122.144 58.4799L122.15 57.5696L122.152 57.6036L122.153 57.6388L122.144 56.7407L122.134 55.8426L122.124 54.9445L122.115 54.0464L122.109 53.2047L122.114 53.2638L122.12 53.3255L122.096 52.4854L122.072 51.6454L122.047 50.8054L122.015 49.8821L121.989 49.0185L121.986 48.9684L122.094 47.8736H122.294H126.379H125.937L123.875 48.0846Z" fill="#6900FF" style="fill:#6900FF;fill:color(display-p3 0.4118 0.0000 1.0000);fill-opacity:1;"/>
<path d="M295.495 7.80286L296.089 7.17053V6.88718V6.72113V6.5661V6.40482V6.24979V6.10086V5.85062V5.6759V10.202V10.329L295.378 10.4584L294.55 10.4889L293.601 10.5121L293.068 10.5353L292.534 10.5585L291.823 10.5737L291.113 10.589L290.224 10.5994L289.335 10.6097L288.347 10.6142L287.359 10.6187L286.37 10.6232L286.517 10.6192L286.703 10.603L286.268 10.7093L285.596 10.8548L284.925 11.0003L285.134 10.9477L285.296 10.8946L284.536 11.2212L283.649 11.5976L283.778 11.5392L283.91 11.4713L283.271 11.8702L282.5 12.347L282.721 12.193L282.923 12.0222L282.464 12.5496L281.828 13.2581L281.193 13.9666L281.434 13.6533L281.639 13.282L281.543 13.7236L281.297 14.5745L281.339 14.4007L281.37 14.2195L281.319 14.8859L281.248 15.7386L281.254 15.5533L281.249 15.3754L281.344 16.1135L281.456 17.0204L281.265 16.3175L280.811 15.5915L280.88 15.4839L281.59 15.9121L282.301 16.3403L283.012 16.7686L283.723 17.1968L283.434 17.0467L283.128 16.9323L283.648 17.004L284.478 17.1506L285.309 17.2971L286.139 17.4437L286.969 17.5903L286.801 17.5655L286.641 17.5519L287.416 17.5455L288.34 17.5433L289.264 17.5411L290.188 17.5389L291.113 17.5367L291.092 17.5368L291.07 17.5371L291.924 17.5162L292.801 17.4948L293.677 17.4735L294.554 17.4522L295.43 17.4308L295.055 17.4661L294.675 17.5573L295.086 17.3305L295.858 16.9595L296.63 16.5886L297.402 16.2176L298.174 15.8466L298.946 15.4757L298.582 15.689L298.259 15.9536L298.546 15.5349L299.097 14.8233L299.648 14.1116L299.474 14.3655L299.327 14.6423L299.488 14.077L299.762 13.223L300.036 12.369L299.968 12.6174L299.925 12.8616L299.939 12.1358L299.973 11.1759L300.007 10.2161L300.005 10.2959L300.005 10.3835L299.962 9.64786L299.914 8.81583L299.867 7.9838L299.82 7.15179L299.773 6.31976L299.836 6.76663L299.981 7.22049L299.762 6.96735L299.323 6.29465L298.883 5.62195L299.121 5.93851L299.376 6.19519L298.852 5.86844L298.074 5.34378L298.424 5.54929L298.802 5.70193L298.236 5.634L297.289 5.47324L297.408 5.4906L297.557 5.50513L297.077 5.50412L296.406 5.4964L295.734 5.48865L296.011 5.47455L296.262 5.43726L295.725 5.56903L294.967 5.75403L294.208 5.939L294.527 5.82593L294.789 5.69608L294.131 6.02542L293.263 6.48795L292.394 6.95044L291.525 7.41296L291.556 7.39145L291.589 7.36646L290.774 7.55472L289.92 7.77231L289.067 7.9899L287.705 6.26523L288.115 5.48541L288.524 4.70563L288.972 3.89648L289.005 3.87149L289.036 3.84998L289.769 3.19336L290.502 2.53671L291.235 1.8801L292.179 1.0903L292.44 0.960449L292.759 0.847382L293.501 0.605286L294.243 0.363159L295.206 0.0678711L295.456 0.0305786L295.734 0.0164795L296.406 0.00872803L297.077 0.00100708L297.942 0L298.091 0.0145264L298.209 0.0318909L299.157 0.191437L300.485 0.443817L300.864 0.596466L301.213 0.801971L301.979 1.34372L302.998 2.08337L303.253 2.34006L303.491 2.65662L303.921 3.33548L304.351 4.01434L305.002 5.11276L305.147 5.56662L305.21 6.01349L305.256 6.84552L305.303 7.67758L305.35 8.50961L305.396 9.34164L305.447 10.2701L305.447 10.3577L305.445 10.4375L305.401 11.3969L305.356 12.3563L305.292 13.5498L305.249 13.794L305.182 14.0424L304.901 14.8941L304.62 15.7458L304.227 16.8863L304.08 17.163L303.905 17.417L303.352 18.1272L302.799 18.8374L301.982 19.8406L301.658 20.1052L301.294 20.3185L300.525 20.6949L299.755 21.0714L298.986 21.4478L298.216 21.8242L297.447 22.2007L296.316 22.7213L295.936 22.8125L295.561 22.8477L294.684 22.8686L293.807 22.8894L292.931 22.9103L292.054 22.9311L291.155 22.9524L291.134 22.9527L291.113 22.9528L290.188 22.9506L289.264 22.9484L288.34 22.9462L287.416 22.944L286.341 22.9376L286.182 22.924L286.014 22.8992L285.185 22.7473L284.356 22.5955L283.526 22.4436L282.697 22.2917L281.558 22.065L281.252 21.9506L280.963 21.8005L280.251 21.3756L279.538 20.9507L278.825 20.5258L278.113 20.101L276.758 19.1402L276.303 18.4142L276.113 17.7112L275.991 16.8057L275.852 15.7313L275.846 15.5533L275.852 15.3681L275.898 14.5138L275.964 13.4731L275.995 13.292L276.037 13.1181L276.264 12.262L276.64 10.9966L276.846 10.6253L277.087 10.312L277.717 9.59863L278.347 8.88525L279.154 7.99069L279.355 7.81998L279.577 7.66592L280.344 7.18182L281.245 6.61978L281.376 6.55182L281.506 6.49344L282.396 6.12378L283.414 5.70425L283.575 5.65118L283.784 5.59854L284.457 5.46017L285.129 5.32184L286.038 5.14429L286.223 5.12808L286.37 5.12415L287.359 5.1286L288.347 5.13309L289.335 5.13757L290.224 5.14795L291.113 5.15833L291.823 5.17358L292.534 5.18884L293.068 5.21204L293.601 5.23523L294.55 5.25842L295.378 5.28894L296.089 5.41833V5.54529V10.0714V9.8967V9.64645V9.49753V9.3425V9.18121V9.02618V8.86014V8.57678L295.495 7.80286Z" fill="#FF0000" style="fill:#FF0000;fill:color(display-p3 1.0000 0.0000 0.0000);fill-opacity:1;"/>
<path d="M286.97 20.4594L286.716 20.3539L286.971 21.0967L286.947 21.404L286.37 21.929L286.253 22.2708L286.24 22.5511L286.535 22.5005L286.153 22.8151L285.874 23.097L286.233 22.9463L286.456 22.8171L285.924 23.2906L285.244 23.8672L285.246 23.8657L285.248 23.8643L284.506 24.4393L283.763 25.0158L283.02 25.5923L283.067 25.5557L283.112 25.519L282.417 26.127L281.68 26.7715L280.942 27.4161L280.204 28.0606L280.24 28.0293L280.276 27.996L279.655 28.6057L278.997 29.2508L278.339 29.8959L277.681 30.541L277.023 31.1861L277.03 31.1794L277.037 31.1723L276.442 31.7791L275.839 32.3932L275.236 33.0074L274.633 33.6216L274.03 34.2357L273.428 34.8499L273.425 34.8524L273.423 34.8548L272.75 35.535L272.08 36.213L271.409 36.891L270.739 37.569L270.069 38.247L269.398 38.925L268.728 39.6031L268.058 40.2811L268.091 40.2479L268.127 40.2113L267.605 40.799L267.046 41.4272L266.487 42.0554L265.927 42.6835L265.368 43.3117L265.362 43.3184L265.356 43.3247L264.728 44.0137L264.106 44.6968L263.484 45.3799L263.438 45.4281L263.378 45.4875L262.833 46.0006L262.259 46.533L262.368 46.4392L262.017 46.6673L262.018 46.776L261.678 47.0876L261.433 47.3164L260.923 47.6639L260.872 47.7047L260.608 47.8816L258.991 42.1494V42.4023V45.2555V48.0087V48.2616L257.374 42.5294L257.11 42.7063L257.059 42.7471L257.26 42.6649L257.726 42.2531L257.862 42.1428L257.864 42.0406L258.223 41.839L258.332 41.7452L258.707 41.4221L259.112 41.0798L259.052 41.1391L259.006 41.1874L259.647 40.5215L260.287 39.8557L260.923 39.1957L260.917 39.202L260.911 39.2087L261.49 38.5994L262.07 37.9901L262.65 37.3807L263.23 36.7714L263.847 36.1216L263.883 36.085L263.916 36.0518L264.608 35.3958L265.3 34.7399L265.992 34.0839L266.684 33.4279L267.376 32.772L268.068 32.116L268.76 31.46L269.45 30.8062L269.447 30.8086L269.445 30.8111L270.067 30.2169L270.69 29.6228L271.312 29.0286L271.935 28.4344L272.557 27.8403L273.187 27.2387L273.194 27.2316L273.201 27.2249L273.87 26.5903L274.538 25.9557L275.206 25.3212L275.875 24.6866L276.581 24.0166L276.617 23.9833L276.653 23.9519L277.397 23.3152L278.142 22.6785L278.887 22.0418L279.674 21.3685L279.72 21.3319L279.767 21.2953L280.524 20.7364L281.28 20.1774L282.039 19.6171L282.041 19.6156L282.043 19.6142L282.785 19.1205L283.674 18.5236L283.898 18.3944L284.256 18.2437L284.926 18.2092L285.494 18.2074L285.789 18.1567L286.253 18.4371L286.37 18.7789L287.214 19.3039L287.191 19.6112L287.446 20.3539L286.97 20.4594Z" fill="#FF0000" style="fill:#FF0000;fill:color(display-p3 1.0000 0.0000 0.0000);fill-opacity:1;"/>
<path d="M257.214 42.1711V41.8V41.292V44.044V44.3931L256.859 44.6179L256.148 44.6655L255.437 44.7131L255.905 44.6646L256.308 44.54L255.888 44.8328L255.15 45.288L254.411 45.7432L253.672 46.1984L253.852 46.0761L254.008 45.9476L253.468 46.5288L252.796 47.2394L252.124 47.9501L252.238 47.8195L252.352 47.6664L252.046 48.2365L251.631 48.9836L251.216 49.7307L250.801 50.4777L250.886 50.3091L250.958 50.1286L250.809 50.7393L250.602 51.5391L250.394 52.3388L250.187 53.1385L250.225 52.9609L250.249 52.7896L250.234 53.523L250.209 54.4191L250.184 55.3152L250.159 56.2113L250.134 57.1073L250.055 56.4454L249.75 55.7768L249.996 55.8479L250.69 56.4141L251.384 56.9803L252.077 57.5464L252.771 58.1126L253.465 58.6788L253.078 58.4211L252.638 58.2435L253.119 58.2332L254.039 58.3045L254.959 58.3758L255.878 58.4471L255.808 58.442L255.74 58.4391L256.652 58.4281L257.63 58.4181L258.608 58.408L259.585 58.3979L259.169 58.4346L258.754 58.5475L259.225 58.219L260.07 57.7131L260.915 57.2072L261.76 56.7012L262.605 56.1953L263.45 55.6893L263.252 55.8188L263.053 55.9796L263.446 55.4978L264.031 54.824L264.615 54.1503L265.199 53.4766L265.054 53.6556L264.915 53.8659L265.101 53.3792L265.412 52.652L265.723 51.925L266.034 51.1978L265.919 51.5045L265.851 51.7857L265.854 51.0717L265.891 50.1086L265.928 49.1454L265.919 49.3961L265.936 49.67L265.765 49.1358L265.544 48.3108L265.324 47.4858L265.103 46.6609L264.882 45.8359L265.084 46.4178L265.392 46.9245L265.03 46.6812L264.31 46.0508L263.591 45.4205L262.872 44.7902L263.073 44.9557L263.291 45.1032L262.657 44.8045L261.797 44.3799L260.936 43.9554L260.076 43.5308L260.325 43.64L260.59 43.7276L259.948 43.6277L259.03 43.4657L258.112 43.3037L257.195 43.1418L257.357 43.1654L257.523 43.1798L256.772 43.1801L255.853 43.1755L254.934 43.171L254.015 43.1664L254.213 43.1596L254.416 43.1382L253.759 43.2692L252.896 43.4372L252.033 43.6052L251.169 43.7731L251.455 43.695L251.734 43.5858L251.229 43.8839L250.463 44.3186L249.697 44.7532L248.931 45.1878L248.164 45.6224L248.346 45.505L248.526 45.3673L248.087 45.7791L247.631 46.1803L247.856 45.8726L247.651 45.8434L247.288 45.8812L246.916 45.7112L246.447 45.0132L246.65 45.3129L247.064 45.7843L246.747 47.1898L245.739 47.3409L244.52 47.3203L244.051 46.6222L243.203 45.6007L242.84 44.3572L243.345 43.0468L243.57 42.739L244.298 41.9645L245.043 41.2005L245.222 41.0628L245.404 40.9454L246.155 40.4847L246.906 40.024L247.657 39.5633L248.408 39.1026L249.421 38.5054L249.7 38.3962L249.985 38.3181L250.841 38.113L251.696 37.908L252.551 37.7029L253.613 37.4609L253.817 37.4395L254.015 37.4327L254.934 37.4281L255.853 37.4235L256.772 37.4189L257.858 37.4192L258.024 37.4337L258.186 37.4573L259.105 37.6156L260.023 37.774L260.941 37.9323L262.135 38.1527L262.4 38.2403L262.649 38.3495L263.507 38.7784L264.366 39.2074L265.224 39.6363L266.309 40.1912L266.526 40.3386L266.728 40.5042L267.431 41.1531L268.133 41.8021L268.836 42.4511L269.895 43.4871L270.204 43.9938L270.405 44.5757L270.564 45.4148L270.723 46.2539L270.882 47.093L271.041 47.932L271.249 49.0619L271.267 49.3358L271.258 49.5865L271.136 50.5426L271.014 51.4987L270.859 52.7039L270.79 52.9852L270.675 53.2918L270.336 54.0061L269.996 54.7205L269.657 55.4348L269.193 56.3894L269.054 56.5997L268.909 56.7787L268.307 57.437L267.706 58.0953L267.105 58.7536L266.312 59.6038L266.113 59.7646L265.915 59.8941L265.061 60.3843L264.207 60.8744L263.353 61.3646L262.498 61.8547L261.644 62.3449L260.416 63.0125L260.002 63.1254L259.585 63.1621L258.608 63.152L257.63 63.1419L256.652 63.1319L255.61 63.1209L255.542 63.118L255.472 63.1129L254.553 63.0241L253.635 62.9352L252.717 62.8463L251.36 62.6758L250.92 62.4982L250.534 62.2405L249.844 61.6687L249.155 61.0969L248.466 60.525L247.777 59.9532L247.088 59.3813L245.951 58.3144L245.647 57.6458L245.567 56.9839L245.591 56.0878L245.614 55.1917L245.638 54.2956L245.661 53.3994L245.695 52.3407L245.718 52.1694L245.757 51.9918L245.963 51.1919L246.17 50.392L246.377 49.5921L246.641 48.6033L246.714 48.4228L246.799 48.2542L247.214 47.5071L247.629 46.76L248.044 46.0129L248.568 45.0889L248.682 44.9358L248.796 44.8052L249.468 44.094L250.139 43.3828L250.944 42.5421L251.1 42.4136L251.28 42.2913L252.021 41.8402L252.763 41.3892L253.504 40.9381L254.565 40.3247L254.969 40.2001L255.437 40.1516L256.148 40.1992L256.859 40.2468L257.214 40.4716V40.8207V43.5727V43.0647V42.1711Z" fill="#FF0000" style="fill:#FF0000;fill:color(display-p3 1.0000 0.0000 0.0000);fill-opacity:1;"/>
<path d="M328.161 48.6415L327.721 48.8229L327.648 49.0698L327.527 49.4761L327.971 46.0792V45.7873V45.5017V45.0828L325.567 49.9861L325.422 50.1073L325.168 50.0007L325.218 50.0496L324.466 49.4522L323.797 48.9323L323.835 48.9664L323.875 49.0008L323.18 48.4801L322.444 47.9248L322.439 47.9205L322.433 47.9154L321.86 47.4615L321.295 47.0137L320.729 46.5658L320.725 46.5626L320.722 46.5596L320.118 46.0674L319.518 45.578L318.917 45.0887L318.984 45.1438L319.052 45.1969L318.484 44.7911L317.847 44.3341L317.211 43.8771L317.185 43.8582L317.163 43.8419L316.349 43.2312L315.553 42.6344L314.757 42.0377L314.765 42.0442L314.774 42.0512L314.073 41.526L313.362 40.9933L313.327 40.9668L313.289 40.937L312.652 40.4267L312.057 39.95L312.208 40.0666L312.356 40.1699L311.788 39.8388L311.075 39.4167L311.019 39.3828L310.961 39.3459L310.267 38.8797L309.633 38.4537L309 38.0276L308.934 37.9818L308.858 37.9268L308.297 37.4871L307.858 37.1409L307.942 37.2038L307.24 36.6838L306.435 36.1721L305.735 35.6516L305.773 35.6781L305.253 35.3279L305.126 35.2277L305.057 35.1883L304.826 35.158L304.518 34.9089L303.705 34.7038L303.698 34.7013L303.178 34.5011L302.323 34.1815L302.389 34.2056L302.47 34.2333L302.038 34.1033L301.506 33.9414L301.543 33.9523L301.578 33.9622L301.017 33.8104L300.423 33.6496L300.556 33.683L300.684 33.7104L300.157 33.6257L299.507 33.5191L299.485 33.5155L299.462 33.5116L298.845 33.3993L298.251 33.2912L298.249 33.291L297.657 33.1822L297.29 33.1074L297.132 33.085L296.558 33.0858L295.827 32.8889L295.861 32.8932L295.133 32.819L294.789 32.795L294.779 32.7941L294.771 32.7933L294.052 32.721L293.342 32.6495L292.631 32.578L292.748 32.5877L292.873 32.5942L292.354 32.5947L291.702 32.5928L290.756 32.5904L290.28 32.5892L289.924 32.588H289.213H288.624L287.674 32.5867L286.725 32.5855L286.014 32.5831L285.303 32.5806L284.71 32.5794L284.12 32.5782L283.643 32.577L283.17 32.5757L282.46 32.5672L281.866 32.566L281.155 32.5587L280.561 32.555L279.733 32.5367L279.377 32.533L279.139 32.5245V32.522L279.543 32.4304L279.868 32.209L279.67 32.3258L279.613 32.4463L279.343 32.7852L279.036 33.1242L279.184 32.9461L278.927 33.3497V33.3265L279.046 33.0743L278.906 33.4007L278.83 33.7966L278.72 34.3048L278.76 34.0711L278.704 34.651L278.651 35.1826L278.659 35.0807L278.664 34.9726L278.661 35.4458L278.656 36.0337V36.727V37.4204V38.0591V38.6977V39.2856V39.8735L278.655 40.6196L278.654 41.3657L278.651 42.2173L278.65 43.0727L278.649 43.6059L278.648 44.1391L278.645 44.6704L278.642 45.2055L278.64 45.7407L278.637 46.3774L278.636 47.1598L278.634 47.0993L278.691 47.8635L278.744 48.5727L278.749 48.6418L278.752 48.726L278.753 49.4184L278.753 50.0063L278.751 49.8892L278.745 49.7722L278.794 50.2416L278.846 50.7669L278.964 51.6117L278.963 51.6003L279.022 52.1335L279.078 52.6483L279.073 52.6154L279.182 53.3056L279.298 54.017L279.415 54.6576L279.531 55.3708L279.525 55.3391L279.641 55.9231L279.725 56.3513L279.679 56.1775L279.904 56.9903L280.237 57.7708L280.461 58.5823L280.428 58.4907L280.685 59.1345L280.767 59.3488L280.778 59.3712L281.051 59.75L281.213 60.1488L281.514 60.6032L281.595 60.7632L281.881 61.4345L282.266 62.3273L282.203 62.1825L282.435 62.8112L282.681 63.1272L282.886 63.6141L283.359 64.2485L283.593 64.5676L283.579 64.7816L283.888 65.2162L284.111 65.4029L284.086 65.4717L284.326 65.7329L284.762 66.2477L284.821 66.4739L285.02 66.9438L285.354 67.4164L285.388 67.3308L285.511 67.5468L285.902 67.9156L286.064 68.3779L286.427 68.922L286.658 69.4521L286.892 69.8669L287.294 70.6041L287.378 70.963L287.506 71.1962L287.699 71.5688L287.769 71.6743L287.931 72.0919L288.055 72.4199L288.205 72.8192L288.323 73.0336L288.412 73.2749L288.484 73.4934L288.705 73.9529L288.829 74.1766L288.746 74.1836L288.907 74.6076L289.027 74.7225L289.149 75.0465L289.304 75.3513L289.329 75.6405L289.419 75.9891L289.538 76.1984L289.592 76.2516L289.691 76.416L289.673 76.4653L289.673 76.5712L289.796 76.5816L289.07 75.6665L286.725 74.7654V74.7679L290.228 78.2719H290.229L290.125 77.5344L290.169 78.0573L290.372 78.4209L290.394 78.8388L290.412 78.675L290.422 79.026L290.638 79.3828L290.777 79.6608L290.642 79.5167L290.867 80.0974L291.115 80.5589L291.321 81.3183L291.588 82.0339L291.85 82.7542L291.899 83.0821L292.039 83.4556L292.154 83.4513L291.936 83.0853L291.255 82.2109L292.374 84.7798L288.858 81.2635L291.189 82.146L291.189 82.1469L291.397 82.6591L291.427 82.6886L291.613 83.2305L291.84 83.8139L291.683 83.6611L291.544 83.5438L291.487 84.5357L291.551 85.6189L291.616 86.7021L291.319 87.123L290.277 87.425L289.234 87.7269L288.07 87.9376L287.931 87.8203L287.774 87.6675L287.29 87.5009L286.766 87.2928L286.795 87.3223L286.527 87.4126L286.526 87.4135L288.858 88.2961L285.342 84.7798L286.46 87.3486L285.78 86.4742L285.562 85.8895L285.442 85.8852L285.348 85.6258L285.155 84.8835L284.948 84.3225L284.738 83.7568L284.469 82.8131L284.248 82.423L284.23 82.3631L284.095 81.7893L284 81.6454L283.739 81.1429L283.749 80.8532L283.533 80.2675L283.555 80.0449L283.281 79.3382L283.325 79.2205L283.221 78.2719H283.222L286.725 81.776V81.7785L284.38 80.8774L283.654 79.9623L283.543 79.9727L283.543 79.8676L283.29 79.2763L283.147 79.011L282.967 78.6424L282.844 78.422L282.699 77.919L282.724 77.7785L282.645 77.6614L282.525 77.3448L282.41 77.241L282.337 77.0244L282.254 76.6095L282.136 76.4035L282.123 76.4411L281.96 76.019L281.807 75.6197L281.691 75.4044L281.606 75.163L281.488 74.8504L281.416 74.6274L281.252 74.311L281.202 74.254L281.096 74.0653L280.945 73.5648L280.636 73.0208L280.394 72.584L280.391 72.4734L280.043 71.955L280.204 71.9876L279.884 71.7158L279.765 71.51L279.331 70.9947L279.188 70.8266L278.91 70.2341L278.735 69.8196L278.695 69.9048L278.7 69.955L278.198 69.1644L277.945 68.9293L277.785 68.7233L277.529 68.0856L277.294 67.7641L276.814 67.1172L276.551 66.5339L276.085 65.7874L275.841 65.1349L275.778 64.99L275.57 64.4961L275.262 63.7807L275.343 63.9407L275.175 63.7545L274.86 63.0908L274.422 62.3992L274.433 62.4216L274.042 61.4641L273.827 60.936L273.794 60.8444L273.541 59.9449L273.164 59.0224L272.911 58.1242L272.866 57.9503L272.715 57.2067L272.597 56.6188L272.592 56.5871L272.465 55.8081L272.348 55.1675L272.221 54.3867L272.096 53.5848L272.091 53.5518L272.03 53.0003L271.972 52.4671L271.97 52.4557L271.847 51.5895L271.781 50.9429L271.713 50.2404L271.707 50.1234L271.705 50.0063L271.705 49.4184L271.706 48.9351L271.709 49.0193L271.714 49.0884L271.65 48.1999L271.59 47.3665L271.588 47.3059L271.587 46.3774L271.583 45.7407L271.582 45.2055L271.578 44.6704L271.576 44.1391L271.575 43.6059L271.574 43.0727L271.572 42.2173L271.57 41.3657L271.569 40.6196L271.567 39.8735V39.2856V38.6977V38.0591V37.4204V36.727V36.0337L271.563 35.4458L271.56 34.7432L271.565 34.635L271.573 34.5332L271.637 33.7874L271.698 33.0899L271.738 32.8563L271.863 32.0832L272.029 31.1979L272.358 30.243L272.476 29.9908L273.07 29.0067L273.407 28.4493L273.555 28.2713L274.436 27.3289L275.111 26.6054L276.007 25.8743L276.989 25.3506L278.024 25.1291L279.139 25.0375V25.035L279.377 25.0265L279.733 25.0228L280.561 25.0045L281.155 25.0009L281.866 24.9935L282.46 24.9923L283.17 24.9838L283.643 24.9825L284.12 24.9813L284.71 24.9801L285.303 24.9789L286.014 24.9764L286.725 24.974L287.674 24.9728L288.624 24.9716H289.213H289.924L290.28 24.9703L290.756 24.9691L291.702 24.9667L292.354 24.9648L293.139 24.9653L293.265 24.9718L293.382 24.9815L294.093 25.0507L294.804 25.1198L295.508 25.1881L295.499 25.1873L295.49 25.1864L296.333 25.2717L296.792 25.3069L296.826 25.3112L297.752 25.5363L298.365 25.537L298.207 25.5146L299.024 25.6546L299.615 25.7607L299.613 25.7605L300.207 25.8673L300.777 25.9698L300.754 25.9659L300.732 25.9623L301.383 26.0666L302.157 26.1929L302.285 26.2203L302.418 26.2536L303.012 26.4132L303.638 26.5817L303.673 26.5916L303.71 26.6025L304.244 26.7609L304.879 26.9512L304.959 26.9789L305.025 27.003L305.593 27.2185L306.494 27.5536L306.488 27.5511L307.331 27.7678L307.976 28.1593L308.924 28.5587L308.855 28.5193L309.678 29.0597L310.107 29.3501L310.145 29.3767L310.867 29.9186L311.726 30.4773L312.446 31.0198L312.53 31.0827L313.036 31.4826L313.421 31.7889L313.345 31.7339L313.278 31.6882L313.911 32.1162L314.543 32.5443L315.114 32.9324L315.056 32.8955L315.001 32.8616L315.709 33.291L316.563 33.8115L316.711 33.9148L316.862 34.0314L317.451 34.5156L317.998 34.9662L317.959 34.9365L317.924 34.9099L318.635 35.4436L319.355 35.9849L319.365 35.9919L319.373 35.9984L320.158 36.61L320.943 37.2216L321.709 37.8191L321.687 37.8029L321.661 37.784L322.29 38.2515L322.919 38.719L323.617 39.2376L323.685 39.2907L323.752 39.3459L324.336 39.8539L324.921 40.3619L325.502 40.8671L325.498 40.8641L325.494 40.8609L326.036 41.3375L326.577 41.8141L327.111 42.2847L327.105 42.2796L327.1 42.2753L327.786 42.8919L328.513 43.5431L328.553 43.5775L328.591 43.6115L329.344 44.373L330.013 45.0568L330.063 45.1057L330.521 45.8506L330.375 45.9719L327.971 50.8751V50.4563V50.1706V49.8787L328.415 46.4819L328.295 46.8881L328.222 47.135L328.161 48.6415Z" fill="#FF0000" style="fill:#FF0000;fill:color(display-p3 1.0000 0.0000 0.0000);fill-opacity:1;"/>
</svg>
