<svg width="79" height="67" viewBox="0 0 79 67" fill="none" xmlns="http://www.w3.org/2000/svg">
<path d="M0.759827 43.1866L1.1153 42.7258V42.558V42.3687V42.091V41.8221V41.5474V41.1476V40.9615V40.7723V40.522L1.6485 40.296L2.1817 40.07L0.855072 40.3118L0 40.7675L0.0110168 40.4206L0.515732 39.6535L1.02045 38.8863L0.89798 39.0155L0.776207 39.1554L1.11726 38.5903L1.57829 37.8745L2.03932 37.1588L2.50035 36.4429L2.96139 35.7271L3.42242 35.0114L3.41402 35.0224L3.40636 35.0326L3.95558 34.2531L4.51183 33.4641L5.06808 32.6752L5.62432 31.8862L6.18056 31.0973L6.73682 30.3084L7.29306 29.5194L7.8493 28.7305L7.84087 28.7418L7.83229 28.7534L8.37473 28.0099L8.92588 27.2546L9.47704 26.4992L10.0282 25.7439L10.5794 24.9885L11.1305 24.2332L11.6817 23.4778L12.2328 22.7225L12.784 21.9671L13.3351 21.2118L13.8863 20.4564L14.4374 19.701L14.9886 18.9457L15.5398 18.1904L16.0909 17.435L16.0688 17.4654L16.0465 17.4965L16.5709 16.7995L17.1176 16.0706L17.6644 15.3418L18.2111 14.613L18.7579 13.8842L19.3046 13.1553L19.8514 12.4265L20.3981 11.6977L20.9449 10.9688L21.4916 10.24L21.4626 10.282L21.4348 10.3232L22.0046 9.62341L22.6011 8.88315L23.1976 8.14291L23.794 7.40265L24.3905 6.66238L24.987 5.92212L25.5835 5.18185L26.1799 4.44159L26.7764 3.70132L27.3729 2.96106L27.9694 2.22079L28.5658 1.48053L29.1623 0.740265L29.7588 0L35.2921 3.60645L34.8557 4.45099L34.4192 5.29556L33.9828 6.14011L33.5463 6.98468L33.1099 7.82922L32.6734 8.6738L32.237 9.51834L31.8005 10.3629L31.3641 11.2075L30.9276 12.052L30.4912 12.8966L30.0547 13.7411L29.6183 14.5857L29.1551 15.4707L29.1273 15.512L29.0983 15.554L28.6021 16.3181L28.1059 17.0822L27.6097 17.8463L27.1135 18.6105L26.6172 19.3746L26.121 20.1388L25.6248 20.9029L25.1286 21.667L24.6324 22.4312L24.1138 23.2271L24.0915 23.2582L24.0694 23.2886L23.5143 24.0411L22.9592 24.7935L22.4041 25.546L21.849 26.2985L21.2939 27.0509L20.7388 27.8034L20.1837 28.5558L19.6286 29.3083L19.0735 30.0608L18.5184 30.8132L17.9633 31.5657L17.4082 32.3182L16.8531 33.0706L16.2981 33.8231L15.7342 34.5874L15.7257 34.599L15.7172 34.6103L15.1182 35.3673L14.5192 36.1242L13.9201 36.8812L13.3211 37.6382L12.7221 38.3951L12.1231 39.1521L11.524 39.9091L10.918 40.6754L10.9103 40.6856L10.9019 40.6967L10.3356 41.3324L9.7693 41.9682L9.20299 42.6039L8.63667 43.2397L8.07036 43.8755L7.38407 44.662L7.2623 44.8018L7.13983 44.9311L6.37892 45.4452L5.61801 45.9593L4.3634 46.8936L3.50833 47.3494L2.1817 47.5912L1.6485 47.3651L1.1153 47.1391V46.8889V46.6996V46.5135V46.1137V45.8391V45.5701V45.2924V45.1032V44.9353L0.759827 43.1866Z" fill="black" style="fill:black;fill-opacity:1;"/>
<path d="M19.5274 47.8595L19.9974 47.0841L19.9416 46.7717L19.8824 46.4409L20.1973 46.1535V45.6561V45.3509V45.1098L18.7905 45.0794L18.7492 44.9876L18.6511 44.8849L18.4453 45.0516L18.9044 44.4886L19.2007 44.1052L19.7544 43.4569L20.3082 42.8087L20.2684 42.8546L20.2312 42.8989L20.7708 42.2242L21.3451 41.5068L21.9194 40.7895L22.4938 40.0721L23.0681 39.3548L23.6424 38.6375L24.2167 37.9201L24.2136 37.924L24.2106 37.9278L24.7761 37.2168L25.3448 36.502L25.9135 35.7872L26.4821 35.0723L27.0508 34.3575L27.6195 33.6427L28.1881 32.9278L28.7568 32.213L29.3254 31.4982L29.8941 30.7833L29.9239 30.7464L29.9533 30.7109L30.6607 29.9998L31.3392 29.3228L32.0177 28.6458L32.6962 27.9688L33.3746 27.2918L34.0531 26.6148L34.7316 25.9378L35.4101 25.2608L36.0886 24.5838L36.7671 23.9068L37.4456 23.2298L38.1241 22.5528L38.8026 21.8758L39.4811 21.1988L40.1596 20.5218L40.8381 19.8448L41.5166 19.1678L42.1951 18.4908L42.8736 17.8138L43.5521 17.1367L47.0924 20.1729L46.5268 20.9466L45.9612 21.7204L45.3955 22.4942L44.8298 23.2679L44.2642 24.0417L43.6986 24.8155L43.1329 25.5893L42.5673 26.3631L42.0016 27.1368L41.436 27.9106L40.8703 28.6844L40.3047 29.4582L39.739 30.232L39.1734 31.0057L38.6077 31.7795L38.0421 32.5533L37.4765 33.3271L36.9108 34.1008L36.3452 34.8746L35.8084 35.6143L35.8378 35.5788L35.8676 35.5419L35.298 36.2559L34.7283 36.97L34.1587 37.6841L33.5891 38.3982L33.0195 39.1122L32.4499 39.8263L31.8802 40.5404L31.3106 41.2545L30.741 41.9685L30.1683 42.6865L30.1652 42.6903L30.1622 42.6941L29.5858 43.4098L29.0095 44.1255L28.4331 44.8412L27.8568 45.5569L27.2804 46.2726L26.7041 46.9883L26.093 47.7466L26.0558 47.7909L26.016 47.8368L25.4428 48.4679L24.8696 49.0989L24.0389 49.9948L23.3711 50.7111L23.1653 50.8778L21.6453 51.4157L21.604 51.3239L20.1973 51.2935V51.0524V50.7473V50.2498L20.5121 49.9625L20.4529 49.6317L20.3971 49.3192L19.5274 47.8595Z" fill="black" style="fill:black;fill-opacity:1;"/>
<path d="M35.9102 63.5618L36.3589 63.8821H36.5389L36.7196 63.4674L36.5145 62.5893L36.0179 61.8598L36.1076 61.5649L34.1316 61.7509L33.8113 61.9985L34.3179 61.3811L34.6277 60.96L34.5504 61.0489L34.4808 61.1361L34.9025 60.5077L35.3867 59.7943L35.8709 59.0808L36.3551 58.3674L36.8393 57.654L36.8229 57.6774L36.8083 57.6987L37.3399 56.8834L37.8847 56.0485L38.4295 55.2136L38.9742 54.3787L39.519 53.5438L40.0638 52.709L40.6086 51.8741L41.1533 51.0392L41.6981 50.2043L41.7197 50.1723L41.7417 50.1406L42.3483 49.3016L42.9324 48.4939L43.5166 47.6862L44.1007 46.8786L44.6848 46.0709L45.269 45.2632L45.8531 44.4556L46.4372 43.6479L47.0213 42.8402L47.6055 42.0326L48.1896 41.2249L48.7737 40.4172L49.3578 39.6096L49.9419 38.8019L50.5261 37.9942L51.1102 37.1866L51.13 37.1596L51.1505 37.1323L51.7641 36.3443L52.3563 35.5841L52.9485 34.8239L53.5408 34.0636L54.133 33.3033L54.7252 32.5431L55.3174 31.7829L55.9097 31.0226L56.5019 30.2624L57.0941 29.5021L57.6864 28.7419L58.2786 27.9816L58.8708 27.2214L59.463 26.4612L60.0553 25.7009L60.6475 24.9407L60.6711 24.9108L60.6954 24.8809L61.3574 24.1485L61.9945 23.446L62.6316 22.7436L63.2686 22.0412L63.9057 21.3387L64.5428 20.6363L65.1799 19.9339L65.817 19.2314L66.454 18.529L67.0911 17.8265L67.7282 17.1241L68.3653 16.4217L69.0024 15.7192L69.6394 15.0168L70.2765 14.3144L70.9136 13.6119L71.5507 12.9095L72.1878 12.2071L72.8248 11.5046L72.8174 11.5134L72.8102 11.5222L73.6794 11.0008L74.5558 10.4708L75.4322 9.9407L76.3086 9.41068L77.185 8.88062L78.0614 8.35059L78.4815 8.69489L78.134 9.65833L77.7864 10.6218L77.4388 11.5852L77.0913 12.5487L76.7437 13.5121L76.389 14.4842L76.3817 14.493L76.3743 14.5018L75.7885 15.2476L75.2027 15.9933L74.6169 16.739L74.0312 17.4848L73.4454 18.2306L72.8596 18.9763L72.2738 19.7221L71.688 20.4678L71.1022 21.2136L70.5165 21.9593L69.9307 22.7051L69.3449 23.4508L68.7591 24.1966L68.1733 24.9424L67.5876 25.6881L67.0018 26.4338L66.416 27.1796L65.8302 27.9254L65.2694 28.6412L65.2936 28.6113L65.3173 28.5814L64.7244 29.3412L64.1316 30.1009L63.5388 30.8607L62.9459 31.6205L62.3531 32.3802L61.7603 33.14L61.1674 33.8998L60.5746 34.6596L59.9818 35.4193L59.389 36.1791L58.7961 36.9389L58.2033 37.6987L57.6105 38.4584L57.0176 39.2182L56.4248 39.978L55.8533 40.7101L55.8738 40.6827L55.8936 40.6558L55.3073 41.4619L54.7211 42.268L54.1348 43.0741L53.5485 43.8802L52.9622 44.6863L52.3759 45.4924L51.7896 46.2985L51.2033 47.1046L50.6171 47.9107L50.0308 48.7168L49.4445 49.5229L48.8582 50.329L48.2719 51.1351L47.6856 51.9412L47.0993 52.7473L46.5355 53.522L46.5575 53.4903L46.5792 53.4583L46.018 54.2823L45.4569 55.1063L44.8958 55.9303L44.3346 56.7542L43.7735 57.5782L43.2124 58.4022L42.6512 59.2262L42.0901 60.0501L41.5158 60.8936L41.5012 60.915L41.4848 60.9384L40.9737 61.6328L40.4626 62.3271L39.9515 63.0215L39.4404 63.7159L38.8667 64.4953L38.7971 64.5825L38.7198 64.6714L37.9632 65.4261L37.4035 65.9845L37.0831 66.2321L34.6306 66.418L34.7203 66.1231L33.9815 65.3936L33.7764 64.2968L33.9571 63.8821H34.1371L35.9102 63.5618Z" fill="black" style="fill:black;fill-opacity:1;"/>
</svg>
