<svg width="93" height="134" viewBox="0 0 93 134" fill="none" xmlns="http://www.w3.org/2000/svg">
<path d="M4.91223 5.68295V5.25266V5.21298L4.59262 4.67215L5.32574 4.33701L6.12643 3.98907L6.15714 3.98407L7.09943 3.61743L8.07574 3.27783L8.07193 3.27829L8.93802 3.01218L9.79889 2.74673L9.82016 2.74423L9.8476 2.74127L10.4666 2.57864L11.049 2.41949L11.136 2.41306L11.2233 2.40915L11.9044 2.35141L12.4982 2.29495L12.4071 2.2963L12.3217 2.30005L12.8895 2.22061L13.5373 2.13553L13.5555 2.13406L13.5716 2.13284L14.3496 1.96338L15.1132 1.79495L15.1434 1.793L15.1723 1.79141L16.0273 1.70721L16.8547 1.6243L17.6821 1.54138L17.5922 1.54633L17.5105 1.55286L18.3788 1.41348L19.3216 1.26645L19.2865 1.2706L19.2444 1.27603L19.9012 1.15543L20.6089 1.02753L21.3167 0.899658L21.495 0.87735L21.6757 0.8638L22.5698 0.831787L23.282 0.804321L23.9943 0.776855L24.7941 0.737946L25.5939 0.699036L26.3937 0.660126L27.1935 0.621216L27.1335 0.621674L27.0663 0.623291L27.6617 0.574097L28.3327 0.521667L29.0037 0.469238L29.072 0.466248L29.1404 0.464478L29.8797 0.435394L30.5503 0.406891L31.2208 0.378418L31.8927 0.351959L32.5646 0.325531L33.2365 0.299072L33.9083 0.278717L34.5802 0.258392L35.2521 0.238037L35.963 0.198364L36.674 0.158691L37.3849 0.119019L38.1554 0.0892639L38.9259 0.0595093L39.6964 0.0297546L40.4669 0L40.7492 0.00906372L40.9914 0.0314026L42.1477 0.217133L43.0957 0.372772L43.1995 0.391602L43.3262 0.418121L44.1564 0.631714L44.8288 0.806824L45.5012 0.981934L45.6682 1.02951L45.8045 1.07367L46.7849 1.4129L47.6523 1.71176L48.5196 2.01065L49.387 2.30951L49.4032 2.31558L49.4197 2.32184L50.2846 2.60022L51.1328 2.87213L51.9809 3.14404L52.0862 3.18619L52.1884 3.22998L53.1372 3.62259L53.987 3.96997L54.8368 4.31732L54.9365 4.36572L55.0328 4.41516L55.9806 4.88416L56.8355 5.30286L57.6905 5.72153L57.8168 5.79428L57.9563 5.88052L58.7824 6.40726L59.4542 6.83093L60.1261 7.25464L60.7979 7.67831L60.8438 7.71057L60.8872 7.74188L61.6401 8.23862L62.3518 8.70505L63.0635 9.17148L63.7752 9.63791L63.8205 9.672L63.8652 9.70636L64.5938 10.2574L65.2784 10.7738L65.9629 11.2903L66.6475 11.8067L67.332 12.3231L68.0166 12.8395L68.0741 12.8859L68.1292 12.9315L68.8745 13.5505L69.5671 14.1247L70.2597 14.6989L70.9523 15.2731L71.0143 15.3273L71.0722 15.3794L71.8588 16.0738L72.5912 16.718L73.3235 17.3622L74.0558 18.0064L74.1732 18.1197L74.287 18.2363L75.0711 19.0649L75.7451 19.7741L76.419 20.4832L77.0929 21.1924L77.7669 21.9016L78.4408 22.6108L78.5893 22.7833L78.731 22.9617L79.4491 23.931L80.0328 24.7169L80.6165 25.5027L81.2003 26.2886L81.2808 26.4063L81.3665 26.5385L81.9227 27.3898L82.3882 28.0919L82.8537 28.7939L83.3192 29.496L83.7846 30.1982L83.8954 30.3946L83.9971 30.5915L84.4765 31.5629L84.8631 32.3379L85.2497 33.1129L85.6364 33.888L86.023 34.663L86.0964 34.8326L86.1619 34.9965L86.5504 36.0219L86.8809 36.8891L87.2114 37.7564L87.5419 38.6237L87.8723 39.491L87.9178 39.6247L87.9617 39.7636L88.2592 40.7562L88.5147 41.6046L88.7704 42.4529L89.026 43.3013L89.2816 44.1496L89.5372 44.998L89.5906 45.2032L89.6349 45.3988L89.8543 46.5307L90.0374 47.4765L90.2204 48.4222L90.4034 49.368L90.5864 50.3137L90.7694 51.2595L90.9525 52.2052L91.1355 53.151L91.3185 54.0967L91.3401 54.2235L91.3604 54.3591L91.494 55.3715L91.609 56.2388L91.724 57.1061L91.839 57.9734L91.9539 58.8407L92.0689 59.7079L92.1839 60.5753L92.1984 60.7115L92.21 60.8454L92.2847 61.875L92.3507 62.7732L92.4167 63.6713L92.4828 64.5694L92.5488 65.4676L92.6148 66.3657L92.6808 67.2638L92.6869 67.3935L92.6905 67.522L92.7157 68.5633L92.7396 69.4774L92.7636 70.3914L92.7876 71.3055L92.8116 72.2196L92.8355 73.1336L92.8595 74.0477L92.8544 74.3153L92.8398 74.5731L92.7262 75.7826L92.6357 76.7445L92.5452 77.7065L92.4546 78.6684L92.3641 79.6304L92.2736 80.5923L92.183 81.5543L92.0925 82.5162L92.002 83.4781L91.9115 84.4401L91.8728 84.733L91.817 85.0496L91.5467 86.2202L91.353 87.0497L91.1592 87.8792L90.9655 88.7087L90.9029 88.942L90.8391 89.1528L90.4718 90.2718L90.1685 91.2L89.8653 92.1281L89.562 93.0562L89.2588 93.9844L88.9555 94.9125L88.6523 95.8407L88.349 96.7688L88.0457 97.697L87.7425 98.6251L87.4392 99.5533L87.3408 99.8177L87.2266 100.092L86.715 101.197L86.3349 102.02L85.9549 102.844L85.5748 103.667L85.1948 104.49L84.8147 105.313L84.4347 106.137L84.0546 106.96L83.8863 107.283L83.6999 107.602L83.0158 108.664L82.5355 109.413L82.0551 110.163L81.5748 110.913L81.0945 111.662L80.6142 112.412L80.1338 113.161L79.6535 113.911L79.4154 114.239L79.1678 114.546L78.3044 115.535L77.6952 116.239L77.0861 116.943L76.477 117.647L75.8679 118.35L75.2588 119.054L74.6496 119.758L74.0405 120.462L73.4314 121.166L72.8223 121.87L72.2131 122.573L71.8806 122.909L71.535 123.22L70.4321 124.101L69.6839 124.698L68.9356 125.294L68.1873 125.891L67.4391 126.487L66.6908 127.083L65.9425 127.68L65.4884 128.002L64.9987 128.301L63.6609 128.995L62.8435 129.417L62.0261 129.839L61.2087 130.261L60.3913 130.684L59.5739 131.106L58.7565 131.528L58.0912 131.812L57.3874 132.044L55.7836 132.411L54.9081 132.606L54.0327 132.801L53.1573 132.996L52.2818 133.191L51.4064 133.386L50.5309 133.581L49.802 133.688L49.0776 133.734L47.4453 133.711L46.5186 133.7L45.5919 133.689L44.6652 133.678L43.7385 133.668L42.8118 133.657L41.8851 133.646L40.9584 133.635L40.0317 133.624L39.105 133.614L37.8738 133.459L36.639 133.128L34.639 132.261L33.8071 131.887L32.9751 131.513L32.1432 131.139L31.3112 130.765L30.4793 130.391L29.6473 130.017L28.9033 129.598L28.2073 129.12L26.8647 127.982L26.1567 127.368L25.4487 126.754L24.7407 126.14L24.0326 125.526L23.3246 124.913L22.6166 124.299L21.9085 123.685L21.5706 123.365L21.2457 123.027L20.3417 121.96L19.747 121.247L19.1523 120.534L18.5576 119.821L17.9629 119.109L17.3682 118.396L16.7735 117.683L16.1788 116.971L15.5842 116.258L14.9895 115.545L14.7295 115.218L14.4836 114.879L13.7526 113.748L13.2521 112.965L12.7517 112.183L12.2513 111.4L11.7508 110.618L11.2504 109.835L10.75 109.052L10.2495 108.27L9.74911 107.487L9.24869 106.705L8.74826 105.922L8.45868 105.432L8.20172 104.934L7.60873 103.553L7.23923 102.673L6.86975 101.794L6.50024 100.915L6.13077 100.036L5.76129 99.1565L5.39178 98.2773L5.02231 97.3981L4.6528 96.5189L4.28333 95.6397L3.91385 94.7605L3.54434 93.8813L3.17487 93.002L2.80536 92.1228L2.43588 91.2436L2.18842 90.5754L1.99164 89.8978L1.67148 88.2623L1.4967 87.3028L1.3219 86.3433L1.14713 85.3839L0.972351 84.4244L0.797577 83.4649L0.622803 82.5054L0.448029 81.5459L0.273254 80.5865L0.19516 80.0709L0.143219 79.5361L0.106873 78.0498L0.0935059 77.1136L0.0801697 76.1774L0.066803 75.2412L0.0534363 74.305L0.0400696 73.3688L0.0267029 72.4326L0.0133667 71.4964L0 70.5602L0.00143433 70.2044L0.0151367 69.8587L0.128479 68.5501L0.216949 67.5764L0.30545 66.6028L0.393921 65.6291L0.482422 64.6554L0.570892 63.6818L0.659393 62.7081L0.747864 61.7344L0.880341 60.7895L1.1145 59.8233L1.81015 58.0035L2.16766 57.1415L2.52518 56.2794L2.88269 55.4173L3.24023 54.5552L3.59775 53.6931L3.95526 52.8311L4.31277 51.969L4.67032 51.1069L5.02783 50.2448L5.38535 49.3828L5.67963 48.7356L6.03308 48.0888L6.96506 46.7309L7.48538 46.0071L8.00571 45.2833L8.52603 44.5594L9.04636 43.8356L9.56668 43.1118L9.88141 42.6899L10.2328 42.269L11.2349 41.2773L11.8487 40.7002L12.4625 40.1232L13.0762 39.5462L13.69 38.9691L14.0411 38.6326L14.382 38.3362L15.5045 37.5652L16.2987 37.0545L17.093 36.5439L17.5708 36.2042L18.1035 35.8747L19.5533 35.3782L20.4152 35.192L21.3987 34.786L22.5168 34.4785L24.5466 34.92L25.3615 35.5281L25.5276 35.5185L25.7032 35.5123L26.5997 36.2946L27.3107 37.079L28.6155 37.2192L29.7369 37.5784L30.9032 39.2109L31.1923 40.3792L31.4814 41.5475L31.7706 42.7157L32.0597 43.884L29.9132 47.2504L28.732 47.4812L27.5508 47.712L26.3696 47.9428L25.1884 48.1736L24.8844 48.8686L26.0059 49.2278L27.3107 49.3679L26.5997 50.1524L26.0744 50.9347L26.25 50.9285L26.4161 50.9189L25.6919 51.6325L26.1827 52.1794L27.3008 51.8719L28.2843 51.4659L27.6031 52.0258L27.51 52.2754L28.0427 51.9459L28.5205 51.6062L27.8148 52.2336L27.1091 52.8609L26.7315 53.2279L27.0724 52.9315L27.4235 52.595L26.8514 53.2133L26.2792 53.8316L25.707 54.4499L25.1349 55.0681L24.951 55.2717L25.3024 54.8508L25.6172 54.4289L25.1101 55.1621L24.6031 55.8953L24.0961 56.6285L23.5891 57.3617L23.0821 58.0949L22.9867 58.1941L23.3401 57.5473L23.6344 56.9001L23.281 57.7639L22.9276 58.6277L22.5742 59.4915L22.2208 60.3553L21.8673 61.219L21.5139 62.0828L21.1605 62.9466L20.8071 63.8103L20.4537 64.6741L20.1003 65.5379L20.085 65.4439L20.3191 64.4778L20.4516 63.5329L20.3623 64.5064L20.2731 65.48L20.1838 66.4536L20.0946 67.4272L20.0053 68.4008L19.9161 69.3745L19.8268 70.3481L19.7625 70.9867L19.7762 70.641L19.7776 70.2852L19.7903 71.2214L19.8029 72.1576L19.8156 73.0938L19.8283 74.03L19.841 74.9662L19.8537 75.9024L19.8664 76.8386L19.8791 77.7748L19.8687 78.1608L19.8168 77.626L19.7387 77.1105L19.9068 78.0712L20.0749 79.0318L20.243 79.9925L20.4111 80.9532L20.5792 81.9138L20.7473 82.8745L20.9154 83.8351L21.0836 84.7958L21.1063 85.0804L20.9095 84.4028L20.662 83.7346L21.0191 84.6189L21.3762 85.5033L21.7332 86.3876L22.0903 87.2719L22.4474 88.1562L22.8045 89.0406L23.1615 89.9249L23.5186 90.8092L23.8757 91.6936L24.2328 92.5779L24.5898 93.4622L24.9469 94.3466L25.304 95.2309L25.661 96.1152L25.7946 96.4977L25.5377 95.999L25.2481 95.5091L25.7391 96.2976L26.2302 97.0861L26.7212 97.8745L27.2123 98.663L27.7033 99.4515L28.1944 100.24L28.6854 101.028L29.1765 101.817L29.6675 102.605L30.1585 103.394L30.419 103.834L30.1731 103.495L29.9131 103.167L30.5036 103.884L31.0941 104.6L31.6845 105.316L32.275 106.032L32.8654 106.748L33.4559 107.465L34.0464 108.181L34.6368 108.897L35.2273 109.613L35.5085 109.974L35.1836 109.636L34.8456 109.317L35.5302 109.957L36.2147 110.597L36.8993 111.237L37.5838 111.877L38.2683 112.517L38.9529 113.157L39.6375 113.797L39.6875 113.913L38.9915 113.435L38.2474 113.016L39.0416 113.464L39.8358 113.913L40.6299 114.361L41.4241 114.81L42.2183 115.259L43.0124 115.707L42.6385 115.663L41.4038 115.332L40.1725 115.177L41.0943 115.273L42.0161 115.37L42.9378 115.466L43.8596 115.562L44.7813 115.658L45.703 115.754L46.6248 115.851L47.5465 115.947L48.4683 116.043L48.6844 116.127L47.9599 116.173L47.231 116.28L48.1167 116.139L49.0025 115.999L49.8882 115.858L50.7739 115.717L51.6596 115.576L52.5454 115.435L52.7027 115.466L51.9988 115.698L51.3336 115.982L52.1758 115.611L53.018 115.241L53.8602 114.871L54.7024 114.501L55.5446 114.13L56.3868 113.76L56.7085 113.661L56.2189 113.961L55.7647 114.283L56.5399 113.722L57.3151 113.161L58.0902 112.6L58.8654 112.039L59.6406 111.478L60.4158 110.917L60.8364 110.641L60.4908 110.952L60.1582 111.288L60.8204 110.634L61.4826 109.979L62.1447 109.325L62.8069 108.671L63.4691 108.017L64.1313 107.363L64.7935 106.709L65.4557 106.055L66.1179 105.4L66.7801 104.746L67.188 104.377L66.9403 104.684L66.7022 105.012L67.2297 104.295L67.7572 103.578L68.2847 102.861L68.8122 102.144L69.3396 101.426L69.8671 100.709L70.3946 99.9921L70.7184 99.5876L70.532 99.9065L70.3636 100.229L70.7833 99.4256L71.2031 98.6219L71.6229 97.8182L72.0426 97.0145L72.4624 96.2108L72.8821 95.407L73.3019 94.6033L73.5901 94.082L73.4759 94.3558L73.3774 94.6203L73.7205 93.7061L74.0635 92.7919L74.4066 91.8777L74.7496 90.9635L75.0927 90.0493L75.4357 89.1352L75.7788 88.2209L76.1218 87.3068L76.4649 86.3926L76.8079 85.4784L77.087 84.7551L77.0231 84.9659L76.9605 85.1992L77.1808 84.3763L77.4012 83.5535L77.6216 82.7307L77.7652 82.2489L77.7095 82.5655L77.6708 82.8584L77.7935 81.9001L77.9163 80.9417L78.0391 79.9833L78.1618 79.025L78.2846 78.0666L78.4073 77.1082L78.5301 76.1499L78.6528 75.1915L78.7756 74.2331L78.8753 73.5223L78.8607 73.7801L78.8556 74.0477L78.8795 73.1336L78.9035 72.2196L78.9275 71.3055L78.9515 70.3914L78.9755 69.4774L78.9994 68.5633L79.0246 67.7765L79.0282 67.905L79.0343 68.0347L78.9987 67.1348L78.9632 66.235L78.9276 65.3351L78.8921 64.4353L78.8566 63.5354L78.821 62.6356L78.7942 61.8672L78.8057 62.0011L78.8203 62.1373L78.7321 61.2669L78.644 60.3965L78.5558 59.5261L78.4677 58.6556L78.3795 57.7852L78.2914 56.9148L78.2219 56.1894L78.2422 56.325L78.2638 56.4518L78.1048 55.5017L77.9458 54.5516L77.7868 53.6016L77.6278 52.6515L77.4688 51.7014L77.3098 50.7513L77.1508 49.8012L76.9919 48.8511L76.8692 48.0872L76.9136 48.2828L76.967 48.4881L76.7486 47.6294L76.5303 46.7707L76.3119 45.912L76.0936 45.0533L75.8752 44.1946L75.6987 43.4802L75.7426 43.6192L75.7881 43.7528L75.5013 42.8701L75.2146 41.9874L74.9279 41.1047L74.6412 40.222L74.4126 39.4973L74.4781 39.6613L74.5515 39.8308L74.2272 39.0277L73.9029 38.2246L73.5786 37.4215L73.2542 36.6184L73.0226 36.0117L73.1244 36.2086L73.2351 36.4051L72.8475 35.6572L72.4599 34.9093L72.0722 34.1613L71.6846 33.4135L71.3877 32.8147L71.4733 32.9469L71.5539 33.0646L71.0126 32.2489L70.4714 31.4332L69.9301 30.6175L69.5231 29.9853L69.6649 30.1637L69.8133 30.3362L69.1826 29.5883L68.5518 28.8405L67.9211 28.0926L67.2903 27.3448L66.6596 26.5969L66.139 25.9685L66.2528 26.0851L66.3702 26.1984L65.6807 25.5086L64.9911 24.8188L64.3016 24.129L63.6663 23.4894L63.7242 23.5416L63.7862 23.5957L63.1155 22.9961L62.4449 22.3965L61.7742 21.7968L61.1562 21.2421L61.2113 21.2877L61.2688 21.334L60.6109 20.784L59.953 20.234L59.2951 19.6841L58.6372 19.1341L57.9793 18.5841L57.3655 18.0687L57.4102 18.1031L57.4555 18.1372L56.8039 17.5899L56.1523 17.0427L55.5007 16.4955L54.8904 15.9785L54.9338 16.0098L54.9797 16.0421L54.3488 15.5595L53.7179 15.077L53.087 14.5944L52.6103 14.2149L52.7498 14.3011L52.8761 14.3739L52.0696 13.8681L51.2632 13.3623L50.5495 12.9068L50.6458 12.9562L50.7455 13.0046L49.9364 12.5707L49.1273 12.1369L48.4174 11.7482L48.5195 11.792L48.6248 11.8342L47.8141 11.4655L47.0034 11.0967L46.2095 10.7345L46.226 10.7408L46.2422 10.7468L45.3908 10.4051L44.5394 10.0633L43.688 9.72156L42.9496 9.42017L43.0859 9.46432L43.253 9.5119L42.5816 9.33282L41.9102 9.15378L41.3967 9.01321L41.5234 9.03973L41.6272 9.05856L40.6807 8.89389L39.9424 8.75931L40.1846 8.78165L40.4669 8.79071L39.6964 8.76096L38.9259 8.7312L38.1554 8.70145L37.3849 8.67169L36.674 8.63202L35.963 8.59235L35.2521 8.55267L34.5802 8.53232L33.9083 8.51199L33.2365 8.49164L32.5646 8.46518L31.8927 8.43875L31.2208 8.41229L30.5503 8.38382L29.8797 8.35532L29.2778 8.32623L29.3463 8.32446L29.4146 8.32147L28.7418 8.33936L28.069 8.35724L27.3207 8.37836L27.2535 8.37997L27.1935 8.38043L26.3937 8.34152L25.5939 8.30261L24.7941 8.2637L23.9943 8.22479L23.282 8.19733L22.5698 8.16986L22.0394 8.13785L22.2201 8.1243L22.3984 8.10199L21.6843 8.18765L20.9702 8.27328L20.205 8.36624L20.163 8.37167L20.1278 8.37582L19.1761 8.44363L18.1499 8.5191L18.0682 8.52563L17.9783 8.53058L17.1469 8.51797L16.3154 8.50537L15.5115 8.49149L15.5404 8.4899L15.5707 8.48795L14.7913 8.42499L14.0263 8.36099L14.0424 8.35977L14.0606 8.35831L13.4076 8.3826L12.6746 8.41254L12.5892 8.41629L12.4982 8.41763L11.9044 8.36118L11.398 8.30344L11.4853 8.29953L11.5724 8.29309L10.9711 8.23941L10.4066 8.18225L10.434 8.17929L10.4553 8.17679L9.53879 8.12619L8.62753 8.07492L8.62372 8.07538L7.7016 7.94672L6.74545 7.79102L6.77615 7.78601L6.03778 7.75839L5.23184 7.74356L4.91223 7.20273V7.16306V5.68295Z" fill="black" style="fill:black;fill-opacity:1;"/>
</svg>
