<svg width="111" height="202" viewBox="0 0 111 202" fill="none" xmlns="http://www.w3.org/2000/svg">
<path d="M14.5962 20.6238L14.0991 19.7865L12.5853 19.3079L11.9424 16.4011L13.0403 14.3936L14.2174 13.5033L14.416 13.4458L15.6407 13.1017L16.5622 12.834L17.4812 12.5668L18.4002 12.2997L19.3192 12.0325L20.2382 11.7654L21.1573 11.4983L21.1822 11.4926L21.2071 11.487L22.1654 11.2509L23.0988 11.0202L24.0322 10.7895L24.9657 10.5588L25.8991 10.3281L26.8326 10.0974L27.766 9.86676L28.6994 9.63608L29.6329 9.40536L30.5663 9.17468L31.4998 8.944L32.4332 8.71332L33.3666 8.48264L33.4328 8.46844L33.4984 8.45499L34.5236 8.25491L35.4839 8.06763L36.4442 7.88034L37.4046 7.69305L38.3649 7.50577L39.3253 7.31848L40.2856 7.1312L41.2459 6.94391L42.2062 6.75659L43.1666 6.56931L44.127 6.38202L45.0873 6.19473L46.0476 6.00745L47.0079 5.82016L47.9683 5.63287L48.9286 5.44559L49.889 5.2583L50.8493 5.07101L51.8096 4.88373L51.8677 4.87274L51.9268 4.862L52.9277 4.69144L53.8683 4.53134L54.809 4.37125L55.7496 4.21112L56.6902 4.05103L57.6309 3.89093L58.5715 3.73083L59.5122 3.57074L60.4528 3.41064L61.3935 3.25055L62.3341 3.09042L63.2748 2.93033L64.2154 2.77023L65.1561 2.61014L66.0967 2.45004L67.0374 2.28995L67.0258 2.2919L67.0137 2.29398L67.8845 2.14709L68.7677 1.99802L69.6509 1.84894L70.5342 1.69989L71.4175 1.55081L72.3007 1.40173L73.184 1.25269L74.0672 1.10361L74.9505 0.954529L74.8611 0.970642L74.7745 0.987274L75.6334 0.951233L76.5764 0.898102L77.5193 0.845001L78.4623 0.79187L79.4053 0.73877L80.3483 0.685669L81.2913 0.632538L82.2343 0.579437L83.1773 0.526306L84.1203 0.473206L85.0633 0.420105L86.0063 0.366974L86.9493 0.313873L87.8923 0.260742L87.7932 0.282257L87.6869 0.307251L88.5005 0.585724L89.4285 0.835083L90.3564 1.08447L91.2844 1.33383L92.2124 1.58322L94.1392 8.85971L93.4562 9.53564L92.7733 10.2116L92.0903 10.8875L91.4073 11.5634L90.61 12.2685L90.5037 12.2935L90.4046 12.315L89.5189 12.643L88.6332 12.971L87.7476 13.2991L86.8619 13.6271L85.9761 13.9551L85.0905 14.2831L84.2048 14.6112L83.3191 14.9392L82.4334 15.2672L81.5477 15.5952L80.662 15.9233L79.7763 16.2513L78.8906 16.5793L77.9208 16.9244L77.8342 16.941L77.7448 16.9572L76.8633 17.1162L75.9818 17.2753L75.1003 17.4344L74.2188 17.5935L73.3373 17.7526L72.4558 17.9117L71.5743 18.0708L70.6928 18.2299L69.7988 18.3911L69.7867 18.3932L69.7751 18.3952L68.8345 18.5549L67.8937 18.7146L66.9531 18.8744L66.0123 19.0341L65.0717 19.1938L64.1309 19.3535L63.1902 19.5132L62.2495 19.673L61.3088 19.8327L60.3681 19.9924L59.4274 20.1522L58.4867 20.3119L57.546 20.4716L56.6053 20.6313L55.6646 20.791L54.7841 20.9403L54.8433 20.9296L54.9013 20.9186L53.9402 21.1018L52.9791 21.285L52.0179 21.4681L51.0568 21.6513L50.0956 21.8345L49.1345 22.0177L48.1734 22.2009L47.2123 22.3841L46.2512 22.5673L45.29 22.7505L44.3289 22.9337L43.3678 23.1169L42.4067 23.3L41.4456 23.4832L40.4844 23.6664L39.5233 23.8496L38.5621 24.0328L37.601 24.216L36.7048 24.3864L36.7703 24.3729L36.8365 24.3587L35.8919 24.5385L34.9474 24.7183L34.0028 24.898L33.0582 25.0778L32.1136 25.2576L31.1691 25.4373L30.2245 25.6171L29.28 25.7969L28.3354 25.9767L27.3908 26.1564L26.4463 26.3362L25.5017 26.516L24.5819 26.6903L24.6068 26.6847L24.6318 26.679L23.6881 26.8383L22.7444 26.9974L21.8007 27.1566L20.857 27.3159L19.9132 27.475L18.972 27.6337L18.334 27.7159L18.5326 27.6584L18.7644 26.9868L19.8623 25.1903L19.2194 22.2835L17.7056 21.8049L14.5962 20.6238Z" fill="black" style="fill:black;fill-opacity:1;"/>
<path d="M15.9419 81.0468L16.8415 79.496L16.4611 77.82L16.2995 77.8159L17.0045 77.7033L17.9701 77.5858L18.9358 77.4684L19.9014 77.351L20.8671 77.2335L21.8327 77.1161L22.7984 76.9987L23.764 76.8812L24.7297 76.7638L25.6953 76.6463L26.661 76.5289L27.6266 76.4115L28.5923 76.294L29.5579 76.1766L30.5236 76.0591L31.4892 75.9417L32.4549 75.8243L32.5345 75.8212L32.6144 75.8192L33.6611 75.7635L34.6277 75.709L35.5943 75.6544L36.5609 75.5998L37.5276 75.5452L38.4942 75.4906L39.4608 75.4361L40.4273 75.3815L41.394 75.3269L42.3606 75.2723L43.3272 75.2177L44.2938 75.1631L45.2604 75.1086L46.227 75.054L47.1936 74.9994L48.1602 74.9448L49.1269 74.8902L50.0935 74.8356L51.0601 74.781L51.0741 74.781L51.0881 74.7809L52.083 74.767L53.0641 74.7531L54.0453 74.7391L55.0264 74.7252L56.0075 74.7113L56.9886 74.6974L57.9698 74.6834L58.9508 74.6695L59.932 74.6556L60.9131 74.6417L61.8942 74.6277L62.8753 74.6138L63.8565 74.5999L64.8376 74.586L65.8187 74.5721L66.7998 74.5581L67.7809 74.5442L68.7621 74.5303L68.9322 74.5323L69.1029 74.5383L70.2475 74.6156L71.221 74.683L72.1946 74.7503L73.1682 74.8176L74.1418 74.885L75.1154 74.9523L76.089 75.0197L77.0625 75.087L78.0362 75.1543L79.0097 75.2216L79.9833 75.289L80.9569 75.3563L81.9305 75.4236L82.9041 75.491L82.9865 75.4973L83.0697 75.5045L84.1047 75.653L85.0557 75.793L86.0067 75.9331L86.9578 76.0732L87.9088 76.2133L88.8598 76.3533L89.8108 76.4934L90.7619 76.6335L91.7129 76.7735L92.6639 76.9136L93.615 77.0537L94.5659 77.1937L95.517 77.3338L96.468 77.4739L97.419 77.614L98.3701 77.754L99.3211 77.8941L99.4032 77.9032L99.4864 77.9136L100.441 78.4633L101.311 79.0013L102.182 79.5394L103.052 80.0775L103.922 80.6156L104.792 81.1537L105.662 81.6918L106.533 82.2299L107.403 82.7679L108.273 83.306L109.143 83.8441L110.013 84.3822L109.526 87.7715L108.54 88.0426L107.553 88.3138L106.567 88.585L105.58 88.8561L104.593 89.1273L103.607 89.3984L102.62 89.6696L101.634 89.9408L100.647 90.2119L99.6607 90.4831L98.6742 90.7542L97.7721 91.037L97.8553 91.0473L97.9374 91.0565L96.9781 90.9957L96.0187 90.935L95.0593 90.8742L94.0999 90.8134L93.1406 90.7527L92.1812 90.6919L91.2219 90.6312L90.2625 90.5704L89.3031 90.5097L88.3438 90.4489L87.3844 90.3882L86.4251 90.3274L85.4657 90.2666L84.5063 90.2059L83.547 90.1451L82.5876 90.0844L81.7122 90.032L81.7954 90.0392L81.8778 90.0455L80.9044 89.9756L79.9311 89.9056L78.9577 89.8357L77.9843 89.7657L77.0108 89.6958L76.0374 89.6259L75.0641 89.5559L74.0907 89.486L73.1172 89.416L72.1438 89.3461L71.1704 89.2762L70.1971 89.2062L69.2237 89.1363L68.4212 89.0764L68.5919 89.0823L68.7621 89.0844L67.7809 89.0704L66.7998 89.0565L65.8187 89.0426L64.8376 89.0287L63.8565 89.0147L62.8753 89.0008L61.8942 88.9869L60.9131 88.973L59.932 88.959L58.9508 88.9451L57.9698 88.9312L56.9886 88.9173L56.0075 88.9033L55.0264 88.8894L54.0453 88.8755L53.0641 88.8616L52.083 88.8476L51.1157 88.8337L51.1297 88.8336L51.1437 88.8336L50.1765 88.7905L49.2093 88.7474L48.2422 88.7044L47.275 88.6613L46.3078 88.6182L45.3406 88.5752L44.3734 88.5321L43.4062 88.489L42.439 88.446L41.4718 88.4029L40.5046 88.3598L39.5374 88.3167L38.5703 88.2737L37.6031 88.2306L36.6359 88.1875L35.6687 88.1444L34.7015 88.1014L33.7343 88.0583L32.8472 88.0142L32.9271 88.0122L33.0067 88.0091L32.0345 87.9794L31.0621 87.9498L30.0898 87.9201L29.1175 87.8904L28.1452 87.8608L27.1729 87.8311L26.2006 87.8015L25.2283 87.7718L24.256 87.7421L23.2836 87.7125L22.3113 87.6828L21.339 87.6532L20.3667 87.6235L19.3944 87.5938L18.4221 87.5642L17.4498 87.5345L16.2168 87.5096L16.0552 87.5056L15.6748 85.8295L15.9419 81.0468Z" fill="black" style="fill:black;fill-opacity:1;"/>
<path d="M0.968933 163.393L1.53259 162.374L2.52414 162.466L3.51572 162.558L4.50726 162.65L5.49881 162.741L6.49039 162.833L7.48193 162.925L8.47348 163.017L9.46506 163.109L10.4566 163.2L11.4482 163.292L12.4397 163.384L13.4313 163.476L14.4229 163.568L14.3763 163.556L14.3297 163.544L15.2617 163.674L16.2403 163.815L17.2189 163.957L18.1975 164.098L19.1762 164.239L20.1548 164.381L21.1334 164.522L22.112 164.664L23.0906 164.805L24.0692 164.946L25.0479 165.088L26.0265 165.229L27.0051 165.37L27.9837 165.512L28.9623 165.653L29.9409 165.794L30.9196 165.936L31.8982 166.077L32.8768 166.218L33.8554 166.36L34.834 166.501L34.826 166.499L34.8177 166.497L35.7535 166.659L36.6976 166.823L37.6416 166.986L38.5857 167.15L39.5298 167.314L40.4739 167.478L41.4179 167.642L42.362 167.805L43.3061 167.969L44.2502 168.133L45.1943 168.297L46.1383 168.46L47.0824 168.624L48.0265 168.788L48.9706 168.952L49.9146 169.115L50.8587 169.279L51.8028 169.443L52.7469 169.607L53.6909 169.77L54.635 169.934L55.5791 170.098L56.5232 170.262L56.5963 170.279L56.6678 170.296L57.6987 170.538L58.6598 170.763L59.6208 170.987L60.5819 171.211L61.543 171.436L62.504 171.66L63.4651 171.884L64.4261 172.109L65.3872 172.333L66.3483 172.557L67.3093 172.782L68.2704 173.006L69.2314 173.23L70.1925 173.454L71.1536 173.679L72.1146 173.903L73.0757 174.127L74.0367 174.352L74.212 174.4L74.3912 174.453L75.4692 174.813L76.364 175.113L77.2587 175.413L78.1535 175.713L79.0482 176.014L79.943 176.314L80.8378 176.614L81.7325 176.914L82.6273 177.214L83.522 177.514L84.4168 177.814L85.3116 178.115L86.2064 178.415L86.4136 178.488L86.6152 178.567L87.6836 179.072L88.5562 179.496L89.4286 179.92L90.3012 180.344L91.1738 180.768L92.0463 181.191L92.9188 181.615L93.7914 182.039L94.1585 182.211L94.5126 182.4L95.5922 183.277L96.3331 183.948L97.074 184.62L97.8149 185.291L98.5558 185.962L99.2967 186.634L100.038 187.305L100.779 187.976L101.519 188.648L102.26 189.319L102.415 189.422L102.574 189.535L103.214 190.522L103.691 191.383L104.167 192.244L104.644 193.105L105.12 193.966L105.597 194.827L106.073 195.688L106.55 196.548L107.027 197.409L107.503 198.27L104.927 201.51L103.981 201.24L103.035 200.969L102.089 200.699L101.142 200.429L100.196 200.158L99.2501 199.888L98.304 199.618L97.3578 199.347L96.4117 199.077L95.6296 198.932L95.7889 199.046L95.9432 199.149L95.0247 198.754L94.1063 198.359L93.1877 197.964L92.2693 197.569L91.3508 197.174L90.4323 196.778L89.5139 196.383L88.5954 195.988L87.6769 195.593L87.0971 195.403L87.4512 195.593L87.8184 195.765L86.9136 195.415L86.0088 195.065L85.1039 194.716L84.1992 194.366L83.2944 194.017L82.3895 193.667L81.4847 193.317L80.7758 193.05L80.9774 193.128L81.1846 193.201L80.2922 192.895L79.3997 192.588L78.5071 192.281L77.6147 191.974L76.7222 191.667L75.8297 191.361L74.9372 191.054L74.0447 190.747L73.1522 190.44L72.2597 190.133L71.3672 189.826L70.4747 189.52L69.7654 189.272L69.9446 189.326L70.1199 189.374L69.1716 189.1L68.2234 188.827L67.2751 188.553L66.327 188.28L65.3787 188.006L64.4305 187.733L63.4822 187.459L62.534 187.186L61.5858 186.912L60.6376 186.639L59.6893 186.365L58.7411 186.092L57.7929 185.818L56.8447 185.545L55.8964 185.271L54.9482 184.998L54 184.724L53.1216 184.468L53.1931 184.486L53.2662 184.503L52.3448 184.24L51.4234 183.977L50.502 183.714L49.5806 183.452L48.6592 183.189L47.7378 182.926L46.8163 182.663L45.895 182.4L44.9736 182.137L44.0521 181.874L43.1307 181.611L42.2093 181.349L41.2879 181.086L40.3665 180.823L39.4451 180.56L38.5237 180.297L37.6022 180.034L36.6808 179.771L35.7595 179.508L34.838 179.246L33.9166 178.983L32.9952 178.72L32.0654 178.455L32.0572 178.453L32.0491 178.451L31.1089 178.145L30.1686 177.84L29.2283 177.534L28.288 177.228L27.3477 176.922L26.4075 176.616L25.4672 176.31L24.5269 176.005L23.5866 175.699L22.6463 175.393L21.7061 175.087L20.7658 174.781L19.8255 174.475L18.8852 174.17L17.9449 173.864L17.0046 173.558L16.0644 173.252L15.1241 172.946L14.1838 172.64L13.2435 172.335L12.2566 172.018L12.21 172.006L12.1635 171.994L11.259 171.577L10.3545 171.161L9.45004 170.744L8.54556 170.327L7.64108 169.911L6.7366 169.494L5.83212 169.078L4.92764 168.661L4.02319 168.244L3.11871 167.828L2.21423 167.411L1.30975 166.995L0.405273 166.578L0.968933 163.393Z" fill="black" style="fill:black;fill-opacity:1;"/>
</svg>
