<svg width="168" height="276" viewBox="0 0 168 276" fill="none" xmlns="http://www.w3.org/2000/svg">
<path d="M161.3 49.6359L162.796 49.8468H163.568L160.327 53.3535L159.554 53.1504L158.607 53.0152L157.659 52.88L156.712 52.7449L155.764 52.6097L154.817 52.4745L153.869 52.3393L153.815 52.3178L153.761 52.2958L152.783 52.0283L151.859 51.7832L150.935 51.5381L150.01 51.2929L149.086 51.0478L148.161 50.8026L148.193 50.8161L148.224 50.829L147.335 50.5123L146.416 50.183L145.497 49.8537L144.578 49.5244L143.659 49.195L142.74 48.8657L141.821 48.5364L140.902 48.2071L139.983 47.8778L139.064 47.5485L138.145 47.2191L137.226 46.8898L136.307 46.5605L136.183 46.5081L136.06 46.4529L135.059 45.9733L134.181 45.5514L133.303 45.1295L132.424 44.7077L131.546 44.2858L130.668 43.864L129.789 43.4421L128.911 43.0202L128.033 42.5984L127.154 42.1765L126.276 41.7547L125.398 41.3328L124.519 40.9109L123.641 40.4891L122.762 40.0672L121.884 39.6454L121.006 39.2235L120.127 38.8017L119.249 38.3798L118.371 37.9579L117.492 37.5361L116.614 37.1142L115.736 36.6924L115.656 36.6529L115.578 36.6127L114.634 36.0944L113.767 35.6169L112.9 35.1393L112.033 34.6618L111.165 34.1842L110.298 33.7067L109.431 33.2292L108.564 32.7516L107.697 32.2741L106.83 31.7966L105.963 31.319L105.096 30.8415L104.229 30.364L103.362 29.8864L102.495 29.4089L101.627 28.9314L100.76 28.4538L99.8933 27.9763L99.0262 27.4988L98.1591 27.0212L97.2921 26.5437L96.425 26.0662L95.5579 25.5886L94.6908 25.1111L93.8237 24.6336L92.9566 24.156L92.0895 23.6785L91.2224 23.201L90.3554 22.7234L89.4883 22.2459L88.6212 21.7684L87.7541 21.2908L86.887 20.8133L86.0199 20.3358L85.1528 19.8582L84.2857 19.3807L83.4187 18.9032L83.4387 18.9139L83.4588 18.9246L82.6453 18.4119L81.8115 17.8885L80.9776 17.365L80.1438 16.8416L79.31 16.3181L78.4762 15.7947L77.6423 15.2713L76.8085 14.7478L75.9747 14.2244L75.1408 13.701L74.307 13.1775L73.4732 12.6541L72.6393 12.1306L71.8055 11.6072L70.9717 11.0838L70.1378 10.5603L69.304 10.0369L68.4702 9.51346L68.4676 9.51212L68.4649 9.51071L67.7692 8.86029L67.0763 8.21133L66.3834 7.56238L65.6905 6.91345L64.9976 6.2645L64.3047 5.61554L67.266 0L68.1928 0.2052L69.1197 0.410431L70.0466 0.615662L70.9735 0.820862L71.9004 1.02609L72.8245 1.22983L72.8218 1.22842L72.8192 1.22708L73.7237 1.61597L74.6281 2.00485L75.5326 2.39374L76.437 2.78262L77.3415 3.17151L78.2459 3.56039L79.1504 3.94928L80.0548 4.33817L80.9593 4.72708L81.8637 5.11597L82.7682 5.50485L83.6726 5.89374L84.5771 6.28262L85.4815 6.67151L86.386 7.06039L87.2904 7.44928L88.1949 7.83817L89.1196 8.23779L89.1398 8.2485L89.1598 8.25925L90.0351 8.72153L90.9104 9.18384L91.7857 9.64612L92.6611 10.1084L93.5364 10.5707L94.4117 11.033L95.287 11.4953L96.1623 11.9576L97.0376 12.4199L97.9129 12.8821L98.7882 13.3444L99.6635 13.8067L100.539 14.269L101.414 14.7313L102.289 15.1936L103.165 15.6559L104.04 16.1182L104.915 16.5804L105.791 17.0428L106.666 17.505L107.541 17.9673L108.417 18.4296L109.292 18.8919L110.167 19.3542L111.043 19.8165L111.918 20.2788L112.793 20.7411L113.669 21.2033L114.544 21.6656L115.419 22.1279L116.294 22.5902L117.17 23.0525L118.045 23.5148L118.92 23.9771L119.796 24.4394L120.671 24.9016L121.469 25.3232L121.391 25.283L121.311 25.2435L122.185 25.6749L123.059 26.1063L123.933 26.5377L124.806 26.9691L125.68 27.4005L126.554 27.8319L127.427 28.2633L128.301 28.6947L129.175 29.1261L130.048 29.5575L130.922 29.9889L131.796 30.4203L132.67 30.8517L133.543 31.2831L134.417 31.7145L135.291 32.1459L136.164 32.5773L137.038 33.0087L137.912 33.4401L138.785 33.8715L139.659 34.3029L140.533 34.7343L141.284 35.1079L141.161 35.0528L141.037 35.0003L141.923 35.4096L142.809 35.8188L143.696 36.2281L144.582 36.6374L145.468 37.0467L146.355 37.4559L147.241 37.8652L148.127 38.2745L149.013 38.6837L149.9 39.093L150.786 39.5023L151.672 39.9116L152.589 40.3334L152.62 40.3463L152.651 40.3598L153.465 40.862L154.279 41.3643L155.093 41.8665L155.907 42.3688L156.721 42.8711L157.482 43.351L157.428 43.329L157.374 43.3075L158.164 43.8468L158.955 44.386L159.746 44.9254L160.536 45.4647L161.327 46.004L162.118 46.5433L161.346 46.3401L158.104 49.8468H158.876L161.3 49.6359Z" fill="black" style="fill:black;fill-opacity:1;"/>
<path d="M148.747 115.732L148.985 115.094V114.529L148.864 114.322V120.89V120.939V114.096V121.422V121.766L148.508 122.255L147.797 122.515L147.086 122.776L146.375 123.036L146.682 123.028L146.93 123.008L146.193 123.162L145.252 123.342L144.31 123.521L143.369 123.7L142.427 123.879L141.486 124.058L140.544 124.238L139.603 124.417L138.661 124.596L137.72 124.775L136.778 124.954L135.836 125.134L134.895 125.313L133.953 125.492L133.012 125.671L132.07 125.85L132.157 125.838L132.243 125.824L131.377 125.991L130.426 126.173L129.475 126.355L128.524 126.537L127.573 126.719L126.622 126.902L125.671 127.084L124.719 127.266L123.768 127.448L122.817 127.63L121.866 127.813L120.915 127.995L119.964 128.177L119.013 128.359L118.061 128.541L117.11 128.724L116.159 128.906L115.208 129.088L114.257 129.27L113.306 129.452L112.355 129.635L111.403 129.817L110.452 129.999L109.501 130.181L108.55 130.363L107.599 130.545L106.648 130.728L105.697 130.91L105.734 130.903L105.77 130.896L104.841 131.082L103.876 131.276L102.91 131.469L101.945 131.663L100.98 131.856L100.014 132.05L99.0489 132.243L98.0835 132.437L97.1182 132.631L96.1528 132.824L95.1874 133.018L94.222 133.211L93.2567 133.405L92.2913 133.598L91.3259 133.792L90.3605 133.985L89.3951 134.179L88.4298 134.373L87.4644 134.566L86.499 134.76L85.5336 134.953L84.5683 135.147L83.6029 135.34L82.6375 135.534L81.6721 135.727L80.7067 135.921L79.7414 136.115L78.776 136.308L77.8106 136.502L76.8452 136.695L75.8799 136.889L74.9145 137.082L73.9491 137.276L72.9837 137.469L72.0183 137.663L72.0591 137.655L72.0995 137.646L71.1621 137.832L70.1847 138.026L69.2073 138.221L68.2299 138.416L67.2525 138.61L66.2751 138.805L65.2977 139L64.3203 139.194L63.3429 139.389L62.3655 139.584L61.3881 139.778L60.4107 139.973L59.4333 140.167L58.4559 140.362L57.4785 140.557L56.5011 140.751L55.5237 140.946L54.5463 141.141L53.5689 141.335L52.5915 141.53L51.6141 141.725L50.6367 141.919L49.6593 142.114L48.6819 142.308L47.7045 142.503L46.7271 142.698L45.7497 142.892L44.7723 143.087L43.795 143.282L42.8176 143.476L41.8401 143.671L40.8628 143.866L39.8854 144.06L38.908 144.255L38.8338 144.271L38.7583 144.286L37.7022 144.367L36.7228 144.433L35.7434 144.499L34.764 144.565L33.7846 144.631L32.8052 144.698L31.8258 144.764L30.8464 144.83L29.867 144.896L28.8876 144.962L27.9082 145.029L26.9288 145.095L25.9495 145.161L24.9701 145.227L23.9907 145.293L23.0113 145.36L22.0319 145.426L21.0525 145.492L20.0731 145.558L19.0937 145.625L18.1143 145.691L17.1349 145.757L16.1555 145.823L15.1761 145.889L14.1967 145.956L13.2174 146.022L12.238 146.088L11.2586 146.154L10.2792 146.22L9.29979 146.287L8.32039 146.353L7.341 146.419L6.3616 146.485L5.38222 146.552L4.40283 146.618L3.42343 146.684L2.44405 146.75L1.46465 146.816L0.48526 146.883L0 144.179L0.941284 143.901L1.88257 143.622L2.82385 143.344L3.76512 143.065L4.70641 142.786L5.64769 142.508L6.58897 142.229L7.53026 141.951L8.47153 141.672L9.41281 141.394L10.3541 141.115L11.2954 140.837L12.2366 140.558L13.1779 140.28L14.1192 140.001L15.0605 139.723L16.0018 139.444L16.9431 139.165L17.8843 138.887L18.8256 138.608L19.7669 138.33L20.7082 138.051L21.6495 137.773L22.5907 137.494L23.532 137.216L24.4733 136.937L25.4146 136.659L26.3559 136.38L27.2971 136.102L28.2384 135.823L29.1797 135.544L30.121 135.266L31.0623 134.987L32.0036 134.709L32.9448 134.43L33.8861 134.152L34.8274 133.873L35.7687 133.595L36.6332 133.33L36.5578 133.346L36.4836 133.362L37.4512 133.123L38.4189 132.885L39.3866 132.647L40.3543 132.409L41.322 132.17L42.2897 131.932L43.2573 131.694L44.225 131.456L45.1927 131.217L46.1604 130.979L47.1281 130.741L48.0958 130.502L49.0635 130.264L50.0311 130.026L50.9988 129.788L51.9665 129.549L52.9342 129.311L53.9019 129.073L54.8696 128.835L55.8373 128.596L56.8049 128.358L57.7726 128.12L58.7403 127.881L59.708 127.643L60.6757 127.405L61.6434 127.167L62.6111 126.928L63.5788 126.69L64.5464 126.452L65.5141 126.214L66.4818 125.975L67.4495 125.737L68.4172 125.499L69.4249 125.252L69.4652 125.243L69.506 125.235L70.4707 125.038L71.4355 124.842L72.4003 124.645L73.365 124.448L74.3298 124.252L75.2945 124.055L76.2593 123.858L77.224 123.662L78.1888 123.465L79.1535 123.269L80.1183 123.072L81.0831 122.875L82.0478 122.679L83.0126 122.482L83.9773 122.285L84.9421 122.089L85.9068 121.892L86.8716 121.695L87.8363 121.499L88.8011 121.302L89.7659 121.106L90.7306 120.909L91.6954 120.712L92.6601 120.516L93.6249 120.319L94.5896 120.122L95.5544 119.926L96.5191 119.729L97.4839 119.533L98.4487 119.336L99.4134 119.139L100.378 118.943L101.343 118.746L102.308 118.549L103.309 118.346L103.345 118.339L103.382 118.332L104.336 118.163L105.29 117.995L106.244 117.827L107.197 117.659L108.151 117.49L109.105 117.322L110.058 117.154L111.012 116.986L111.966 116.817L112.92 116.649L113.873 116.481L114.827 116.313L115.781 116.144L116.734 115.976L117.688 115.808L118.642 115.64L119.596 115.471L120.549 115.303L121.503 115.135L122.457 114.966L123.41 114.798L124.364 114.63L125.318 114.462L126.271 114.293L127.225 114.125L128.179 113.957L129.133 113.789L130.172 113.605L130.258 113.591L130.345 113.579L131.299 113.491L132.254 113.404L133.208 113.316L134.162 113.229L135.117 113.142L136.071 113.054L137.026 112.967L137.98 112.879L138.935 112.792L139.889 112.704L140.844 112.617L141.798 112.53L142.753 112.442L143.707 112.355L144.661 112.267L145.821 112.155L146.069 112.136L146.375 112.127L147.086 112.387L147.797 112.648L148.508 112.909L148.864 113.397V113.742V121.067V114.224V114.273V120.841L148.985 120.634V120.069L148.747 115.732Z" fill="black" style="fill:black;fill-opacity:1;"/>
<path d="M166.407 197.575V197.139V196.959L167.712 202.876L167.23 203.22L166.749 203.563L166.432 203.991L166.609 204.258L166.505 204.705L165.764 205.528L165.743 205.534L164.933 205.828L163.915 206.183L163.025 206.5L163.118 206.474L163.207 206.447L162.363 206.733L161.432 207.047L160.501 207.362L159.57 207.676L158.639 207.99L157.708 208.304L156.777 208.619L155.845 208.933L155.977 208.888L156.108 208.839L155.333 209.162L154.429 209.536L153.524 209.91L152.62 210.285L151.715 210.659L150.81 211.033L149.906 211.408L149.001 211.782L148.096 212.156L147.192 212.531L146.287 212.905L145.382 213.279L144.478 213.654L143.573 214.028L142.669 214.402L141.764 214.776L140.859 215.151L139.955 215.525L139.05 215.899L138.145 216.274L137.241 216.648L136.336 217.022L136.462 216.969L136.585 216.912L135.823 217.29L134.939 217.727L134.055 218.164L133.171 218.601L132.287 219.039L131.403 219.476L130.519 219.913L129.635 220.35L128.751 220.787L127.867 221.224L126.983 221.661L126.099 222.098L125.215 222.535L124.331 222.972L123.447 223.409L122.563 223.846L121.679 224.283L120.795 224.72L119.911 225.157L119.027 225.594L118.143 226.031L117.258 226.468L116.374 226.905L115.49 227.342L114.606 227.779L113.722 228.216L112.838 228.653L111.954 229.09L111.07 229.527L110.186 229.964L109.302 230.401L108.418 230.838L107.534 231.275L106.65 231.712L105.766 232.149L104.882 232.586L103.998 233.023L103.114 233.46L102.23 233.897L101.346 234.334L100.462 234.771L99.578 235.209L98.694 235.646L97.81 236.083L96.9259 236.52L96.0419 236.957L95.1579 237.394L94.2739 237.831L93.3899 238.268L92.5058 238.705L91.6218 239.142L90.7378 239.579L89.8538 240.016L88.9697 240.453L89.0224 240.426L89.0745 240.399L88.2457 240.83L87.3654 241.289L86.485 241.747L85.6047 242.206L84.7243 242.664L83.8439 243.123L82.9636 243.581L82.0832 244.039L81.2029 244.498L80.3225 244.956L79.4422 245.415L78.5618 245.873L77.6815 246.332L76.8011 246.79L75.9207 247.249L75.0404 247.707L74.16 248.166L73.2797 248.624L72.3993 249.083L71.519 249.541L70.6386 250L69.7583 250.458L68.8779 250.917L67.9975 251.375L67.1172 251.834L66.2368 252.292L65.3565 252.751L64.4761 253.209L63.5958 253.667L62.7154 254.126L61.8351 254.584L60.9547 255.043L60.0743 255.501L59.194 255.96L58.3136 256.418L57.4333 256.877L56.5529 257.335L55.6726 257.794L55.6493 257.806L55.6258 257.819L54.6942 258.214L53.7863 258.597L52.8784 258.981L51.9705 259.364L51.0626 259.747L50.1547 260.13L49.2468 260.513L48.3389 260.896L47.431 261.28L46.5231 261.663L45.6152 262.046L44.7073 262.429L43.7994 262.812L42.8916 263.195L41.9837 263.578L41.0758 263.962L40.1679 264.345L39.26 264.728L38.3521 265.111L37.4442 265.494L36.5363 265.877L35.6284 266.261L34.7205 266.644L33.8126 267.027L32.9047 267.41L31.9968 267.793L31.0889 268.176L30.181 268.56L29.2731 268.943L28.3652 269.326L27.4574 269.709L26.5495 270.092L25.6416 270.475L24.7337 270.858L23.8258 271.242L22.9179 271.625L22.01 272.008L21.1021 272.391L20.1942 272.774L19.2863 273.157L18.3784 273.541L17.4705 273.924L16.5626 274.307L15.6548 274.69L14.7469 275.073L13.4727 272.619L14.3083 272.097L15.144 271.575L15.9797 271.053L16.8154 270.531L17.6511 270.008L18.4868 269.486L19.3224 268.964L20.1581 268.442L20.9938 267.919L21.8295 267.397L22.6652 266.875L23.5009 266.353L24.3365 265.831L25.1722 265.308L26.0079 264.786L26.8436 264.264L27.6793 263.742L28.515 263.219L29.3506 262.697L30.1863 262.175L31.022 261.653L31.8577 261.131L32.6934 260.608L33.5291 260.086L34.3647 259.564L35.2004 259.042L36.0361 258.519L36.8718 257.997L37.7075 257.475L38.5432 256.953L39.3788 256.431L40.2145 255.908L41.0502 255.386L41.8859 254.864L42.7216 254.342L43.5573 253.819L44.3929 253.297L45.2286 252.775L46.0643 252.253L46.9 251.731L47.7357 251.208L48.5713 250.686L49.407 250.164L50.2427 249.642L51.0547 249.132L51.0312 249.144L51.0079 249.157L51.874 248.672L52.7402 248.187L53.6063 247.702L54.4725 247.218L55.3386 246.733L56.2048 246.248L57.0709 245.763L57.9371 245.279L58.8032 244.794L59.6694 244.309L60.5355 243.824L61.4017 243.339L62.2678 242.855L63.134 242.37L64.0001 241.885L64.8663 241.4L65.7324 240.915L66.5986 240.431L67.4647 239.946L68.3309 239.461L69.197 238.976L70.0632 238.492L70.9293 238.007L71.7955 237.522L72.6616 237.037L73.5278 236.552L74.3939 236.068L75.2601 235.583L76.1262 235.098L76.9924 234.613L77.8585 234.129L78.7247 233.644L79.5908 233.159L80.457 232.674L81.3231 232.189L82.1893 231.705L83.0554 231.22L83.9732 230.708L84.0253 230.681L84.0779 230.654L84.9585 230.21L85.8391 229.766L86.7197 229.322L87.6003 228.878L88.4808 228.434L89.3614 227.99L90.242 227.547L91.1226 227.103L92.0032 226.659L92.8838 226.215L93.7644 225.771L94.645 225.327L95.5256 224.883L96.4061 224.439L97.2867 223.995L98.1673 223.551L99.0479 223.108L99.9285 222.664L100.809 222.22L101.69 221.776L102.57 221.332L103.451 220.888L104.331 220.444L105.212 220L106.093 219.556L106.973 219.112L107.854 218.668L108.734 218.225L109.615 217.781L110.496 217.337L111.376 216.893L112.257 216.449L113.137 216.005L114.018 215.561L114.899 215.117L115.779 214.673L116.66 214.229L117.54 213.786L118.421 213.342L119.301 212.898L120.182 212.454L121.063 212.01L121.943 211.566L122.824 211.122L123.704 210.678L124.585 210.234L125.466 209.79L126.346 209.346L127.227 208.903L128.107 208.459L128.988 208.015L129.869 207.571L130.749 207.127L131.751 206.624L131.875 206.568L132.001 206.514L132.906 206.142L133.811 205.769L134.717 205.397L135.622 205.024L136.527 204.652L137.433 204.279L138.338 203.907L139.244 203.534L140.149 203.162L141.054 202.789L141.96 202.417L142.865 202.044L143.77 201.672L144.676 201.299L145.581 200.927L146.487 200.554L147.392 200.182L148.297 199.809L149.203 199.437L150.108 199.064L151.014 198.692L152.049 198.267L152.18 198.219L152.312 198.174L153.248 197.875L154.184 197.576L155.12 197.277L156.056 196.978L156.992 196.679L157.928 196.38L158.864 196.081L159.887 195.754L159.977 195.727L160.07 195.701L160.997 195.521L161.797 195.377L162.805 195.174L162.783 195.18L163.699 195.362L164.071 195.81L164.248 196.076L163.931 196.504L164.516 196.422L165.102 196.34L166.407 202.257V202.077V197.575Z" fill="black" style="fill:black;fill-opacity:1;"/>
</svg>
