<svg width="122" height="192" viewBox="0 0 122 192" fill="none" xmlns="http://www.w3.org/2000/svg">
<path d="M1.01392 185.759V185.247V184.911V184.273L1.49951 183.757L2.42387 183.887L3.34825 184.017L4.27261 184.147L5.19698 184.277L6.12134 184.407L7.0457 184.537L7.97006 184.667L8.89442 184.797L9.8188 184.927L10.7432 185.057L11.6675 185.187L11.2954 185.14L10.9082 185.138L11.4108 184.973L12.2977 184.761L13.1847 184.55L14.0717 184.338L14.9587 184.127L15.8457 183.915L16.7326 183.704L17.6196 183.492L18.5066 183.28L18.1105 183.378L17.7166 183.526L18.0875 183.236L18.8326 182.752L19.5777 182.267L20.3228 181.782L21.0679 181.298L21.813 180.813L22.5581 180.328L22.3312 180.476L22.1187 180.637L22.5688 180.159L23.2147 179.51L23.8605 178.861L24.5064 178.212L25.1522 177.563L25.798 176.914L26.4439 176.265L27.0897 175.616L26.8847 175.823L26.6969 176.043L27.0334 175.487L27.5383 174.701L28.0432 173.916L28.5481 173.131L29.053 172.346L29.558 171.561L30.0629 170.776L30.5678 169.991L31.0727 169.205L30.8929 169.493L30.7416 169.783L30.965 169.143L31.3114 168.215L31.6579 167.287L32.0043 166.359L32.3507 165.431L32.6972 164.503L33.0436 163.575L33.3901 162.647L33.7365 161.719L34.083 160.792L34.4294 159.864L34.7759 158.936L34.6843 159.199L34.6097 159.468L34.7234 158.759L34.8939 157.78L35.0644 156.8L35.2349 155.82L35.4054 154.84L35.5759 153.861L35.7464 152.881L35.9169 151.901L36.0874 150.922L36.2579 149.942L36.4284 148.962L36.5989 147.982L36.7693 147.003L36.9398 146.023L37.1103 145.043L37.2808 144.063L37.4513 143.084L37.6218 142.104L37.7923 141.124L37.9628 140.144L38.1333 139.165L38.3038 138.185L38.2702 138.41L38.2477 138.645L38.2497 137.938L38.2615 136.989L38.2733 136.04L38.2851 135.091L38.297 134.141L38.3088 133.192L38.3206 132.243L38.3324 131.294L38.3442 130.344L38.356 129.395L38.3573 129.573L38.3664 129.758L38.2827 129.067L38.1811 128.183L38.0795 127.299L37.978 126.415L37.8764 125.531L37.7749 124.647L37.6733 123.763L37.7371 124.158L37.8307 124.526L37.5915 123.954L37.2364 123.047L36.8813 122.14L36.5262 121.234L36.1711 120.327L35.8159 119.42L35.4608 118.513L35.1057 117.606L35.2214 117.874L35.3545 118.134L34.9878 117.542L34.4728 116.704L33.9579 115.865L33.443 115.026L32.928 114.187L32.4131 113.348L31.8981 112.509L31.3832 111.671L30.8683 110.832L30.3533 109.993L29.8384 109.154L29.3235 108.315L29.5968 108.691L29.942 109.063L29.648 108.888L28.9394 108.367L28.2308 107.846L27.5221 107.324L26.8135 106.803L26.1049 106.282L25.3963 105.761L25.7569 105.996L26.1162 106.181L25.5387 105.998L24.6146 105.677L23.6906 105.356L22.7666 105.035L21.8426 104.714L22.1967 104.819L22.5693 104.893L22.0039 104.869L21.0563 104.805L20.1087 104.74L19.1611 104.676L19.5906 104.677L20.025 104.631L19.5313 104.755L18.6133 104.97L17.6953 105.185L18.6525 104.781L19.554 104.051L19.691 103.915L19.2059 104.685L18.7207 105.455L18.2355 106.226L17.7503 106.996L17.9344 106.55L18.0585 106.064L18.0499 106.445L17.9885 107.324L17.9272 108.203L17.8659 109.082L17.8669 109.044L17.8675 109.007L17.8525 109.877L17.8372 110.783L17.822 111.689L17.8067 112.596L17.771 112.113L17.6563 111.613L17.8474 111.908L18.2314 112.682L18.6155 113.455L18.9996 114.229L18.744 113.801L18.4096 113.399L18.6877 113.555L19.3587 114.054L20.0297 114.554L20.7006 115.053L21.3716 115.552L22.0426 116.052L21.5249 115.738L20.983 115.531L21.3934 115.538L22.3174 115.645L23.2415 115.753L24.1656 115.86L25.0897 115.967L24.9112 115.952L24.7341 115.946L25.5064 115.874L26.453 115.797L27.3996 115.721L28.3463 115.645L29.2929 115.569L30.2395 115.492L31.1862 115.416L30.8002 115.456L30.4091 115.543L30.8785 115.314L31.7285 114.954L32.5786 114.593L33.4286 114.233L34.2786 113.873L35.1286 113.512L35.9787 113.152L36.8287 112.791L37.6787 112.431L38.5287 112.07L38.3272 112.161L38.1326 112.263L38.7238 111.857L39.5008 111.337L40.2778 110.818L41.0549 110.298L41.8319 109.779L42.609 109.26L43.386 108.74L44.163 108.221L44.9401 107.702L45.7171 107.182L46.4941 106.663L47.2712 106.143L48.0482 105.624L47.8722 105.746L47.7094 105.872L48.2854 105.325L49.0107 104.649L49.736 103.973L50.4613 103.297L51.1866 102.62L51.9118 101.944L52.6371 101.268L53.3624 100.591L54.0877 99.9152L54.813 99.2389L55.5383 98.5626L56.2636 97.8863L56.9889 97.21L57.7142 96.5338L58.4395 95.8575L59.1648 95.1812L59.8901 94.5049L60.6154 93.8286L61.3407 93.1523L62.066 92.4761L62.7913 91.7998L63.5166 91.1235L64.2419 90.4472L64.9671 89.7709L65.6924 89.0946L66.4177 88.4184L67.143 87.7421L67.8683 87.0658L68.5936 86.3895L68.4808 86.4969L68.3727 86.6081L68.9165 85.9601L69.5633 85.1977L70.2102 84.4352L70.857 83.6728L71.5039 82.9103L72.1508 82.1478L72.7976 81.3854L73.4445 80.6229L74.0913 79.8605L74.7382 79.098L75.3851 78.3356L76.0319 77.5731L76.6788 76.8106L77.3256 76.0482L77.9725 75.2857L78.6193 74.5233L79.2662 73.7608L79.9131 72.9984L80.5599 72.2359L81.2068 71.4734L81.8536 70.711L82.5005 69.9485L83.1473 69.1861L83.0325 69.3245L82.9219 69.4702L83.3516 68.8038L83.8868 67.9851L84.422 67.1664L84.9572 66.3477L85.4924 65.5289L86.0276 64.7102L86.5627 63.8915L87.0979 63.0728L87.6331 62.2541L88.1683 61.4354L88.7035 60.6167L89.2386 59.798L89.7738 58.9793L90.309 58.1606L90.8442 57.3419L91.3794 56.5232L91.9146 55.7045L92.4498 54.8857L92.985 54.067L93.5201 53.2483L93.4462 53.3641L93.3767 53.481L93.7789 52.7216L94.2462 51.8446L94.7135 50.9676L95.1808 50.0906L95.6481 49.2135L96.1154 48.3365L96.5827 47.4595L97.05 46.5824L97.5173 45.7054L97.9846 44.8284L98.4519 43.9513L98.9192 43.0743L99.3865 42.1973L99.8538 41.3202L100.321 40.4432L100.788 39.5662L101.256 38.6891L101.723 37.8121L101.664 37.9276L101.607 38.0469L101.948 37.2839L102.343 36.3981L102.738 35.5123L103.134 34.6265L103.529 33.7407L103.924 32.8548L104.319 31.969L104.714 31.0832L105.11 30.1974L105.505 29.3116L105.9 28.4258L106.295 27.5399L106.69 26.6541L107.085 25.7683L107.481 24.8825L107.876 23.9967L108.271 23.1108L108.666 22.225L109.061 21.3392L109.457 20.4534L109.852 19.5676L110.247 18.6818L110.642 17.7959L111.037 16.9101L111.433 16.0243L111.828 15.1385L112.223 14.2527L112.618 13.3669L113.013 12.481L112.965 12.6006L112.921 12.7224L113.329 11.9751L113.776 11.1041L114.223 10.2331L114.671 9.36212L115.118 8.49115L115.565 7.62018L116.013 6.74919L116.46 5.87822L116.907 5.00723L117.354 4.13626L117.802 3.26527L118.249 2.3943L118.696 1.52332L119.144 0.652344L121.579 1.39032L121.468 2.3631L121.357 3.33586L121.246 4.30864L121.134 5.2814L121.023 6.25418L120.912 7.22694L120.8 8.19972L120.689 9.17249L120.578 10.1453L120.466 11.118L120.355 12.0908L120.244 13.0636L120.133 14.0363L119.981 15.1328L119.937 15.2546L119.89 15.3741L119.533 16.276L119.176 17.1779L118.819 18.0798L118.462 18.9817L118.105 19.8836L117.748 20.7855L117.391 21.6874L117.034 22.5893L116.677 23.4912L116.32 24.3931L115.963 25.295L115.606 26.1969L115.249 27.0988L114.892 28.0007L114.535 28.9026L114.178 29.8045L113.821 30.7064L113.464 31.6083L113.107 32.5102L112.75 33.4121L112.393 34.314L112.036 35.2159L111.679 36.1178L111.322 37.0197L110.965 37.9216L110.608 38.8235L110.251 39.7254L109.894 40.6273L109.484 41.652L109.427 41.7713L109.367 41.8868L108.9 42.7637L108.432 43.6406L107.965 44.5174L107.497 45.3943L107.029 46.2712L106.562 47.1481L106.094 48.0249L105.627 48.9018L105.159 49.7787L104.691 50.6555L104.224 51.5324L103.756 52.4093L103.289 53.2862L102.821 54.163L102.353 55.0399L101.886 55.9168L101.418 56.7937L100.885 57.7882L100.816 57.9051L100.742 58.0209L100.199 58.8342L99.6554 59.6476L99.1121 60.4609L98.5688 61.2742L98.0254 62.0875L97.4821 62.9008L96.9388 63.7142L96.3954 64.5275L95.8521 65.3408L95.3088 66.1541L94.7654 66.9675L94.2221 67.7808L93.6788 68.5941L93.1354 69.4074L92.5921 70.2207L92.0488 71.0341L91.5054 71.8474L90.9621 72.6607L90.4188 73.474L89.77 74.4397L89.6594 74.5853L89.5446 74.7238L88.8826 75.4732L88.2207 76.2227L87.5588 76.9721L86.8969 77.7215L86.235 78.4709L85.5731 79.2204L84.9112 79.9698L84.2493 80.7192L83.5874 81.4687L82.9255 82.2181L82.2636 82.9675L81.6017 83.717L80.9398 84.4664L80.2779 85.2158L79.616 85.9653L78.9541 86.7147L78.2921 87.4641L77.6302 88.2135L76.9683 88.963L76.3064 89.7124L75.6445 90.4618L74.9826 91.2113L74.2177 92.0752L74.1095 92.1864L73.9967 92.2938L73.2589 92.9564L72.5211 93.619L71.7833 94.2816L71.0455 94.9442L70.3077 95.6069L69.5699 96.2695L68.8321 96.9321L68.0943 97.5947L67.3565 98.2573L66.6187 98.92L65.8809 99.5826L65.1431 100.245L64.4053 100.908L63.6675 101.57L62.9297 102.233L62.1919 102.896L61.4541 103.558L60.7163 104.221L59.9785 104.884L59.2408 105.546L58.5029 106.209L57.7652 106.871L57.0274 107.534L56.2896 108.197L55.5518 108.859L54.814 109.522L54.0762 110.184L53.3384 110.847L52.4513 111.639L52.2885 111.766L52.1124 111.887L51.3215 112.385L50.5307 112.883L49.7398 113.381L48.9489 113.879L48.1581 114.378L47.3672 114.876L46.5763 115.374L45.7855 115.872L44.9946 116.37L44.2037 116.868L43.4128 117.366L42.622 117.864L41.6453 118.475L41.4506 118.577L41.2491 118.668L40.3921 119.011L39.5351 119.354L38.6781 119.698L37.8211 120.041L36.9641 120.385L36.107 120.728L35.25 121.072L34.393 121.415L33.536 121.759L32.2984 122.234L31.9073 122.321L31.5213 122.361L30.5718 122.376L29.6222 122.391L28.6726 122.407L27.7231 122.422L26.7735 122.437L25.8239 122.453L24.7 122.472L24.5228 122.466L24.3444 122.45L23.42 122.345L22.4957 122.24L21.5713 122.135L20.647 122.03L19.2089 121.824L18.667 121.618L18.1493 121.304L17.4765 120.807L16.8038 120.31L16.131 119.813L15.4582 119.316L14.7854 118.82L13.7198 117.98L13.3854 117.578L13.1298 117.149L12.7443 116.376L12.3589 115.603L11.9734 114.83L11.395 113.578L11.2803 113.078L11.2446 112.596L11.2293 111.689L11.2141 110.783L11.1988 109.877L11.1837 108.934L11.1843 108.897L11.1854 108.859L11.1826 107.978L11.1799 107.097L11.1772 106.216L11.2272 104.838L11.3513 104.352L11.5353 103.906L11.8564 103.055L12.1775 102.203L12.4986 101.351L12.8196 100.499L13.7629 98.7414L14.6644 98.0116L15.6216 97.6072L16.5213 97.3251L17.421 97.0431L18.745 96.6692L19.1794 96.6233L19.6089 96.6243L20.5578 96.6656L21.5067 96.7069L22.4555 96.7482L23.7867 96.8289L24.1593 96.903L24.5134 97.0081L25.4378 97.3278L26.3622 97.6475L27.2866 97.9673L28.2111 98.287L29.4819 98.7448L29.8413 98.9294L30.2019 99.1641L30.9151 99.6787L31.6284 100.193L32.3416 100.708L33.0549 101.223L33.7681 101.737L34.4814 102.252L35.6093 103.113L35.9545 103.485L36.2278 103.86L36.7799 104.675L37.332 105.49L37.8842 106.305L38.4363 107.119L38.9884 107.934L39.5405 108.749L40.0927 109.564L40.6448 110.379L41.1969 111.194L41.749 112.008L42.3011 112.823L43.0015 113.885L43.1345 114.145L43.2502 114.413L43.606 115.32L43.9619 116.226L44.3177 117.133L44.6735 118.04L45.0293 118.946L45.3852 119.853L45.741 120.759L46.2128 122.001L46.3063 122.369L46.3702 122.764L46.4717 123.648L46.5733 124.532L46.6749 125.416L46.7764 126.3L46.878 127.184L46.9795 128.067L47.0989 129.144L47.108 129.329L47.1094 129.507L47.0969 130.456L47.0845 131.405L47.0721 132.354L47.0597 133.304L47.0473 134.253L47.0349 135.202L47.0225 136.151L47.01 137.101L46.9976 138.05L46.9754 139.241L46.953 139.476L46.9193 139.702L46.745 140.681L46.5707 141.66L46.3964 142.639L46.2221 143.618L46.0477 144.597L45.8734 145.576L45.6991 146.555L45.5248 147.534L45.3504 148.513L45.1761 149.492L45.0018 150.471L44.8275 151.45L44.6532 152.429L44.4789 153.408L44.3045 154.388L44.1302 155.367L43.9559 156.346L43.7816 157.325L43.6073 158.304L43.4329 159.283L43.2586 160.262L43.0275 161.512L42.9529 161.781L42.8613 162.045L42.4968 162.966L42.1324 163.887L41.7679 164.808L41.4034 165.729L41.0389 166.65L40.6744 167.571L40.3099 168.492L39.9454 169.413L39.5809 170.334L39.2164 171.255L38.8519 172.176L38.3644 173.384L38.2131 173.675L38.0332 173.962L37.4852 174.718L36.9372 175.474L36.3891 176.229L35.8411 176.985L35.2931 177.741L34.7451 178.496L34.197 179.252L33.649 180.008L32.9325 180.992L32.7447 181.212L32.5397 181.419L31.8515 182.023L31.1634 182.627L30.4753 183.231L29.7871 183.834L29.099 184.438L28.4108 185.042L27.7227 185.646L26.8388 186.422L26.6263 186.583L26.3994 186.73L25.6211 187.16L24.8427 187.589L24.0644 188.018L23.2861 188.448L22.5077 188.877L21.7294 189.306L20.5768 189.93L20.183 190.079L19.7868 190.176L18.883 190.297L17.9792 190.418L17.0754 190.539L16.1716 190.66L15.2678 190.781L14.364 190.902L13.4601 191.023L12.5563 191.143L11.268 191.311L10.8809 191.309L10.5087 191.262L9.60144 191.042L8.69412 190.823L7.7868 190.603L6.8795 190.384L5.97218 190.164L5.06488 189.945L4.15756 189.726L3.25024 189.506L2.34294 189.287L1.43562 189.067L0.52832 188.848L1.01392 188.332V187.694V187.359V185.759Z" fill="black" style="fill:black;fill-opacity:1;"/>
</svg>
