<svg width="200" height="123" viewBox="0 0 200 123" fill="none" xmlns="http://www.w3.org/2000/svg">
<path d="M1.49744 112.988V112.65V111.884V111.288L0 111.35L0.727386 110.688L1.4548 110.025L2.18219 109.363L2.90961 108.701L3.63699 108.039L4.36441 107.377L5.0918 106.715L5.81921 106.052L6.5466 105.39L7.27402 104.728L7.27533 104.727L7.27686 104.726L7.84601 104.144L8.41345 103.563L8.9809 102.983L8.94626 103.01L8.91397 103.037L9.4899 102.415L10.0959 101.768L10.702 101.122L10.6972 101.126L10.692 101.13L11.2156 100.555L11.7448 99.9752L12.2741 99.3954L12.8033 98.8155L12.8253 98.7969L12.8448 98.7805L13.5273 98.1218L14.1922 97.4778L14.857 96.8338L15.5219 96.1898L15.5152 96.1952L15.5085 96.2008L16.1664 95.5917L16.8309 94.977L17.4955 94.3623L18.1601 93.7475L18.8247 93.1328L19.4893 92.5181L20.1539 91.9034L20.3193 91.7715L20.4846 91.6512L21.4459 91.0176L22.2432 90.493L23.0404 89.9684L23.8377 89.4438L24.635 88.9192L24.7575 88.8439L24.8909 88.7675L25.8032 88.2935L26.5704 87.8963L27.3376 87.4991L28.1048 87.1019L28.8719 86.7048L29.6391 86.3076L29.8241 86.2185L29.9965 86.1439L31.0814 85.7389L32.006 85.3964L32.9306 85.0538L33.8552 84.7113L34.7798 84.3687L34.9868 84.2976L35.2047 84.2337L36.3477 83.9828L37.2623 83.7873L38.1769 83.5917L39.0915 83.3962L40.0061 83.2006L40.9207 83.0051L41.8354 82.8095L42.1247 82.756L42.4213 82.7197L43.6411 82.683L44.5602 82.6642L45.4794 82.6455L46.3985 82.6267L46.4884 82.625L46.5869 82.625L47.4947 82.6583L48.2943 82.6893L49.094 82.7202L49.8936 82.7511L50.4381 82.8003L50.9822 82.9135L52.2471 83.3744L52.9898 83.662L53.7326 83.9495L54.4754 84.2371L54.6679 84.3184L54.8433 84.4013L55.7902 84.9024L56.5777 85.3203L57.3652 85.7383L58.1527 86.1563L58.9402 86.5743L59.0691 86.6471L59.2103 86.733L59.9908 87.2558L60.6167 87.6769L61.2426 88.098L61.8686 88.5191L61.9829 88.5999L62.0904 88.6806L62.8212 89.2581L63.451 89.7555L64.0808 90.2528L64.7106 90.7502L64.8345 90.8546L64.956 90.964L65.6483 91.6263L66.2222 92.1745L66.796 92.7227L67.3698 93.2709L67.4007 93.302L67.4319 93.3338L68.0151 93.9102L68.567 94.4539L69.1188 94.9976L69.6707 95.5413L69.698 95.5702L69.7247 95.5988L70.3031 96.1957L70.8555 96.7642L70.8379 96.7449L70.8219 96.7276L71.4574 97.3712L72.1074 98.0303L72.7574 98.6894L73.4074 99.3485L74.0574 100.008L74.7074 100.667L74.675 100.632L74.6417 100.598L75.2593 101.182L75.9112 101.801L76.563 102.42L76.5643 102.422L76.5656 102.423L77.2208 103.043L77.8748 103.661L78.5288 104.28L78.4179 104.17L78.3103 104.07L78.9648 104.597L79.7234 105.217L80.4821 105.836L81.2408 106.456L81.1071 106.344L80.9585 106.227L81.508 106.599L82.223 107.09L82.938 107.582L82.8197 107.501L82.6903 107.418L83.2214 107.723L83.8943 108.113L84.5672 108.503L84.3546 108.385L84.1436 108.28L84.688 108.498L85.4408 108.811L86.1936 109.123L85.9814 109.038L85.7593 108.959L86.2803 109.098L87.0328 109.307L87.7852 109.517L87.6012 109.468L87.4189 109.426L88.0304 109.526L88.822 109.66L89.6136 109.795L89.2959 109.748L89.0161 109.721L89.7473 109.723L90.7251 109.739L91.703 109.754L92.6809 109.769L92.6317 109.768L92.5785 109.767L93.3894 109.765L94.2578 109.763L95.1263 109.76L94.6515 109.78L94.1726 109.84L94.5287 109.719L95.3574 109.498L96.1861 109.277L95.6459 109.444L95.167 109.644L95.5983 109.362L96.4466 108.863L97.2949 108.364L98.1431 107.865L98.9914 107.366L98.726 107.528L98.4579 107.713L98.8961 107.329L99.6022 106.736L100.308 106.143L101.014 105.55L100.917 105.633L100.824 105.714L101.446 105.125L102.155 104.456L102.863 103.787L103.572 103.118L103.525 103.162L103.472 103.214L103.978 102.693L104.544 102.114L105.109 101.535L105.674 100.956L106.239 100.377L106.202 100.414L106.17 100.448L106.793 99.786L107.445 99.0927L108.097 98.3993L108.75 97.706L108.853 97.5986L108.969 97.4847L109.721 96.804L110.342 96.2439L110.964 95.6837L111.586 95.1236L111.722 95.0049L111.856 94.8948L112.699 94.2592L113.41 93.7256L114.121 93.1921L114.831 92.6585L115.542 92.1249L115.645 92.0493L115.753 91.9737L116.578 91.4369L117.289 90.9755L118.001 90.5141L118.121 90.438L118.247 90.3627L119.091 89.8989L119.803 89.5091L120.516 89.1194L120.684 89.0309L120.847 88.9515L121.804 88.5345L122.604 88.1885L123.404 87.8426L124.205 87.4966L124.354 87.4341L124.516 87.3719L125.442 87.0642L126.192 86.8174L126.943 86.5706L126.993 86.5541L127.046 86.5374L127.813 86.308L128.524 86.0954L129.235 85.8828L129.264 85.8743L129.292 85.8661L130.07 85.6449L130.821 85.4313L131.573 85.2178L131.491 85.2416L131.41 85.2665L132.08 85.0426L132.83 84.7929L133.58 84.5433L133.848 84.4613L134.118 84.3927L135.177 84.1869L135.965 84.0359L136.754 83.885L136.946 83.8537L137.122 83.8308L138.202 83.7322L139.121 83.6498L140.04 83.5675L140.958 83.4851L141.127 83.4729L141.298 83.4654L142.378 83.4618L143.285 83.4608L144.193 83.4598L144.269 83.4603L144.345 83.4618L145.33 83.4973L146.239 83.5305L147.148 83.5636L147.83 83.6299L148.477 83.7685L149.981 84.3136L150.893 84.6624L151.804 85.0112L152.076 85.1255L152.361 85.2629L153.423 85.8609L154.19 86.2954L154.956 86.7299L155.722 87.1645L156.489 87.599L156.728 87.7482L156.976 87.9195L157.862 88.6081L158.496 89.1013L159.129 89.5946L159.762 90.0878L159.835 90.1485L159.91 90.2127L160.566 90.7705L161.145 91.2603L161.724 91.7502L162.302 92.24L162.402 92.3313L162.485 92.411L163.25 93.1332L163.944 93.7853L164.639 94.4375L164.684 94.4839L164.732 94.5336L165.395 95.2082L166.008 95.8295L166.622 96.4509L166.647 96.4788L166.672 96.5056L167.344 97.2003L167.994 97.8692L168.643 98.5381L169.292 99.2071L169.309 99.2251L169.325 99.2437L169.947 99.9271L170.553 100.592L171.158 101.256L171.073 101.161L170.986 101.067L171.535 101.611L172.173 102.246L172.81 102.881L172.807 102.877L172.804 102.874L173.439 103.505L174.078 104.138L174.716 104.772L174.515 104.577L174.3 104.386L174.767 104.727L175.461 105.253L176.155 105.778L176.849 106.303L177.542 106.829L177.375 106.703L177.194 106.576L177.69 106.857L178.382 107.266L179.074 107.674L179.766 108.083L179.448 107.896L179.11 107.721L179.469 107.843L180.186 108.125L180.903 108.407L181.619 108.688L181.159 108.518L180.731 108.393L181.219 108.453L182.1 108.602L182.981 108.751L183.862 108.9L184.743 109.049L184.328 108.981L183.887 108.937L184.253 108.894L185.082 108.866L185.911 108.839L186.663 108.829L187.414 108.818L188.165 108.808L189.054 108.796L189.943 108.784L189.046 108.841L188.065 109.039L187.759 109.066L188.462 108.727L187.687 109.136L186.991 109.62L186.986 109.559L187.578 108.97L187.058 109.545L186.573 110.223L186.701 110.401L187.249 109.813L187.796 109.225L188.344 108.637L188.188 108.999L188.047 109.398L189.226 109.423L190.524 109.015L191.822 108.607L196.837 109.786L197.817 110.73L198.798 111.673L199.659 113.05L199.518 113.449L199.362 113.812L199.259 114.609L199.156 115.405L199.053 116.202L198.531 117.765L198.046 118.442L197.526 119.017L196.931 119.604L195.738 120.719L195.042 121.203L194.267 121.612L193.548 121.914L191.82 122.581L190.84 122.779L189.943 122.837L189.054 122.824L188.165 122.812L187.414 122.802L186.663 122.792L185.911 122.782L185.082 122.754L184.253 122.727L182.959 122.684L182.518 122.64L182.103 122.572L181.231 122.378L180.359 122.185L179.487 121.992L178.615 121.799L177.35 121.517L176.922 121.391L176.462 121.221L175.754 120.917L175.047 120.612L174.34 120.308L173.276 119.845L172.937 119.67L172.619 119.483L171.95 119.038L171.281 118.593L170.611 118.148L169.747 117.576L169.565 117.449L169.398 117.323L168.717 116.781L168.035 116.239L167.354 115.697L166.673 115.156L165.765 114.429L165.55 114.239L165.349 114.044L164.722 113.399L164.095 112.754L163.465 112.105L163.462 112.102L163.458 112.099L162.833 111.453L162.207 110.806L161.493 110.068L161.406 109.975L161.321 109.88L160.742 109.193L160.162 108.506L159.599 107.838L159.616 107.856L159.632 107.874L159.037 107.156L158.442 106.439L157.848 105.721L157.276 105.029L157.301 105.056L157.326 105.084L156.752 104.426L156.178 103.769L155.653 103.165L155.701 103.215L155.747 103.261L155.1 102.562L154.453 101.862L153.877 101.233L153.96 101.312L154.06 101.404L153.512 100.88L152.963 100.356L152.415 99.8322L151.944 99.3764L152.019 99.4406L152.092 99.5013L151.481 98.9808L150.87 98.4604L150.259 97.9399L149.902 97.6149L150.149 97.7862L150.389 97.9354L149.638 97.4746L148.887 97.0138L148.136 96.553L147.386 96.0922L146.931 95.7949L147.216 95.9324L147.488 96.0466L146.582 95.6845L145.675 95.3224L145.361 95.1565L146.008 95.2952L146.691 95.3614L145.782 95.3242L144.874 95.287L144.041 95.2523L144.117 95.2538L144.193 95.2543L143.285 95.2533L142.378 95.2522L141.643 95.2487L141.813 95.2412L141.982 95.229L141.063 95.3068L140.143 95.3846L139.224 95.4624L138.466 95.5239L138.642 95.501L138.834 95.4697L138.042 95.6026L137.25 95.7356L136.728 95.8135L136.998 95.745L137.267 95.663L136.517 95.9107L135.766 96.1584L134.936 96.432L134.855 96.4568L134.774 96.4807L134.023 96.6942L133.271 96.9078L132.547 97.1136L132.575 97.1054L132.603 97.0969L131.893 97.3114L131.182 97.5259L130.527 97.7235L130.58 97.7068L130.63 97.6903L129.881 97.941L129.131 98.1916L128.557 98.3812L128.719 98.3191L128.868 98.2566L128.069 98.6039L127.269 98.9513L126.47 99.2987L125.828 99.5751L125.991 99.4957L126.158 99.4072L125.447 99.7987L124.735 100.19L124.154 100.508L124.28 100.432L124.4 100.356L123.69 100.819L122.979 101.282L122.382 101.67L122.49 101.594L122.593 101.519L121.882 102.052L121.171 102.586L120.46 103.12L119.749 103.653L119.17 104.085L119.304 103.975L119.441 103.856L118.818 104.415L118.195 104.974L117.573 105.533L117.08 105.972L117.196 105.858L117.3 105.75L116.648 106.444L115.995 107.137L115.343 107.83L114.661 108.555L114.628 108.589L114.591 108.627L114.019 109.199L113.447 109.771L112.875 110.344L112.302 110.916L111.671 111.547L111.618 111.599L111.571 111.643L110.858 112.308L110.145 112.973L109.432 113.638L108.632 114.383L108.539 114.464L108.441 114.547L107.726 115.128L107.01 115.709L106.294 116.29L105.31 117.079L105.042 117.264L104.777 117.426L103.919 117.908L103.061 118.391L102.203 118.873L101.345 119.355L100.07 120.055L99.5912 120.254L99.051 120.422L98.2182 120.628L97.3855 120.833L96.08 121.139L95.6012 121.2L95.1263 121.219L94.2578 121.217L93.3894 121.215L92.4632 121.213L92.41 121.212L92.3608 121.211L91.3836 121.171L90.4065 121.132L89.4293 121.092L88.2054 121.04L87.9255 121.013L87.6078 120.966L86.8187 120.817L86.0296 120.668L85.0604 120.483L84.8781 120.441L84.6941 120.392L83.9439 120.175L83.1937 119.957L82.2121 119.669L81.99 119.59L81.7778 119.505L81.0306 119.179L80.2834 118.854L79.3279 118.435L79.1168 118.329L78.9042 118.211L78.2334 117.817L77.5625 117.424L76.7499 116.944L76.6205 116.861L76.5021 116.781L75.7953 116.278L75.0884 115.774L74.2161 115.151L74.0674 115.034L73.9338 114.923L73.2101 114.263L72.4863 113.603L71.7625 112.943L70.9346 112.191L70.827 112.091L70.7161 111.981L70.1071 111.318L69.498 110.656L68.8902 109.994L68.8915 109.996L68.8928 109.997L68.2816 109.337L67.6705 108.678L67.025 107.984L66.9917 107.949L66.9594 107.915L66.345 107.222L65.7307 106.53L65.1164 105.837L64.502 105.145L63.8877 104.452L63.2589 103.744L63.243 103.727L63.2253 103.708L62.7113 103.104L62.2233 102.529L62.25 102.558L62.2773 102.587L61.7608 102.009L61.2443 101.432L60.7278 100.855L60.2427 100.31L60.2739 100.342L60.3048 100.373L59.7536 99.8019L59.2024 99.231L58.6512 98.6601L58.2186 98.2032L58.34 98.3126L58.464 98.417L57.8496 97.9007L57.2353 97.3844L56.6209 96.8681L56.1076 96.4319L56.2151 96.5126L56.3294 96.5934L55.7112 96.161L55.093 95.7286L54.4748 95.2962L54.0112 94.9655L54.1523 95.0513L54.2813 95.1241L53.5031 94.689L52.725 94.2539L51.9468 93.8187L51.1687 93.3836L50.55 93.0315L50.7254 93.1144L50.9179 93.1957L50.1802 92.8954L49.4425 92.5951L48.7048 92.2948L48.4893 92.1678L49.0334 92.281L49.5778 92.3301L48.7779 92.3083L47.9779 92.2865L47.1779 92.2648L46.4861 92.2453L46.5846 92.2453L46.6745 92.2436L45.7557 92.2776L44.837 92.3116L43.9183 92.3456L43.3001 92.3616L43.5967 92.3253L43.8861 92.2717L42.9726 92.4724L42.0591 92.673L41.1455 92.8737L40.2321 93.0744L39.3185 93.275L38.405 93.4757L37.7198 93.621L37.9378 93.5571L38.1448 93.486L37.2194 93.8263L36.294 94.1665L35.3686 94.5068L34.4431 94.847L33.6781 95.1249L33.8505 95.0503L34.0354 94.9612L33.2622 95.3466L32.4891 95.7319L31.7159 96.1173L30.9427 96.5027L30.1695 96.8881L29.5415 97.1966L29.6748 97.1202L29.7974 97.0449L28.9837 97.5438L28.17 98.0426L27.3564 98.5414L26.5428 99.0403L25.8931 99.4301L26.0583 99.3098L26.2238 99.1779L25.5 99.7217L24.7762 100.265L24.0524 100.809L23.3286 101.353L22.6048 101.897L21.881 102.44L21.1504 102.99L21.1437 102.995L21.1371 103.001L20.3781 103.531L19.6191 104.061L18.8601 104.59L18.1188 105.105L18.1384 105.089L18.1603 105.07L17.506 105.504L16.8516 105.938L16.1973 106.372L15.5373 106.811L15.5321 106.815L15.5273 106.819L14.7896 107.31L14.0518 107.802L13.284 108.318L13.2517 108.345L13.2171 108.372L12.5189 108.786L11.8207 109.201L11.1243 109.613L11.1258 109.612L11.1271 109.611L10.3139 110.165L9.50067 110.718L8.68744 111.271L7.87421 111.825L7.061 112.378L6.24777 112.932L5.43454 113.485L4.62131 114.039L3.80811 114.592L2.99487 115.145L1.49744 115.207V114.612V113.846V112.988Z" fill="black" style="fill:black;fill-opacity:1;"/>
<path d="M65.6799 23.1149L65.0787 23.0094H64.3035H63.3937L67.6304 18.1502V17.7382V17.1915L73.7107 23.0094L73.7336 23.5426L73.7565 24.0758L73.846 25.0003L73.9355 25.9248L74.0251 26.8493L74.0248 26.7911L74.0239 26.7277L74.0897 27.468L74.1573 28.2777L74.2248 29.0873L74.2923 29.897L74.3599 30.7066L74.3598 30.7029L74.3596 30.6995L74.4255 31.6284L74.4914 32.5604L74.5573 33.4924L74.6232 34.4243L74.6891 35.3563L74.755 36.2882L74.8209 37.2202L74.8868 38.1521L74.8837 38.0699L74.8794 37.9829L74.9694 38.7417L75.0652 39.5927L75.1609 40.4436L75.2567 41.2946L75.3525 42.1456L75.4483 42.9966L75.5309 43.8474L75.6135 44.6987L75.6962 45.5499L75.7788 46.4012L75.8615 47.2524L75.9441 48.1036L75.9436 48.0959L75.9431 48.0889L76.0399 49.0627L76.1372 50.0428L76.2344 51.0229L76.3317 52.0031L76.429 52.9832L76.4315 53.0199L76.4341 53.0588L76.4947 53.9987L76.5529 54.8973L76.6111 55.7959L76.6693 56.6944L76.7274 57.593L76.7856 58.4916L76.8438 59.3902L76.8459 59.4289L76.8479 59.4716L76.881 60.2923L76.912 61.0657L76.9431 61.8391L76.9741 62.6125L76.9725 62.5756L76.9707 62.5365L77.0157 63.2057L77.063 63.9162L77.1101 64.6267L77.1165 64.7676L77.1202 64.9043L77.126 65.7829L77.1306 66.529L77.1519 67.3805L77.1364 67.2023L77.0731 66.8351L75.2789 62.9127L72.3898 60.9684L70.6603 60.5882L70.825 60.5993L71.584 60.6722L72.3739 60.7493L73.0464 60.8148L72.964 60.8065L72.897 60.8004L73.7516 60.8533L74.6616 60.9107L75.5715 60.9681L75.3702 60.955L75.1736 60.9474L75.9292 60.9266L76.8765 60.9083L77.8237 60.89L78.771 60.8717L78.6257 60.8731L78.4744 60.8775L79.2052 60.8162L80.0936 60.7471L80.982 60.6779L81.8704 60.6088L82.7587 60.5397L83.6471 60.4706L83.2858 60.5008L82.9363 60.5466L83.5136 60.4197L84.427 60.2332L85.3404 60.0468L86.2537 59.8603L87.1671 59.6739L88.0805 59.4874L88.9939 59.3009L89.0028 59.2991L89.0117 59.2974L89.9579 59.1111L90.8953 58.9265L91.8327 58.7419L92.7702 58.5574L93.7076 58.3728L94.6451 58.1882L95.5825 58.0036L96.52 57.8191L97.4574 57.6345L98.3949 57.4499L99.3323 57.2653L99.3813 57.2559L99.4301 57.2468L100.427 57.071L101.375 56.9041L102.323 56.7371L103.271 56.5701L104.22 56.4031L105.168 56.2361L106.116 56.0692L106.226 56.0505L106.339 56.0332L107.384 55.8955L108.316 55.7738L109.247 55.652L110.179 55.5302L111.11 55.4084L112.042 55.2866L112.973 55.1649L113.087 55.1508L113.205 55.138L114.223 55.0514L115.12 54.9759L116.018 54.9005L116.915 54.825L117.812 54.7495L118.71 54.6741L119.607 54.5986L119.726 54.5895L119.843 54.5823L120.881 54.5421L121.802 54.5072L122.724 54.4722L123.646 54.4373L124.568 54.4024L125.49 54.3675L126.412 54.3326L127.334 54.2977L128.256 54.2628L128.238 54.2635L128.221 54.2642L129.152 54.2256L130.1 54.1863L131.048 54.147L131.995 54.1077L132.943 54.0684L132.917 54.0696L132.891 54.0709L133.813 54.0196L134.761 53.9669L135.709 53.9142L136.658 53.8614L136.6 53.8648L136.542 53.8688L137.39 53.8017L138.299 53.73L139.208 53.6584L139.256 53.6548L139.306 53.6514L140.245 53.597L141.133 53.5458L141.255 53.5395L141.403 53.5345L142.24 53.5323H142.892L143.248 53.5537V53.5323V53.511V53.5018L135.531 61.1969H135.497L135.354 60.7672L135.226 60.0211L135.098 59.2751L135.091 58.4753L135.084 57.6754L135.077 56.8756L135.07 56.0758L135.071 55.1586L135.071 54.2415L135.072 53.3243L135.073 52.4071L135.073 51.4899L135.074 51.3843L135.076 51.2788L135.128 50.2564L135.176 49.3393L135.224 48.4222L135.273 47.5051L135.321 46.5881L135.37 45.671L135.418 44.7539L135.466 43.8368L135.515 42.9197L135.563 42.0026L135.565 41.9636L135.566 41.9257L135.627 40.9296L135.685 39.9702L135.744 39.0108L135.803 38.0514L135.861 37.092L135.92 36.1326L135.979 35.1732L135.984 35.0765L135.991 34.979L136.091 33.9367L136.183 32.9925L136.275 32.0484L136.366 31.1043L136.458 30.1601L136.55 29.216L136.642 28.2719L136.642 28.2657L136.643 28.2594L136.732 27.3393L136.82 26.4256L136.908 25.5119L136.996 24.5982L137.084 23.6845L137.172 22.7708L137.261 21.8571L137.275 21.7115L137.292 21.5697L137.458 20.4902L137.604 19.5486L137.75 18.607L137.896 17.6654L138.043 16.7238L138.189 15.7822L138.204 15.6816L138.221 15.5786L138.422 14.5762L138.604 13.6796L138.785 12.7829L138.967 11.8862L139.148 10.9896L139.33 10.0929L139.511 9.19626L139.521 9.14635L139.532 9.09029L139.728 8.28623L139.912 7.54561L140.095 6.80498L140.021 7.21226L139.958 7.72923L139.961 7.86295L139.993 7.32974L140.002 7.1149L141.049 10.7047L141.301 10.5674L147.513 14.2298H146.921H146.33L146.996 14.1985L147.569 14.121L147.346 14.197L146.635 14.3773L145.923 14.5577L145.682 14.6137L145.473 14.655L144.386 14.8382L143.479 14.9908L142.573 15.1433L141.666 15.2958L140.76 15.4484L139.853 15.6009L139.793 15.61L139.735 15.6184L138.732 15.7712L137.786 15.9162L136.84 16.0612L135.894 16.2062L134.948 16.3513L134.002 16.4963L133.934 16.505L133.863 16.5132L132.875 16.6419L131.959 16.7628L131.044 16.8838L130.128 17.0048L129.213 17.1257L128.297 17.2467L127.381 17.3677L126.466 17.4886L125.534 17.6106L124.602 17.7326L123.67 17.8547L122.738 17.9767L121.806 18.0987L120.874 18.2208L119.942 18.3428L119.009 18.4649L118.077 18.5869L118.107 18.5838L118.137 18.5806L117.23 18.7038L116.292 18.8303L115.355 18.9568L114.417 19.0833L113.48 19.2098L112.542 19.3363L111.605 19.4628L110.667 19.5893L109.73 19.7159L108.792 19.8424L107.855 19.9689L106.917 20.0954L105.98 20.2219L105.042 20.3484L105.149 20.3356L105.256 20.3213L104.445 20.4628L103.525 20.6202L102.605 20.7777L101.686 20.9351L100.766 21.0926L99.8468 21.25L98.9273 21.4074L98.0078 21.5649L97.0882 21.7223L97.1739 21.7086L97.2617 21.6936L96.4706 21.848L95.5896 22.0188L94.7086 22.1896L93.8276 22.3604L92.9466 22.5312L92.0656 22.702L91.1846 22.8728L90.3036 23.0436L89.4225 23.2144L89.494 23.2007L89.5623 23.1869L88.6948 23.3759L87.7618 23.5787L86.8288 23.7815L85.8957 23.9843L84.9627 24.1871L84.0297 24.3899L83.0966 24.5928L82.1636 24.7956L82.2053 24.7865L82.2471 24.7772L81.365 24.9812L80.4408 25.1948L79.5167 25.4084L78.5925 25.6219L77.6684 25.8355L76.7442 26.0491L75.8201 26.2627L74.8959 26.4762L73.9718 26.6898L73.0476 26.9034L73.0466 26.9036L72.1207 27.1152L71.1953 27.3267L70.2699 27.5382L69.3445 27.7497L68.4191 27.9612L68.2722 27.9937L68.1088 28.0265L67.1263 28.1922L66.3263 28.3253L65.5264 28.4583L64.7265 28.5913L64.3947 28.6399L64.0948 28.6721L62.8739 28.7018L61.7729 28.7188L61.761 28.7193L60.7322 28.621L60.4038 28.2789V27.6346L58.3037 14.717L58.6187 14.6132L59.6923 15.607L60.7659 16.6008L61.8394 17.5946L63.2338 22.2367L62.8855 23.6577L62.5372 25.0786L62.1889 26.4995L62.5039 26.3956L60.4038 13.478V12.8337L60.3098 12.4916L61.1794 12.3933L61.1675 12.3938L61.9611 12.3054L62.6347 12.2296L62.3348 12.2617L62.003 12.3103L62.8027 12.1758L63.6024 12.0413L64.4021 11.9067L65.0191 11.8048L64.8557 11.8377L64.7089 11.8701L65.6335 11.6551L66.558 11.44L67.4826 11.2249L68.4072 11.0099L69.3313 10.7949L69.3303 10.7951L70.2546 10.5822L71.1789 10.3692L72.1032 10.1562L73.0275 9.94321L73.9518 9.73022L74.876 9.51723L75.8003 9.30425L76.7246 9.09127L77.6489 8.87828L78.6152 8.65573L78.657 8.64642L78.6987 8.63736L79.6329 8.43977L80.567 8.2422L81.5012 8.04461L82.4353 7.84702L83.3695 7.64944L84.3036 7.45186L85.2378 7.25427L86.2375 7.04292L86.3058 7.02913L86.3773 7.01538L87.2601 6.85458L88.143 6.69378L89.0259 6.53298L89.9088 6.37218L90.7917 6.21138L91.6746 6.05058L92.5574 5.88979L93.4403 5.72898L94.4131 5.5518L94.5009 5.5368L94.5866 5.5231L95.5108 5.39582L96.435 5.26854L97.3592 5.14126L98.2834 5.01398L99.2076 4.8867L100.132 4.75941L101.056 4.63213L101.98 4.50485L103.012 4.36164L103.12 4.3473L103.226 4.33451L104.168 4.24785L105.11 4.16119L106.052 4.07453L106.994 3.98788L107.936 3.90122L108.878 3.81456L109.82 3.72791L110.762 3.64124L111.704 3.55459L112.646 3.46793L113.588 3.38127L114.53 3.29462L115.472 3.20795L116.444 3.11798L116.474 3.11475L116.504 3.11164L117.441 3.04358L118.379 2.97551L119.317 2.90745L120.254 2.83939L121.192 2.77132L122.13 2.70325L123.067 2.63519L124.005 2.56713L124.943 2.49903L125.865 2.43341L126.786 2.36785L127.707 2.3023L128.629 2.23674L129.55 2.17118L130.471 2.10563L131.392 2.04007L132.241 1.98222L132.171 1.99044L132.102 1.99913L133.053 1.89546L134.005 1.79179L134.956 1.68812L135.907 1.58444L136.858 1.48077L137.753 1.3848L137.694 1.3932L137.634 1.40231L138.544 1.271L139.454 1.13969L140.364 1.00838L141.274 0.87706L142.184 0.74575L142.912 0.645126L142.704 0.686409L142.463 0.742409L143.176 0.565994L143.888 0.389587L145.09 0.108833L145.663 0.0312881L146.33 0H146.921H147.513L153.96 3.66243L154.212 3.52506L155.258 7.1149L155.268 7.32974L155.3 7.86295L155.303 9.06306L155.24 9.58004L155.165 9.98732L155.034 10.7389L154.902 11.4904L154.784 12.1786L154.795 12.1225L154.804 12.0726L154.648 12.9739L154.491 13.8753L154.334 14.7766L154.178 15.6779L154.021 16.5793L153.864 17.4806L153.727 18.2762L153.744 18.1731L153.759 18.0726L153.628 19.0164L153.497 19.9603L153.366 20.9041L153.235 21.8479L153.104 22.7917L152.992 23.5976L153.009 23.4558L153.023 23.3102L152.943 24.2246L152.863 25.139L152.782 26.0535L152.702 26.9679L152.622 27.8823L152.541 28.7967L152.462 29.7047L152.462 29.6985L152.463 29.6923L152.385 30.6377L152.307 31.5831L152.229 32.5284L152.151 33.4738L152.073 34.4192L151.995 35.3646L151.926 36.2117L151.933 36.1142L151.938 36.0176L151.896 36.9778L151.853 37.938L151.81 38.8983L151.767 39.8585L151.724 40.8187L151.681 41.779L151.64 42.7025L151.641 42.6646L151.643 42.6256L151.62 43.5437L151.598 44.4617L151.575 45.3798L151.552 46.2979L151.529 47.216L151.507 48.134L151.484 49.0521L151.461 49.9702L151.438 50.8883L151.419 51.701L151.421 51.5955L151.422 51.4899L151.422 52.4071L151.423 53.3243L151.424 54.2415L151.424 55.1586L151.425 56.0758L151.418 56.8756L151.411 57.6754L151.404 58.4753L151.397 59.2751L151.269 60.0211L151.141 60.7672L150.998 61.1969H150.964L143.248 68.8921V68.8829V68.8615V68.8402L142.892 68.8615H142.24L141.772 68.8593L141.92 68.8543L142.041 68.8481L141.153 68.9023L140.314 68.9534L140.364 68.95L140.412 68.9464L139.504 69.018L138.595 69.0896L137.625 69.1657L137.567 69.1697L137.509 69.1731L136.561 69.2258L135.613 69.2785L134.665 69.3313L133.69 69.3854L133.664 69.3867L133.638 69.388L132.69 69.4346L131.743 69.4812L130.795 69.5278L129.848 69.5745L128.883 69.6219L128.866 69.6226L128.849 69.6233L127.927 69.6595L127.005 69.6958L126.083 69.7321L125.161 69.7683L124.24 69.8046L123.318 69.8409L122.396 69.8772L121.474 69.9134L120.667 69.9444L120.785 69.9372L120.904 69.928L120.006 70.0044L119.109 70.0807L118.212 70.157L117.315 70.2334L116.417 70.3097L115.52 70.386L114.744 70.4511L114.861 70.4384L114.975 70.4243L114.044 70.547L113.113 70.6696L112.181 70.7922L111.25 70.9149L110.319 71.0375L109.387 71.1602L108.571 71.2669L108.683 71.2496L108.793 71.231L107.845 71.3988L106.897 71.5666L105.949 71.7345L105.001 71.9023L104.053 72.0702L103.105 72.238L102.206 72.3971L102.254 72.388L102.303 72.3785L101.366 72.5625L100.428 72.7466L99.4908 72.9306L98.5532 73.1146L97.6157 73.2987L96.6781 73.4827L95.7405 73.6667L94.803 73.8508L93.8654 74.0348L92.9279 74.2188L91.9991 74.4012L92.0079 74.3994L92.0169 74.3976L91.1021 74.5772L90.1874 74.7568L89.2726 74.9364L88.3579 75.1161L87.4431 75.2957L86.5284 75.4753L85.2776 75.7145L84.9281 75.7602L84.5667 75.7905L83.6765 75.8281L82.7862 75.8658L81.896 75.9034L81.0057 75.9411L80.1154 75.9787L79.0676 76.0242L78.9163 76.0286L78.771 76.03L77.8237 76.0117L76.8765 75.9934L75.9292 75.9751L74.7903 75.9543L74.5936 75.9467L74.3923 75.9335L73.4846 75.8477L72.5768 75.7619L71.6137 75.6715L71.5468 75.6655L71.4644 75.6571L70.7931 75.5795L70.2393 75.5134L69.6545 75.443L69.8192 75.4541L67.3787 75.0739L64.2553 73.1296L62.2189 69.2072L62.1555 68.4181L62.1401 67.3805L62.1614 66.529L62.166 65.7829L62.1718 65.1693L62.1754 65.306L62.1819 65.4469L62.1509 64.7355L62.12 64.0241L62.0869 63.2714L62.0851 63.2324L62.0835 63.1954L62.054 62.4219L62.0245 61.6485L61.995 60.875L61.9675 60.1489L61.9695 60.1916L61.9716 60.2303L61.9283 59.3308L61.8849 58.4314L61.8415 57.532L61.7981 56.6326L61.7547 55.7332L61.7114 54.8338L61.6704 53.9757L61.6729 54.0146L61.6755 54.0513L61.6306 53.0674L61.5857 52.0834L61.5407 51.0995L61.4958 50.1156L61.4505 49.1253L61.45 49.1182L61.4494 49.1105L61.4136 48.256L61.3777 47.4016L61.3419 46.5471L61.3061 45.6926L61.2702 44.8381L61.2344 43.9835L61.2116 43.1272L61.1889 42.2711L61.1662 41.4151L61.1435 40.559L61.1208 39.703L61.0923 38.7547L61.088 38.6677L61.0849 38.5855L61.0922 37.6512L61.0995 36.717L61.1068 35.7827L61.1141 34.8485L61.1215 33.9142L61.1288 32.9799L61.136 32.0457L61.1433 31.1084L61.1432 31.105L61.1431 31.1013L61.1622 30.2891L61.1812 29.4769L61.2003 28.6646L61.2195 27.8524L61.2368 26.9709L61.236 26.9075L61.2357 26.8493L61.3252 25.9248L61.4147 25.0003L61.5042 24.0758L61.5271 23.5426L61.55 23.0094L67.6304 28.8273V28.2807V27.8687L71.867 23.0094H70.9572H70.1821L65.6799 23.1149Z" fill="black" style="fill:black;fill-opacity:1;"/>
</svg>
