<svg width="161" height="146" viewBox="0 0 161 146" fill="none" xmlns="http://www.w3.org/2000/svg">
<path d="M160.057 1.61292L160.06 2.1103L160.363 2.40279L160.511 2.54478L159.942 3.15027L159.373 3.75579L158.804 4.36129L158.229 4.95715L157.901 5.29724L157.731 5.46445L157.649 5.54877L157.652 5.55089L157.68 5.57844L157.687 5.5848L157.237 6.13873L156.9 6.72043L156.564 7.30214L156.731 7.10019L156.845 6.91862L156.712 7.64006L156.504 8.51746L156.297 9.39487L156.329 9.31351L156.36 9.22549L156.201 9.91766L156.012 10.7049L155.824 11.4922L155.636 12.2794L155.448 13.0667L155.466 12.9977L155.481 12.9317L155.337 13.7284L155.18 14.5881L155.023 15.4479L154.866 16.3076L154.709 17.1674L154.552 18.0272L154.567 17.9371L154.578 17.8506L154.515 18.703L154.444 19.6381L154.373 20.5733L154.302 21.5084L154.232 22.4436L154.161 23.3787L154.09 24.3139L154.019 25.249L153.948 26.1841L153.877 27.1193L153.878 27.104L153.88 27.0889L153.826 28.0321L153.771 28.9902L153.716 29.9483L153.662 30.9064L153.607 31.8645L153.552 32.8226L153.497 33.7807L153.494 33.8311L153.489 33.8841L153.373 34.8215L153.264 35.7033L153.155 36.585L153.045 37.4668L152.936 38.3485L152.826 39.2302L152.717 40.112L152.705 40.1977L152.689 40.2841L152.469 41.2199L152.269 42.0689L152.068 42.918L151.867 43.767L151.666 44.616L151.465 45.4651L151.423 45.6189L151.368 45.7791L150.955 46.6672L150.612 47.391L150.27 48.1148L149.928 48.8386L149.585 49.5623L149.441 49.8233L149.289 50.038L148.458 50.9056L147.778 51.6007L147.099 52.2957L146.42 52.9908L145.74 53.6858L145.199 54.1056L144.485 54.3722L142.831 54.335L141.88 54.2624L140.929 54.1899L139.978 54.1174L139.748 54.0841L139.5 54.0228L138.465 53.6135L137.69 53.2991L136.915 52.9846L136.14 52.6702L135.365 52.3558L134.59 52.0413L134.468 51.9854L134.362 51.9299L133.424 51.3708L132.579 50.8656L131.734 50.3603L130.889 49.8551L130.044 49.3498L129.199 48.8446L129.263 48.8818L129.33 48.9188L128.57 48.5516L127.739 48.1481L126.908 47.7446L126.077 47.341L125.245 46.9375L124.414 46.534L123.583 46.1304L122.752 45.7269L123.106 45.8706L123.506 45.9673L123.077 46.0023L122.224 46.0037L121.372 46.0051L120.519 46.0065L120.982 45.9655L121.455 45.8358L121.19 46.0655L120.489 46.5062L119.788 46.9468L119.087 47.3875L119.306 47.2406L119.49 47.091L118.968 47.6523L118.294 48.3599L117.619 49.0675L116.945 49.7751L117.069 49.6378L117.188 49.4856L116.813 50.1016L116.327 50.8835L115.84 51.6654L115.353 52.4474L114.866 53.2293L114.877 53.2123L114.887 53.1953L114.424 53.9774L113.951 54.7765L113.478 55.5756L113.005 56.3747L112.532 57.1738L112.059 57.9728L111.585 58.7719L111.112 59.571L111.004 59.7386L110.888 59.894L110.107 60.7507L109.448 61.4655L108.789 62.1802L108.13 62.895L107.471 63.6098L107.387 63.6972L107.297 63.7821L106.478 64.4836L105.753 65.1034L105.028 65.7232L104.304 66.3431L103.579 66.9629L103.31 67.1604L102.996 67.3363L101.832 67.7926L101.017 68.1088L100.202 68.4249L99.3877 68.7411L98.5731 69.0572L97.7584 69.3734L97.5581 69.4315L97.3646 69.4742L96.2482 69.679L95.3167 69.8547L94.3852 70.0305L93.4537 70.2062L92.5222 70.382L91.5907 70.5577L90.6592 70.7335L89.7277 70.9092L88.7962 71.085L88.8078 71.0835L88.8201 71.0819L87.9844 71.2316L87.1356 71.3831L86.2868 71.5346L85.438 71.6861L84.5892 71.8376L83.7404 71.9891L82.8916 72.1406L83.1606 72.0941L83.4052 72.0346L82.7114 72.3093L81.7969 72.6523L80.8824 72.9953L79.968 73.3383L79.0535 73.6814L78.139 74.0244L78.5271 73.8687L78.8997 73.6723L78.4738 74.0489L77.7023 74.6559L76.9308 75.2629L76.1594 75.8699L75.3879 76.4768L74.6164 77.0838L74.8909 76.8614L75.1508 76.6117L74.812 77.11L74.2343 77.8809L73.6566 78.6518L73.0789 79.4227L72.5012 80.1936L71.9235 80.9645L71.3458 81.7354L70.7681 82.5062L70.1904 83.2771L69.6127 84.048L69.035 84.8189L69.2382 84.5458L69.4224 84.2553L69.1945 84.8257L68.805 85.6993L68.4156 86.5729L68.026 87.4465L67.6365 88.3201L67.247 89.1936L66.8575 90.0672L66.468 90.9409L66.0785 91.8145L66.0594 91.8533L66.0392 91.8935L65.6167 92.7436L65.2156 93.552L64.8145 94.3604L64.4135 95.1688L64.0124 95.9772L63.6113 96.7857L63.2102 97.5941L62.8092 98.4025L62.4081 99.2109L62.007 100.019L61.9387 100.146L61.8708 100.264L61.3061 101.221L60.8083 102.068L60.3105 102.916L59.8128 103.763L59.315 104.61L58.8173 105.457L58.3195 106.305L57.8217 107.152L57.324 107.999L57.2003 108.187L57.0698 108.368L56.3565 109.357L55.7797 110.171L55.2028 110.986L54.6259 111.801L54.0491 112.616L53.4722 113.431L52.8953 114.246L52.3184 115.061L52.2295 115.167L52.1377 115.271L51.41 116.138L50.7768 116.904L50.1435 117.669L49.5103 118.435L48.8771 119.2L48.2438 119.965L47.6106 120.731L46.9773 121.496L46.3441 122.261L45.7108 123.027L45.0776 123.792L44.9678 123.905L44.852 124.019L44.071 124.821L43.412 125.508L42.7529 126.195L42.0939 126.882L41.4349 127.57L40.7759 128.257L40.1169 128.944L39.8726 129.157L39.6054 129.368L38.6106 130.11L37.9068 130.645L37.2029 131.179L36.4991 131.714L35.7952 132.248L35.0914 132.783L34.3875 133.318L34.283 133.387L34.1846 133.45L33.2657 134.036L32.4393 134.564L31.613 135.093L30.7867 135.621L29.9604 136.15L29.1341 136.678L29.132 136.679L29.13 136.681L28.2788 137.202L27.4296 137.721L26.5803 138.241L25.731 138.761L24.8818 139.281L24.0325 139.8L23.1833 140.32L22.334 140.84L22.3081 140.856L22.2815 140.872L21.4281 141.375L20.6021 141.862L19.7762 142.349L18.9502 142.836L18.1243 143.323L18.0786 143.35L18.0304 143.378L17.1678 143.78L16.356 144.154L15.5442 144.527L14.7324 144.901L13.9206 145.275L13.6333 145.427L13.329 145.572L12.0827 145.666L11.1568 145.627L10.2308 145.589L9.30487 145.55L8.37896 145.511L7.45302 145.472L7.20764 145.56L6.97332 145.631L5.75909 145.54L4.76699 145.393L3.77495 145.246L2.78292 145.099L1.79088 144.953L0.397646 138.809L1.22932 138.248L2.06096 137.688L2.8926 137.128L3.72427 136.567L4.33371 136.062L4.0994 136.133L3.85401 136.222L4.51026 135.567L5.16649 134.913L5.8227 134.258L6.47893 133.604L7.13518 132.949L7.47105 132.429L7.16677 132.573L6.87945 132.726L7.62133 132.228L8.36323 131.729L9.10513 131.231L9.847 130.733L10.5381 130.264L10.4899 130.291L10.4442 130.318L11.2696 129.83L12.0949 129.342L12.9202 128.854L13.7456 128.366L14.5435 127.894L14.5169 127.91L14.491 127.926L15.3438 127.412L16.1966 126.898L17.0494 126.384L17.9023 125.87L18.7551 125.356L19.6079 124.842L20.4607 124.328L21.3115 123.815L21.3095 123.817L21.3075 123.818L22.1565 123.327L23.0056 122.836L23.8547 122.345L24.7038 121.853L25.5528 121.362L26.3092 120.928L26.2108 120.991L26.1063 121.061L26.8649 120.607L27.6235 120.154L28.3821 119.7L29.1406 119.247L29.8992 118.793L30.6578 118.34L31.1255 118.093L30.8583 118.305L30.614 118.517L31.3594 117.925L32.1047 117.332L32.8501 116.74L33.5955 116.147L34.3408 115.554L35.0862 114.962L35.7096 114.483L35.5938 114.597L35.4839 114.71L36.2135 114.036L36.943 113.362L37.6726 112.688L38.4022 112.013L39.1317 111.339L39.8613 110.665L40.5908 109.991L41.3204 109.317L42.0499 108.642L42.7795 107.968L43.4146 107.396L43.3228 107.5L43.2339 107.606L43.9205 106.881L44.6072 106.156L45.2938 105.432L45.9805 104.707L46.6671 103.982L47.3538 103.257L48.0404 102.532L48.5906 101.981L48.4601 102.162L48.3365 102.35L48.8842 101.534L49.4319 100.718L49.9796 99.9021L50.5273 99.0862L51.075 98.2703L51.6227 97.4544L52.1704 96.6385L52.7181 95.8226L53.1988 95.1164L53.131 95.2343L53.0627 95.3611L53.4951 94.569L53.9276 93.7769L54.3601 92.9849L54.7926 92.1928L55.225 91.4007L55.6575 90.6086L56.09 89.8166L56.5225 89.0245L56.9549 88.2324L57.366 87.482L57.3458 87.5222L57.3267 87.561L57.7729 86.715L58.2191 85.869L58.6653 85.023L59.1116 84.1769L59.5578 83.3309L60.004 82.4849L60.4503 81.6389L60.8965 80.7928L61.5044 79.6436L61.6886 79.3531L61.8918 79.08L62.5201 78.3497L63.1484 77.6195L63.7767 76.8893L64.405 76.1591L65.0333 75.4288L65.6616 74.6986L66.2899 73.9684L66.9182 73.2382L67.5465 72.5079L68.1748 71.7777L69.042 70.775L69.3019 70.5252L69.5764 70.3028L70.38 69.7391L71.1836 69.1754L71.9873 68.6117L72.7909 68.048L73.5945 67.4842L74.7437 66.6901L75.1163 66.4938L75.5043 66.338L76.4369 66.0479L77.3695 65.7578L78.3021 65.4677L79.2347 65.1776L80.1673 64.8875L81.3205 64.529L81.5651 64.4695L81.8341 64.423L82.6924 64.3406L83.5507 64.2582L84.409 64.1758L85.2672 64.0934L86.1255 64.011L86.9838 63.9286L87.8552 63.8445L87.8675 63.8428L87.879 63.8413L88.825 63.7794L89.7709 63.7174L90.7168 63.6555L91.6627 63.5935L92.6086 63.5315L93.5545 63.4696L94.5004 63.4076L95.4463 63.3457L96.2073 63.3128L96.0138 63.3555L95.8135 63.4136L96.6578 63.1883L97.5021 62.9631L98.3465 62.7378L99.1908 62.5125L100.035 62.2873L100.53 62.2022L100.216 62.3781L99.947 62.5756L100.691 61.9793L101.436 61.383L102.18 60.7867L102.924 60.1903L103.574 59.6757L103.485 59.7605L103.4 59.8479L104.061 59.1348L104.722 58.4217L105.382 57.7086L106.043 56.9955L106.581 56.4243L106.465 56.5797L106.357 56.7473L106.832 55.9494L107.307 55.1515L107.782 54.3536L108.257 53.5557L108.732 52.7577L109.207 51.9598L109.683 51.1619L110.168 50.347L110.178 50.33L110.189 50.3131L110.676 49.5318L111.164 48.7505L111.652 47.9692L112.14 47.1879L112.74 46.2407L112.859 46.0885L112.983 45.9512L113.666 45.2521L114.349 44.553L115.033 43.8538L115.869 43.0084L116.053 42.8588L116.272 42.7118L116.99 42.2986L117.707 41.8854L118.425 41.4721L119.578 40.8479L120.052 40.7182L120.515 40.6772L121.368 40.6774L122.221 40.6775L123.074 40.6777L124.35 40.7115L124.751 40.8082L125.105 40.9519L125.931 41.365L126.757 41.7781L127.584 42.1912L128.41 42.6044L129.237 43.0175L130.063 43.4306L130.889 43.8437L131.787 44.2933L131.854 44.3302L131.918 44.3674L132.756 44.884L133.594 45.4005L134.432 45.9171L135.27 46.4336L136.108 46.9502L136.853 47.4128L136.747 47.3574L136.625 47.3014L137.387 47.6467L138.148 47.992L138.91 48.3373L139.672 48.6825L140.433 49.0278L140.935 49.2783L140.687 49.217L140.457 49.1837L141.405 49.2958L142.352 49.4078L143.299 49.5198L143.544 49.6672L142.829 49.9338L142.288 50.3536L142.959 49.6501L143.629 48.9466L144.3 48.243L144.97 47.5395L145.489 47.0086L145.336 47.2232L145.193 47.4842L145.535 46.7604L145.878 46.0366L146.22 45.3128L146.562 44.589L146.834 44.0296L146.779 44.1898L146.737 44.3436L146.939 43.4948L147.141 42.646L147.343 41.7972L147.544 40.9484L147.746 40.0996L147.929 39.3375L147.914 39.4239L147.901 39.5097L148.012 38.6282L148.124 37.7466L148.235 36.8651L148.346 35.9836L148.457 35.1021L148.568 34.2205L148.673 33.3947L148.668 33.4477L148.665 33.4981L148.722 32.5401L148.779 31.5822L148.837 30.6242L148.894 29.6663L148.951 28.7083L149.009 27.7504L149.067 26.7776L149.068 26.7624L149.069 26.7471L149.143 25.8122L149.217 24.8773L149.291 23.9424L149.365 23.0074L149.439 22.0725L149.513 21.1376L149.586 20.2027L149.66 19.2678L149.734 18.3329L149.816 17.3152L149.827 17.2287L149.843 17.1386L150.01 16.2808L150.177 15.4229L150.344 14.565L150.511 13.7072L150.678 12.8493L150.858 11.9284L150.873 11.8624L150.891 11.7934L151.138 11.0226L151.385 10.2518L151.632 9.48094L151.879 8.71012L152.155 7.84424L152.186 7.75621L152.219 7.67485L152.702 6.91379L153.186 6.1527L153.744 5.23566L153.857 5.05409L154.025 4.85214L154.595 4.49509L155.164 4.13803L155.702 3.66888L155.708 3.67524L155.737 3.70279L155.739 3.70491L155.82 3.62059L155.981 3.4449L156.31 3.10481L156.885 2.50895L157.47 1.91901L158.055 1.32904L158.64 0.739067L158.787 0.881063L159.09 1.17355L160.057 1.61292Z" fill="black" style="fill:black;fill-opacity:1;"/>
</svg>
