<svg width="827" height="200" viewBox="0 0 827 200" fill="none" xmlns="http://www.w3.org/2000/svg">
<mask id="mask0_6113_806" style="mask-type:alpha" maskUnits="userSpaceOnUse" x="0" y="0" width="827" height="200">
<rect width="827" height="200" fill="#D9D9D9" style="fill:#D9D9D9;fill:color(display-p3 0.8510 0.8510 0.8510);fill-opacity:1;"/>
</mask>
<g mask="url(#mask0_6113_806)">
<path d="M-2.11892 26.0539C-18.7097 34.448 -32.5423 38.1445 -53.3117 38.231C-55.2631 40.2642 -55.7363 42.7633 -56.1676 47.2732C-58.3149 69.7264 -71.8809 91.7026 -67.5754 114.293C-64.4054 130.926 -61.9363 114.772 -53.6202 118.179C-45.6262 121.453 -40.2698 128.299 -33.6842 132.673C-25.1657 138.332 -13.9289 145.087 -2.34044 147.617C15.9293 151.604 32.6033 152.805 50.6007 160C73.8189 169.282 83.426 184.286 112.07 173.524C121.097 170.132 129.644 163.178 140.866 164.109C155.677 165.339 166.408 172.224 178.523 177.259C205.92 188.645 220.75 185.498 245.973 173.972C267.622 164.079 287.677 184.253 306.556 188.392C319.622 191.257 331.93 181.835 343.549 178.5C355.148 175.17 366.285 172.958 378.99 173.046C414.371 173.289 437.818 184.512 476.234 177.802C496.66 174.234 512.423 164.326 532.054 159.87C544.715 156.996 558.948 157.868 571.705 160.019C587.065 162.61 600.204 165.362 616.45 164.502C632.898 163.632 644.786 156.678 658.537 151.427C687.146 140.503 698.178 162.903 722.775 168.089C735.855 170.846 748.892 170.474 760.875 165.997C771.481 162.034 780.575 156.816 793.216 156.582C813.192 156.213 841.677 166.933 857.786 155.013C868.431 147.138 871.666 136.022 878.719 126.771C882.444 121.884 882.371 122.256 888.908 122.886C898.554 123.815 876.796 35.7162 879.13 56.5972C867.302 32.3065 851.293 38.3985 809.164 44.957C796.951 46.8583 783.996 50.5374 771.286 48.394C759.142 46.3459 751.047 40.0132 741.493 35.0945C716.028 21.9842 684.721 33.2308 659.534 40.8477C645.472 45.1002 628.751 46.6173 613.792 43.388C598.579 40.1039 587.36 31.669 572.369 28.0712C555.248 23.962 536.191 27.2397 520.093 31.807C505.061 36.0716 492.772 42.9157 475.569 41.9684C455.196 40.8464 434.089 20.4767 414.432 26.2781C404.272 29.2767 396.181 35.2825 386.079 38.0085C372.062 41.7908 354.02 38.3767 341.666 33.3761C325.36 26.7761 309.907 17.0133 289.722 17.0133C268.438 17.0133 247.068 24.4379 227.034 28.5195C205.141 32.98 182.023 33.35 159.695 29.8644C141.68 27.0523 128.01 21.4889 108.747 22.3928C92.1617 23.1712 83.2972 28.6922 68.8753 33.0025C61.7022 35.1463 52.4504 34.6759 45.7274 32.1059C36.3658 28.5272 31.9473 20.5977 22.6903 17.611C13.7107 14.7139 4.13914 22.8876 -2.11892 26.0539Z" fill="white" style="fill:white;fill-opacity:1;"/>
</g>
</svg>
