<svg width="365" height="199" viewBox="0 0 365 199" fill="none" xmlns="http://www.w3.org/2000/svg">
<path d="M8.28992 64.9321V61.9172V59.7984L16.5798 58.5901L17.7014 58.3893L18.823 58.1884L19.9446 57.9876L21.0663 57.7868L22.1879 57.5859L23.3094 57.3851L24.4311 57.1843L25.5527 56.9834L26.6743 56.7826L24.0643 56.0207L21.3688 55.4782L19.6714 54.7787L20.6757 54.391L21.6801 54.0033L22.6844 53.6156L23.6887 53.2279L24.6931 52.8401L25.6974 52.4524L26.7018 52.0647L27.7061 51.677L28.7104 51.2893L29.7148 50.9015L30.7191 50.5138L31.7234 50.1261L32.7278 49.7384L31.3913 49.6612L30.0697 49.6266L29.7435 49.4279L30.7191 49.2228L31.6947 49.0177L32.6703 48.8126L33.6459 48.6076L34.6215 48.4025L35.5971 48.1974L36.5727 47.9923L37.5483 47.7872L38.5239 47.5821L39.4995 47.377L40.4751 47.172L41.4507 46.9669L42.4263 46.7618L43.4019 46.5567L44.3775 46.3516L45.3531 46.1465L46.3287 45.9414L44.8958 45.9925L43.4449 46.089L42.9189 46.024L43.856 45.8155L44.7931 45.6071L45.7302 45.3987L46.6673 45.1903L47.6044 44.9819L48.5415 44.7735L49.4787 44.565L50.4158 44.3566L51.3529 44.1482L52.29 43.9398L53.2271 43.7314L54.1642 43.523L55.1013 43.3146L56.0384 43.1061L56.9755 42.8977L57.9126 42.6893L58.8497 42.4809L59.7868 42.2725L60.7239 42.0641L61.661 41.8556L62.5981 41.6472L63.5352 41.4388L64.4723 41.2304L64.0817 41.2765L63.6998 41.3245L64.2889 41.1454L65.2511 40.9164L66.2134 40.6874L67.1756 40.4585L68.1378 40.2295L69.1001 40.0005L70.0623 39.7715L71.0245 39.5425L71.9868 39.3136L72.949 39.0846L73.9112 38.8556L74.8734 38.6266L75.8357 38.3976L76.7979 38.1687L77.7601 37.9397L78.7224 37.7107L79.6846 37.4817L80.6468 37.2527L81.609 37.0238L82.5713 36.7948L83.5335 36.5658L84.4957 36.3368L84.2164 36.376L83.9378 36.4166L84.6274 36.2522L85.5949 36.0458L86.5624 35.8394L87.5299 35.6331L88.4974 35.4267L89.4649 35.2203L90.4324 35.014L91.3999 34.8076L92.3673 34.6012L93.3348 34.3948L94.3023 34.1885L95.2698 33.9821L96.2373 33.7757L97.2048 33.5693L98.1723 33.363L99.1398 33.1566L100.107 32.9502L101.075 32.7439L102.042 32.5375L103.01 32.3311L103.977 32.1247L104.945 31.9184L105.912 31.712L106.88 31.5056L107.847 31.2993L108.815 31.0929L109.782 30.8865L110.75 30.6801L111.717 30.4738L112.685 30.2674L113.652 30.061L114.62 29.8547L115.587 29.6483L116.555 29.4419L116.145 29.5064L115.736 29.5741L116.291 29.4349L117.254 29.2249L118.218 29.0149L119.181 28.8049L120.145 28.5949L121.108 28.3849L122.071 28.175L123.035 27.965L123.998 27.755L124.962 27.545L125.925 27.335L126.888 27.125L127.852 26.915L128.815 26.705L129.779 26.495L130.742 26.285L131.705 26.075L132.669 25.8651L133.632 25.6551L134.596 25.4451L135.559 25.2351L136.522 25.0251L137.486 24.8151L138.449 24.6051L138.246 24.6416L138.04 24.6792L138.778 24.5154L139.725 24.3129L140.672 24.1103L141.619 23.9077L142.565 23.7051L143.512 23.5025L144.459 23.2999L145.406 23.0973L146.352 22.8947L147.299 22.6921L148.246 22.4896L149.192 22.287L150.139 22.0844L151.086 21.8818L152.033 21.6792L152.979 21.4766L153.926 21.274L154.873 21.0714L155.82 20.8688L156.766 20.6662L157.713 20.4637L158.66 20.2611L159.607 20.0585L160.553 19.8559L161.5 19.6533L161.465 19.6599L161.43 19.6665L162.355 19.4732L163.313 19.2734L164.272 19.0736L165.231 18.8738L166.189 18.674L167.148 18.4742L168.107 18.2745L169.065 18.0747L170.024 17.8749L170.983 17.6751L171.942 17.4753L172.9 17.2755L173.859 17.0757L174.818 16.8759L175.776 16.6761L176.735 16.4763L177.694 16.2765L178.652 16.0767L179.611 15.8769L180.57 15.6772L181.528 15.4774L182.487 15.2776L183.446 15.0778L184.404 14.878L184.366 14.8853L184.327 14.8929L185.219 14.72L186.152 14.5393L187.084 14.3587L188.017 14.1781L188.949 13.9975L189.882 13.8169L190.814 13.6363L191.747 13.4557L192.679 13.2751L193.612 13.0945L194.544 12.9139L195.477 12.7333L196.409 12.5527L197.342 12.3721L198.274 12.1915L199.207 12.0109L200.139 11.8303L201.072 11.6497L202.004 11.4691L202.937 11.2884L203.869 11.1078L204.802 10.9272L205.734 10.7466L205.879 10.719L206.02 10.6924L207.127 10.4815L208.098 10.2963L209.068 10.1111L210.038 9.92586L211.008 9.74062L211.979 9.5554L212.949 9.37016L213.919 9.18493L214.889 8.99971L215.86 8.81447L216.83 8.62924L217.8 8.44402L218.77 8.25878L219.741 8.07355L220.711 7.88831L221.681 7.70309L222.651 7.51786L223.622 7.33263L224.592 7.1474L225.562 6.96217L226.203 6.84744L226.848 6.73937L228.47 6.48868L229.442 6.33924L230.414 6.18982L231.386 6.04039L232.359 5.89096L233.331 5.74154L234.303 5.59211L235.275 5.44269L236.248 5.29325L237.22 5.14384L238.192 4.9944L239.164 4.84498L240.137 4.69555L241.109 4.54613L242.081 4.3967L243.054 4.24727L244.026 4.09785L244.998 3.94841L245.97 3.79899L246.943 3.64956L247.915 3.50014L248.887 3.35071L249.859 3.20129L250.832 3.05186L251.669 2.93235L252.54 2.82125L254.373 2.62207L255.303 2.52431L256.233 2.42656L257.162 2.32881L258.092 2.23106L259.021 2.1333L259.951 2.03555L260.88 1.9378L261.81 1.84005L262.74 1.74229L263.669 1.64454L264.599 1.54679L265.528 1.44905L265.319 1.47126L265.117 1.49343L265.9 1.40446L266.878 1.29342L267.857 1.18237L268.835 1.07133L269.813 0.960287L270.791 0.849245L271.769 0.738202L272.748 0.627159L273.411 0.554854L274.108 0.487009L275.759 0.393863L276.676 0.363071L277.593 0.33228L278.51 0.301501L279.427 0.270709L280.344 0.23993L281.261 0.209139L282.178 0.17836L283.096 0.147568L284.013 0.116777L284.964 0.0498194L285.882 0L287.741 0.0691301L288.715 0.172575L289.689 0.276032L290.663 0.379476L291.637 0.482921L292.611 0.586378L293.167 0.57176L293.76 0.562105L295.272 0.836285L296.148 1.11399L297.025 1.3917L297.902 1.66941L298.778 1.94711L299.608 2.40996L300.438 2.8728L301.268 3.33565L302.099 3.7985L303.08 3.80763L304.109 3.83686L305.891 4.75298L306.594 5.61684L307.297 6.48069L307.999 7.34454L314.617 8.2002L320.051 9.64309L324.422 12.9744L324.502 14.6296L324.581 16.2848L324.661 17.9399L324.74 19.5951L324.82 21.2503L324.899 22.9055L326.609 23.7436L328.297 24.7101L329.013 27.9573L328.094 30.1151L327.174 32.273L326.255 34.4308L325.336 36.5887L324.417 38.7465L307.038 55.9474L304.657 57.0564L302.275 58.1654L299.894 59.2744L297.512 60.3835L295.131 61.4925L294.385 63.6908L296.073 64.6574L297.782 65.4954L296.102 66.3551L294.421 67.2147L292.74 68.0743L291.06 68.934L289.379 69.7936L287.699 70.6532L290.31 73.189L295.744 74.6319L302.362 75.4875L301.523 76.2609L300.685 77.0342L299.847 77.8075L300.088 78.6331L301.117 78.6624L302.099 78.6715L301.268 79.1343L300.438 79.5972L299.608 80.0601L298.778 80.5229L297.902 80.8006L297.025 81.0783L296.148 81.356L295.272 81.6337L295.031 81.9079L295.624 81.8983L296.18 81.8836L295.218 82.0474L294.255 82.2112L293.293 82.375L292.331 82.5388L291.369 82.7026L291.292 82.832L292.21 82.7822L293.161 82.7153L292.253 82.828L291.345 82.9407L290.437 83.0534L289.529 83.1661L288.621 83.2788L287.713 83.3916L286.805 83.5043L285.897 83.617L284.989 83.7297L284.816 83.78L285.513 83.7122L286.176 83.6399L285.198 83.7535L284.22 83.8671L283.242 83.9807L282.265 84.0943L281.287 84.2079L280.309 84.3214L279.331 84.435L278.158 84.5707L277.956 84.5928L277.747 84.6151L276.817 84.7112L275.887 84.8074L274.957 84.9036L274.028 84.9998L273.098 85.096L272.168 85.1922L271.238 85.2883L270.308 85.3845L269.379 85.4807L268.449 85.5769L267.519 85.6731L266.589 85.7692L266.564 85.764L267.434 85.6529L268.272 85.5334L267.298 85.6761L266.324 85.8187L265.35 85.9614L264.377 86.1041L263.403 86.2468L262.429 86.3894L261.456 86.5321L260.482 86.6748L259.508 86.8175L258.535 86.9602L257.561 87.1028L256.587 87.2455L255.614 87.3882L254.64 87.5309L253.666 87.6735L252.692 87.8162L251.719 87.9589L250.745 88.1016L249.771 88.2442L248.798 88.3869L247.824 88.5296L246.85 88.6722L245.877 88.8149L245.552 88.8564L246.198 88.7483L246.838 88.6335L245.865 88.8077L244.892 88.9819L243.919 89.1561L242.946 89.3302L241.973 89.5044L240.999 89.6786L240.026 89.8528L239.053 90.027L238.08 90.2012L237.107 90.3753L236.134 90.5495L235.161 90.7237L234.188 90.8979L233.214 91.072L232.241 91.2462L231.268 91.4204L230.295 91.5946L229.322 91.7688L228.349 91.9429L227.513 92.0915L227.654 92.0649L227.799 92.0373L226.866 92.2161L225.933 92.395L225 92.5738L224.067 92.7527L223.134 92.9316L222.201 93.1104L221.268 93.2893L220.335 93.4682L219.402 93.647L218.469 93.8259L217.536 94.0047L216.603 94.1836L215.67 94.3625L214.737 94.5413L213.804 94.7202L212.871 94.899L211.938 95.0779L211.005 95.2568L210.072 95.4356L209.139 95.6145L208.206 95.7934L207.273 95.9722L206.3 96.1588L206.261 96.1663L206.222 96.1737L205.255 96.3408L204.288 96.508L203.32 96.6752L202.353 96.8424L201.385 97.0096L200.418 97.1768L199.45 97.344L198.483 97.5112L197.516 97.6783L196.548 97.8455L195.581 98.0127L194.613 98.1799L193.646 98.3471L192.678 98.5143L191.711 98.6815L190.743 98.8487L189.776 99.0158L188.809 99.183L187.841 99.3502L186.874 99.5174L185.906 99.6846L184.939 99.8518L183.971 100.019L182.97 100.193L182.935 100.199L182.9 100.206L181.941 100.363L180.982 100.52L180.023 100.676L179.065 100.833L178.106 100.99L177.147 101.147L176.188 101.304L175.229 101.46L174.27 101.617L173.311 101.774L172.352 101.931L171.393 102.088L170.435 102.245L169.476 102.401L168.517 102.558L167.558 102.715L166.599 102.872L165.64 103.029L164.681 103.185L163.722 103.342L162.763 103.499L161.805 103.656L160.846 103.813L159.887 103.97L158.72 104.165L158.514 104.203L158.31 104.239L157.328 104.374L156.346 104.508L155.363 104.643L154.381 104.777L153.399 104.912L152.417 105.046L151.435 105.181L150.452 105.315L149.47 105.45L148.488 105.584L147.506 105.719L146.523 105.853L145.541 105.988L144.559 106.122L143.577 106.257L142.594 106.391L141.612 106.526L140.63 106.66L139.648 106.795L138.666 106.929L137.683 107.064L136.701 107.198L135.719 107.333L134.328 107.538L133.919 107.606L133.51 107.67L132.518 107.765L131.526 107.86L130.535 107.955L129.543 108.051L128.552 108.146L127.56 108.241L126.568 108.336L125.577 108.431L124.585 108.526L123.594 108.621L122.602 108.716L121.61 108.811L120.619 108.906L119.627 109.001L118.635 109.096L117.644 109.191L116.652 109.286L115.661 109.382L114.669 109.477L113.677 109.572L112.686 109.667L111.694 109.762L110.703 109.857L109.711 109.952L108.719 110.047L107.728 110.142L106.736 110.237L105.745 110.332L104.753 110.427L103.761 110.522L102.77 110.617L101.778 110.713L100.786 110.808L99.517 110.945L99.2384 110.985L98.9591 111.024L97.9604 111.065L96.9617 111.106L95.963 111.146L94.9643 111.187L93.9656 111.227L92.9669 111.268L91.9681 111.309L90.9695 111.349L89.9707 111.39L88.972 111.43L87.9733 111.471L86.9746 111.512L85.9759 111.552L84.9772 111.593L83.9785 111.634L82.9798 111.674L81.9811 111.715L80.9824 111.755L79.9836 111.796L78.985 111.837L77.9862 111.877L76.6143 111.968L76.2325 112.016L75.8419 112.062L74.8727 112.071L73.9036 112.079L72.9344 112.088L71.9653 112.097L70.9962 112.106L70.027 112.115L69.0579 112.123L68.0887 112.132L67.1196 112.141L66.1504 112.15L65.1813 112.159L64.2121 112.167L63.243 112.176L62.2738 112.185L61.3047 112.194L60.3356 112.203L59.3664 112.212L58.3973 112.22L57.4281 112.229L56.459 112.238L55.4898 112.247L54.5207 112.256L53.5515 112.264L51.1193 112.417L49.6685 112.513L48.2355 112.564L47.2493 112.399L46.2631 112.234L45.2769 112.068L44.2907 111.903L43.3045 111.738L42.3183 111.573L41.3321 111.408L40.3459 111.242L39.3597 111.077L38.3735 110.912L37.3873 110.747L36.4011 110.581L35.4149 110.416L34.4287 110.251L33.4425 110.086L32.4563 109.921L31.4701 109.755L29.1821 109.596L27.8604 109.562L26.524 109.485L25.6148 108.956L24.7056 108.427L23.7964 107.898L22.8873 107.37L21.9781 106.841L21.0689 106.312L20.1598 105.783L19.2506 105.254L18.3414 104.726L17.4323 104.197L16.5231 103.668L15.6139 103.139L14.7047 102.611L11.0938 101.77L8.3983 101.228L5.78838 100.466L5.14523 99.6658L4.50208 98.866L3.85892 98.0661L3.21576 97.2663L2.57262 96.4665L1.92946 95.6666L1.2863 94.8668L0.643143 94.0669L0 93.2671L8.28992 92.0588V89.9399V64.9321Z" fill="black" style="fill:black;fill-opacity:1;"/>
<path d="M46.9262 145.297V141.454L57.5964 162.748L59.6766 164.693L57.7483 139.086L51.3347 136.69L52.2281 136.473L48.2309 135.757L49.1082 135.611L49.9856 135.465L50.8629 135.319L51.7402 135.173L52.6176 135.027L51.5039 135.052L50.4746 135.118L50.4787 134.966L51.4304 134.715L52.3821 134.465L53.3339 134.214L54.2856 133.963L55.2373 133.713L56.1891 133.462L57.1408 133.211L58.0925 132.961L57.8098 132.997L57.5206 133.037L58.146 132.882L59.0671 132.681L59.9882 132.481L60.9093 132.28L61.8304 132.08L62.7516 131.88L63.6727 131.679L64.5938 131.479L64.516 131.491L64.4408 131.503L65.3422 131.329L66.3163 131.142L67.2903 130.956L68.2643 130.769L69.2384 130.583L70.2124 130.396L71.1864 130.21L72.1605 130.023L73.1345 129.837L74.1085 129.65L75.0826 129.464L76.0566 129.278L77.0307 129.091L78.0047 128.905L78.9787 128.718L79.9528 128.532L80.9268 128.345L81.9008 128.159L82.8749 127.972L83.8489 127.786L84.823 127.599L85.797 127.413L86.771 127.226L87.745 127.04L88.7191 126.854L89.6931 126.667L90.6672 126.481L91.6412 126.294L92.6152 126.108L93.5892 125.921L94.5633 125.735L95.5373 125.548L96.5114 125.362L97.4854 125.175L98.4594 124.989L99.4335 124.803L100.408 124.616L101.382 124.43L102.356 124.243L103.33 124.057L104.304 123.87L105.278 123.684L106.252 123.497L107.226 123.311L108.2 123.124L108.185 123.127L108.17 123.129L109.095 122.963L110.035 122.794L110.976 122.625L111.916 122.456L112.856 122.286L113.797 122.117L114.737 121.948L115.678 121.779L116.618 121.61L117.559 121.441L118.499 121.272L119.439 121.103L120.38 120.934L121.32 120.764L122.261 120.595L123.201 120.426L124.142 120.257L125.082 120.088L126.022 119.919L126.963 119.75L127.903 119.581L128.844 119.412L129.784 119.242L130.724 119.073L130.852 119.052L130.979 119.032L132.058 118.866L133.012 118.72L133.965 118.574L134.918 118.428L135.871 118.282L136.824 118.136L137.777 117.99L138.73 117.844L139.683 117.698L140.637 117.552L141.59 117.406L142.543 117.26L143.496 117.114L144.449 116.968L145.402 116.822L146.355 116.676L147.308 116.53L148.262 116.384L149.215 116.237L150.168 116.091L151.121 115.945L152.074 115.799L153.027 115.653L153.98 115.507L154.199 115.475L154.416 115.444L155.603 115.288L156.575 115.161L157.548 115.035L158.52 114.908L159.493 114.781L160.465 114.654L161.438 114.527L162.411 114.401L163.383 114.274L164.356 114.147L165.328 114.02L166.301 113.893L167.273 113.767L168.246 113.64L169.218 113.513L170.191 113.386L171.163 113.259L172.136 113.132L173.108 113.006L174.081 112.879L175.054 112.752L176.026 112.625L176.999 112.498L177.971 112.372L178.944 112.245L179.916 112.118L180.889 111.991L181.861 111.864L182.834 111.738L183.806 111.611L184.779 111.484L185.752 111.357L186.724 111.23L187.697 111.103L187.678 111.106L187.659 111.108L188.61 110.982L189.581 110.854L190.552 110.725L191.523 110.597L192.494 110.468L193.464 110.34L194.435 110.211L195.406 110.083L196.377 109.954L197.348 109.826L198.318 109.697L199.289 109.569L200.26 109.44L201.231 109.312L202.202 109.183L203.172 109.055L204.143 108.926L205.114 108.798L206.085 108.669L207.056 108.541L208.026 108.412L208.192 108.391L208.361 108.37L209.481 108.241L210.429 108.132L211.377 108.023L212.325 107.914L213.273 107.806L214.221 107.697L215.169 107.588L216.117 107.479L217.065 107.37L218.013 107.262L218.961 107.153L219.909 107.044L220.857 106.935L221.805 106.826L222.753 106.718L223.701 106.609L224.649 106.5L225.597 106.391L226.545 106.283L226.73 106.262L226.917 106.242L228.045 106.134L228.985 106.044L229.926 105.954L230.866 105.865L231.807 105.775L232.747 105.685L233.687 105.596L234.628 105.506L235.568 105.416L236.508 105.326L237.449 105.237L238.389 105.147L239.329 105.057L240.27 104.967L241.21 104.878L241.225 104.876L241.24 104.875L242.213 104.783L243.171 104.693L244.129 104.603L245.087 104.514L246.045 104.424L247.003 104.334L247.961 104.244L248.919 104.154L249.877 104.064L250.835 103.974L251.793 103.884L252.751 103.794L252.727 103.796L252.702 103.798L253.609 103.711L254.54 103.621L255.472 103.531L256.403 103.442L257.334 103.352L258.266 103.262L259.197 103.172L258.884 103.204L258.572 103.239L259.19 103.158L260.118 103.038L261.047 102.919L261.975 102.799L262.903 102.68L263.832 102.56L263.489 102.606L263.143 102.657L263.704 102.562L264.613 102.412L264.487 102.452L264.386 102.472L264.671 102.32L263.259 102.711L271.282 101.809V142.3L270.512 140.829L269.743 139.358L268.873 136.572L268.003 133.786L267.133 130.999V114.324L268.003 111.538L268.873 108.751L269.743 105.965L270.512 104.494L271.282 103.023V143.514L279.305 142.612L277.658 143.003L276.287 143.39L276.186 143.411L274.243 143.752L273.334 143.902L272.077 144.108L271.731 144.158L271.388 144.205L270.459 144.324L269.531 144.444L268.603 144.563L267.674 144.683L266.746 144.803L265.507 144.961L265.195 144.996L264.882 145.028L263.951 145.117L263.019 145.207L262.088 145.297L261.156 145.387L260.225 145.477L259.294 145.566L258.337 145.659L258.313 145.661L258.289 145.663L257.331 145.753L256.373 145.843L255.415 145.933L254.457 146.023L253.499 146.113L252.541 146.203L251.583 146.293L250.625 146.383L249.667 146.473L248.709 146.563L247.751 146.653L246.808 146.741L246.822 146.74L246.837 146.739L245.897 146.828L244.957 146.918L244.016 147.008L243.076 147.097L242.136 147.187L241.195 147.277L240.255 147.367L239.315 147.456L238.374 147.546L237.434 147.636L236.493 147.726L235.553 147.815L234.613 147.905L233.672 147.995L232.92 148.066L233.107 148.046L233.292 148.026L232.344 148.135L231.396 148.243L230.448 148.352L229.5 148.461L228.552 148.57L227.604 148.679L226.656 148.787L225.708 148.896L224.76 149.005L223.812 149.114L222.864 149.222L221.916 149.331L220.968 149.44L220.02 149.549L219.072 149.658L218.124 149.766L217.176 149.875L216.228 149.984L215.452 150.072L215.621 150.052L215.787 150.03L214.816 150.159L213.845 150.287L212.875 150.416L211.904 150.544L210.933 150.673L209.962 150.801L208.991 150.93L208.021 151.058L207.05 151.187L206.079 151.315L205.108 151.444L204.137 151.572L203.167 151.701L202.196 151.829L201.225 151.958L200.254 152.086L199.283 152.215L198.313 152.343L197.342 152.472L196.371 152.6L195.381 152.732L195.362 152.734L195.343 152.736L194.371 152.863L193.398 152.99L192.426 153.117L191.453 153.244L190.481 153.371L189.508 153.497L188.536 153.624L187.563 153.751L186.59 153.878L185.618 154.005L184.645 154.131L183.673 154.258L182.7 154.385L181.728 154.512L180.755 154.639L179.783 154.765L178.81 154.892L177.838 155.019L176.865 155.146L175.892 155.273L174.92 155.4L173.947 155.526L172.975 155.653L172.002 155.78L171.03 155.907L170.057 156.034L169.085 156.16L168.112 156.287L167.14 156.414L166.167 156.541L165.195 156.668L164.222 156.794L163.249 156.921L162.492 157.019L162.708 156.989L162.927 156.956L161.974 157.102L161.021 157.248L160.067 157.394L159.114 157.54L158.161 157.686L157.208 157.832L156.255 157.978L155.302 158.124L154.349 158.27L153.396 158.416L152.442 158.563L151.489 158.709L150.536 158.855L149.583 159.001L148.63 159.147L147.677 159.293L146.724 159.439L145.771 159.585L144.817 159.731L143.864 159.877L142.911 160.023L141.958 160.169L141.005 160.315L140.178 160.442L140.305 160.421L140.433 160.4L139.487 160.546L138.541 160.691L137.595 160.837L136.649 160.982L135.703 161.128L134.757 161.273L133.811 161.419L132.865 161.564L131.919 161.71L130.973 161.855L130.027 162.001L129.081 162.146L128.135 162.292L127.189 162.437L126.243 162.583L125.297 162.728L124.351 162.874L123.405 163.019L122.459 163.164L121.513 163.31L120.567 163.455L119.621 163.601L118.675 163.746L117.714 163.894L117.699 163.897L117.684 163.899L116.698 164.037L115.713 164.174L114.727 164.311L113.742 164.448L112.756 164.585L111.771 164.722L110.785 164.859L109.8 164.996L108.814 165.133L107.829 165.271L106.843 165.408L105.858 165.545L104.872 165.682L103.887 165.819L102.901 165.956L101.916 166.093L100.93 166.23L99.9446 166.367L98.9591 166.505L97.9736 166.642L96.9881 166.779L96.0025 166.916L95.017 167.053L94.0315 167.19L93.046 167.327L92.0605 167.464L91.075 167.602L90.0895 167.739L89.104 167.876L88.1185 168.013L87.1329 168.15L86.1474 168.287L85.1619 168.424L84.1764 168.561L83.1909 168.698L82.2054 168.836L81.2199 168.973L80.2344 169.11L79.2488 169.247L78.2633 169.384L77.2778 169.521L76.2923 169.658L75.3068 169.795L74.3213 169.932L73.2631 170.081L73.1879 170.094L73.1101 170.106L72.1651 170.198L71.22 170.289L70.2749 170.381L69.3298 170.473L68.3847 170.564L67.4396 170.656L66.4945 170.748L65.2537 170.884L64.9645 170.924L64.6817 170.961L63.6847 170.95L62.6876 170.939L61.6906 170.928L60.6935 170.918L59.6965 170.907L58.6994 170.896L57.7024 170.886L56.7053 170.875L54.7606 170.963L53.7313 171.029L52.6176 171.053L51.7402 170.907L50.8629 170.761L49.9856 170.615L49.1082 170.469L48.2309 170.323L42.5735 169.607L41.8067 169.39L35.3931 166.995L34.1758 140.848L36.256 142.793L46.9262 164.086V145.297Z" fill="black" style="fill:black;fill-opacity:1;"/>
<path d="M60.5551 194.156V193.61L60.7498 193.105L61.7191 193.126L62.6884 193.148L63.6578 193.17L64.6271 193.192L65.5964 193.214L66.5658 193.236L67.535 193.258L67.4288 193.253L67.3242 193.251L68.2162 193.198L69.2107 193.144L70.2052 193.091L71.1997 193.037L72.1941 192.983L73.1886 192.929L74.1831 192.876L75.1776 192.822L76.1721 192.768L77.1666 192.715L78.1611 192.661L79.1556 192.607L80.15 192.553L81.1445 192.5L82.139 192.446L83.1335 192.392L84.128 192.339L85.1225 192.285L86.117 192.231L87.1114 192.177L86.9841 192.183L86.8567 192.192L87.7108 192.076L88.692 191.946L89.6731 191.816L90.6543 191.686L91.6354 191.556L92.6166 191.427L93.5977 191.297L94.5789 191.167L95.56 191.037L96.5412 190.907L97.5223 190.778L98.5035 190.648L99.4846 190.518L100.466 190.388L101.447 190.258L102.428 190.128L103.409 189.999L104.39 189.869L105.371 189.739L106.353 189.609L107.334 189.479L108.315 189.35L109.296 189.22L110.277 189.09L111.258 188.96L112.24 188.83L113.221 188.701L114.202 188.571L115.183 188.441L116.164 188.311L117.145 188.181L118.126 188.051L119.108 187.922L120.089 187.792L120.043 187.798L119.996 187.804L120.912 187.657L121.875 187.504L122.837 187.351L123.799 187.197L124.762 187.044L125.724 186.891L126.686 186.737L127.649 186.584L128.611 186.43L129.574 186.277L130.536 186.124L131.498 185.97L132.461 185.817L133.423 185.664L134.385 185.51L135.348 185.357L136.31 185.203L137.272 185.05L138.235 184.897L139.197 184.743L140.16 184.59L141.122 184.437L142.084 184.283L143.047 184.13L144.009 183.976L144.971 183.823L145.934 183.67L146.896 183.516L147.859 183.363L148.821 183.21L149.783 183.056L150.746 182.903L151.708 182.749L152.67 182.596L153.633 182.443L154.595 182.289L155.558 182.136L156.52 181.983L156.479 181.989L156.439 181.996L157.374 181.825L158.348 181.647L159.323 181.469L160.297 181.291L161.272 181.113L162.246 180.936L163.221 180.758L164.195 180.58L165.17 180.402L166.145 180.224L167.119 180.047L168.094 179.869L169.068 179.691L170.043 179.513L171.017 179.335L171.992 179.158L172.966 178.98L173.941 178.802L174.915 178.624L175.89 178.446L176.864 178.269L177.839 178.091L178.813 177.913L179.788 177.735L180.763 177.557L181.737 177.38L182.712 177.202L183.686 177.024L184.661 176.846L185.635 176.668L186.61 176.491L187.584 176.313L188.559 176.135L189.533 175.957L190.508 175.779L191.482 175.602L192.457 175.424L193.432 175.246L194.406 175.068L195.381 174.89L196.355 174.713L197.33 174.535L198.304 174.357L199.279 174.179L200.253 174.002L201.228 173.824L202.202 173.646L203.177 173.468L204.151 173.29L205.126 173.113L206.1 172.935L207.075 172.757L208.05 172.579L209.024 172.401L209.999 172.224L210.973 172.046L210.958 172.048L210.942 172.051L211.887 171.872L212.847 171.69L213.807 171.508L214.767 171.325L215.728 171.143L216.688 170.961L217.648 170.779L218.608 170.597L219.569 170.414L220.529 170.232L221.489 170.05L222.45 169.868L223.41 169.686L224.37 169.503L225.33 169.321L226.291 169.139L227.251 168.957L228.211 168.774L229.171 168.592L230.132 168.41L231.092 168.228L232.052 168.046L233.013 167.863L233.973 167.681L234.933 167.499L235.893 167.317L236.854 167.135L237.814 166.952L238.774 166.77L239.734 166.588L240.695 166.406L241.655 166.223L242.615 166.041L243.576 165.859L244.536 165.677L245.496 165.495L246.456 165.312L246.455 165.313L246.454 165.313L247.425 165.13L248.398 164.946L249.37 164.763L250.342 164.579L251.315 164.396L252.287 164.212L253.259 164.029L254.231 163.845L255.204 163.662L256.176 163.479L257.148 163.295L258.121 163.112L259.093 162.928L260.065 162.745L261.037 162.561L262.01 162.378L262.982 162.194L263.954 162.011L264.926 161.828L265.899 161.644L266.871 161.461L267.843 161.277L268.816 161.094L269.788 160.91L270.76 160.727L271.732 160.543L272.705 160.36L273.677 160.177L274.649 159.993L275.622 159.81L276.594 159.626L277.566 159.443L278.538 159.259L279.511 159.076L279.464 159.085L279.417 159.094L280.334 158.896L281.298 158.688L282.263 158.48L283.227 158.273L284.191 158.065L285.156 157.857L286.12 157.649L287.084 157.441L288.049 157.233L289.013 157.025L289.977 156.817L290.942 156.609L291.906 156.401L292.87 156.193L293.835 155.985L294.799 155.777L295.763 155.57L296.728 155.362L297.692 155.154L298.656 154.946L299.621 154.738L300.585 154.53L301.549 154.322L302.514 154.114L303.478 153.906L304.442 153.698L305.407 153.49L306.371 153.282L307.335 153.074L307.296 153.083L307.256 153.092L308.139 152.881L309.062 152.66L309.986 152.439L310.909 152.218L311.833 151.997L312.756 151.776L313.68 151.556L314.603 151.335L315.527 151.114L316.45 150.893L317.374 150.672L318.297 150.451L319.221 150.23L320.144 150.009L321.068 149.788L321.992 149.568L322.915 149.347L323.839 149.126L324.762 148.905L325.686 148.684L326.609 148.463L327.533 148.242L328.456 148.021L329.38 147.801L329.316 147.816L329.253 147.832L330.118 147.591L331.045 147.333L331.971 147.076L332.898 146.818L333.825 146.56L334.751 146.302L335.678 146.045L336.604 145.787L337.531 145.529L338.457 145.271L339.384 145.013L340.31 144.756L341.237 144.498L342.164 144.24L343.09 143.982L344.017 143.725L344.943 143.467L345.87 143.209L346.796 142.951L347.723 142.693L348.649 142.436L349.576 142.178L349.543 142.187L349.509 142.197L350.321 141.952L351.169 141.696L352.018 141.441L352.866 141.185L353.715 140.93L354.563 140.674L354.558 140.675L354.553 140.677L355.29 140.455L356.032 140.232L356.773 140.009L357.515 139.786L357.555 139.774L357.599 139.761L358.301 139.569L358.953 139.391L356.147 141.568L359.953 147.061L359.431 146.909L358.908 146.757L359.102 146.769L359.239 146.774L358.46 146.493L357.58 146.211L356.7 145.929L355.82 145.647L354.94 145.365L354.06 145.083L353.18 144.802V141.327L354.06 141.045L354.94 140.763L355.82 140.481L356.7 140.199L357.58 139.917L358.46 139.635L359.441 139.354L359.578 139.359L359.772 139.371L360.32 139.308L360.868 139.245L364.674 144.738L361.868 146.915L361.216 147.096L360.612 147.262L360.656 147.25L360.696 147.238L359.956 147.464L359.215 147.69L358.475 147.916L357.729 148.144L357.724 148.145L357.719 148.147L356.869 148.4L356.02 148.653L355.171 148.907L354.321 149.16L353.472 149.414L352.586 149.678L352.551 149.688L352.519 149.697L351.592 149.954L350.665 150.211L349.738 150.468L348.811 150.725L347.885 150.983L346.958 151.24L346.031 151.497L345.104 151.754L344.177 152.011L343.251 152.268L342.324 152.526L341.397 152.783L340.47 153.04L339.544 153.297L338.617 153.554L337.69 153.811L336.763 154.069L335.836 154.326L334.91 154.583L333.983 154.84L333.056 155.097L332.068 155.371L332.005 155.387L331.941 155.403L331.018 155.624L330.094 155.845L329.171 156.066L328.247 156.287L327.324 156.508L326.401 156.729L325.477 156.95L324.554 157.171L323.63 157.392L322.707 157.613L321.783 157.834L320.86 158.054L319.936 158.275L319.013 158.496L318.089 158.717L317.166 158.938L316.242 159.159L315.319 159.38L314.395 159.601L313.472 159.822L312.548 160.043L311.625 160.264L310.701 160.485L309.737 160.716L309.697 160.725L309.657 160.733L308.693 160.941L307.728 161.148L306.764 161.355L305.799 161.562L304.835 161.77L303.87 161.977L302.906 162.184L301.941 162.391L300.977 162.599L300.012 162.806L299.048 163.013L298.083 163.22L297.118 163.427L296.154 163.635L295.189 163.842L294.225 164.049L293.26 164.256L292.296 164.464L291.331 164.671L290.367 164.878L289.402 165.085L288.438 165.293L287.473 165.5L286.508 165.707L285.544 165.914L284.579 166.122L283.615 166.329L282.65 166.536L281.639 166.753L281.592 166.763L281.545 166.772L280.572 166.953L279.599 167.135L278.626 167.316L277.653 167.498L276.681 167.679L275.708 167.861L274.735 168.042L273.762 168.224L272.79 168.405L271.817 168.587L270.844 168.768L269.871 168.95L268.898 169.131L267.925 169.313L266.953 169.494L265.98 169.676L265.007 169.857L264.034 170.039L263.062 170.22L262.089 170.402L261.116 170.583L260.143 170.765L259.17 170.946L258.197 171.128L257.225 171.309L256.252 171.491L255.279 171.672L254.306 171.854L253.334 172.035L252.361 172.217L251.388 172.398L250.415 172.58L249.442 172.761L248.468 172.943L248.467 172.943L248.466 172.943L247.505 173.12L246.543 173.298L245.581 173.475L244.62 173.652L243.658 173.829L242.697 174.006L241.735 174.183L240.773 174.361L239.812 174.538L238.85 174.715L237.889 174.892L236.927 175.069L235.965 175.246L235.004 175.423L234.042 175.601L233.081 175.778L232.119 175.955L231.157 176.132L230.196 176.309L229.234 176.486L228.273 176.664L227.311 176.841L226.349 177.018L225.388 177.195L224.426 177.372L223.465 177.549L222.503 177.727L221.541 177.904L220.58 178.081L219.618 178.258L218.657 178.435L217.695 178.612L216.733 178.79L215.772 178.967L214.81 179.144L213.849 179.321L212.871 179.501L212.856 179.504L212.84 179.507L211.863 179.676L210.887 179.845L209.91 180.013L208.933 180.182L207.956 180.351L206.979 180.52L206.003 180.689L205.026 180.858L204.049 181.026L203.072 181.195L202.096 181.364L201.119 181.533L200.142 181.702L199.165 181.871L198.188 182.039L197.212 182.208L196.235 182.377L195.258 182.546L194.281 182.715L193.305 182.884L192.328 183.053L191.351 183.221L190.374 183.39L189.398 183.559L188.421 183.728L187.444 183.897L186.467 184.066L185.49 184.234L184.514 184.403L183.537 184.572L182.56 184.741L181.583 184.91L180.607 185.079L179.63 185.248L178.653 185.416L177.676 185.585L176.699 185.754L175.723 185.923L174.746 186.092L173.769 186.261L172.792 186.429L171.816 186.598L170.839 186.767L169.862 186.936L168.885 187.105L167.908 187.274L166.932 187.443L165.955 187.611L164.978 187.78L164.001 187.949L163.025 188.118L162.048 188.287L161.071 188.456L160.094 188.624L159.117 188.793L158.101 188.969L158.061 188.976L158.02 188.982L157.055 189.122L156.089 189.262L155.124 189.402L154.159 189.542L153.194 189.681L152.228 189.821L151.263 189.961L150.298 190.101L149.333 190.241L148.367 190.381L147.402 190.521L146.437 190.661L145.472 190.801L144.506 190.941L143.541 191.08L142.576 191.22L141.61 191.36L140.645 191.5L139.68 191.64L138.715 191.78L137.749 191.92L136.784 192.06L135.819 192.2L134.854 192.34L133.888 192.479L132.923 192.619L131.958 192.759L130.993 192.899L130.027 193.039L129.062 193.179L128.097 193.319L127.132 193.459L126.166 193.599L125.201 193.739L124.236 193.878L123.271 194.018L122.305 194.158L121.293 194.305L121.247 194.311L121.201 194.317L120.216 194.425L119.231 194.533L118.247 194.641L117.262 194.75L116.277 194.858L115.292 194.966L114.307 195.074L113.322 195.182L112.338 195.29L111.353 195.398L110.368 195.506L109.383 195.615L108.398 195.723L107.413 195.831L106.428 195.939L105.444 196.047L104.459 196.155L103.474 196.263L102.489 196.371L101.504 196.48L100.519 196.588L99.5345 196.696L98.5497 196.804L97.5648 196.912L96.58 197.02L95.5952 197.128L94.6103 197.237L93.6255 197.345L92.6406 197.453L91.6558 197.561L90.6709 197.669L89.6861 197.777L88.7012 197.885L87.5894 198.007L87.462 198.016L87.3346 198.022L86.3381 198.022L85.3416 198.022L84.345 198.022L83.3485 198.023L82.352 198.023L81.3555 198.023L80.3589 198.023L79.3624 198.024L78.3659 198.024L77.3693 198.024L76.3728 198.024L75.3763 198.025L74.3797 198.025L73.3832 198.025L72.3867 198.025L71.3902 198.026L70.3936 198.026L69.3971 198.026L68.4006 198.026L67.3015 198.028L67.197 198.026L67.0907 198.021L66.1292 197.915L65.1677 197.809L64.2063 197.703L63.2448 197.597L62.2833 197.491L61.3218 197.385L60.3604 197.279L60.5551 196.773V194.156Z" fill="black" style="fill:black;fill-opacity:1;"/>
</svg>
