<svg width="550" height="107" viewBox="0 0 550 107" fill="none" xmlns="http://www.w3.org/2000/svg">
<path d="M8.26348 75.5823L9.11036 75.2885L9.70346 74.4061L10.0968 73.8209L12.8035 78.0089H13.2905L14.03 78.1115L14.4254 78.4086L14.5639 78.1348L14.461 77.5846L14.6712 77.7932L14.7424 77.7241L15.0685 78.3798L15.3946 79.0356L14.8494 77.9614L14.2205 77.082L14.2507 76.9636L14.9239 77.5295L15.5971 78.0954L16.2704 78.6613L15.7959 78.2502L15.293 77.8809L15.5859 77.9371L16.3997 78.3152L17.2135 78.6934L18.0273 79.0716L18.8411 79.4498L18.1237 79.09L17.3284 78.7879L17.3002 78.6789L18.1267 78.7938L18.9532 78.9087L19.7797 79.0235L20.6062 79.1384L21.4327 79.2532L20.6989 79.1366L19.9649 79.0851L20.0976 78.9994L20.948 78.9021L21.7984 78.8047L22.6488 78.7075L23.4992 78.6101L24.3496 78.5129L22.4313 78.8431L20.566 79.6286L19.6434 80.1218L20.2608 79.5065L20.8783 78.8912L21.4957 78.2759L22.1131 77.6607L22.7305 77.0454L23.3479 76.4301L23.9654 75.8148L24.5828 75.1996L25.2002 74.5843L25.8176 73.969L24.8914 74.9332L24.1367 75.9853L23.9349 76.1865L24.2973 75.3203L24.6598 74.4541L25.0223 73.5879L25.3848 72.7217L25.7472 71.8555L26.1097 70.9893L26.4722 70.1231L26.8347 69.2569L26.6004 69.8305L26.3938 70.4538L26.3968 70.2747L26.5696 69.4263L26.7425 68.578L26.9153 67.7296L27.0882 66.8812L27.261 66.0329L27.4339 65.1845L27.6067 64.3362L27.7796 63.4878L27.9524 62.6394L28.1253 61.7911L28.042 62.2276L27.9788 62.6712L27.9916 62.263L28.0468 61.4069L28.102 60.5508L28.1572 59.6947L28.2124 58.8385L28.2676 57.9824L28.3229 57.1263L28.3781 56.2702L28.4333 55.4141L28.4885 54.558L28.5437 53.7019L28.5301 53.935L28.5222 54.1608L28.5036 53.4781L28.4874 52.5768L28.4712 51.6755L28.4551 50.7743L28.4389 49.873L28.4227 48.9717L28.4066 48.0704L28.3904 47.1691L28.3742 46.2679L28.3581 45.3666L28.3419 44.4654L28.3258 43.5641L28.3096 42.6628L28.2934 41.7615L28.2946 41.9114L28.2979 42.0584L28.2416 41.2771L28.1798 40.3517L28.1181 39.4262L28.0564 38.5008L27.9946 37.5753L27.9329 36.6499L27.8711 35.7244L27.8094 34.799L27.8182 34.9646L27.8305 35.1392L27.747 34.4742L27.6471 33.6251L27.5473 32.776L27.4474 31.9268L27.3476 31.0777L27.2477 30.2286L27.1478 29.3795L27.048 28.5304L27.0463 28.5126L27.0446 28.495L26.9547 27.6196L26.8666 26.7618L26.7784 25.904L26.6902 25.0463L26.602 24.1885L26.5138 23.3307L26.4257 22.4729L26.4181 22.3873L26.4111 22.2999L26.3453 21.3766L26.2859 20.5426L26.2265 19.7087L26.167 18.8747L26.1076 18.0408L26.0482 17.2068L26.0473 17.1932L26.0464 17.18L25.9842 16.2913L25.9228 15.4153L25.8613 14.5393L25.7999 13.6633L25.8078 13.7793L25.8183 13.9089L25.7451 13.3213L25.6582 12.588L25.5669 11.8106L25.5649 11.7899L25.5597 11.6338L25.5648 10.7212H45.2901L44.5637 11.4216L43.8373 12.122L43.836 11.9833L43.8326 11.8492L42.6486 12.5147L41.4699 13.3099L40.2913 14.1052L31.4543 14.5463L30.2023 13.8724L28.9503 13.1984L27.6929 12.3947L27.6895 12.2606L27.6883 12.122L26.9619 11.4216L26.2355 10.7212H45.9608L45.9659 9.80859L45.9606 9.85048L45.9586 9.82985L46.0165 10.5216L46.0787 11.2575L46.1546 12.1391L46.1651 12.2687L46.173 12.3847L46.2216 13.2615L46.2702 14.1383L46.3187 15.0151L46.3665 15.8791L46.3656 15.8659L46.3647 15.8523L46.4165 16.6868L46.4684 17.5213L46.5201 18.3558L46.572 19.1902L46.6238 20.0247L46.6692 20.7699L46.6622 20.6825L46.6547 20.5969L46.7257 21.4563L46.7968 22.3156L46.8679 23.175L46.9389 24.0344L47.01 24.8937L47.0811 25.7531L47.1505 26.5949L47.1488 26.5773L47.1471 26.5595L47.2141 27.4118L47.281 28.2641L47.348 29.1165L47.415 29.9688L47.482 30.8211L47.549 31.6735L47.616 32.5258L47.6993 33.5623L47.7116 33.7369L47.7204 33.9024L47.7421 34.8297L47.7638 35.7569L47.7855 36.6842L47.8071 37.6115L47.8288 38.5387L47.8505 39.466L47.8722 40.3932L47.8993 41.4646L47.9026 41.6117L47.9038 41.7615L47.8876 42.6628L47.8714 43.5641L47.8553 44.4654L47.8391 45.3666L47.8229 46.2679L47.8068 47.1691L47.7906 48.0704L47.7744 48.9717L47.7583 49.873L47.7421 50.7743L47.7259 51.6755L47.7098 52.5768L47.6936 53.4781L47.675 54.5979L47.6671 54.8237L47.6535 55.0568L47.5873 55.9121L47.5212 56.7674L47.4551 57.6228L47.389 58.4781L47.3228 59.3334L47.2567 60.1888L47.1906 61.0441L47.1245 61.8995L47.0583 62.7548L46.9922 63.6101L46.8837 64.9133L46.8204 65.357L46.7372 65.7935L46.546 66.6379L46.3548 67.4823L46.1636 68.3267L45.9724 69.1711L45.7813 70.0156L45.5901 70.86L45.3989 71.7044L45.2077 72.5488L45.0166 73.3932L44.8254 74.2376L44.4644 75.7512L44.2578 76.3746L44.0235 76.9482L43.6192 77.7956L43.2149 78.6431L42.8106 79.4906L42.4062 80.3381L42.0019 81.1855L41.5976 82.033L41.1933 82.8805L40.789 83.7279L39.8203 85.6428L39.0657 86.6948L38.1394 87.6591L37.4628 88.2085L36.7861 88.758L36.1094 89.3075L35.4328 89.8569L34.7561 90.4064L34.0795 90.9559L33.4028 91.5053L32.7261 92.0548L32.0495 92.6042L31.3728 93.1537L29.1561 94.8116L27.2908 95.5971L25.3725 95.9274L24.5166 95.9303L23.6606 95.9333L22.8047 95.9362L21.9488 95.9391L21.0928 95.942L19.5193 95.9565L18.7853 95.905L18.0514 95.7884L17.2461 95.5695L16.4409 95.3507L15.6356 95.1319L14.8304 94.9131L14.0251 94.6942L12.3651 94.2515L11.5698 93.9495L10.8524 93.5897L10.1085 93.0878L9.36461 92.5859L8.62072 92.0841L7.87681 91.5822L6.61206 90.7583L6.10909 90.389L5.63465 89.9779L5.02813 89.3411L4.42161 88.7042L3.81508 88.0673L2.5655 86.7462L1.9366 85.8668L1.39137 84.7927L1.16196 84.0971L0.932554 83.4016L0.448193 81.9813L0.102859 80.8386L0 80.2884L0.138526 78.4086L0.533878 78.1115L1.27336 78.0089H1.76037L4.46709 82.1968L4.86042 81.6116L5.45352 80.7292L8.26348 75.5823Z" fill="black" style="fill:black;fill-opacity:1;"/>
<path d="M72.7139 34.6515L71.8172 34.3508H71.0834H69.1551H67.92L66.7769 33.4524H65.8426L65.6313 36.3257H81.1028L81.2516 36.8921L81.4005 37.4586L81.5785 36.9291L81.6758 36.5813L81.5815 37.1975L81.4276 38.0584L81.2738 38.9192L81.1199 39.7801L81.1047 39.8458L81.0894 39.9094L80.873 40.8632L80.6718 41.7555L80.4706 42.6477L80.2694 43.54L80.0682 44.4322L79.867 45.3245L79.6658 46.2167L79.6621 46.2314L79.6583 46.2463L79.44 47.1313L79.2256 48.0012L79.0111 48.871L78.7967 49.741L78.5823 50.6108L78.3678 51.4807L78.1534 52.3506L77.9389 53.2205L77.7245 54.0904L77.7229 54.0965L77.7213 54.1027L77.5066 54.9723L77.2934 55.8357L77.0803 56.6991L76.8671 57.5625L76.654 58.426L76.4409 59.2894L76.2277 60.1528L76.0145 61.0163L75.8014 61.8797L75.5882 62.7431L75.5923 62.7273L75.5963 62.7117L75.3853 63.578L75.1704 64.4598L74.9555 65.3415L74.7406 66.2233L74.5257 67.1051L74.3108 67.9868L74.0959 68.8686L73.8811 69.7503L73.6662 70.6321L73.4513 71.5138L73.2364 72.3956L73.0215 73.2773L72.8066 74.1591L72.5917 75.0408L72.5906 75.045L72.5895 75.0492L72.3668 75.9263L72.145 76.7991L71.9233 77.6719L71.7016 78.5447L71.4799 79.4175L71.2582 80.2904L71.0365 81.1632L71.0677 81.037L71.099 80.9021L70.9621 81.5576L70.7938 82.3576L70.6256 83.1576L70.4973 83.755L70.5092 83.6896L70.2224 84.4321L68.8773 79.6685L52.7663 80.8526L53.1883 80.6487L53.7273 79.902L54.2663 79.1551L54.8053 78.4083L55.3443 77.6616L55.8833 76.9147L55.8974 76.8402L55.9116 76.7693L56.6668 75.9494L57.4078 75.1969L58.1487 74.4444L58.8897 73.6919L59.6306 72.9394L60.3716 72.1869L61.1125 71.4344L65.3729 72.3653L65.7325 73.3582L66.0921 74.3512L66.4517 75.3441L66.8113 76.3371L67.1709 77.33L67.5304 78.323L67.9044 79.2485L67.9186 79.1777L67.9326 79.1031L68.1746 79.9917L68.4166 80.8804L68.6586 81.769L68.9006 82.6576L69.1426 83.5463L69.2675 84.9779L53.1565 86.1619L51.8114 81.3983L51.752 80.3367L51.7639 80.2714L51.9693 79.2682L52.1347 78.4676L52.3002 77.667L52.4969 76.7219L52.5282 76.5869L52.5594 76.4607L52.782 75.5881L53.0045 74.7155L53.227 73.8429L53.4495 72.9702L53.672 72.0976L53.8945 71.225L54.1159 70.3566L54.1149 70.3608L54.1138 70.365L54.3442 69.4871L54.5745 68.6093L54.8049 67.7315L55.0353 66.8536L55.2656 65.9758L55.496 65.0979L55.7264 64.2201L55.9568 63.3423L56.1871 62.4645L56.4175 61.5866L56.6479 60.7088L56.8782 59.8309L57.1086 58.9531L57.3429 58.0599L57.3469 58.0443L57.351 58.0284L57.583 57.1699L57.815 56.3113L58.047 55.4528L58.279 54.5942L58.511 53.7357L58.743 52.8771L58.975 52.0186L59.207 51.1601L59.4391 50.3015L59.6695 49.4491L59.6679 49.4553L59.6663 49.4614L59.8968 48.5956L60.1273 47.7298L60.3577 46.864L60.5882 45.9983L60.8187 45.1325L61.0492 44.2667L61.2796 43.4009L61.5101 42.5352L61.7367 41.6845L61.733 41.6994L61.7293 41.7141L61.9733 40.8326L62.2174 39.9511L62.4615 39.0696L62.7055 38.1881L62.9496 37.3066L63.1937 36.4251L63.4225 35.6053L63.4072 35.6688L63.392 35.7345L63.6268 34.8922L63.8617 34.0497L64.0965 33.2074L64.3909 32.1202L64.4882 31.7724L64.6662 31.243L65.1488 30.911L65.6313 30.5791H81.1028L80.8915 33.4524H79.9572L78.8141 34.3508H77.579H75.6506H74.9169L72.7139 34.6515Z" fill="black" style="fill:black;fill-opacity:1;"/>
<path d="M72.2555 34.7893V32.8093V31.5459L69.6992 31.6828L70.2661 31.141L70.833 30.5993L72.793 29.9736L75.1284 30.1227L77.6953 31.2377L78.437 31.5104L79.1787 31.783L79.8765 32.337L80.4672 32.9509L81.5268 34.1998L82.115 34.8159L82.7033 35.4319L83.2916 36.048L83.8799 36.6641L84.4682 37.2802L85.0565 37.8962L85.6448 38.5123L85.8365 38.8207L86.0075 39.1262L86.6095 40.1946L87.0603 40.9625L87.5112 41.7304L87.962 42.4983L88.4128 43.2662L88.8636 44.034L89.3145 44.8019L89.3814 44.946L89.4473 45.0955L89.8588 46.0283L90.2057 46.8062L90.5525 47.5841L90.8994 48.3621L91.2463 49.14L91.5931 49.9179L91.94 50.6958L92.2868 51.4737L92.3201 51.5569L92.3517 51.6386L92.7006 52.5398L93.0195 53.3609L93.3383 54.1821L93.6571 55.0032L93.9759 55.8243L94.2948 56.6454L94.6136 57.4666L94.9324 58.2877L94.9567 58.3543L94.9809 58.4221L95.2909 59.3022L95.5769 60.1131L95.8629 60.924L96.149 61.7349L96.435 62.5459L96.721 63.3568L97.007 64.1677L97.293 64.9787L97.2968 64.9896L97.3005 65.0007L97.5754 65.8126L97.8465 66.6133L98.1176 67.414L98.3886 68.2147L98.6597 69.0154L98.9308 69.816L99.2019 70.6168L99.1675 70.5169L99.1334 70.4216L99.4116 71.1769L99.7234 72.0231L100.035 72.8693L100.347 73.7156L100.659 74.5618L100.971 75.408L101.283 76.2542L101.289 76.2698L101.295 76.2873L101.381 77.0758L101.459 77.8443L101.405 78.2801L101.362 78.1778L100.187 79.5014L92.8092 83.0934L88.5981 84.9278L86.5362 84.6526L86.4923 84.5503L85.9209 83.5829L85.4807 82.9482L85.0479 82.3335L85.0544 82.351L85.0603 82.3666L84.7362 81.525L84.4121 80.6834L84.088 79.8418L83.7639 79.0002L83.4398 78.1586L83.1157 77.317L82.7579 76.3845L82.7239 76.2892L82.6895 76.1893L82.4199 75.3881L82.1504 74.5869L81.8809 73.7856L81.6114 72.9844L81.3418 72.1832L81.0723 71.382L80.8066 70.592L80.8103 70.6031L80.8141 70.614L80.5436 69.7977L80.2732 68.9815L80.0028 68.1652L79.7323 67.349L79.4619 66.5327L79.1915 65.7165L78.921 64.9002L78.6746 64.1531L78.6987 64.2209L78.7231 64.2875L78.4304 63.4567L78.1378 62.6259L77.8452 61.795L77.5525 60.9642L77.2599 60.1334L76.9673 59.3026L76.6746 58.4717L76.4121 57.7211L76.4438 57.8027L76.477 57.8859L76.184 57.0861L75.891 56.2864L75.5979 55.4866L75.3049 54.6868L75.0119 53.8871L74.7189 53.0873L74.4259 52.2876L74.1975 51.6427L74.2634 51.7922L74.3304 51.9363L74.0185 51.1022L73.7066 50.2682L73.3947 49.4342L73.0828 48.6001L72.7709 47.7661L72.459 46.9321L72.2983 46.3985L72.4693 46.704L72.661 47.0124L72.3317 46.2269L72.0023 45.4413L71.673 44.6557L71.3436 43.8701L71.0143 43.0845L70.6849 42.2989L70.3556 41.5133L70.4975 41.3605L71.0882 41.9744L71.786 42.5284L71.2663 41.9332L70.7465 41.338L72.0521 41.5852L74.3874 41.7342L76.3475 41.1086L75.5796 41.2672L74.8117 41.4259L72.2555 41.5627V40.2993V34.7893Z" fill="black" style="fill:black;fill-opacity:1;"/>
<path d="M68.4721 71.6743L67.8047 73.4967L66.7622 74.8674L65.9913 75.7089L60.4795 69.3989L66.0685 62.3251L66.9175 62.1694L68.6115 61.8365L69.4182 61.5578L70.2249 61.2791L71.0316 61.0004L71.2054 61.0022L71.3832 61.0077L72.3507 60.946L73.1367 60.8747L73.9227 60.8035L74.7087 60.7322L74.5246 60.7224L74.3366 60.7163L74.9017 60.6747L75.6585 60.6352L76.4154 60.5956L77.1722 60.5561L77.9291 60.5166L77.8356 60.517L77.7519 60.5183L78.5666 60.4867L79.4565 60.4534L80.3464 60.42L81.2363 60.3867L80.4668 60.4407L79.7085 60.5589L79.9094 60.7L80.8421 60.6635L81.7749 60.627L82.7076 60.5905L83.6403 60.554L84.5731 60.5175L84.4272 60.5609L84.2618 60.6139L85.1203 61.403L86.1675 62.1266L87.2148 62.8502L88.262 63.5738L90.7342 70.4131L90.3917 71.639L90.0492 72.865L89.7067 74.091L89.1754 75.3825L89.01 75.4355L88.8642 75.4788L88.0539 75.9423L87.2437 76.4057L86.4334 76.8691L85.6231 77.3326L84.8128 77.796L83.2708 78.437L82.5124 78.5551L81.743 78.6092L80.8526 78.6253L79.9622 78.6415L79.0718 78.6577L78.1062 78.6756L78.0226 78.6769L77.9291 78.6773L77.1722 78.6378L76.4154 78.5982L75.6585 78.5587L74.9017 78.5192L73.953 78.4776L73.765 78.4715L73.581 78.4617L72.8104 78.2914L72.0397 78.1211L71.2691 77.9508L70.6801 77.7901L70.8578 77.7957L71.0316 77.7975L70.2249 77.5188L69.4182 77.2401L68.6115 76.9614L68.692 76.6285L69.541 76.4727L74.4626 69.3989L69.6182 63.485L68.8473 64.3265L67.8047 65.6972L68.4721 71.6743Z" fill="black" style="fill:black;fill-opacity:1;"/>
<path d="M116.791 34.8532L114.86 34.5525H113.567L124.573 37.0181L124.857 36.1969L124.798 37.0671L124.739 37.9373L124.68 38.8075L124.622 39.6777L124.672 39.4777L124.715 39.2876L124.721 40.0502L124.693 40.9933L124.664 41.9363L124.635 42.8794L124.606 43.8224L124.578 44.7655L124.571 44.8012L124.564 44.8379L124.448 45.7669L124.338 46.6582L124.229 47.5495L124.12 48.4408L124.01 49.3321L123.901 50.2234L123.792 51.1147L123.682 52.006L123.573 52.8974L123.568 52.9233L123.563 52.9492L123.425 53.8612L123.292 54.7473L123.159 55.6334L123.026 56.5195L122.894 57.4056L122.761 58.2916L122.628 59.1777L122.495 60.0638L122.362 60.9498L122.23 61.836L122.097 62.722L121.964 63.6081L121.831 64.4942L121.699 65.3802L121.566 66.2663L121.433 67.1524L121.45 67.0668L121.467 66.981L121.358 67.7817L121.233 68.6684L121.109 69.5551L120.984 70.4418L120.86 71.3285L120.735 72.2152L120.611 73.1019L120.486 73.9886L120.361 74.8753L120.237 75.762L120.244 75.7228L120.251 75.6833L120.129 76.5186L120.001 77.3938L119.873 78.2689L119.745 79.1441L119.617 80.0193L119.489 80.8945L119.361 81.7696L119.381 81.642L119.399 81.5163L119.305 82.2935L119.194 83.1945L119.098 83.9788L119.103 83.9287L118.616 85.5461L100.142 83.216L100.742 82.4484L101.342 81.6808L101.942 80.9132L101.947 80.6301L101.961 80.3652L102.824 79.3556L103.664 78.5937L104.505 77.8318L105.345 77.0699L106.186 76.308L113.754 77.1064L114.417 78.0269L115.08 78.9474L115.743 79.8679L116.406 80.7884L117.091 81.4612L117.105 81.1962L117.111 80.9132L117.711 81.6808L118.31 82.4484L118.91 83.216L100.436 80.8858L99.9492 81.9019L99.9546 81.8518L100.081 80.8344L100.193 79.9337L100.321 78.9093L100.339 78.7835L100.359 78.6559L100.517 77.7856L100.675 76.9154L100.833 76.0451L100.991 75.1748L101.149 74.3045L101.307 73.4343L101.471 72.5241L101.478 72.4846L101.485 72.4454L101.672 71.5698L101.859 70.6942L102.046 69.8186L102.233 68.943L102.421 68.0674L102.608 67.1917L102.795 66.3161L102.982 65.4405L103.169 64.5649L103.372 63.6033L103.388 63.5175L103.406 63.4319L103.635 62.5657L103.863 61.6994L104.092 60.8332L104.321 59.9669L104.55 59.1007L104.779 58.2344L105.008 57.3682L105.237 56.502L105.466 55.6357L105.694 54.7695L105.923 53.9032L106.152 53.037L106.381 52.1707L106.61 51.3045L106.839 50.4382L107.062 49.5979L107.057 49.6239L107.052 49.6498L107.288 48.7834L107.524 47.9171L107.761 47.0507L107.997 46.1843L108.233 45.318L108.469 44.4516L108.705 43.5853L108.942 42.7189L109.17 41.8902L109.164 41.9269L109.157 41.9627L109.462 41.0698L109.767 40.177L110.072 39.2841L110.377 38.3913L110.682 37.4984L111.022 36.4252L111.064 36.2351L111.115 36.0351L111.502 35.2533L111.889 34.4716L112.275 33.6898L112.662 32.9081L112.946 32.0869L123.952 34.5525H122.659L116.791 34.8532Z" fill="black" style="fill:black;fill-opacity:1;"/>
<path d="M118.192 34.6515L117.312 34.3509H115.633H114.868L119.318 29.2046L125.065 34.3509L125.056 31.1804L125.445 31.0682L126.136 31.2549L126.072 31.1519L126.632 31.5213L127.23 31.953L127.113 31.7859L127.001 31.6351L127.538 32.1301L128.181 32.7616L128.824 33.3931L128.835 33.4071L128.846 33.4215L129.426 34.0864L129.994 34.7365L130.563 35.3866L131.131 36.0367L131.699 36.6868L132.268 37.3369L132.836 37.9871L133.404 38.6372L133.973 39.2873L134.056 39.3959L134.135 39.5016L134.766 40.3319L135.322 41.0596L135.879 41.7873L136.435 42.515L136.992 43.2426L137.548 43.9703L138.105 44.698L138.661 45.4257L139.217 46.1534L139.33 46.3148L139.439 46.4796L140.028 47.4165L140.511 48.1853L140.994 48.9542L141.476 49.723L141.959 50.4919L142.442 51.2608L142.924 52.0296L143.407 52.7985L143.89 53.5673L144.373 54.3362L144.855 55.105L145.338 55.8739L145.821 56.6428L146.303 57.4116L146.368 57.5186L146.433 57.629L146.929 58.5072L147.36 59.2717L147.79 60.0361L148.221 60.8005L148.652 61.565L149.082 62.3294L149.513 63.0938L149.943 63.8583L150.374 64.6227L150.805 65.3872L151.235 66.1516L151.666 66.916L152.097 67.6805L152.527 68.4449L152.533 68.4546L152.538 68.4642L152.983 69.2573L153.424 70.0409L153.864 70.8246L154.304 71.6082L154.744 72.3919L155.184 73.1755L155.624 73.9591L156.064 74.7428L156.504 75.5264L156.944 76.31L157.385 77.0937L157.825 77.8773L158.265 78.6609L158.207 78.5591L158.148 78.4572L158.554 79.109L159.021 79.863L159.488 80.617L159.955 81.3709L160.422 82.1249L160.89 82.8788L161.357 83.6328L161.204 83.3907L161.031 83.1336L161.307 83.4866L161.781 84.1118L162.255 84.7371L162.583 85.1732L161.024 83.6342L160.367 83.4311L148.328 85.2237L147.042 87.5996L146.405 89.7059L146.354 89.125L146.308 88.2238L146.263 87.3225L146.217 86.4213L146.171 85.5201L146.125 84.6188L146.079 83.7176L146.033 82.8163L146.033 81.915L146.033 81.0137L146.033 80.1123L146.032 79.211L146.032 78.3097L146.032 77.4084L146.031 76.507L146.031 75.6057L146.031 74.7044L146.031 73.8031L146.031 73.7212L146.032 73.6412L146.056 72.6319L146.078 71.7008L146.1 70.7698L146.122 69.8387L146.144 68.9077L146.166 67.9767L146.188 67.0457L146.21 66.1146L146.232 65.1836L146.254 64.2526L146.263 64.0018L146.28 63.7389L146.393 62.6021L146.482 61.7407L146.571 60.8794L146.66 60.018L146.749 59.1566L146.837 58.2952L146.926 57.4338L147.015 56.5724L147.104 55.7111L147.193 54.8497L147.196 54.8176L147.199 54.7866L147.304 53.8553L147.405 52.9541L147.507 52.0529L147.608 51.1517L147.709 50.2506L147.81 49.3494L147.912 48.4482L148.013 47.547L148.114 46.6458L148.216 45.7446L148.317 44.8434L148.418 43.9422L148.391 44.213L148.371 44.5077L148.38 44.0282L148.402 43.2277L148.425 42.4271L148.447 41.6266L148.469 40.8261L148.492 40.0255L148.49 40.1044L148.489 40.1832L148.537 39.4601L148.586 38.6582L148.635 37.8564L149.016 37.255L166.615 37.4567L164.636 38.3074L162.658 39.1582H154.302L152.324 38.3074L150.345 37.4567L167.944 37.255L168.325 37.8564L168.374 38.6582L168.423 39.4601L168.471 40.3406L168.47 40.4194L168.469 40.4983L168.453 41.299L168.437 42.0997L168.422 42.9003L168.406 43.701L168.391 44.5017L168.362 45.6234L168.341 45.9181L168.315 46.1889L168.212 47.09L168.11 47.9911L168.008 48.8922L167.906 49.7932L167.803 50.6943L167.701 51.5954L167.599 52.4965L167.497 53.3976L167.395 54.2987L167.292 55.1998L167.19 56.1009L167.091 56.9719L167.095 56.9408L167.098 56.9088L167.009 57.7702L166.919 58.6315L166.83 59.4928L166.74 60.3541L166.651 61.2154L166.562 62.0768L166.472 62.9381L166.383 63.7994L166.293 64.6608L166.229 65.2467L166.245 64.9838L166.254 64.733L166.232 65.6641L166.209 66.5951L166.186 67.5261L166.164 68.4571L166.141 69.3881L166.118 70.3192L166.096 71.2502L166.073 72.1812L166.05 73.1122L166.029 73.9649L166.03 73.8849L166.031 73.8031L166.03 74.7044L166.03 75.6057L166.03 76.507L166.029 77.4084L166.029 78.3097L166.029 79.211L166.029 80.1123L166.028 81.0137L166.028 81.915L166.028 82.8163L165.982 83.7176L165.936 84.6188L165.89 85.5201L165.844 86.4213L165.799 87.3225L165.753 88.2238L165.707 89.125L165.656 90.3466L165.019 94.2554L163.733 96.6313L151.475 99.6266L149.703 98.2208L148.144 96.6818L147.525 95.8657L147.053 95.2387L146.581 94.6117L145.911 93.7124L145.738 93.4553L145.586 93.2132L145.132 92.4512L144.678 91.6891L144.224 90.9271L143.77 90.165L143.316 89.403L142.863 88.641L142.348 87.7768L142.288 87.6749L142.231 87.5731L141.798 86.7856L141.365 85.9981L140.931 85.2106L140.498 84.4231L140.065 83.6356L139.632 82.8481L139.199 82.0606L138.766 81.2731L138.332 80.4856L137.899 79.6982L137.466 78.9107L137.033 78.1232L136.605 77.3451L136.61 77.3547L136.616 77.3645L136.188 76.5982L135.761 75.832L135.334 75.0657L134.906 74.2995L134.479 73.5333L134.051 72.767L133.624 72.0008L133.196 71.2346L132.769 70.4683L132.342 69.7021L131.914 68.9359L131.487 68.1696L131.059 67.4034L130.697 66.751L130.762 66.8614L130.827 66.9684L130.356 66.1924L129.884 65.4164L129.413 64.6405L128.942 63.8645L128.471 63.0886L128 62.3126L127.528 61.5367L127.057 60.7607L126.586 59.9847L126.115 59.2088L125.644 58.4328L125.172 57.6569L124.701 56.8809L124.336 56.273L124.446 56.4378L124.558 56.5992L124.052 55.8357L123.546 55.0722L123.04 54.3086L122.533 53.5451L122.027 52.7816L121.521 52.0181L121.015 51.2545L120.509 50.491L120.077 49.8301L120.156 49.9358L120.24 50.0445L119.745 49.337L119.249 48.6295L118.754 47.9221L118.259 47.2146L117.764 46.5071L117.269 45.7997L116.774 45.0922L116.279 44.3847L115.795 43.6921L115.807 43.7064L115.818 43.7205L115.349 42.9512L114.879 42.182L114.304 41.2762L114.192 41.1254L114.074 40.9583L113.782 40.0882L113.45 39.1559L113.386 39.0529L113.19 37.8389L113.579 37.5213L113.57 34.3509L119.318 39.4971L123.767 34.3509H123.002H121.323L118.192 34.6515Z" fill="black" style="fill:black;fill-opacity:1;"/>
<path d="M197.085 32.3757L196.417 34.8513V36.2927L198.415 36.93L200.545 35.3791L200.435 35.9665L200.325 36.5539L201.077 35.3992L201.454 34.4403L201.646 34.5277L201.67 35.3532L201.694 36.1787L201.719 37.0041L201.743 37.8296L201.767 38.6551L201.744 38.7882L201.72 38.9124L201.627 39.9282L201.559 40.8278L201.49 41.7274L201.422 42.627L201.353 43.5266L201.285 44.4262L201.216 45.3258L201.221 45.3061L201.225 45.2864L201.116 46.1608L201.003 47.0549L200.89 47.949L200.777 48.8431L200.664 49.7372L200.551 50.6313L200.438 51.5253L200.324 52.4194L200.211 53.3135L200.219 53.277L200.226 53.241L200.114 54.1183L199.994 55.031L199.874 55.9438L199.754 56.8565L199.634 57.7693L199.514 58.682L199.394 59.5948L199.274 60.5075L199.154 61.4202L199.034 62.333L199.045 62.2779L199.055 62.2207L198.956 63.0242L198.845 63.8873L198.735 64.7503L198.625 65.6133L198.514 66.4764L198.404 67.3394L198.293 68.2025L198.183 69.0655L198.073 69.9285L197.962 70.7916L197.852 71.6546L197.86 71.6059L197.868 71.5593L197.753 72.4364L197.63 73.3582L197.507 74.28L197.384 75.2018L197.262 76.1236L197.139 77.0454L197.016 77.9672L196.893 78.889L196.77 79.8108L196.647 80.7326L196.525 81.6544L196.402 82.5762L196.409 82.531L196.417 82.4798L196.32 83.1835L196.214 83.9455L196.109 84.7075L196.003 85.4695L195.897 86.2315L195.927 86.0108L195.952 85.7863L195.913 86.31L195.808 87.5292L195.446 89.2185L194.633 90.7476L179.847 92.5577L178.165 90.222L179.03 87.4979L180.315 85.6142L181.766 84.566L183.217 83.5177L184.668 82.4695L185.469 82.3634L187.142 82.9976L188.816 83.6317L190.49 84.2659L191.998 84.0645L193.086 83.0228L191.404 80.6871L177.286 82.4972L176.693 83.4249L176.33 85.1142L176.339 84.83L176.414 83.8503L176.439 83.6258L176.469 83.4051L176.584 82.6446L176.7 81.8841L176.816 81.1236L176.932 80.3631L177.056 79.5443L177.064 79.4931L177.072 79.4479L177.246 78.5344L177.42 77.6209L177.594 76.7074L177.768 75.7939L177.943 74.8804L178.117 73.967L178.291 73.0535L178.465 72.14L178.639 71.2265L178.814 70.313L178.988 69.3995L179.169 68.4414L179.177 68.3948L179.186 68.3461L179.379 67.4977L179.572 66.6492L179.765 65.8008L179.958 64.9524L180.15 64.104L180.343 63.2556L180.536 62.4072L180.729 61.5588L180.922 60.7104L181.115 59.862L181.319 58.9541L181.33 58.8969L181.34 58.8418L181.576 57.9519L181.812 57.062L182.048 56.1721L182.283 55.2822L182.519 54.3923L182.755 53.5024L182.991 52.6125L183.226 51.7226L183.462 50.8327L183.705 49.9073L183.712 49.8713L183.72 49.8348L183.978 48.9712L184.235 48.1076L184.493 47.244L184.751 46.3804L185.008 45.5169L185.266 44.6533L185.524 43.7897L185.781 42.9261L186.043 42.0429L186.047 42.0232L186.052 42.0035L186.366 41.1576L186.68 40.3118L186.994 39.4659L187.307 38.6201L187.621 37.7743L187.935 36.9284L188.225 36.1987L188.201 36.323L188.178 36.4561L188.461 35.6803L188.745 34.9046L189.028 34.1289L189.311 33.3531L189.595 32.5774L190.046 31.0636L190.423 30.1047L191.175 28.95L191.732 28.7343L192.29 28.5187L194.419 26.9678L196.417 27.6051V29.0465L197.085 32.3757Z" fill="black" style="fill:black;fill-opacity:1;"/>
<path d="M224.202 34.4535L223.824 34.3508L224.313 32.4502L224.179 32.0148L225.232 29.8122L229.101 38.6438L229.722 39.4548L228.922 41.0159L229.212 40.7898L228.974 41.2575L228.807 41.6316L228.307 42.3239L227.807 43.0163L227.307 43.7087L226.807 44.401L226.854 44.3528L226.899 44.3065L226.384 44.9796L225.827 45.6974L225.271 46.4151L224.714 47.1329L224.157 47.8506L223.6 48.5684L223.043 49.2861L223.051 49.2775L223.06 49.2687L222.508 49.9248L221.948 50.5901L221.388 51.2553L220.827 51.9206L220.267 52.5858L219.707 53.2511L219.147 53.9163L218.587 54.5815L218.026 55.2468L218.063 55.207L218.1 55.1675L217.563 55.8034L216.99 56.4786L216.418 57.1538L215.846 57.8289L215.273 58.5041L214.701 59.1792L214.128 59.8544L213.556 60.5295L212.983 61.2047L213.164 60.9993L213.335 60.7937L212.959 61.3316L212.422 62.0747L211.886 62.8177L211.349 63.5608L210.812 64.3039L210.275 65.0469L209.739 65.79L209.202 66.5331L208.665 67.2762L208.129 68.0192L207.592 68.7623L207.665 68.6653L207.745 68.5561L207.406 69.0788L206.978 69.7253L206.551 70.3718L206.653 70.2226L206.745 70.0849L206.376 70.723L205.926 71.4883L205.476 72.2536L205.226 72.6885L205.53 72.1208L205.83 71.6543L203.741 61.038L202.479 59.9155L202.265 59.6477L201.864 59.4141L201.781 59.3776L201.707 59.3457L202.441 59.6466L203.241 59.9756L204.04 60.3047L204.84 60.6337L205.64 60.9627L206.44 61.2917L206.464 61.302L206.489 61.3125L207.293 61.6564L208.071 61.9897L208.85 62.3229L209.629 62.6561L210.408 62.9894L211.187 63.3226L211.265 63.3566L211.342 63.3908L212.198 63.7824L212.977 64.1393L213.756 64.4962L214.535 64.8531L215.314 65.2099L216.093 65.5668L216.872 65.9237L217.218 66.0901L217.555 66.2688L218.622 66.9053L219.361 67.3516L220.099 67.7979L220.837 68.2441L221.575 68.6904L222.314 69.1366L223.052 69.5829L223.79 70.0291L224.528 70.4754L225.267 70.9216L226.005 71.3679L226.289 71.5464L226.556 71.7257L227.546 72.4555L228.288 73.0062L229.029 73.5568L229.77 74.1075L230.512 74.6581L231.253 75.2088L231.353 75.2841L231.459 75.3662L232.216 75.9795L232.859 76.5029L233.502 77.0263L234.145 77.5496L234.788 78.073L234.86 78.1315L234.929 78.1885L235.621 78.8604L236.248 79.4768L236.874 80.0933L236.801 80.0321L236.706 79.953L236.853 80.4079L236.715 80.6584L225.668 82.1214L222.977 88.1376L224.279 87.4891L225.589 86.909L226.892 86.0153L235.812 85.6236L237.188 86.3995L238.571 87.4891L239.947 88.5103L237.255 94.5265L225.989 95.9895L224.959 95.5396L224.216 95.2941L224.12 95.2151L224.048 95.1539L223.339 94.6336L222.631 94.1133L221.988 93.6485L222.057 93.7054L222.129 93.7639L221.481 93.2459L220.834 92.7278L220.186 92.2098L219.539 91.6918L219.004 91.2637L219.111 91.3459L219.211 91.4211L218.469 90.8705L217.728 90.3198L216.987 89.7692L216.245 89.2186L215.504 88.6679L215.012 88.2964L215.278 88.4758L215.563 88.6543L214.824 88.2085L214.086 87.7627L213.347 87.3169L212.609 86.8711L211.87 86.4253L211.132 85.9795L210.393 85.5337L209.655 85.0879L208.916 84.642L208.178 84.1962L207.768 83.9407L208.106 84.1195L208.451 84.2858L207.672 83.9282L206.893 83.5705L206.114 83.2129L205.336 82.8553L204.557 82.4976L203.778 82.14L203.076 81.817L203.153 81.8513L203.231 81.8852L202.453 81.5511L201.674 81.217L200.896 80.8829L200.118 80.5487L199.339 80.2146L198.586 79.8912L198.611 79.9016L198.635 79.9119L197.84 79.5723L197.044 79.2328L196.249 78.8932L195.454 78.5536L194.658 78.214L193.797 77.8463L193.723 77.8144L193.64 77.7779L191.904 76.9466L190.355 76.0811L189.094 74.9586L187.005 63.939L187.304 63.0691L187.609 62.5014L188.304 61.4347L188.8 60.6984L189.296 59.9621L189.874 59.0986L189.965 58.9609L190.068 58.8117L190.53 58.1895L190.992 57.5672L191.543 56.8212L191.623 56.712L191.696 56.615L192.272 55.9019L192.848 55.1889L193.424 54.4759L194 53.7629L194.576 53.0498L195.152 52.3368L195.729 51.6238L196.305 50.9108L196.881 50.1978L197.457 49.4847L198.194 48.5665L198.365 48.3609L198.545 48.1556L199.159 47.5179L199.773 46.8804L200.387 46.2427L201.001 45.6052L201.615 44.9676L202.229 44.33L202.843 43.6924L203.457 43.0548L204.107 42.378L204.143 42.3385L204.18 42.2987L204.806 41.6952L205.433 41.0917L206.059 40.4882L206.685 39.8847L207.311 39.2812L207.937 38.6777L208.564 38.0742L209.19 37.4707L209.825 36.8581L209.833 36.8492L209.841 36.8406L210.525 36.2425L211.208 35.6443L211.892 35.0462L212.576 34.448L213.259 33.8499L213.943 33.2517L214.669 32.609L214.714 32.5627L214.761 32.5145L215.447 32.0053L216.132 31.4961L216.818 30.987L217.503 30.4778L218.522 29.6504L219.47 28.9165L219.759 28.6904L220.521 29.2468L221.362 30.0578L225.232 38.8894L225.617 36.6868L225.483 36.2514L225.972 34.3508L224.202 34.4535Z" fill="black" style="fill:black;fill-opacity:1;"/>
<path d="M246.037 33.4076L245.703 34.4332L249.665 29.4873L250.636 28.9576L249.92 26.4434L250.123 26.591L251.103 27.0163L252.227 27.5635L253.13 27.9308L253.213 28.0022L253.297 28.0772L254.136 28.642L254.888 29.1281L255.641 29.6142L256.394 30.1003L257.147 30.5864L257.214 30.6496L257.284 30.7172L257.985 31.3065L258.612 31.8232L259.239 32.3399L259.867 32.8567L260.494 33.3734L261.121 33.8901L261.749 34.4068L261.797 34.4558L261.844 34.5036L262.508 35.1345L263.128 35.719L263.748 36.3034L264.368 36.8879L264.987 37.4723L265.607 38.0568L266.227 38.6412L266.384 38.8101L266.532 38.9772L267.248 39.8254L267.825 40.5085L268.402 41.1916L268.979 41.8747L269.556 42.5578L270.133 43.2409L270.71 43.924L271.287 44.6071L271.864 45.2902L272.251 45.7949L272.622 46.3547L273.337 47.7098L273.711 48.4531L274.084 49.1964L274.457 49.9398L274.831 50.6831L274.992 51.015L275.151 51.3795L275.44 52.521L275.576 53.2629L275.713 54.0049L275.849 54.7469L276.067 55.4519L276.231 56.2074L275.805 57.7452L275.28 58.4911L264.409 58.5455L260.181 59.677L259.546 59.0221L259.009 59.1592L259.174 59.9146L259.392 60.6197L259.028 59.9591L258.664 59.2984L258.299 58.6378L258.088 58.3767L258.247 58.7412L258.408 59.0731L258.025 58.335L257.641 57.5969L257.258 56.8588L256.874 56.1207L256.833 55.9944L257.203 56.5541L257.591 57.0589L257.03 56.3624L256.47 55.6659L255.909 54.9695L255.348 54.273L254.788 53.5765L254.227 52.8801L253.666 52.1836L253.106 51.4871L252.684 50.9557L252.833 51.1228L252.99 51.2917L252.434 50.6462L251.878 50.0006L251.323 49.3551L250.767 48.7096L250.211 48.064L249.655 47.4185L249.144 46.8195L249.191 46.8672L249.239 46.9162L248.723 46.2889L248.206 45.6615L247.689 45.0342L247.172 44.4068L246.656 43.7795L246.139 43.1521L245.696 42.5974L245.766 42.665L245.833 42.7281L245.295 42.0115L244.757 41.2948L244.219 40.5782L243.681 39.8615L243.229 39.2236L243.313 39.2986L243.396 39.37L242.889 38.537L242.602 37.8838L242.171 37.1089L242.374 37.2565L240.771 34.3389L241.742 33.8092L245.703 28.8633L246.037 33.4076Z" fill="black" style="fill:black;fill-opacity:1;"/>
<path d="M289.649 20.2326L290.096 19.7627L291.618 19.1613L292.407 17.4111L296.52 24.7758L296.446 24.9955L296.463 25.9409L296.43 27.0083L296.473 27.8803L296.293 28.2919L296.106 28.6616L295.56 29.8244L295.204 30.6565L294.847 31.4885L294.491 32.3205L294.134 33.1525L293.778 33.9846L293.788 33.968L293.798 33.9516L293.378 34.7396L292.949 35.5438L292.519 36.348L292.09 37.1523L291.66 37.9565L291.231 38.7608L290.801 39.565L290.372 40.3693L289.943 41.1735L289.513 41.9777L289.084 42.782L288.654 43.5862L288.225 44.3905L287.795 45.1947L287.366 45.999L286.936 46.8032L286.507 47.6074L286.078 48.4117L285.648 49.2159L285.219 50.0202L284.789 50.8244L284.36 51.6287L284.407 51.548L284.453 51.4677L284.063 52.207L283.628 53.026L283.193 53.845L282.757 54.664L282.322 55.4829L281.887 56.3019L281.452 57.1209L281.017 57.9399L280.582 58.7588L280.146 59.5778L279.711 60.3968L279.276 61.2158L278.841 62.0347L278.406 62.8537L277.97 63.6727L277.535 64.4916L277.1 65.3106L276.665 66.1296L276.23 66.9486L275.794 67.7676L275.359 68.5865L275.417 68.4814L275.475 68.3729L275.142 69.0633L274.751 69.8659L274.361 70.6684L273.971 71.471L273.58 72.2735L273.19 73.0761L272.799 73.8786L272.409 74.6812L272.018 75.4837L271.628 76.2863L271.237 77.0888L270.847 77.8914L270.456 78.6939L270.066 79.4965L269.675 80.299L269.285 81.1016L268.894 81.9041L268.504 82.7067L268.113 83.5092L268.138 83.4602L268.162 83.4117L267.803 84.1892L267.42 85.0148L267.038 85.8403L266.655 86.6659L266.272 87.4915L265.89 88.3171L265.507 89.1426L265.124 89.9682L264.742 90.7938L264.359 91.6193L263.976 92.4449L263.594 93.2705L263.611 93.2348L263.629 93.198L263.288 93.9499L262.93 94.7399L262.571 95.5299L262.213 96.32L261.854 97.11L261.496 97.9L261.526 97.8366L261.555 97.7726L261.235 98.4939L260.886 99.2798L260.536 100.066L260.187 100.852L259.837 101.637L259.592 102.184L259.627 102.099L259.412 102.599L243.119 106.133L239.969 97.5029L240.846 96.0813L241.581 95.4556L241.744 94.8306L241.932 94.2756L243.227 93.2973L244.32 92.8086L245.414 92.3199L246.507 91.8312L247.6 91.3425L248.693 90.8538L249.786 90.365L255.417 92.891L255.779 94.0325L256.141 95.174L256.503 96.3155L256.865 97.4569L257.227 98.5984L257.589 99.7399L258.153 100.392L258.341 99.8368L258.504 99.2119L258.905 100.09L259.449 100.171L256.298 91.5416L240.005 95.0755L240.238 94.1744L240.273 94.0897L240.731 93.0666L241.086 92.283L241.441 91.4995L241.795 90.716L242.15 89.9324L242.534 89.0843L242.563 89.0203L242.593 88.9569L242.977 88.1787L243.36 87.4005L243.744 86.6223L244.127 85.8442L244.511 85.066L244.912 84.2497L244.93 84.2128L244.947 84.1772L245.362 83.3673L245.777 82.5574L246.192 81.7476L246.607 80.9377L247.022 80.1278L247.436 79.318L247.851 78.5081L248.266 77.6982L248.681 76.8884L249.096 76.0785L249.511 75.2686L249.949 74.4107L249.973 74.3622L249.998 74.3132L250.415 73.5243L250.833 72.7354L251.25 71.9465L251.668 71.1576L252.085 70.3687L252.502 69.5799L252.92 68.791L253.337 68.0021L253.755 67.2132L254.172 66.4243L254.589 65.6354L255.007 64.8466L255.424 64.0577L255.842 63.2688L256.259 62.4799L256.676 61.691L257.094 60.9021L257.511 60.1132L257.986 59.2122L258.044 59.1037L258.102 58.9986L258.567 58.1964L259.033 57.3943L259.498 56.5921L259.964 55.79L260.429 54.9879L260.895 54.1857L261.36 53.3836L261.826 52.5814L262.291 51.7793L262.756 50.9771L263.222 50.175L263.687 49.3728L264.153 48.5707L264.618 47.7685L265.084 46.9664L265.549 46.1642L266.015 45.3621L266.48 44.56L266.946 43.7578L267.411 42.9557L267.921 42.0738L267.968 41.9936L268.015 41.9129L268.516 41.1514L269.018 40.3899L269.519 39.6284L270.02 38.8668L270.521 38.1053L271.023 37.3438L271.524 36.5822L272.025 35.8207L272.527 35.0592L273.028 34.2977L273.529 33.5361L274.031 32.7746L274.532 32.0131L275.033 31.2516L275.534 30.49L276.036 29.7285L276.537 28.967L277.038 28.2055L277.54 27.444L278.041 26.6824L278.542 25.9209L279.053 25.1431L279.063 25.1267L279.073 25.1101L279.643 24.407L280.213 23.7038L280.783 23.0006L281.353 22.2974L281.923 21.5942L282.304 21.2219L282.117 21.5915L281.937 22.0031L282.574 21.4059L283.135 21.0041L283.746 20.4803L283.672 20.7L287.786 27.6613L288.575 25.9112L290.096 25.3097L289.649 20.2326Z" fill="black" style="fill:black;fill-opacity:1;"/>
<path d="M329.937 8.41835L328.419 7.91965H327.086H326L325.155 7.61896L331.37 0.464092V0L339.275 7.91965L339.351 8.58703L339.426 9.2544L339.501 9.92178L339.585 10.8224L339.669 11.723L339.753 12.6235L339.836 13.5241L339.92 14.4247L339.947 15.3527L339.974 16.2807L340.001 17.2087L340.028 18.1366L340.055 19.0646L340.082 19.9926L340.109 20.9205L340.136 21.8485L340.162 22.7765L340.189 23.7044L340.216 24.6324L340.243 25.5604L340.27 26.4884L340.297 27.4163L340.324 28.3443L340.343 29.2588L340.362 30.1733L340.381 31.0879L340.4 32.0024L340.42 32.9169L340.439 33.8314L340.458 34.746L340.477 35.6605L340.496 36.575L340.515 37.4896L340.534 38.4041L340.553 39.3186L340.572 40.2331L340.591 41.1477L340.611 42.0622L340.61 42.099L340.61 42.1354L340.619 43.103L340.629 44.0346L340.638 44.9662L340.647 45.8979L340.657 46.8295L340.666 47.7611L340.675 48.6927L340.685 49.6244L340.694 50.556L340.703 51.4876L340.703 51.5057L340.703 51.5242L340.708 52.4307L340.714 53.3179L340.72 54.2052L340.726 55.0924L340.732 55.9797L340.738 56.867L340.744 57.7542L340.744 57.7698L340.744 57.7853L340.736 58.702L340.729 59.6034L340.721 60.5048L340.714 61.4061L340.707 62.3074L340.699 63.2088L340.692 64.1102L340.685 65.0115L340.677 65.9129L340.67 66.8142L340.663 67.7155L340.664 67.6465L340.665 67.5734L340.667 68.3218L340.67 69.1478L340.672 69.9737L340.674 70.7997L340.675 71.4011L340.677 72.0024V72.1015H340.7L333.061 62.5344L330.926 62.2934L331.37 62.3106L332.037 62.3116L332.704 62.3125L333.372 62.3135L333.138 62.3162L332.929 62.3235L333.518 62.2742L334.297 62.2145L335.076 62.1547L335.854 62.095L334.877 62.2077L333.946 62.4093L333.86 62.3921L334.637 62.1002L335.414 61.8083L336.191 61.5164L336.969 61.2245L337.746 60.9327L338.523 60.6408L339.3 60.3489L339.291 60.3522L339.282 60.3556L340.033 60.075L340.793 59.791L341.553 59.507L342.314 59.2229L343.074 58.9389L343.834 58.6549L343.829 58.6565L343.825 58.6581L344.63 58.3816L345.439 58.1037L346.248 57.8257L347.058 57.5478L347.867 57.2698L348.093 57.1884L348.329 57.1098L349.401 56.9703L350.227 56.9058L351.053 56.8413L351.879 56.7768L352.067 56.7244L352.242 56.6797L353.423 57.0094L354.442 57.3775L355.46 57.7455L356.479 58.1135L356.419 58.1273L356.354 58.1429L357.617 60.1241L358.95 62.0876L360.083 66.4943L359.862 68.8575L359.57 71.2384L359.505 71.254L359.446 71.2678L358.684 72.0373L357.922 72.8069L357.16 73.5764L356.561 74.3077L356.736 74.263L356.924 74.2106L356.192 74.5971L355.459 74.9836L354.726 75.3701L354.24 75.6817L354.477 75.6031L354.703 75.5217L353.91 75.8436L353.117 76.1656L352.325 76.4875L351.532 76.8095L350.736 77.1329L350.731 77.1345L350.727 77.1361L349.967 77.4193L349.206 77.7024L348.446 77.9855L347.685 78.2686L346.925 78.5518L346.155 78.8383L346.146 78.8417L346.137 78.845L345.357 79.1288L344.577 79.4127L343.796 79.6965L343.016 79.9803L342.236 80.2641L341.456 80.548L340.675 80.8318L339.032 81.3902L338.101 81.5919L337.123 81.7045L336.343 81.7456L335.564 81.7867L334.784 81.8279L333.815 81.8794L333.605 81.8867L333.372 81.8894L332.704 81.8904L332.037 81.8913L331.37 81.8923L330.926 81.9095L328.791 81.6685L321.152 72.1015H321.175V72.0024L321.177 71.4011L321.178 70.7997L321.18 69.9737L321.182 69.1478L321.185 68.3218L321.187 67.4182L321.188 67.3451L321.189 67.2761L321.223 66.3753L321.256 65.4746L321.289 64.5738L321.323 63.673L321.356 62.7723L321.389 61.8715L321.423 60.9707L321.456 60.07L321.489 59.1692L321.523 58.2684L321.556 57.383L321.555 57.3985L321.555 57.4142L321.593 56.5277L321.63 55.6412L321.667 54.7547L321.705 53.8682L321.742 52.9818L321.78 52.0953L321.817 51.228L321.816 51.2466L321.816 51.2646L321.847 50.3334L321.879 49.4023L321.91 48.4711L321.942 47.54L321.973 46.6088L322.004 45.6777L322.036 44.7465L322.067 43.8154L322.098 42.8842L322.129 41.989L322.129 42.0254L322.129 42.0622L322.148 41.1477L322.167 40.2331L322.186 39.3186L322.205 38.4041L322.224 37.4896L322.244 36.575L322.263 35.6605L322.282 34.746L322.301 33.8314L322.32 32.9169L322.339 32.0024L322.358 31.0879L322.377 30.1733L322.396 29.2588L322.415 28.3443L322.442 27.4163L322.469 26.4884L322.496 25.5604L322.523 24.6324L322.55 23.7044L322.577 22.7765L322.604 21.8485L322.631 20.9205L322.658 19.9926L322.685 19.0646L322.712 18.1366L322.739 17.2087L322.765 16.2807L322.792 15.3527L322.819 14.4247L322.903 13.5241L322.987 12.6235L323.071 11.723L323.154 10.8224L323.238 9.92178L323.313 9.2544L323.389 8.58703L323.464 7.91965L331.37 15.2379V14.7738L337.585 7.61896L336.739 7.91965H335.653H334.321L329.937 8.41835Z" fill="black" style="fill:black;fill-opacity:1;"/>
<path d="M370.828 24.5381L369.883 24.0394H367.94H366.9L366.066 23.9404H377.427L377.805 24.708L378.183 25.4756L378.562 26.2432L378.729 27.0441L378.897 27.8449L379.065 28.6458L379.233 29.4467L379.401 30.2475L379.472 31.0773L379.543 31.907L379.615 32.7368L379.686 33.5666L379.757 34.3963L379.829 35.2261L379.9 36.0559L379.953 36.9071L380.006 37.7582L380.06 38.6094L380.113 39.4606L380.167 40.3118L380.22 41.163L380.273 42.0141L380.327 42.8653L380.36 43.6913L380.393 44.5173L380.425 45.3432L380.458 46.1692L380.491 46.9952L380.524 47.8211L380.557 48.6471L380.59 49.4731L380.589 49.6092L380.586 49.743L380.56 50.7208L380.538 51.5669L380.517 52.413L380.495 53.2591L380.474 54.1052L380.452 54.9513L380.431 55.7975L380.409 56.6436L380.388 57.4897L380.389 57.465L380.39 57.4389L380.364 58.1878L380.336 58.9643L380.309 59.7407L380.281 60.5172L380.271 60.7299L380.254 60.9636L380.145 61.8874L380.061 62.5537L379.977 63.22L379.983 63.1636L379.99 63.1029L379.821 63.6261L379.633 64.3457L378.144 65.146L367.581 64.116L362.922 63.436L361.66 62.4323L361.582 61.9528L361.523 61.2769L361.53 61.2162L361.536 61.1598L361.601 60.4913L361.666 59.8229L361.706 59.4119L361.689 59.6456L361.679 59.8583L361.707 59.0819L361.734 58.3054L361.762 57.5289L361.79 56.7249L361.791 56.6988L361.792 56.6741L361.845 55.8294L361.898 54.9847L361.95 54.1399L362.003 53.2952L362.056 52.4504L362.108 51.6057L362.161 50.761L362.214 49.9162L362.262 49.2031L362.259 49.337L362.258 49.4731L362.29 48.6471L362.323 47.8211L362.356 46.9952L362.389 46.1692L362.422 45.3432L362.455 44.5173L362.488 43.6913L362.521 42.8653L362.574 42.0141L362.628 41.163L362.681 40.3118L362.734 39.4606L362.788 38.6094L362.841 37.7582L362.895 36.9071L362.948 36.0559L363.019 35.2261L363.09 34.3963L363.162 33.5666L363.233 32.7368L363.304 31.907L363.376 31.0773L363.447 30.2475L363.615 29.4467L363.783 28.6458L363.95 27.8449L364.118 27.0441L364.286 26.2432L364.664 25.4756L365.043 24.708L365.421 23.9404H376.782L375.948 24.0394H374.908H372.965L370.828 24.5381Z" fill="black" style="fill:black;fill-opacity:1;"/>
<path d="M395.456 28.025L396.01 27.3632V26.111V24.9561V23.7729L401.746 28.4433L402.187 29.1119L402.627 29.7805L403.067 30.4491L403.312 31.375L403.557 32.3009L403.802 33.2268L404.047 34.1527L404.141 34.9824L404.235 35.8122L404.328 36.642L404.422 37.4717L404.516 38.3015L404.61 39.1313L404.703 39.961L404.755 40.8493L404.807 41.7376L404.859 42.626L404.911 43.5143L404.963 44.4026L405.015 45.2909L405.067 46.1792L405.119 47.0675L405.115 47.3261L405.104 47.5949L405.036 48.7107L404.989 49.5475L404.942 50.3843L404.896 51.2212L404.849 52.058L404.802 52.8949L404.755 53.7317L404.708 54.5686L404.661 55.4054L404.669 55.312L404.675 55.2244L404.634 56.0642L404.587 56.9862L404.54 57.9082L404.493 58.8303L404.446 59.7523L404.4 60.6743L404.353 61.5963L404.306 62.5184L404.259 63.4404L404.212 64.3624L404.213 64.3467L404.214 64.3294L404.172 65.1113L404.128 65.9121L404.085 66.713L404.041 67.5139L403.998 68.3148L403.998 68.3124L403.998 68.3097L403.947 69.0065L403.896 69.7061L403.85 70.293L403.767 71.2068L403.287 72.1215L395.056 77.4838L389.607 75.765L389.591 72.4089L390.779 70.3326L396.789 68.2672L398.424 67.4927L398.856 65.4383L393.407 63.7195L385.616 68.8765L385.136 68.5885L385.053 69.5023L385.083 68.6884L385.107 67.9872L385.132 67.2832L385.132 67.2806L385.132 67.2782L385.177 66.4774L385.221 65.6766L385.266 64.8757L385.311 64.0749L385.356 63.2551L385.357 63.2378L385.358 63.222L385.423 62.3011L385.487 61.3801L385.552 60.4592L385.617 59.5382L385.681 58.6173L385.746 57.6963L385.81 56.7753L385.875 55.8544L385.94 54.9334L386.009 53.9302L386.016 53.8427L386.024 53.7492L386.125 52.9172L386.227 52.0852L386.328 51.2532L386.429 50.4212L386.531 49.5892L386.632 48.7572L386.734 47.9252L386.835 47.0932L386.916 46.5401L386.904 46.8089L386.901 47.0675L386.953 46.1792L387.005 45.2909L387.057 44.4026L387.108 43.5143L387.16 42.626L387.212 41.7376L387.264 40.8493L387.316 39.961L387.41 39.1313L387.504 38.3015L387.598 37.4717L387.691 36.642L387.785 35.8122L387.879 34.9824L387.973 34.1527L388.218 33.2268L388.462 32.3009L388.707 31.375L388.952 30.4491L389.393 29.7805L389.833 29.1119L390.273 28.4433L396.01 33.1136V31.9305V30.7756V29.5233L395.456 28.025Z" fill="black" style="fill:black;fill-opacity:1;"/>
<path d="M394.566 30.8228V28.648L390.815 31.1494H389.763L388.906 31.0467H388.185L396.943 24.356L398.017 24.6489L399.706 25.5033L399.974 25.7234L400.824 26.2802L401.887 27.0506L402.625 27.5092L402.674 27.559L402.721 27.6079L403.432 28.2353L404.099 28.8147L404.765 29.3941L405.431 29.9735L406.098 30.5529L406.235 30.7031L406.364 30.8512L407.108 31.6842L407.729 32.3712L408.351 33.0583L408.973 33.7453L409.594 34.4323L410.216 35.1194L410.837 35.8064L411.459 36.4935L412.081 37.1805L412.702 37.8675L413.324 38.5546L413.946 39.2416L414.14 39.4889L414.331 39.7496L415.015 40.7614L415.514 41.499L416.013 42.2365L416.512 42.9741L417.011 43.7117L417.509 44.4493L418.008 45.1869L418.507 45.9244L419.006 46.662L419.505 47.3996L420.004 48.1372L420.078 48.2537L420.153 48.3739L420.665 49.2393L421.103 49.9805L421.541 50.7217L421.979 51.4629L422.417 52.2042L422.855 52.9454L423.293 53.6866L423.731 54.4278L424.169 55.169L424.607 55.9103L425.045 56.6515L425.483 57.3927L425.481 57.3886L425.478 57.3845L425.922 58.1359L426.367 58.8914L426.812 59.6468L427.258 60.4023L427.703 61.1577L428.149 61.9132L428.594 62.6686L429.04 63.4241L429.485 64.1796L429.931 64.935L430.376 65.6904L430.218 65.4308L430.053 65.1802L430.412 65.6647L430.941 66.3903L431.47 67.1159L431.999 67.8416L432.528 68.5672L433.057 69.2928L433.586 70.0184L434.115 70.7441L434.644 71.4697L435.172 72.1953L435.701 72.921L436.23 73.6466L435.866 73.1779L435.476 72.7372L435.734 72.954L436.402 73.5792L437.07 74.2044L437.739 74.8296L436.489 73.8469L434.777 72.9626L433.399 72.5124L434.122 72.6118L429.809 73.0298L425.596 75.9911L424.07 78.4594L424.235 77.6663L424.4 76.8733L424.565 76.0802L424.437 76.5752L424.343 77.0358L424.375 76.5507L424.473 75.639L424.571 74.7273L424.669 73.8156L424.767 72.9039L424.865 71.9922L424.963 71.0805L425.061 70.1688L425.159 69.2571L425.257 68.3454L425.355 67.4336L425.453 66.5219L425.551 65.6102L425.538 65.7164L425.526 65.8236L425.6 65.0306L425.687 64.1294L425.773 63.2282L425.859 62.327L425.945 61.4258L426.031 60.5246L426.118 59.6234L426.204 58.7222L426.29 57.8209L426.376 56.9197L426.372 56.9648L426.368 57.0107L426.435 56.1779L426.506 55.2984L426.577 54.4189L426.649 53.5395L426.72 52.66L426.791 51.7805L426.863 50.901L426.934 50.0215L427.005 49.142L426.997 49.2462L426.99 49.3488L427.031 48.549L427.078 47.648L427.125 46.7469L427.171 45.8459L427.218 44.9448L427.265 44.0438L427.312 43.1427L427.304 43.3138L427.3 43.4877L427.298 42.7837L427.297 41.9029L427.296 41.0221L427.296 40.1414L427.295 39.2606L427.318 38.3927L427.341 37.5249L427.372 37.0556L427.442 37.8908L427.958 38.8633L444.355 39.5821L444.695 38.501L442.714 38.2227L440.631 38.3654L433.051 37.7503L431.082 36.4922L429.215 34.8132L429.555 33.732L446.172 34.2455L446.908 35.4233L446.978 36.2586L447.009 37.5249L447.032 38.3927L447.055 39.2606L447.054 40.1414L447.053 41.0221L447.053 41.9029L447.052 42.7837L447.05 43.8413L447.046 44.0153L447.038 44.1863L446.989 45.0873L446.941 45.9883L446.892 46.8892L446.844 47.7902L446.796 48.6912L446.747 49.5922L446.693 50.5943L446.686 50.697L446.677 50.8011L446.6 51.6801L446.523 52.5591L446.446 53.4382L446.369 54.3172L446.292 55.1962L446.215 56.0752L446.138 56.9541L446.061 57.8331L445.98 58.7588L445.976 58.8047L445.972 58.8498L445.88 59.7505L445.789 60.6512L445.698 61.5519L445.607 62.4526L445.515 63.3533L445.424 64.254L445.333 65.1547L445.241 66.0554L445.15 66.9561L445.047 67.9651L445.035 68.0723L445.022 68.1785L444.88 69.0844L444.738 69.9904L444.596 70.8963L444.455 71.8023L444.313 72.7082L444.171 73.6141L444.03 74.5201L443.888 75.426L443.746 76.332L443.604 77.2379L443.463 78.1439L443.321 79.0498L443.113 80.3824L443.019 80.843L442.891 81.338L442.611 82.0979L442.33 82.8578L442.05 83.6177L440.078 87.6388L435.865 90.6001L431.552 91.0181L430.83 90.9159L428.007 90.264L426.295 89.3797L425.046 88.397L424.378 87.7718L423.709 87.1466L423.041 86.5214L421.963 85.4877L421.572 85.0471L421.208 84.5784L420.68 83.8519L420.152 83.1254L419.625 82.399L419.097 81.6725L418.569 80.946L418.041 80.2196L417.513 79.4931L416.986 78.7666L416.458 78.0402L415.93 77.3137L415.402 76.5872L414.705 75.6196L414.54 75.369L414.382 75.1094L413.937 74.3534L413.493 73.5974L413.048 72.8414L412.603 72.0855L412.159 71.3295L411.714 70.5735L411.27 69.8175L410.825 69.0615L410.381 68.3056L409.936 67.5496L409.489 66.7896L409.487 66.7855L409.484 66.7814L409.051 66.0375L408.617 65.2936L408.184 64.5498L407.75 63.8059L407.317 63.062L406.883 62.3181L406.45 61.5742L406.016 60.8304L405.583 60.0865L405.149 59.3426L404.716 58.5988L404.357 57.979L404.431 58.0993L404.505 58.2157L404.034 57.4606L403.562 56.7054L403.09 55.9502L402.618 55.195L402.146 54.4398L401.674 53.6846L401.203 52.9295L400.731 52.1743L400.259 51.4191L399.787 50.6639L399.501 50.1829L399.691 50.4437L399.886 50.6909L399.339 49.943L398.792 49.195L398.245 48.4471L397.698 47.6991L397.151 46.9512L396.604 46.2033L396.058 45.4553L395.511 44.7074L394.964 43.9594L394.417 43.2115L393.87 42.4636L393.445 41.8615L393.574 42.0097L393.711 42.1598L393.176 41.4573L392.642 40.7547L392.107 40.0522L391.572 39.3497L391.082 38.6952L391.129 38.7441L391.178 38.7938L390.73 38.0497L390.608 37.6173L390.272 36.9714L390.54 37.1915L391.114 37.4446L392.189 37.7375L400.947 31.0467H400.225L399.368 31.1494H398.316L394.566 33.6507V30.8228Z" fill="black" style="fill:black;fill-opacity:1;"/>
<path d="M455.756 28.5295L456.09 27.6898V26.2856L460.109 26.4682L461.014 27.8133L461.496 28.5107L461.979 29.2081L462.462 29.9055L462.944 30.6029L463.427 31.3004L463.909 31.9978L464.391 32.6952L464.874 33.3926L465.357 34.09L465.572 34.5972L465.739 35.1008L466.176 36.4375L466.49 37.2839L466.805 38.1303L467.12 38.9767L467.435 39.8231L467.75 40.6694L468.065 41.5158L468.38 42.3622L468.695 43.2086L469.01 44.055L469.324 44.9014L469.388 45.2449L469.437 45.5829L469.62 46.8309L469.771 47.7481L469.921 48.6652L470.071 49.5823L470.222 50.4994L470.372 51.4166L470.522 52.3337L470.673 53.2508L470.823 54.1679L470.837 54.3656L470.846 54.5623L470.908 55.692L470.965 56.626L471.022 57.5601L471.079 58.4941L471.137 59.4282L471.194 60.3622L471.251 61.2963L471.308 62.2303L471.365 63.1644L471.366 63.2034L471.366 63.245L471.389 64.135L471.412 64.9804L471.435 65.8259L471.458 66.6713L471.481 67.5167L471.504 68.3622L471.527 69.2076L471.55 70.053L471.572 70.8984L471.583 71.7429L471.594 72.5873L471.604 73.4317L471.615 74.2762L471.626 75.1206L471.636 75.965L471.647 76.8095L471.646 77.7306L471.646 78.6517L471.645 79.5728L471.645 80.494L471.644 81.4151L471.5 83.069L470.974 84.564L460.949 90.3692L456.332 88.4651L455.071 84.8054L455.354 82.6143L456.114 81.4931L456.873 80.3719L457.633 79.2507L463.002 77.3677L464.296 77.769L465.589 78.1703L466.882 78.5717L467.7 77.9031L466.972 75.7659L462.356 73.8618L453.225 79.667L452.699 79.7612L452.555 81.4151L452.555 80.494L452.554 79.5728L452.553 78.6517L452.553 77.7306L452.552 76.8095L452.563 75.965L452.574 75.1206L452.584 74.2762L452.595 73.4317L452.605 72.5873L452.616 71.7429L452.627 70.8984L452.65 70.053L452.673 69.2076L452.695 68.3622L452.718 67.5167L452.741 66.6713L452.764 65.8259L452.787 64.9804L452.81 64.135L452.833 63.3342L452.833 63.3758L452.834 63.4148L452.866 62.4796L452.898 61.5443L452.93 60.609L452.962 59.6738L452.993 58.7385L453.025 57.8033L453.057 56.868L453.089 55.9328L453.126 55.1931L453.135 55.3899L453.149 55.5875L453.151 54.6581L453.153 53.7288L453.155 52.7994L453.157 51.87L453.159 50.9407L453.161 50.0113L453.163 49.0819L453.165 48.1526L453.201 47.5542L453.249 47.8922L453.313 48.2356L453.264 47.3339L453.214 46.4322L453.165 45.5305L453.116 44.6288L453.067 43.727L453.018 42.8253L452.969 41.9236L452.92 41.0218L452.87 40.1201L452.821 39.2184L452.894 38.807L453.061 39.3106L453.276 39.8177L453.042 39.0028L452.807 38.1878L452.572 37.3728L452.338 36.5579L452.103 35.7429L451.869 34.9279L451.634 34.1129L451.4 33.298L451.165 32.483L452.07 33.828L456.09 34.0106V32.6065L455.756 28.5295Z" fill="black" style="fill:black;fill-opacity:1;"/>
<path d="M458.586 34.593L459.188 37.7101L459.462 38.319L462.627 31.4425L457.169 27.8367L457.943 27.6204L458.717 27.4041L459.491 27.1879L460.264 26.9716L461.038 26.7553L460.982 26.757L460.926 26.7591L461.665 26.5696L462.458 26.3776L463.251 26.1855L464.044 25.9934L464.838 25.8014L464.829 25.8019L464.821 25.8023L465.74 25.6508L466.666 25.4989L467.593 25.347L468.519 25.1952L469.445 25.0433L470.372 24.8914L471.298 24.7395L472.225 24.5877L472.208 24.5886L472.19 24.5896L473.003 24.5014L473.835 24.4122L474.667 24.3229L475.499 24.2337L476.331 24.1444L477.163 24.0552L477.206 24.0527L477.248 24.0505L478.178 24.0042L479.068 23.9599L479.958 23.9155L480.848 23.8712L481.738 23.8269L481.791 23.8246L481.843 23.8228L482.816 23.9269L483.737 24.0325L484.658 24.1381L485.579 24.2438L486.253 24.254L486.974 24.3282L488.41 25.1847L489.091 25.8915L489.771 26.5983L490.452 27.3052L487.592 38.7998L486.659 39.1051L485.726 39.4104L484.794 39.7157L484.616 40.1707L485.337 40.2449L486.011 40.2551L485.097 40.4102L484.183 40.5654L483.269 40.7205L482.406 40.8741L482.458 40.8723L482.511 40.87L481.62 40.9064L480.729 40.9427L479.839 40.979L478.949 41.0153L478.098 41.0498L478.14 41.0476L478.183 41.0451L477.347 41.0561L476.51 41.0671L475.673 41.078L474.837 41.089L474 41.1L473.145 41.1121L473.127 41.1131L473.111 41.1139L472.173 41.062L471.236 41.01L470.299 40.9581L469.361 40.9061L468.424 40.8542L467.487 40.8022L466.549 40.7503L465.605 40.6987L465.597 40.6992L465.588 40.6996L464.779 40.5882L463.971 40.4769L463.162 40.3655L462.354 40.2541L461.491 40.1452L461.435 40.1473L461.379 40.149L460.595 39.9724L459.811 39.7957L459.027 39.619L458.243 39.4424L457.46 39.2657L452.001 35.6598L455.166 28.7834L455.44 29.3923L458.586 34.593Z" fill="black" style="fill:black;fill-opacity:1;"/>
<path d="M459.168 59.2058L461.722 61.5724L463.743 59.2859H464.788L459.632 52.8272L459.311 52.7979L459.819 52.612L460.133 52.4259L460.764 52.2472L460.981 52.2505L461.146 52.2575L462.215 52.1598L463.154 52.054L464.094 51.9482L465.033 51.8424L465.973 51.7366L466.912 51.6308L466.723 51.6194L466.528 51.6123L467.217 51.5572L468.106 51.5047L468.996 51.4521L469.886 51.3995L470.776 51.3469L471.666 51.2943L472.524 51.287L473.382 51.2796L474.24 51.2723L475.098 51.2649L475.956 51.2575L476.814 51.2501L477.672 51.2428L477.431 51.2462L477.182 51.2568L477.737 51.2263L478.55 51.1771L479.363 51.1279L480.176 51.0787L480.989 51.0294L481.802 50.9802L482.614 50.931L482.77 50.9187L482.921 50.9097L483.933 51.114L484.799 51.3245L485.665 51.5351L486.531 51.7456L487.397 51.9561L488.263 52.1666L489.13 52.3771L490.815 52.5342L492.714 53.2746L492.868 56.9036L491.41 59.2314L489.301 61.1445L486.843 62.3685L485.996 64.8938L487.894 65.6342L489.58 65.7912L488.73 66.0594L487.88 66.3275L487.03 66.5957L486.18 66.8638L485.33 67.132L484.48 67.4001L483.776 67.6621L483.926 67.653L484.082 67.6408L483.273 67.734L482.464 67.8273L481.656 67.9206L480.847 68.0138L480.038 68.1071L479.229 68.2003L478.162 68.3123L477.913 68.323L477.672 68.3264L476.814 68.319L475.956 68.3116L475.098 68.3043L474.24 68.2969L473.382 68.2895L472.524 68.2822L471.666 68.2748L470.776 68.2222L469.886 68.1696L468.996 68.1171L468.106 68.0645L467.217 68.0119L466.126 67.9568L465.93 67.9497L465.741 67.9383L464.826 67.6993L463.911 67.4603L462.997 67.2213L462.082 66.9822L461.167 66.7432L460.382 66.5123L460.547 66.5192L460.764 66.5226L460.133 66.3439L459.186 66.1578L458.433 65.9719L458.112 65.9426L452.508 59.2859H453.553L455.574 56.9993L459.168 59.2058Z" fill="black" style="fill:black;fill-opacity:1;"/>
<path d="M450.525 84.2043V83.4047V81.5279V81.1898L451.341 81.0226L452.157 80.8555L452.973 80.6883L453.789 80.5211L454.605 80.3539L455.421 80.1868L456.292 80.0259L457.164 79.865L458.035 79.704L458.907 79.5431L459.778 79.3822L460.65 79.2213L460.348 79.2271L460.047 79.2443L460.614 79.1017L461.479 78.9306L462.344 78.7595L463.209 78.5884L464.074 78.4173L464.939 78.2462L465.804 78.0751L466.668 77.904L467.533 77.7329L468.398 77.5618L469.263 77.3907L470.128 77.2196L470.993 77.0485L470.756 77.0789L470.529 77.1142L471.223 76.9566L472.134 76.7594L473.045 76.5623L473.956 76.3652L474.867 76.1681L475.778 75.971L476.689 75.7739L477.6 75.5768L478.511 75.3797L478.484 75.385L478.457 75.3904L479.347 75.2063L480.265 75.0167L481.183 74.8271L482.1 74.6375L483.018 74.448L483.936 74.2584L484.853 74.0688L485.771 73.8793L485.764 73.8807L485.757 73.8822L486.647 73.7357L487.544 73.5878L488.441 73.4398L489.339 73.2919L490.236 73.1439L491.133 72.9959L491.197 72.9829L491.273 72.9683L492.103 73.0752L492.843 73.1988L493.584 73.3224L494.324 73.4459L494.541 73.4102L494.78 73.378L495.848 75.5899L496.651 77.8286L497.187 84.1954L496.769 86.5367L496.616 88.8513L496.855 88.8191L497.072 88.7834L496.421 89.1563L495.769 89.5292L495.118 89.9021L494.557 90.2585L494.632 90.2438L494.696 90.2308L493.814 90.4507L492.931 90.6707L492.049 90.8907L491.167 91.1106L490.284 91.3306L489.395 91.552L489.387 91.5535L489.38 91.5549L488.462 91.7403L487.543 91.9257L486.625 92.111L485.706 92.2964L484.788 92.4818L483.869 92.6672L482.951 92.8525L482.005 93.0433L481.978 93.0487L481.951 93.054L481.033 93.213L480.114 93.372L479.196 93.531L478.278 93.69L477.359 93.849L476.441 94.0079L475.522 94.1669L474.604 94.3259L473.468 94.5244L473.242 94.5597L473.005 94.5901L472.124 94.6192L471.242 94.6484L470.361 94.6776L469.48 94.7068L468.599 94.7359L467.718 94.7651L466.837 94.7943L465.956 94.8234L465.075 94.8526L464.193 94.8818L463.312 94.911L462.431 94.9401L461.252 94.9978L460.952 95.015L460.65 95.0208L459.778 94.8598L458.907 94.699L458.035 94.538L457.164 94.3771L456.292 94.2162L455.421 94.0553L454.605 93.8881L453.789 93.721L452.973 93.5538L452.157 93.3866L451.341 93.2194L450.525 93.0523V92.7142V90.8374V84.2043Z" fill="black" style="fill:black;fill-opacity:1;"/>
<path d="M537.197 26.2087V25.3722V23.5527L538.301 34.2007L537.417 34.4562L536.533 34.7117L535.649 34.9672L534.766 35.2228L533.882 35.4783L532.998 35.7338L532.114 35.9893L531.231 36.2448L530.347 36.5003L529.463 36.7558L528.58 37.0113L529.123 36.8904L529.666 36.724L529.402 36.9312L528.606 37.349L527.809 37.7667L527.013 38.1844L526.217 38.6021L525.421 39.0198L524.624 39.4375L523.828 39.8552L523.991 39.7808L524.154 39.7016L523.559 40.0695L522.801 40.5214L522.043 40.9733L521.285 41.4252L520.527 41.8771L519.769 42.329L519.011 42.7809L518.252 43.2328L518.639 43.0137L519.007 42.7779L518.649 43.1042L517.945 43.6799L517.241 44.2556L516.538 44.8313L515.834 45.407L515.13 45.9827L515.789 45.4233L516.466 44.702L516.718 44.4465L516.321 45.0893L515.923 45.7321L515.526 46.3749L515.128 47.0177L516.066 44.9029L516.376 42.7294L516.338 41.7912L516.488 42.6728L516.638 43.5543L516.788 44.4359L516.939 45.3174L517.089 46.1989L517.239 47.0805L516.749 45.5752L515.95 44.1718L515.606 43.6752L516.257 44.3258L516.909 44.9763L517.56 45.6269L518.212 46.2775L518.864 46.9281L519.515 47.5787L520.167 48.2293L520.818 48.8798L520.653 48.7268L520.483 48.5789L521.028 49.0176L521.747 49.5985L522.466 50.1795L523.186 50.7604L523.905 51.3413L524.624 51.9222L525.343 52.5032L526.062 53.0841L526.781 53.665L527.5 54.246L528.219 54.8269L528.939 55.4079L529.018 55.4718L529.099 55.5387L529.847 56.1882L530.513 56.7674L531.179 57.3466L531.845 57.9257L532.511 58.5049L533.177 59.0841L533.843 59.6633L534.51 60.2424L535.176 60.8216L535.842 61.4008L536.508 61.98L537.174 62.5591L537.84 63.1383L538.066 63.3416L538.287 63.558L539.079 64.4246L539.656 65.0623L540.232 65.7L540.808 66.3378L541.385 66.9755L541.961 67.6132L542.537 68.251L543.113 68.8887L543.69 69.5264L544.266 70.1641L544.842 70.8019L545.423 71.528L545.922 72.3414L546.635 73.9897L546.955 74.7729L547.276 75.5561L547.597 76.3394L547.917 77.1226L548.238 77.9058L548.559 78.689L548.879 79.4722L549.2 80.2555L549.521 81.0387L550 83.1269L549.878 85.3533L548.966 88.0971L548.69 88.9534L548.414 89.8097L548.137 90.6661L547.143 92.2361L545.618 93.7071L543.021 95.0973L542.291 95.4408L541.562 95.7843L540.832 96.1278L540.103 96.4713L539.373 96.8148L538.644 97.1583L538.192 97.3253L537.749 97.4622L536.495 97.8068L535.671 98.0426L534.848 98.2783L534.024 98.5141L533.201 98.7499L532.377 98.9857L531.554 99.2215L530.73 99.4573L530.457 99.5144L530.185 99.5627L529.056 99.7394L528.197 99.8767L527.338 100.014L526.479 100.151L525.62 100.288L524.761 100.426L523.902 100.563L523.043 100.7L522.751 100.734L522.465 100.757L521.284 100.818L520.382 100.864L519.48 100.909L518.578 100.955L517.676 101.001L516.774 101.047L515.872 101.093L514.97 101.139L514.068 101.184L513.961 101.188L513.846 101.19L512.915 101.165L512.108 101.139L511.301 101.113L510.495 101.088L509.66 100.734L508.826 100.38L508.159 87.767L508.826 83.2792L509.66 82.9254L510.495 82.5716L511.301 82.5458L512.108 82.52L512.915 82.4943L513.597 82.4693L513.482 82.4715L513.375 82.4749L514.278 82.4539L515.181 82.4329L516.084 82.4119L516.987 82.3908L517.89 82.3698L518.793 82.3488L519.696 82.3278L520.599 82.3069L521.222 82.3004L520.936 82.3241L520.644 82.3576L521.51 82.2694L522.375 82.1811L523.24 82.0928L524.106 82.0046L524.971 81.9163L525.837 81.8281L526.702 81.7398L527.297 81.691L527.025 81.7393L526.752 81.7964L527.597 81.6563L528.442 81.5163L529.287 81.3762L530.132 81.2361L530.977 81.0961L531.822 80.956L532.667 80.8159L533.081 80.7846L532.638 80.9215L532.186 81.0886L532.951 80.8318L533.715 80.5749L534.48 80.3181L535.244 80.0613L536.008 79.8044L536.773 79.5476L535.67 80.3375L534.144 81.8085L533.151 83.3785L533.654 82.6324L534.157 81.8863L534.66 81.1402L534.526 82.2815L534.405 84.5079L534.884 86.5961L534.604 85.7975L534.324 84.9988L534.044 84.2001L533.764 83.4014L533.484 82.6028L533.204 81.8041L532.924 81.0054L532.644 80.2067L532.364 79.408L532.476 79.4745L532.976 80.2878L533.556 81.014L532.979 80.3769L532.402 79.7399L531.825 79.1029L531.248 78.4659L530.671 77.8288L530.093 77.1918L529.516 76.5548L528.939 75.9178L528.362 75.2807L527.785 74.6437L527.424 74.2356L527.645 74.4519L527.871 74.6552L527.202 74.0791L526.534 73.5029L525.865 72.9267L525.196 72.3505L524.528 71.7744L523.859 71.1982L523.19 70.622L522.522 70.0458L521.853 69.4696L521.184 68.8935L520.516 68.3173L519.847 67.7411L519.261 67.2352L519.341 67.3022L519.421 67.3661L518.693 66.7956L517.966 66.2251L517.238 65.6547L516.511 65.0842L515.783 64.5137L515.056 63.9433L514.328 63.3728L513.601 62.8023L512.873 62.2318L512.146 61.6614L511.418 61.0909L510.517 60.3781L510.348 60.2303L510.182 60.0772L509.498 59.4599L508.815 58.8425L508.132 58.2252L507.449 57.6078L506.766 56.9905L506.083 56.3731L505.399 55.7558L504.716 55.1384L503.037 53.3739L502.239 51.9704L501.748 50.4652L501.517 49.6013L501.286 48.7374L501.055 47.8735L500.824 47.0096L500.593 46.1457L500.362 45.2818L499.941 42.5981L500.252 40.4247L501.189 38.3098L501.593 37.6707L501.996 37.0315L502.399 36.3924L502.803 35.7532L503.856 34.2158L504.533 33.4945L505.192 32.935L505.934 32.4095L506.676 31.8839L507.419 31.3583L508.161 30.8327L508.903 30.3072L509.991 29.5322L510.359 29.2963L510.746 29.0772L511.545 28.7031L512.344 28.3291L513.144 27.955L513.943 27.5809L514.743 27.2069L515.542 26.8328L516.341 26.4587L517.304 26.0006L517.467 25.9215L517.63 25.847L518.475 25.5387L519.319 25.2304L520.164 24.922L521.009 24.6137L521.853 24.3054L522.698 23.997L523.543 23.6887L524.919 23.1699L525.462 23.0035L526.006 22.8825L526.923 22.81L527.84 22.7375L528.757 22.665L529.674 22.5925L530.591 22.52L531.508 22.4475L532.425 22.375L533.342 22.3025L534.259 22.23L535.177 22.1575L536.094 22.085L537.197 32.733V30.9135V26.2087Z" fill="black" style="fill:black;fill-opacity:1;"/>
</svg>
