<svg width="550" height="126" viewBox="0 0 550 126" fill="none" xmlns="http://www.w3.org/2000/svg">
<path d="M8.98629 72.0403L8.75698 73.2679L12.3938 71.9956L12.5781 71.6131L12.5966 72.1201L12.4594 73.0647L12.3223 74.0092L12.1852 74.9537L12.0481 75.8982L11.9109 76.8427L11.9972 76.5058L12.0605 76.1573L12.1153 76.732L12.1317 77.6617L12.148 78.5915L12.1644 79.5213L12.1808 80.451L12.1972 81.3808L12.2135 82.3106L12.2299 83.2403L12.2463 84.1701L12.2626 85.0999L12.279 86.0296L12.2954 86.9594L12.3038 86.8187L12.309 86.6764L12.3521 87.4463L12.3935 88.3598L12.4349 89.2733L12.4763 90.1868L12.5177 91.1002L12.5592 92.0137L12.6006 92.9272L12.642 93.8407L12.6834 94.7541L12.7248 95.6676L12.7171 95.3538L12.6947 95.0492L12.8255 95.6952L12.992 96.6352L13.1585 97.5752L13.3249 98.5152L13.4914 99.4552L13.6579 100.395L13.8244 101.335L13.9909 102.275L14.1574 103.215L14.3238 104.155L14.2006 103.522L14.0126 102.892L14.1782 103.129L14.5928 103.974L15.0075 104.819L15.4221 105.664L15.8368 106.509L16.2514 107.354L16.6661 108.199L17.0807 109.044L17.4954 109.889L17.91 110.734L17.5069 109.996L16.9807 109.27L16.999 109.182L17.6549 109.764L18.3108 110.347L18.9667 110.929L19.6226 111.512L20.2785 112.094L20.9344 112.677L21.5902 113.259L22.2461 113.842L20.6486 112.742L18.7483 112.115L17.9132 111.932L18.8446 111.833L19.7759 111.734L20.7073 111.635L21.6387 111.536L22.57 111.437L23.5014 111.338L24.4327 111.239L25.3641 111.139L26.2954 111.04L27.2268 110.941L25.4222 111.322L23.6224 112.251L22.7913 112.848L23.363 112.139L23.9348 111.43L24.5065 110.721L25.0782 110.011L25.6499 109.302L26.2217 108.593L26.7934 107.884L27.3651 107.174L27.9368 106.465L28.5086 105.756L29.0803 105.047L29.652 104.337L30.2238 103.628L29.8745 104.089L29.5685 104.566L29.7233 104.197L30.1387 103.346L30.5541 102.495L30.9694 101.644L31.3848 100.793L31.8002 99.9414L32.2156 99.0901L32.631 98.2389L33.0464 97.3877L33.4617 96.5365L33.8771 95.6853L34.2925 94.8341L34.7079 93.9828L35.1233 93.1316L35.5387 92.2804L35.954 91.4292L36.3694 90.578L36.7848 89.7267L36.6097 90.1095L36.4545 90.5076L36.582 90.0233L36.8424 89.1294L37.1028 88.2355L37.3633 87.3415L37.6237 86.4476L37.8841 85.5537L38.1446 84.6598L38.405 83.7659L38.6654 82.872L38.9259 81.9781L39.1863 81.0841L39.4467 80.1902L39.7072 79.2963L39.9676 78.4024L40.228 77.5085L40.4885 76.6146L40.7489 75.7207L40.6513 76.0886L40.5734 76.4577L40.6393 75.8856L40.7637 74.9463L40.888 74.0069L41.0124 73.0675L41.1367 72.1282L41.2611 71.1888L41.3854 70.2495L41.5098 69.3101L41.6341 68.3707L41.7585 67.4313L41.8828 66.492L42.0072 65.5526L42.1315 64.6133L42.2559 63.6739L42.3802 62.7345L42.5046 61.7952L42.6289 60.8558L42.7533 59.9165L42.8776 58.9771L43.002 58.0377L42.9748 58.269L42.9549 58.4993L42.9781 57.7698L43.0138 56.8116L43.0495 55.8533L43.0852 54.895L43.121 53.9368L43.1567 52.9785L43.1924 52.0203L43.2281 51.062L43.2639 50.1037L43.2621 50.1519L43.2607 50.2002L43.278 49.2904L43.2964 48.3325L43.3149 47.3745L43.3333 46.4165L43.3518 45.4585L43.3702 44.5005L43.3694 44.5488L43.3688 44.5992L43.3653 43.7574L43.3619 42.8627L43.3586 41.9681L43.3552 41.0734L43.3519 40.1787L43.3485 39.284L43.3452 38.3893L43.3459 38.4971L43.3483 38.608L43.3152 37.8668L43.2778 37.0113L43.2405 36.1559L43.2031 35.3005L43.1658 34.445L43.1284 33.5896L43.091 32.7341L43.0537 31.8786L43.0163 31.0232L43.1271 32.0162L43.4213 33.1422L43.7395 33.6454L43.5257 32.9588L43.312 32.2722L52.2621 26.5812L55.6403 25.4175L56.1108 25.9614L56.5812 26.5053L57.5835 28.239L57.8777 29.3649L57.9885 30.358L58.0272 31.2133L58.0658 32.0687L58.1045 32.9241L58.1431 33.7795L58.1818 34.6349L58.2205 35.4903L58.2591 36.3457L58.2978 37.2011L58.3407 38.1706L58.3431 38.2816L58.3438 38.3893L58.3405 39.284L58.3371 40.1787L58.3338 41.0734L58.3304 41.9681L58.3271 42.8627L58.3237 43.7574L58.3202 44.705L58.3196 44.7554L58.3188 44.8036L58.2984 45.7616L58.278 46.7195L58.2576 47.6774L58.2372 48.6354L58.2168 49.5933L58.1953 50.5995L58.1938 50.6477L58.1921 50.6959L58.1518 51.654L58.1115 52.6121L58.0712 53.5702L58.0309 54.5282L57.9906 55.4863L57.9503 56.4444L57.91 57.4025L57.8697 58.3606L57.8168 59.5474L57.797 59.7777L57.7698 60.009L57.6434 60.948L57.517 61.8871L57.3906 62.8262L57.2643 63.7653L57.1379 64.7044L57.0115 65.6435L56.8851 66.5826L56.7587 67.5217L56.6323 68.4608L56.5059 69.3999L56.3796 70.3389L56.2532 71.278L56.1268 72.2171L56.0004 73.1562L55.874 74.0953L55.7476 75.0344L55.6212 75.9735L55.4948 76.9126L55.3685 77.8516L55.1837 79.158L55.1057 79.5271L55.0082 79.895L54.7454 80.7883L54.4826 81.6815L54.2199 82.5748L53.9571 83.468L53.6944 84.3612L53.4316 85.2545L53.1689 86.1477L52.9061 87.0409L52.6434 87.9341L52.3806 88.8274L52.1179 89.7206L51.8551 90.6139L51.5924 91.5071L51.3296 92.4003L51.0669 93.2936L50.8041 94.1868L50.4084 95.4897L50.2532 95.8877L50.0781 96.2705L49.6568 97.1188L49.2356 97.9672L48.8144 98.8155L48.3931 99.6638L47.9719 100.512L47.5506 101.361L47.1294 102.209L46.7082 103.057L46.2869 103.906L45.8657 104.754L45.4445 105.602L45.0232 106.451L44.602 107.299L44.1807 108.147L43.7595 108.996L43.3383 109.844L42.917 110.692L42.2352 112.023L41.9292 112.5L41.5799 112.961L40.9949 113.659L40.4099 114.358L39.8249 115.056L39.2399 115.754L38.6549 116.453L38.0698 117.151L37.4848 117.849L36.8998 118.547L36.3148 119.246L35.7298 119.944L35.1447 120.642L34.5597 121.341L33.9747 122.039L31.9868 124.044L30.1871 124.973L28.3825 125.353L27.4472 125.404L26.512 125.455L25.5768 125.505L24.6415 125.556L23.7063 125.607L22.7711 125.657L21.8358 125.708L20.9006 125.758L19.9653 125.809L19.0301 125.86L16.3285 125.827L14.4281 125.199L12.8306 124.099L12.1942 123.496L11.5578 122.892L10.9213 122.288L10.2849 121.685L9.64849 121.081L9.01207 120.477L8.37565 119.873L7.73923 119.27L6.46518 117.996L5.93899 117.269L5.5359 116.531L5.1521 115.672L4.76831 114.812L4.38451 113.953L4.00071 113.093L3.61691 112.234L3.23312 111.374L2.84932 110.515L2.46552 109.656L2.08172 108.796L1.44889 107.329L1.2609 106.699L1.13763 106.066L1.03044 105.117L0.923255 104.169L0.816067 103.22L0.70888 102.272L0.601693 101.323L0.494505 100.374L0.387318 99.4258L0.280138 98.4772L0.172951 97.5286L0.0301247 96.2861L0.00773858 95.9814L0 95.6676L0.0414095 94.7541L0.0828189 93.8407L0.124228 92.9272L0.165638 92.0137L0.207047 91.1002L0.248457 90.1868L0.289866 89.2733L0.331276 88.3598L0.372693 87.4463L0.415835 86.3893L0.420967 86.247L0.42941 86.1063L0.578609 85.1885L0.727801 84.2706L0.877 83.3528L1.02619 82.4349L1.17539 81.517L1.32458 80.5992L1.47378 79.6813L1.62298 78.7634L1.77217 77.8456L1.92137 76.9277L2.07056 76.0099L2.2582 74.7369L2.3215 74.3884L2.40773 74.0515L2.80315 73.1829L3.19857 72.3142L3.594 71.4455L3.98943 70.5769L4.38485 69.7083L4.93591 68.4021L5.12021 68.0196L8.75698 66.7473L8.98629 72.0403Z" fill="black" style="fill:black;fill-opacity:1;"/>
<path d="M74.5686 34.4841L74.9106 32.9947V31.958L78.7701 34.4973L78.7212 35.9657L78.5896 36.874L78.4581 37.7822L78.3265 38.6905L78.195 39.5987L78.0634 40.507L77.9319 41.4153L77.8004 42.3235L77.6688 43.2318L77.5373 44.1401L77.4057 45.0483L77.2742 45.9566L77.1426 46.8649L77.0111 47.7731L77.0598 47.5287L77.0966 47.2762L77.1418 47.9079L77.1633 48.7983L77.1847 49.6887L77.2062 50.5791L77.2277 51.4695L77.2492 52.3599L77.2707 53.2503L77.2921 54.1406L77.2977 54.0417L77.3012 53.9478L77.3516 54.8174L77.4001 55.7763L77.4486 56.7353L77.4971 57.6943L77.5456 58.6532L77.594 59.6122L77.6425 60.5712L77.691 61.5301L77.7395 62.4891L77.7398 62.4631L77.74 62.4368L77.7911 63.3546L77.8422 64.2989L77.8933 65.2432L77.9444 66.1875L77.9955 67.1318L78.0466 68.0761L78.0977 69.0204L78.1488 69.9647L78.1999 70.909L78.251 71.8533L78.249 71.6914L78.2426 71.5212L78.337 72.212L78.4429 73.0815L78.5488 73.9511L78.6548 74.8206L78.7607 75.6902L78.8666 76.5598L78.9725 77.4293L79.0785 78.2989L79.1844 79.1684L79.2903 80.038L79.2082 79.3881L79.0711 78.7712L79.2454 79.0639L79.6015 79.9285L79.9577 80.7931L80.3139 81.6576L80.6701 82.5222L81.0262 83.3868L81.3824 84.2513L81.7386 85.1159L82.0947 85.9805L82.4509 86.8451L82.8071 87.7096L82.5113 87.0156L82.1109 86.3007L82.1506 86.2312L82.7003 86.867L83.2501 87.5027L83.7998 88.1385L84.3495 88.7743L84.8992 89.41L84.3708 88.8292L83.7766 88.3013L83.8573 88.2742L84.5781 88.7045L85.2988 89.1348L86.0195 89.5651L86.7403 89.9954L85.7043 89.4427L84.6665 89.0758L84.6357 88.9948L85.5779 89.1126L86.5201 89.2305L87.4623 89.3483L86.3943 89.278L85.2371 89.3716L84.8886 89.3727L85.7119 89.0918L86.5353 88.8109L87.3587 88.53L88.1821 88.2491L89.0054 87.9682L89.8288 87.6874L90.6522 87.4065L89.4802 87.8988L88.391 88.5874L88.0718 88.7607L88.6765 88.1112L89.2813 87.4617L89.886 86.8122L90.4907 86.1627L91.0954 85.5131L91.7001 84.8636L92.3049 84.2141L91.9964 84.5564L91.7076 84.9177L91.9278 84.5527L92.4141 83.811L92.9003 83.0694L93.3866 82.3277L93.8729 81.5861L94.3592 80.8444L94.8454 80.1028L95.3317 79.3611L95.818 78.6195L96.3043 77.8778L95.9913 78.3913L95.7296 78.9033L95.8587 78.513L96.2006 77.6214L96.5424 76.7297L96.8843 75.838L97.2261 74.9463L97.568 74.0546L97.9098 73.1629L98.2517 72.2713L98.5935 71.3796L98.9354 70.4879L99.2772 69.5962L99.6191 68.7046L99.9609 67.8129L100.303 66.9212L100.645 66.0295L100.986 65.1378L101.328 64.2461L101.67 63.3545L102.012 62.4628L101.933 62.6777L101.858 62.9019L102.035 62.2578L102.282 61.3804L102.529 60.503L102.776 59.6256L103.023 58.7482L103.27 57.8708L103.517 56.9933L103.764 56.1159L104.011 55.2385L104.258 54.3611L104.505 53.4836L104.484 53.5571L104.464 53.6323L104.659 52.8537L104.874 51.9981L105.088 51.1424L105.303 50.2867L105.517 49.4311L105.732 48.5754L105.947 47.7198L106.161 46.8641L106.376 46.0085L106.355 46.0913L106.337 46.1706L106.52 45.322L106.72 44.3976L106.92 43.4731L107.12 42.5486L107.32 41.6241L107.52 40.6997L107.72 39.7752L107.92 38.8507L108.12 37.9262L108.096 38.0409L108.073 38.1555L108.214 37.3309L108.376 36.392L108.538 35.4532L108.7 34.5143L108.862 33.5754L109.024 32.6366L109.186 31.6977L109.18 31.7327L109.174 31.7699L109.303 30.9469L109.44 30.0844L109.576 29.222L109.712 28.3596L109.848 27.4971L109.81 27.7734L109.779 28.0628L109.794 27.5438L109.829 26.7229L109.863 25.9168L109.863 25.9238L109.865 25.8418L125.374 26.1758L124.81 26.6889L124.246 27.2021L124.21 27.8785L124.147 28.3285L122.614 29.2261L121.145 29.8071L119.677 30.3881L118.208 30.9691L115.781 30.412L114.713 29.2487L113.644 28.0855L112.576 26.9223L111.444 26.0756L111.38 26.5256L111.345 27.2021L110.781 26.6889L110.216 26.1758L125.725 26.5098L125.727 26.6308L125.727 26.6378L125.683 27.4732L125.641 28.2938L125.578 29.4163L125.548 29.7057L125.509 29.982L125.371 30.8443L125.234 31.7065L125.096 32.5688L124.959 33.431L124.815 34.3327L124.809 34.3699L124.803 34.4049L124.64 35.3434L124.476 36.282L124.313 37.2206L124.149 38.1592L123.985 39.0977L123.822 40.0363L123.638 41.0891L123.615 41.2037L123.591 41.3184L123.386 42.2418L123.181 43.1651L122.976 44.0885L122.77 45.0118L122.565 45.9352L122.36 46.8585L122.155 47.7819L121.95 48.7053L121.728 49.7045L121.709 49.7838L121.689 49.8667L121.472 50.7218L121.256 51.577L121.039 52.4322L120.823 53.2874L120.606 54.1426L120.39 54.9977L120.173 55.8529L119.957 56.7081L119.721 57.6404L119.7 57.7156L119.68 57.789L119.429 58.6654L119.179 59.5418L118.928 60.4182L118.678 61.2946L118.427 62.171L118.177 63.0474L117.926 63.9238L117.675 64.8002L117.425 65.6766L117.174 66.553L116.853 67.6627L116.779 67.8869L116.7 68.1018L116.357 68.9932L116.014 69.8845L115.671 70.7759L115.329 71.6672L114.986 72.5586L114.643 73.4499L114.301 74.3413L113.958 75.2326L113.615 76.124L113.272 77.0153L112.93 77.9067L112.587 78.798L112.244 79.6893L111.902 80.5807L111.559 81.4721L111.216 82.3634L110.873 83.2548L110.531 84.1461L109.975 85.5388L109.714 86.0508L109.401 86.5643L108.907 87.3008L108.412 88.0372L107.918 88.7737L107.424 89.5101L106.93 90.2466L106.436 90.9831L105.942 91.7195L105.448 92.4559L104.954 93.1924L104.193 94.3054L103.905 94.6668L103.596 95.0091L102.974 95.6424L102.353 96.2757L101.731 96.9089L101.109 97.5422L100.488 98.1755L99.8659 98.8088L99.2442 99.4421L97.6987 100.898L96.6094 101.587L95.4375 102.079L94.6068 102.338L93.7762 102.596L92.9455 102.855L92.1148 103.113L91.2842 103.372L90.4535 103.631L89.6229 103.889L87.6204 104.43L86.4631 104.523L85.3951 104.453L84.4558 104.313L83.5166 104.174L82.5774 104.034L80.6651 103.695L79.6273 103.328L78.5913 102.776L77.8971 102.304L77.2029 101.832L76.5087 101.36L75.8145 100.888L74.4802 99.9589L73.8861 99.4309L73.3576 98.8501L72.8435 98.1852L72.3294 97.5203L71.8153 96.8554L71.3012 96.1905L70.787 95.5256L69.7629 94.1555L69.3625 93.4405L69.0667 92.7465L68.7797 91.8566L68.4927 90.9667L68.2058 90.0767L67.9188 89.1868L67.6318 88.2969L67.3448 87.407L67.0578 86.517L66.7708 85.6271L66.4838 84.7372L66.1968 83.8472L65.728 82.3855L65.5908 81.7686L65.5087 81.1187L65.4778 80.2432L65.4469 79.3678L65.416 78.4923L65.3851 77.6169L65.3542 76.7415L65.3233 75.866L65.2924 74.9906L65.2615 74.1151L65.2306 73.2397L65.1881 72.1854L65.1817 72.0152L65.1797 71.8533L65.2308 70.909L65.2819 69.9647L65.333 69.0204L65.3841 68.0761L65.4352 67.1318L65.4863 66.1875L65.5374 65.2432L65.5885 64.2989L65.6396 63.3546L65.6908 62.3838L65.6909 62.3575L65.6912 62.3315L65.7648 61.3742L65.8383 60.4168L65.9119 59.4594L65.9854 58.5021L66.059 57.5447L66.1325 56.5873L66.2061 55.6299L66.2796 54.6726L66.355 53.6259L66.3586 53.5319L66.3641 53.433L66.5003 52.5528L66.6364 51.6726L66.7725 50.7924L66.9087 49.9123L67.0448 49.0321L67.1809 48.1519L67.3171 47.2718L67.4769 46.1329L67.5137 45.8805L67.5624 45.636L67.8346 44.7595L68.1067 43.8831L68.3788 43.0066L68.6509 42.1301L68.9231 41.2537L69.1952 40.3772L69.4673 39.5007L69.7395 38.6243L70.0116 37.7478L70.2837 36.8713L70.5559 35.9949L70.828 35.1184L71.1001 34.2419L71.0512 35.7103L74.9106 38.2496V37.2129L74.5686 34.4841Z" fill="black" style="fill:black;fill-opacity:1;"/>
<path d="M173.795 26.6993V24.9251V23.2184V34.8268L173.026 35.1169L172.256 35.407L171.486 35.6971L170.717 35.9873L171.445 35.9525L172.125 35.8567L171.95 36.0321L171.154 36.3505L170.359 36.669L169.563 36.9874L168.768 37.3058L169.22 37.1674L169.637 37.0135L169.186 37.2773L168.353 37.7057L167.519 38.134L166.686 38.5623L165.852 38.9907L165.019 39.419L164.185 39.8474L163.352 40.2757L162.518 40.7041L161.685 41.1324L160.851 41.5608L161.087 41.4475L161.322 41.3257L160.762 41.6657L159.969 42.1359L159.175 42.6061L158.382 43.0763L157.588 43.5465L156.795 44.0167L156.001 44.4869L155.207 44.9571L155.544 44.7522L155.889 44.5192L155.57 44.7822L154.9 45.3081L154.23 45.834L153.561 46.36L152.891 46.8859L152.222 47.4118L151.552 47.9377L152.231 47.3409L152.831 46.6917L152.831 46.7488L152.321 47.4826L151.811 48.2163L151.301 48.9501L150.791 49.6839L151.784 47.724L152.262 45.3589L152.222 43.9429L152.352 44.8039L152.482 45.6649L152.612 46.526L152.742 47.387L152.872 48.2481L153.002 49.1091L152.36 47.2267L151.284 45.5512L150.728 44.9066L151.454 45.5047L152.179 46.1028L152.905 46.7008L153.63 47.2989L154.356 47.897L155.081 48.4951L155.807 49.0931L155.532 48.8882L155.242 48.6912L155.72 48.9754L156.501 49.4471L157.282 49.9187L158.063 50.3903L158.844 50.8619L159.625 51.3336L160.407 51.8052L161.188 52.2768L161.969 52.7484L162.75 53.22L162.836 53.2711L162.92 53.3226L163.78 53.8872L164.559 54.4001L165.337 54.913L166.116 55.426L166.894 55.9389L167.673 56.4518L168.451 56.9647L169.23 57.4776L170.008 57.9905L170.501 58.3328L170.982 58.7256L172.056 59.8129L172.673 60.4607L173.289 61.1086L173.906 61.7564L174.523 62.4042L175.14 63.052L175.757 63.6999L176.762 64.9993L177.481 66.5055L178.017 68.9309L178.188 69.8488L178.358 70.7668L178.529 71.6847L178.699 72.6027L178.87 73.5206L179.04 74.4386L179.211 75.3566L179.255 77.1981L178.798 79.2493L177.393 81.856L176.964 82.5874L176.535 83.3188L176.106 84.0502L175.677 84.7815L175.248 85.5129L174.819 86.2443L174.39 86.9756L173.82 87.7037L173.183 88.3612L171.838 89.4976L171.175 90.0644L170.511 90.6313L169.848 91.1981L169.185 91.7649L168.521 92.3318L167.858 92.8986L167.195 93.4654L166.531 94.0322L165.868 94.5991L165.424 94.9134L164.977 95.1917L163.736 95.8959L162.938 96.3572L162.14 96.8185L161.342 97.2799L160.544 97.7412L159.746 98.2026L158.948 98.6639L158.15 99.1252L157.352 99.5866L156.554 100.048L155.756 100.509L155.36 100.701L154.966 100.871L153.68 101.361L152.782 101.703L151.885 102.045L150.987 102.388L150.09 102.73L149.192 103.073L148.294 103.415L147.397 103.757L146.499 104.1L145.602 104.442L144.704 104.785L143.807 105.127L142.909 105.469L142.012 105.812L141.114 106.154L140.89 106.231L140.643 106.308L139.56 106.613L138.747 106.841L137.934 107.068L137.121 107.296L136.309 107.523L135.496 107.751L134.683 107.978L134.513 108.023L134.337 108.065L133.359 108.276L132.561 108.446L131.438 108.68L131.31 108.702L123.215 106.401L121.398 92.9538L123.389 92.5081L125.577 91.9647L127.015 92.1867L127.149 92.0695L127.293 91.9506L128.404 91.6795L129.361 91.5288L130.317 91.378L131.274 91.2272L132.23 91.0765L137.118 97.5887L136.706 98.465L136.294 99.3412L135.882 100.217L135.47 101.094L135.213 101.85L135.358 101.731L135.492 101.613L135.56 103.066L136.38 103.753L137.003 104.538L135.186 91.0911L128.001 88.7894L127.873 88.8115L128.346 88.7049L129.144 88.5345L129.763 88.4042L129.587 88.4467L129.417 88.4912L130.233 88.2783L131.05 88.0654L131.867 87.8525L132.683 87.6397L133.5 87.4268L134.316 87.2139L134.862 87.0783L134.616 87.1559L134.391 87.2327L135.304 86.932L136.216 86.6313L137.128 86.3306L138.041 86.0299L138.953 85.7292L139.865 85.4285L140.778 85.1279L141.69 84.8272L142.603 84.5265L143.515 84.2258L144.427 83.9251L145.34 83.6244L146.252 83.3237L147.164 83.0231L147.688 82.87L147.294 83.0395L146.898 83.2315L147.738 82.8528L148.578 82.4741L149.419 82.0955L150.259 81.7168L151.099 81.3381L151.94 80.9595L152.78 80.5808L153.62 80.2022L154.461 79.8235L155.301 79.4448L155.698 79.309L155.252 79.5873L154.807 79.9016L155.536 79.4212L156.264 78.9407L156.992 78.4602L157.721 77.9797L158.449 77.4993L159.177 77.0188L159.906 76.5383L160.634 76.0578L161.362 75.5774L161.409 75.6665L160.772 76.324L160.202 77.052L160.742 76.3982L161.282 75.7443L161.822 75.0904L162.362 74.4365L162.901 73.7826L163.441 73.1288L163.981 72.4749L163.545 73.6964L163.088 75.7476L163.133 77.5891L163.047 76.6595L162.96 75.7298L162.874 74.8001L162.788 73.8705L162.702 72.9408L162.616 72.0111L162.53 71.0814L162.809 71.6592L163.528 73.1654L164.534 74.4648L163.913 73.8216L163.291 73.1785L162.669 72.5353L162.048 71.8921L161.426 71.2489L160.804 70.6058L160.64 70.4021L161.121 70.7949L161.614 71.1371L160.821 70.6468L160.028 70.1564L159.235 69.666L158.443 69.1757L157.65 68.6853L156.857 68.1949L156.064 67.7046L155.271 67.2142L154.56 66.7756L154.644 66.827L154.73 66.8781L153.938 66.4257L153.145 65.9734L152.353 65.521L151.56 65.0686L150.768 64.6162L149.975 64.1639L149.183 63.7115L148.391 63.2591L147.598 62.8067L146.502 62.1669L146.212 61.9699L145.937 61.7651L145.18 61.2081L144.422 60.6512L143.665 60.0943L142.907 59.5373L142.15 58.9804L141.392 58.4234L140.635 57.8665L138.596 56.067L137.52 54.3915L136.878 52.509L136.649 51.6688L136.421 50.8285L136.192 49.9883L135.963 49.1481L135.735 48.3078L135.506 47.4676L135.107 44.3502L135.586 41.9851L136.578 40.0253L137.072 39.2809L137.567 38.5366L138.061 37.7923L138.556 37.0479L139.56 35.627L140.16 34.9778L140.84 34.3809L141.506 33.8511L142.172 33.3212L142.839 32.7913L143.505 32.2615L144.172 31.7316L144.838 31.2017L145.856 30.4089L146.2 30.176L146.537 29.971L147.34 29.5174L148.143 29.0638L148.946 28.6102L149.749 28.1566L150.553 27.703L151.356 27.2494L152.159 26.7958L153.195 26.2119L153.431 26.0902L153.667 25.9769L154.534 25.6213L155.401 25.2657L156.268 24.91L157.135 24.5544L158.002 24.1988L158.869 23.8432L159.736 23.4876L160.603 23.132L161.47 22.7764L162.337 22.4208L163.586 21.9006L164.003 21.7467L164.455 21.6083L165.302 21.4756L166.149 21.343L166.995 21.2103L167.842 21.0776L169.309 20.8019L169.988 20.7061L170.717 20.6714L171.486 20.9615L172.256 21.2516L173.026 21.5417L173.795 21.8318V33.4402V31.7335V26.6993Z" fill="black" style="fill:black;fill-opacity:1;"/>
<path d="M216.797 23.1852V22.3096V20.85V19.6396L221.777 26.3251L221.632 27.1405L221.486 27.9558L221.341 28.7712L221.195 29.5865L221.378 29.0967L221.51 28.6252L221.575 29.0841L221.551 29.9885L221.527 30.893L221.503 31.7975L221.479 32.702L221.455 33.6064L221.432 34.5109L221.408 35.4154L221.406 35.4253L221.404 35.435L221.303 36.37L221.203 37.2956L221.103 38.2212L221.003 39.1468L220.903 40.0724L220.803 40.998L220.704 41.9236L220.604 42.8492L220.504 43.7747L220.404 44.7003L220.304 45.6259L220.204 46.5515L220.104 47.4771L220.004 48.4027L219.904 49.3283L219.903 49.333L219.903 49.3375L219.781 50.295L219.66 51.248L219.539 52.2009L219.418 53.1539L219.297 54.1069L219.176 55.0598L219.055 56.0128L218.934 56.9657L218.813 57.9187L218.692 58.8717L218.571 59.8246L218.45 60.7776L218.329 61.7305L218.208 62.6835L218.087 63.6364L217.966 64.5894L217.845 65.5424L217.724 66.4953L217.733 66.4352L217.743 66.3743L217.648 67.2508L217.545 68.189L217.441 69.1271L217.337 70.0653L217.233 71.0035L217.129 71.9416L217.025 72.8797L216.922 73.8179L216.818 74.7561L216.714 75.6942L216.61 76.6323L216.506 77.5705L216.402 78.5087L216.298 79.4468L216.195 80.385L216.091 81.3231L215.987 82.2613L215.883 83.1994L215.779 84.1376L215.675 85.0757L215.572 86.0139L215.59 85.8838L215.606 85.7548L215.562 86.5842L215.504 87.5415L215.447 88.4989L215.389 89.4562L215.331 90.4135L215.273 91.3708L215.216 92.3282L215.226 92.2193L215.236 92.1036L215.208 92.8548L215.17 93.7291L215.132 94.6035L215.095 95.4779L215.106 95.2827L215.113 95.0732L215.107 95.6351L215.098 96.422L215.089 97.2089L213.939 93.6561L196.35 96.0142L196.841 95.3288L197.325 94.6947L197.833 93.9008L198.34 93.1069L198.334 93.1551L198.328 93.2012L198.892 92.3906L199.46 91.5361L200.029 90.6816L200.598 89.827L201.167 88.9724L201.736 88.1179L202.304 87.2633L202.873 86.4088L203.442 85.5542L204.011 84.6997L204.579 83.8451L205.148 82.9906L205.717 82.136L208.938 82.5093L209.296 83.4712L209.654 84.4332L210.013 85.3952L210.371 86.3572L210.729 87.3192L211.087 88.2812L211.446 89.2431L211.804 90.2051L212.162 91.1671L212.52 92.1291L212.879 93.0911L213.237 94.0531L213.59 95.0591L213.584 95.1052L213.578 95.1533L213.858 96.0529L214.138 96.9526L214.395 98.0119L214.658 99.02L197.069 101.378L195.919 97.2089L195.911 96.422L195.902 95.6351L195.896 94.623L195.903 94.4135L195.914 94.2184L195.991 93.3466L196.068 92.4749L196.145 91.6031L196.231 90.6082L196.241 90.4925L196.251 90.3836L196.389 89.4345L196.527 88.4854L196.665 87.5363L196.802 86.5872L196.94 85.6381L197.078 84.689L197.23 83.612L197.246 83.483L197.264 83.3529L197.431 82.424L197.599 81.4951L197.766 80.5662L197.934 79.6373L198.101 78.7084L198.269 77.7795L198.437 76.8506L198.604 75.9217L198.772 74.9928L198.939 74.0639L199.107 73.135L199.274 72.2061L199.442 71.2772L199.609 70.3483L199.777 69.4194L199.944 68.4905L200.112 67.5616L200.279 66.6328L200.447 65.7039L200.615 64.775L200.791 63.7844L200.801 63.7235L200.811 63.6634L201.007 62.723L201.203 61.7826L201.399 60.8422L201.595 59.9018L201.791 58.9614L201.987 58.021L202.183 57.0806L202.379 56.1402L202.575 55.1998L202.771 54.2594L202.967 53.319L203.163 52.3786L203.359 51.4382L203.555 50.4978L203.751 49.5574L203.947 48.617L204.143 47.6766L204.338 46.7407L204.337 46.7453L204.336 46.75L204.54 45.8416L204.744 44.9332L204.948 44.0248L205.152 43.1164L205.356 42.2081L205.559 41.2997L205.763 40.3913L205.967 39.4829L206.171 38.5746L206.375 37.6662L206.579 36.7578L206.782 35.8494L206.986 34.941L207.19 34.0327L207.392 33.1337L207.391 33.1434L207.389 33.1533L207.651 32.2872L207.913 31.4212L208.174 30.5551L208.436 29.689L208.698 28.8229L208.96 27.9568L209.221 27.0907L209.572 25.779L209.705 25.3075L209.887 24.8177L210.369 24.1444L210.852 23.4711L211.334 22.7979L211.816 22.1246L216.797 28.8101V27.5997V26.1401V23.1852Z" fill="black" style="fill:black;fill-opacity:1;"/>
<path d="M199.459 27.2782V26.1119V25.1482L196.021 32.4632L195.391 32.0931L194.761 31.723L194.273 31.4765L194.543 31.6893L194.183 32.8778L197.632 34.5545V19.3502L198.43 19.1858L199.228 19.0213L200.027 18.8568L199.507 18.873L199.024 18.9173L199.431 18.7044L200.284 18.4254L201.136 18.1464L201.989 17.8673L202.842 17.5883L203.694 17.3092L203.094 17.4361L202.527 17.5954L202.858 17.3672L203.717 16.9535L204.577 16.5399L205.437 16.1263L206.296 15.7126L207.156 15.299L208.015 14.8854L208.875 14.4718L209.734 14.0581L209.585 14.117L209.432 14.1804L210.093 13.8597L210.911 13.4708L211.729 13.0819L212.547 12.6931L213.364 12.3042L214.182 11.9153L215 11.5264L215.818 11.1375L216.635 10.7487L217.453 10.3598L218.271 9.9709L219.089 9.58203L219.146 9.55669L219.203 9.53202L220.108 9.14741L220.956 8.78685L221.804 8.4263L222.653 8.06574L223.501 7.70519L224.349 7.3446L225.198 6.98404L226.046 6.62349L226.895 6.26293L227.743 5.90238L228.591 5.54182L229.44 5.18123L230.288 4.82068L231.136 4.46012L231.985 4.09957L232.833 3.73901L233.682 3.37845L234.53 3.0179L234.686 2.95352L234.857 2.88636L235.811 2.55746L236.576 2.2984L237.342 2.03934L238.108 1.78028L238.874 1.52125L239.64 1.2622L240.117 1.10396L240.553 0.981992L241.902 0.822697L242.852 0.756472L243.802 0.690217L244.752 0.623961L245.702 0.557736L246.653 0.49148L247.603 0.425255L248.553 0.359L249.503 0.292744L250.453 0.226519L251.404 0.160263L253.842 0L256.611 0.694299L259.008 3.34809L259.124 4.53011L259.241 5.71213L259.357 6.89415L259.473 8.07617L259.589 9.25819L259.705 10.4402L255.777 14.8078L254.589 14.8169L253.401 14.8261L252.214 14.8353L251.026 14.8444L249.838 14.8536L248.651 14.8627L249.744 16.3437L252.513 17.038L254.951 16.8777L254.056 17.2031L253.161 17.5285L252.266 17.8539L251.371 18.1793L250.475 18.5047L249.58 18.8301L248.685 19.1554L247.79 19.4808L246.894 19.8062L245.999 20.1316L245.502 20.364L245.938 20.242L246.415 20.0838L245.66 20.3723L244.905 20.6608L244.149 20.9494L243.394 21.2379L242.639 21.5264L242.072 21.7451L242.243 21.6779L242.398 21.6136L241.549 21.9715L240.699 22.3293L239.85 22.6872L239 23.045L238.151 23.4029L237.301 23.7607L236.452 24.1186L235.602 24.4764L234.753 24.8343L233.903 25.1921L233.054 25.55L232.204 25.9078L231.355 26.2657L230.505 26.6236L229.655 26.9814L228.806 27.3393L227.956 27.6971L227.163 28.0309L227.22 28.0063L227.278 27.9809L226.441 28.3282L225.605 28.6755L224.769 29.0228L223.932 29.3701L223.096 29.7174L222.26 30.0647L221.424 30.412L220.587 30.7592L219.751 31.1066L218.915 31.4538L218.079 31.8011L217.085 32.2166L216.932 32.28L216.783 32.3389L215.869 32.6094L214.954 32.8799L214.039 33.1505L213.124 33.421L212.21 33.6915L211.295 33.9621L210.38 34.2326L209.465 34.5031L208.022 34.9591L207.455 35.1184L206.855 35.2452L205.958 35.2745L205.062 35.3037L204.165 35.3329L203.268 35.3621L202.372 35.3913L201.029 35.4867L200.546 35.531L200.027 35.5472L199.228 35.3827L198.43 35.2182L197.632 35.0538V19.8495L201.315 21.5262L201.18 22.7147L201.45 22.9275L202.027 23.6383L202.462 24.2256L202.897 24.8128L199.459 32.1278V31.1641V27.2782Z" fill="black" style="fill:black;fill-opacity:1;"/>
<path d="M297.436 21.8695L295.842 23.3511L294.92 24.339L304.312 22.4162L304.607 21.1333L304.709 21.8047L304.812 22.476L304.914 23.1473L304.943 22.8357L304.956 22.5832L305.145 23.2648L305.33 24.1545L305.515 25.0442L305.7 25.9339L305.885 26.8235L306.07 27.7132L306.139 28.6029L306.208 29.4925L306.277 30.3822L306.346 31.2719L306.415 32.1615L306.484 33.0512L306.553 33.9409L306.622 34.8305L306.691 35.7202L306.76 36.6099L306.829 37.4995L306.898 38.3892L306.898 38.4532L306.897 38.5161L306.913 39.4905L306.931 40.403L306.948 41.3156L306.966 42.2281L306.983 43.1406L307 44.0531L307.018 44.9657L307.035 45.8782L307.052 46.7907L307.07 47.7033L307.087 48.6158L307.105 49.5283L307.122 50.4409L307.139 51.3534L307.157 52.266L307.174 53.1785L307.192 54.091L307.181 54.381L307.161 54.6682L307.054 55.8727L306.975 56.7935L306.897 57.7143L306.818 58.6351L306.74 59.5559L306.661 60.4767L306.583 61.3974L306.504 62.3182L306.426 63.239L306.347 64.1598L306.269 65.0806L306.19 66.0014L306.112 66.9221L306.034 67.8429L305.955 68.7637L305.877 69.6845L305.875 69.7009L305.873 69.717L305.782 70.6727L305.693 71.6125L305.604 72.5523L305.516 73.4921L305.427 74.4319L305.338 75.3717L305.249 76.3115L305.16 77.2513L305.072 78.1911L304.983 79.1309L304.894 80.0707L304.805 81.0105L304.716 81.9503L304.628 82.89L304.539 83.8299L304.45 84.7697L304.45 84.7676L304.45 84.7655L304.36 85.7106L304.269 86.6577L304.178 87.6049L304.087 88.552L303.996 89.4991L304.006 89.4161L304.015 89.3301L303.96 90.1414L303.897 91.042L303.833 91.9425L303.77 92.843L303.782 92.7074L303.793 92.5549L303.772 93.1357L303.741 93.8891L303.714 94.564L303.716 94.5331L303.755 95.4112L282.97 94.5397L282.828 93.1362L282.826 93.1647L282.905 92.2373L282.995 91.1791L283.069 90.3232L283.321 88.7769L283.773 87.3439L284.831 85.2721L285.295 84.4553L285.759 83.6384L286.223 82.8216L286.688 82.0047L287.152 81.1878L287.344 80.8556L287.549 80.5308L288.312 79.4478L288.86 78.6808L289.408 77.9138L289.957 77.1468L290.505 76.3798L291.053 75.6128L291.602 74.8458L292.15 74.0788L292.698 73.3118L293.247 72.5448L293.795 71.7778L294.343 71.0108L294.892 70.2438L295.44 69.4768L295.988 68.7098L296.537 67.9428L297.085 67.1758L297.633 66.4088L298.182 65.6418L298.73 64.8748L299.278 64.1078L299.827 63.3408L299.848 63.3106L299.87 63.2804L300.455 62.4932L301.019 61.736L301.583 60.9789L302.146 60.2218L302.71 59.4647L303.274 58.7075L303.838 57.9504L304.401 57.1932L304.965 56.4361L305.529 55.679L306.093 54.9219L306.656 54.1647L307.22 53.4076L307.784 52.6505L308.348 51.8933L308.912 51.1362L309.475 50.3791L310.039 49.6219L310.603 48.8648L311.167 48.1077L311.102 48.1973L311.04 48.2874L311.518 47.5998L312.058 46.8215L312.598 46.0433L313.138 45.2651L313.678 44.4868L314.218 43.7086L314.758 42.9304L315.298 42.1521L315.838 41.3739L316.378 40.5957L316.918 39.8174L317.458 39.0392L317.998 38.261L318.539 37.4827L319.079 36.7045L319.619 35.9262L320.159 35.148L320.08 35.2664L320.003 35.3863L320.428 34.7075L320.929 33.9076L321.431 33.1077L321.932 32.3078L322.433 31.5078L322.934 30.7079L323.436 29.908L323.937 29.1081L324.438 28.3082L324.939 27.5083L325.44 26.7084L325.942 25.9084L325.828 26.0974L325.719 26.2889L326.071 25.6556L326.527 24.8286L326.983 24.0016L327.439 23.1746L327.895 22.3476L328.351 21.5206L328.808 20.6936L328.495 21.344L328.223 22.041L328.233 21.9041L328.466 21.0328L328.699 20.1616L328.932 19.2903L329.165 18.4191L329.398 17.5479L329.631 16.6766L329.864 15.8054L330.097 14.9341L330.33 14.0629L330.037 15.8402L330.088 17.7318L330.216 18.6929L329.941 17.851L329.667 17.0092L329.393 16.1673L329.119 15.3255L330.444 17.9587L332.584 20.1406L334.006 21.0615L333.115 20.7134L332.224 20.3654L331.333 20.0174L330.442 19.6694L329.551 19.3213L330.629 19.6636L331.752 19.8795L331.911 19.9457L330.95 19.93L329.989 19.9142L329.028 19.8985L328.066 19.8827L327.105 19.867L326.144 19.8512L327.675 19.7529L329.249 19.3894L329.915 19.1928L329.09 19.6149L328.265 20.0371L327.441 20.4592L326.616 20.8814L325.791 21.3035L324.967 21.7257L324.142 22.1479L323.318 22.57L322.493 22.9922L321.668 23.4143L320.844 23.8364L320.019 24.2586L319.194 24.6808L319.701 24.3994L320.193 24.0861L319.932 24.3064L319.201 24.8688L318.47 25.4312L317.738 25.9936L317.007 26.556L316.275 27.1184L315.544 27.6808L314.812 28.2432L314.081 28.8056L313.349 29.368L313.462 29.2794L313.573 29.1898L312.96 29.6924L312.238 30.2854L311.516 30.8783L310.795 31.4713L310.073 32.0643L309.352 32.6573L308.63 33.2503L307.908 33.8432L307.865 33.8795L307.822 33.9153L306.972 34.4515L306.166 34.9524L305.359 35.4532L304.553 35.954L303.746 36.4548L303.941 36.2908L304.141 36.113L302.894 35.6955L301.444 35.4705L293.894 27.759L292.283 26.1134L292.089 24.6591L292.097 23.0124L292.296 22.8346L292.492 22.6706L293.144 21.9805L293.796 21.2904L294.448 20.6003L295.1 19.9102L295.709 19.2556L295.665 19.2914L295.622 19.3277L296.326 18.7139L297.03 18.1002L297.734 17.4865L298.438 16.8728L299.143 16.2591L299.847 15.6454L300.551 15.0317L301.363 14.3275L301.474 14.238L301.587 14.1494L302.315 13.5833L303.044 13.0172L303.772 12.4511L304.501 11.885L305.23 11.3189L305.958 10.7528L306.687 10.1867L307.415 9.62058L308.144 9.05444L309.344 8.14625L309.836 7.83295L310.342 7.55163L311.163 7.12315L311.985 6.69463L312.806 6.26615L313.627 5.83766L314.449 5.40918L315.27 4.98069L316.091 4.5522L316.913 4.12372L317.734 3.6952L318.556 3.26672L319.377 2.83823L320.198 2.40975L321.02 1.98126L323.331 0.933986L324.906 0.570493L326.436 0.472168L327.397 0.485413L328.359 0.498658L329.32 0.511903L330.281 0.525119L331.243 0.538364L332.204 0.55161L334.286 0.646881L335.409 0.862797L336.487 1.20503L337.383 1.54118L338.279 1.87733L339.174 2.21345L340.07 2.5496L340.966 2.88572L344.175 4.4908L346.315 6.67272L347.64 9.30592L347.913 10.1482L348.187 10.9904L348.46 11.8326L348.733 12.6749L349.408 15.3201L349.458 17.2117L349.166 18.989L348.942 19.8627L348.719 20.7365L348.496 21.6103L348.272 22.484L348.049 23.3578L347.826 24.2315L347.602 25.1053L347.379 25.9791L347.156 26.8528L346.709 28.4609L346.437 29.1579L346.124 29.8083L345.701 30.6525L345.277 31.4967L344.854 32.3409L344.431 33.1851L344.007 34.0293L343.584 34.8735L343.055 35.9115L342.946 36.103L342.833 36.292L342.345 37.1003L341.858 37.9087L341.371 38.7171L340.883 39.5255L340.396 40.3339L339.908 41.1422L339.421 41.9506L338.933 42.759L338.446 43.5674L337.958 44.3757L337.471 45.1841L336.908 46.1137L336.831 46.2335L336.752 46.3519L336.232 47.1437L335.712 47.9354L335.192 48.7272L334.672 49.519L334.152 50.3107L333.632 51.1025L333.112 51.8943L332.592 52.686L332.072 53.4778L331.552 54.2696L331.032 55.0613L330.512 55.8531L329.992 56.6449L329.472 57.4366L328.952 58.2284L328.432 59.0202L327.85 59.9025L327.787 59.9926L327.723 60.0822L327.18 60.8547L326.638 61.6272L326.095 62.3996L325.552 63.1721L325.01 63.9446L324.467 64.7171L323.925 65.4895L323.382 66.262L322.84 67.0345L322.297 67.807L321.755 68.5794L321.212 69.3519L320.669 70.1244L320.127 70.8968L319.584 71.6693L319.042 72.4418L318.499 73.2142L317.957 73.9867L317.414 74.7592L316.893 75.5016L316.915 75.4714L316.936 75.4411L316.396 76.2137L315.855 76.9862L315.315 77.7587L314.774 78.5313L314.234 79.3038L313.693 80.0764L313.153 80.8489L312.613 81.6215L312.072 82.394L311.532 83.1666L310.991 83.9391L310.451 84.7117L309.91 85.4842L309.37 86.2568L308.829 87.0293L308.289 87.8019L307.748 88.5744L307.208 89.347L306.667 90.1195L306.127 90.8921L305.586 91.6646L305.261 92.1212L305.465 91.7964L305.658 91.4641L305.21 92.29L304.762 93.1159L304.314 93.9418L303.866 94.7677L303.418 95.5936L303.563 95.1646L304.015 93.7316L304.267 92.1853L304.191 93.0411L304.13 93.6945L304.059 94.4788L304.057 94.5073L303.915 94.5397L283.13 93.6683L283.169 93.7268L283.171 93.696L283.219 92.8647L283.263 92.1119L283.318 91.1865L283.329 91.0341L283.341 90.8985L283.449 90.0021L283.556 89.1058L283.663 88.2094L283.78 87.2239L283.789 87.1379L283.799 87.0549L283.936 86.1134L284.074 85.1719L284.212 84.2304L284.349 83.289L284.487 82.3454L284.487 82.3434L284.488 82.3413L284.627 81.4076L284.766 80.474L284.905 79.5403L285.044 78.6066L285.183 77.6729L285.322 76.7392L285.461 75.8056L285.6 74.8719L285.739 73.9382L285.879 73.0046L286.018 72.0709L286.157 71.1372L286.296 70.2035L286.435 69.2698L286.574 68.3362L286.711 67.4184L286.709 67.4346L286.707 67.4509L286.843 66.5368L286.978 65.6226L287.113 64.7085L287.249 63.7943L287.384 62.8802L287.519 61.966L287.655 61.0518L287.79 60.1377L287.925 59.2235L288.061 58.3094L288.196 57.3952L288.331 56.4811L288.467 55.5669L288.602 54.6528L288.737 53.7386L288.844 53.1082L288.824 53.3955L288.813 53.6854L288.871 52.7745L288.929 51.8636L288.986 50.9527L289.044 50.0419L289.101 49.131L289.159 48.2201L289.217 47.3092L289.274 46.3984L289.332 45.4875L289.39 44.5766L289.447 43.6657L289.505 42.7548L289.562 41.844L289.62 40.9331L289.678 40.0222L289.735 39.1113L289.792 38.2623L289.791 38.3252L289.791 38.3892L289.86 37.4995L289.929 36.6099L289.998 35.7202L290.067 34.8305L290.136 33.9409L290.205 33.0512L290.274 32.1615L290.343 31.2719L290.412 30.3822L290.481 29.4925L290.55 28.6029L290.619 27.7132L290.804 26.8235L290.989 25.9339L291.174 25.0442L291.359 24.1545L291.544 23.2648L291.733 22.1672L291.746 21.9146L291.775 21.603L292.03 20.9737L292.285 20.3444L292.541 19.7151L292.835 18.4322L302.228 16.5094L301.306 17.4972L297.436 21.8695Z" fill="black" style="fill:black;fill-opacity:1;"/>
<path d="M366.891 14.6881L366.662 16.1686V18.3276L371.16 16.0805L371.589 15.0855L371.448 16.0437L371.306 17.002L371.165 17.9602L371.024 18.9185L370.882 19.8768L370.741 20.835L370.599 21.7932L370.458 22.7515L370.317 23.7097L370.175 24.668L370.229 24.4878L370.277 24.3046L370.184 25.0575L370.046 25.9961L369.909 26.9347L369.771 27.8733L369.634 28.8119L369.497 29.7505L369.359 30.6891L369.222 31.6277L369.084 32.5663L368.947 33.5048L368.81 34.4434L368.672 35.382L368.535 36.3206L368.397 37.2592L368.398 37.2562L368.399 37.2531L368.246 38.1546L368.092 39.0593L367.939 39.964L367.785 40.8686L367.631 41.7733L367.478 42.678L367.324 43.5826L367.171 44.4873L367.017 45.392L366.863 46.2967L366.71 47.2013L366.556 48.106L366.403 49.0107L366.249 49.9153L366.095 50.82L365.942 51.7247L365.788 52.6294L365.635 53.534L365.648 53.4701L365.661 53.4075L365.534 54.2826L365.394 55.2192L365.254 56.1558L365.113 57.0924L364.973 58.0291L364.833 58.9656L364.693 59.9023L364.553 60.8389L364.413 61.7755L364.273 62.7121L364.133 63.6487L363.993 64.5853L363.853 65.5219L363.713 66.4585L363.573 67.3951L363.433 68.3317L363.293 69.2683L363.153 70.2049L363.013 71.1415L362.873 72.0781L362.733 73.0148L362.593 73.9513L362.609 73.8675L362.624 73.781L362.517 74.5893L362.395 75.4869L362.273 76.3845L362.151 77.282L362.029 78.1796L361.907 79.0771L361.785 79.9747L361.663 80.8723L361.54 81.7698L361.418 82.6674L361.433 82.5748L361.448 82.4781L361.367 83.2207L361.272 84.0645L361.177 84.9083L361.082 85.7521L360.988 86.5959L361.035 86.1748L361.065 85.7419L361.075 86.1216V86.9436V87.7656L360.493 87.1913L343.583 83.6705L343.214 84.5906L343.198 85.3058L343.594 84.7126L343.607 84.6581L343.618 84.6152L344.049 83.7181L344.471 82.8556L344.893 81.9932L345.316 81.1307L345.738 80.2682L346.161 79.4057L346.583 78.5433L347.005 77.6808L346.985 77.7638L346.965 77.8499L347.502 77.145L348.058 76.3507L348.614 75.5563L349.17 74.762L349.725 73.9676L350.281 73.1733L350.837 72.3789L351.393 71.5845L351.949 70.7902L352.505 69.9958L358.467 71.2443L358.658 72.195L358.848 73.1456L359.039 74.0963L359.229 75.0469L359.42 75.9976L359.61 76.9482L359.801 77.8988L359.991 78.8495L360.182 79.8001L360.353 80.8403L360.333 80.9264L360.313 81.0094L360.279 81.9692L360.246 82.9289L360.213 83.8887L360.179 84.8485L360.146 85.8083L360.112 86.768L360.079 87.7278L360.054 88.653L360.065 88.6101L360.078 88.5556L360.171 89.263L359.852 91.279L359.179 93.4997L342.269 89.9789L341.688 87.7656V86.9436V86.1216L341.698 84.8573L341.727 84.4244L341.775 84.0033L341.907 83.1645L342.039 82.3257L342.171 81.4869L342.303 80.6481L342.45 79.7081L342.464 79.6114L342.479 79.5188L342.654 78.63L342.829 77.7412L343.004 76.8524L343.179 75.9636L343.353 75.0749L343.528 74.1861L343.703 73.2973L343.878 72.4085L344.053 71.5197L344.243 70.5417L344.259 70.4552L344.275 70.3713L344.497 69.4509L344.72 68.5305L344.943 67.6101L345.166 66.6897L345.389 65.7692L345.612 64.8488L345.835 63.9284L346.058 63.008L346.28 62.0876L346.503 61.1672L346.726 60.2468L346.949 59.3263L347.172 58.4059L347.395 57.4855L347.618 56.5651L347.841 55.6447L348.064 54.7242L348.286 53.8038L348.509 52.8834L348.732 51.963L348.955 51.0426L349.19 50.0607L349.203 49.998L349.217 49.9342L349.456 49.0482L349.695 48.1623L349.934 47.2763L350.173 46.3904L350.412 45.5044L350.651 44.6185L350.89 43.7326L351.129 42.8466L351.368 41.9607L351.607 41.0747L351.846 40.1888L352.085 39.3028L352.324 38.4169L352.563 37.531L352.802 36.645L353.041 35.7591L353.28 34.8731L353.52 33.984L353.521 33.981L353.521 33.9779L353.792 33.0686L354.062 32.1593L354.332 31.25L354.602 30.3407L354.872 29.4314L355.143 28.5221L355.413 27.6128L355.683 26.7035L355.953 25.7942L356.223 24.8849L356.494 23.9756L356.764 23.0663L357.034 22.157L357.348 21.062L357.397 20.8788L357.45 20.6986L357.879 19.8299L358.307 18.9612L358.736 18.0925L359.164 17.2238L359.593 16.3551L360.021 15.4864L360.45 14.6178L360.878 13.749L361.306 12.8803L361.735 12.0117L362.165 11.0167L366.662 8.76953V10.9285L366.891 14.6881Z" fill="black" style="fill:black;fill-opacity:1;"/>
<path d="M361.665 25.4134L360.948 26.4331L360.523 28.2854L360.304 29.2361L359.655 17.6241L360.49 17.2504L361.326 16.8767L362.161 16.503L362.996 16.1293L363.831 15.7556L364.666 15.3819L365.501 15.0083L366.336 14.6345L367.171 14.2609L367.381 14.1925L367.597 14.1298L368.666 13.8009L369.514 13.5283L370.362 13.2558L371.21 12.9832L372.058 12.7107L372.906 12.4381L373.754 12.1656L373.951 12.1216L374.153 12.0825L375.211 11.8929L376.062 11.7374L376.913 11.5819L377.765 11.4264L378.616 11.2709L379.467 11.1154L380.318 10.9599L381.169 10.8044L381.524 10.7596L381.875 10.7322L383.111 10.7103L384.004 10.6994L384.898 10.6885L385.791 10.6776L386.684 10.6667L387.578 10.6558L388.471 10.6448L389.365 10.6339L390.258 10.623L391.151 10.6121L392.045 10.6012L392.938 10.5903L393.684 10.62L394.455 10.729L396.04 11.1762L396.853 11.431L397.666 11.6858L398.478 11.9406L399.291 12.1954L400.104 12.4502L400.917 12.705L402.29 13.2782L403.569 14.1484L405.123 15.8892L405.641 16.5675L406.16 17.2457L406.679 17.9239L407.198 18.6022L407.716 19.2804L408.531 20.5447L409.072 21.9403L409.378 24.2046L409.442 25.1122L409.506 26.0198L409.57 26.9273L409.634 27.8349L409.698 28.7425L409.711 29.7877L409.575 30.8275L409.01 32.6863L408.715 33.571L408.419 34.4556L408.123 35.3403L407.828 36.225L407.532 37.1096L407.237 37.9943L406.819 38.9583L406.267 39.8578L404.998 41.3701L404.377 42.096L403.756 42.8218L403.135 43.5477L402.515 44.2736L401.894 44.9995L401.273 45.7254L400.652 46.4513L400.04 47.0329L399.336 47.5669L397.784 48.5031L397.007 48.9795L396.229 49.4559L395.452 49.9324L394.675 50.4088L393.897 50.8852L393.12 51.3616L392.343 51.838L391.566 52.3144L390.788 52.7908L390.011 53.2673L389.234 53.7437L388.456 54.2201L387.696 54.5687L386.892 54.8468L385.195 55.2725L384.322 55.5003L383.45 55.728L382.578 55.9558L381.705 56.1836L380.833 56.4114L379.961 56.6392L379.088 56.8669L378.578 56.9485L378.067 57.001L376.648 57.076L375.737 57.1273L374.825 57.1787L373.914 57.23L373.002 57.2813L372.091 57.3326L372.035 57.3335L371.975 57.3341L371.111 57.4158L370.312 57.4973L369.513 57.5788L368.715 57.6603L368.602 57.7954L369.059 38.1546L369.026 38.1531L369.831 38.268L370.665 38.384L371.498 38.5L372.698 38.6246L373.895 38.9065L375.79 39.6791L376.548 40.0247L377.307 40.3704L378.065 40.716L378.823 41.0617L379.582 41.4073L379.879 41.5474L380.163 41.693L381.188 42.2799L381.943 42.7166L382.699 43.1533L383.454 43.59L384.209 44.0267L384.964 44.4634L385.719 44.9001L386.475 45.3368L386.892 45.5923L387.277 45.8553L388.366 46.7078L389.103 47.2935L389.839 47.8791L390.575 48.4648L391.311 49.0504L392.047 49.636L392.783 50.2217L393.519 50.8073L394.255 51.393L394.991 51.9786L395.727 52.5643L396.464 53.1499L397.2 53.7355L397.548 54.0257L397.887 54.3366L398.847 55.34L399.48 56.0133L400.113 56.6866L400.746 57.36L401.379 58.0333L402.012 58.7067L402.646 59.38L403.279 60.0533L403.912 60.7267L404.125 60.9606L404.326 61.1962L405.099 62.1895L405.683 62.9465L406.268 63.7035L406.852 64.4605L407.437 65.2175L408.021 65.9745L408.606 66.7315L409.191 67.4885L409.37 67.7283L409.553 67.9911L410.195 69.0129L410.651 69.7467L411.106 70.4805L411.562 71.2143L412.017 71.9481L412.473 72.6819L412.928 73.4157L413.102 73.7054L413.263 73.9992L413.764 75.0968L414.114 75.898L414.465 76.6992L414.816 77.5004L415.167 78.3016L415.517 79.1028L415.669 79.4336L415.845 79.8658L415.781 81.1439L415.519 81.8391L403.168 85.2774L399.469 86.7077L398.865 86.2752L398.459 86.4255L398.634 86.8577L398.786 87.1885L398.377 86.4159L397.967 85.6432L397.557 84.8706L397.147 84.098L396.737 83.3253L396.477 82.8491L396.639 83.1429L396.812 83.4326L396.355 82.6993L395.899 81.9659L395.443 81.2326L394.987 80.4992L394.53 79.7658L394.074 79.0325L393.804 78.5872L393.987 78.85L394.167 79.0898L393.582 78.3328L392.998 77.5758L392.413 76.8188L391.828 76.0618L391.244 75.3048L390.659 74.5478L390.075 73.7908L389.679 73.2701L389.88 73.5057L390.093 73.7396L389.458 73.0672L388.824 72.3947L388.19 71.7223L387.556 71.0499L386.922 70.3774L386.288 69.705L385.654 69.0325L385.02 68.3601L384.712 68.0177L385.051 68.3286L385.399 68.6187L384.661 68.0356L383.923 67.4524L383.185 66.8692L382.447 66.2861L381.709 65.7029L380.971 65.1197L380.233 64.5366L379.495 63.9534L378.757 63.3703L378.019 62.7871L377.281 62.2039L376.543 61.6207L376.158 61.3044L376.543 61.5675L376.96 61.823L376.204 61.3876L375.448 60.9521L374.692 60.5167L373.936 60.0813L373.18 59.6459L372.425 59.2104L371.669 58.775L371.183 58.4897L371.467 58.6354L371.764 58.7754L371.002 58.4369L370.241 58.0984L369.479 57.7599L368.718 57.4214L367.956 57.0829L368.331 57.1713L369.528 57.4531L370.727 57.5778L369.887 57.6261L369.047 57.6745L368.178 57.7216L368.145 57.7201L368.602 38.0793L368.715 38.2144L369.513 38.2959L370.312 38.3775L371.111 38.459L371.844 38.5407L371.784 38.5413L371.729 38.5422L372.642 38.5584L373.555 38.5746L374.468 38.5909L375.381 38.6071L376.294 38.6233L376.7 38.6633L376.189 38.7158L375.678 38.7973L376.573 38.6915L377.469 38.5856L378.364 38.4798L379.26 38.3739L380.155 38.2681L381.05 38.1623L381.946 38.0564L382.016 38.1485L381.212 38.4265L380.452 38.7752L381.289 38.4148L382.127 38.0543L382.964 37.6939L383.801 37.3334L384.639 36.973L385.476 36.6126L386.314 36.2522L387.151 35.8917L387.989 35.5313L388.826 35.1709L389.663 34.8104L390.501 34.45L390.563 34.5494L389.86 35.0834L389.247 35.665L389.937 35.0046L390.628 34.3444L391.318 33.6841L392.008 33.0237L392.698 32.3635L393.388 31.7031L394.079 31.0429L394.121 31.169L393.569 32.0685L393.151 33.0325L393.475 32.1579L393.799 31.2832L394.123 30.4086L394.447 29.534L394.771 28.6593L395.096 27.7847L395.15 27.8843L395.014 28.924L395.027 29.9693L394.94 29.0637L394.852 28.1581L394.765 27.2525L394.677 26.3469L394.589 25.4413L394.744 25.8925L395.285 27.288L396.099 28.5523L395.553 27.8961L395.007 27.2398L394.46 26.5835L393.914 25.9273L393.368 25.271L393.856 25.6773L395.135 26.5475L396.508 27.1208L395.692 26.8772L394.875 26.6336L394.059 26.3901L393.242 26.1465L392.426 25.9029L391.61 25.6594L391.565 25.6083L392.336 25.7172L393.082 25.7469L392.188 25.7529L391.295 25.7589L390.401 25.7649L389.508 25.771L388.614 25.777L387.721 25.783L386.828 25.789L385.934 25.795L385.041 25.801L384.147 25.807L383.254 25.813L382.703 25.808L383.053 25.7806L383.409 25.7359L382.549 25.8369L381.69 25.938L380.831 26.039L379.972 26.1401L379.112 26.2411L378.253 26.3422L377.394 26.4432L376.741 26.5103L376.943 26.4711L377.14 26.4272L376.26 26.5649L375.38 26.7026L374.5 26.8404L373.62 26.9781L372.74 27.1159L371.86 27.2536L371.201 27.3349L371.416 27.2722L371.626 27.2039L370.738 27.4233L369.849 27.6427L368.961 27.8621L368.073 28.0815L367.185 28.301L366.297 28.5204L365.408 28.7398L364.52 28.9592L363.632 29.1786L362.983 17.5666L362.765 18.5173L362.339 20.3697L361.665 25.4134Z" fill="black" style="fill:black;fill-opacity:1;"/>
<path d="M428.824 14.8641V13.334L424.729 14.9845H423.228L435.351 14.6763L435.535 15.3435L435.718 16.0108L435.718 16.0815L435.717 16.1408L435.899 17.0588L436.082 17.9265L436.265 18.7942L436.448 19.6619L436.631 20.5297L436.621 20.7741L436.604 21.0051L436.544 22.1618L436.507 23.1005L436.469 24.0391L436.431 24.9777L436.393 25.9164L436.355 26.855L436.318 27.7936L436.28 28.7322L436.242 29.6708L436.204 30.6095L436.166 31.5481L436.128 32.4867L436.091 33.4254L436.053 34.364L436.015 35.3026L436.006 35.3785L435.996 35.4556L435.888 36.4438L435.791 37.3538L435.694 38.2638L435.596 39.1738L435.499 40.0838L435.402 40.9938L435.304 41.9038L435.207 42.8138L435.11 43.7238L435.012 44.6338L434.915 45.5438L434.818 46.4538L434.72 47.3638L434.623 48.2738L434.526 49.1838L434.428 50.0938L434.331 51.0038L434.337 50.9654L434.342 50.9281L434.248 51.839L434.151 52.7864L434.053 53.7337L433.955 54.6811L433.857 55.6284L433.759 56.5758L433.661 57.5231L433.563 58.4705L433.466 59.4178L433.368 60.3652L433.27 61.3125L433.172 62.2599L433.074 63.2072L432.976 64.1546L432.878 65.1019L432.883 65.0682L432.887 65.0327L432.808 65.8699L432.724 66.7447L432.641 67.6194L432.557 68.4942L432.473 69.3689L432.39 70.2436L432.306 71.1183L432.222 71.9931L432.139 72.8678L432.055 73.7425L432.062 73.6836L432.068 73.6239L431.996 74.4241L431.917 75.2847L431.839 76.1453L431.76 77.0059L431.681 77.8665L431.603 78.7271L431.524 79.5877L431.446 80.4483L431.455 80.3529L431.463 80.2543L431.41 80.9735L431.349 81.7946L431.288 82.6158L431.237 83.2792L431.223 83.4846L430.692 84.2152L412.851 83.2119L412.853 83.2428L413.118 82.1771L413.4 81.3577L413.673 80.3979L413.945 79.4382L414.217 78.4785L414.49 77.5187L414.762 76.559L415.034 75.5993L415.307 74.6396L415.579 73.6798L415.851 72.7201L424.918 72.016L425.335 72.9222L425.753 73.8284L426.17 74.7346L426.587 75.6407L427.004 76.5469L427.422 77.4531L427.839 78.3593L428.256 79.2655L428.673 80.1716L429.1 81.2181L429.51 82.0183L429.513 82.0492L411.671 82.6925L411.14 81.987L411.127 82.1924L411.19 81.2131L411.244 80.3915L411.298 79.5698L411.359 78.6463L411.367 78.5477L411.376 78.4523L411.469 77.5931L411.561 76.7339L411.654 75.8747L411.746 75.0155L411.839 74.1562L411.931 73.297L412.024 72.4378L412.122 71.5182L412.129 71.4585L412.136 71.3996L412.257 70.5293L412.379 69.659L412.5 68.7888L412.622 67.9185L412.743 67.0482L412.865 66.178L412.987 65.3077L413.108 64.4374L413.23 63.5671L413.356 62.6594L413.36 62.6239L413.365 62.5902L413.51 61.6489L413.655 60.7077L413.8 59.7664L413.945 58.8252L414.091 57.8839L414.236 56.9427L414.381 56.0014L414.526 55.0602L414.672 54.1189L414.817 53.1777L414.962 52.2364L415.107 51.2952L415.253 50.3539L415.398 49.4127L415.548 48.435L415.553 48.3976L415.558 48.3593L415.716 47.4578L415.874 46.5563L416.032 45.6549L416.19 44.7534L416.348 43.8519L416.505 42.9504L416.663 42.049L416.821 41.1475L416.979 40.246L417.137 39.3446L417.295 38.4431L417.453 37.5416L417.611 36.6402L417.768 35.7387L417.926 34.8372L418.084 33.9358L418.231 33.1125L418.221 33.1895L418.212 33.2654L418.388 32.3425L418.563 31.4196L418.738 30.4967L418.913 29.5738L419.088 28.6509L419.264 27.728L419.439 26.8051L419.614 25.8822L419.789 24.9593L419.964 24.0364L420.14 23.1135L420.315 22.1906L420.49 21.2677L420.665 20.3448L420.819 19.6399L420.802 19.8709L420.792 20.1154L421.02 19.2584L421.248 18.4014L421.476 17.5444L421.704 16.6875L421.931 15.8808L421.93 15.94L421.93 16.0108L422.114 15.3435L422.297 14.6763L434.42 14.9845H432.919L428.824 16.6351V14.8641Z" fill="black" style="fill:black;fill-opacity:1;"/>
<path d="M427.797 9.65569V8.1164V6.68872L421.173 11.8312L421.182 11.1792L421.191 10.5272L421.201 9.87525L422.819 5.87571L431.963 4.90186L434.049 7.15841L434.597 7.78166L435.144 8.40495L435.244 8.55937L435.335 8.70715L435.975 9.56553L436.534 10.2826L437.092 10.9998L437.651 11.7169L438.21 12.434L438.768 13.1512L439.327 13.8683L439.885 14.5854L439.967 14.7339L440.045 14.8826L440.553 15.8356L440.987 16.64L441.421 17.4443L441.855 18.2487L442.289 19.0531L442.723 19.8575L443.157 20.6618L443.591 21.4662L443.612 21.5103L443.633 21.5551L444.042 22.4091L444.429 23.2177L444.816 24.0262L445.203 24.8348L445.59 25.6434L445.977 26.4519L446.365 27.2605L446.752 28.0691L447.139 28.8776L447.526 29.6862L447.913 30.4948L448.301 31.3034L448.688 32.1119L448.696 32.1301L448.705 32.148L449.101 33.0021L449.49 33.8387L449.879 34.6753L450.267 35.5119L450.656 36.3485L451.045 37.1851L451.433 38.0217L451.822 38.8583L452.211 39.6949L452.6 40.5315L452.988 41.3681L453.377 42.2047L453.766 43.0413L454.154 43.8779L454.543 44.7144L454.932 45.5511L455.32 46.3877L455.292 46.325L455.263 46.2643L455.655 47.0683L456.076 47.9312L456.496 48.7941L456.916 49.657L457.337 50.5199L457.757 51.3829L458.178 52.2458L458.598 53.1087L459.018 53.9716L459.439 54.8345L459.859 55.6974L460.28 56.5603L460.24 56.4789L460.197 56.395L460.576 57.115L461 57.9214L461.423 58.7278L461.847 59.5342L462.27 60.3406L462.694 61.147L463.118 61.9534L463.116 61.9511L463.115 61.9487L463.532 62.7419L463.95 63.5374L464.368 64.3329L464.786 65.1283L465.204 65.9238L465.622 66.7193L466.04 67.5148L466.458 68.3103L466.876 69.1058L467.294 69.9013L467.712 70.6968L468.13 71.4922L468.123 71.4802L468.117 71.468L468.498 72.2591L468.886 73.0624L469.274 73.8656L469.662 74.6689L470.049 75.4722L470.437 76.2754L470.52 76.4345L470.595 76.5875L470.551 77.8406L470.438 78.9464L458.305 84.4897L457.009 85.0818L456.099 84.4435L455.258 83.9522L455.334 84.1053L455.416 84.2643L454.967 83.4938L454.518 82.7232L454.068 81.9526L453.619 81.1821L453.17 80.4115L452.714 79.6287L452.708 79.6166L452.701 79.6045L452.283 78.8092L451.864 78.014L451.446 77.2187L451.028 76.4234L450.609 75.6282L450.191 74.8329L449.772 74.0377L449.354 73.2424L448.935 72.4471L448.517 71.6519L448.099 70.8566L447.679 70.059L447.678 70.0567L447.676 70.0543L447.254 69.2475L446.831 68.4407L446.408 67.6339L445.985 66.8271L445.562 66.0203L445.14 65.2135L444.672 64.3203L444.63 64.2364L444.59 64.1549L444.174 63.2899L443.758 62.4248L443.342 61.5598L442.926 60.6947L442.51 59.8297L442.094 58.9646L441.678 58.0996L441.262 57.2345L440.846 56.3695L440.43 55.5044L440.014 54.6394L439.57 53.7154L439.541 53.6547L439.512 53.5921L439.136 52.7499L438.759 51.9077L438.383 51.0655L438.007 50.2233L437.63 49.3811L437.254 48.5389L436.877 47.6967L436.501 46.8545L436.125 46.0123L435.748 45.1701L435.372 44.3279L434.996 43.4857L434.619 42.6435L434.243 41.8013L433.866 40.9591L433.49 40.1169L433.122 39.2922L433.13 39.3101L433.138 39.3283L432.771 38.5106L432.403 37.6929L432.036 36.8752L431.668 36.0575L431.301 35.2398L430.933 34.4221L430.565 33.6044L430.198 32.7867L429.83 31.969L429.463 31.1513L429.095 30.3336L428.728 29.5159L428.382 28.7436L428.403 28.7884L428.424 28.8325L428.06 27.9941L427.696 27.1557L427.332 26.3174L426.968 25.479L426.604 24.6406L426.24 23.8022L425.877 22.9639L425.587 22.2741L425.665 22.4228L425.746 22.5713L425.421 21.7227L425.095 20.8741L424.769 20.0256L424.443 19.177L424.117 18.3284L423.792 17.4799L423.466 16.6313L423.222 15.924L423.312 16.0718L423.412 16.2262L423.048 15.4812L422.683 14.7361L423.857 15.6243L433.001 14.6505L434.62 10.6509L434.554 11.2996L434.488 11.9483L434.422 12.597L427.797 17.7395V16.3118V9.65569Z" fill="black" style="fill:black;fill-opacity:1;"/>
<path d="M421.524 64.6021L421.069 66.0034V67.1961L420.324 54.4625L420.735 54.4296L421.549 54.2528L422.364 54.0761L423.178 53.8993L423.992 53.7225L424.806 53.5457L424.875 53.5426L424.945 53.5402L425.829 53.3985L426.644 53.2586L427.459 53.1187L428.274 52.9788L429.089 52.8389L429.904 52.6991L429.871 52.6998L429.841 52.7006L430.759 52.6384L431.704 52.5753L432.65 52.5122L433.596 52.449L434.541 52.3859L435.486 52.3228L436.432 52.2597L437.378 52.1966L438.323 52.1335L439.269 52.0704L439.356 52.068L439.448 52.0664L440.425 52.0726L441.304 52.0793L442.184 52.086L443.064 52.0927L443.943 52.0994L444.823 52.1061L445.703 52.1129L446.539 52.2998L447.375 52.4868L448.212 52.6738L449.048 52.8608L449.885 53.0478L450.721 53.2347L450.919 53.2374L451.111 53.2451L452.055 54.8052L452.813 56.353L453.571 57.9009L453.119 63.6342L452.128 65.0443L451.137 66.4542L450.331 67.8765L450.523 67.8842L450.721 67.8869L449.885 68.0739L449.048 68.2608L448.212 68.4478L447.375 68.6348L446.539 68.8218L445.703 69.0088L444.823 69.0155L443.943 69.0222L443.064 69.0289L442.184 69.0356L441.304 69.0423L440.425 69.049L439.642 69.0552L439.734 69.0537L439.821 69.0512L438.874 69.0498L437.926 69.0483L436.979 69.0469L436.031 69.0454L435.083 69.0439L434.136 69.0425L433.188 69.041L432.241 69.0395L431.293 69.0381L430.318 69.0375L430.288 69.0383L430.255 69.0391L429.435 68.9343L428.614 68.8295L427.794 68.7247L426.974 68.6199L426.154 68.5151L425.403 68.4085L425.472 68.406L425.541 68.4029L424.713 68.3073L423.886 68.2118L423.058 68.1162L422.23 68.0206L421.402 67.925L421.813 67.8921L421.069 55.1585V56.3513L421.524 64.6021Z" fill="black" style="fill:black;fill-opacity:1;"/>
<path d="M467.891 13.9442L466.697 14.0316L464.595 14.8007L473.803 14.3268L473.921 13.2404L474.197 14.0618L474.473 14.8832L474.423 14.1343L474.291 13.464L474.646 13.7087L475.186 14.5316L475.727 15.3545L476.267 16.1775L476.31 16.2943L476.354 16.4196L476.793 17.3476L477.188 18.1412L477.583 18.9349L477.978 19.7285L478.373 20.5221L478.768 21.3158L479.163 22.1094L479.214 22.2796L479.258 22.4418L479.586 23.5038L479.875 24.4112L480.164 25.3186L480.453 26.226L480.741 27.1335L481.03 28.0409L481.319 28.9483L481.608 29.8557L481.897 30.7632L482.186 31.6706L482.475 32.578L482.764 33.4855L483.053 34.3929L483.342 35.3003L483.63 36.2077L483.652 36.2986L483.672 36.3924L483.906 37.3725L484.119 38.2556L484.331 39.1387L484.544 40.0218L484.757 40.905L484.97 41.7881L485.183 42.6713L485.396 43.5544L485.609 44.4375L485.822 45.3206L486.035 46.2038L486.248 47.0869L486.231 47.0087L486.215 46.9314L486.426 47.7459L486.654 48.6371L486.883 49.5282L487.111 50.4193L487.339 51.3104L487.568 52.2015L487.796 53.0926L488.025 53.9838L488.253 54.8749L488.482 55.766L488.71 56.6571L488.701 56.6191L488.692 56.5823L488.922 57.4781L489.161 58.4096L489.4 59.3412L489.639 60.2728L489.877 61.2043L490.116 62.1359L490.355 63.0675L490.594 63.9991L490.832 64.9306L491.071 65.8622L491 65.5897L490.92 65.316L491.144 65.9325L491.459 66.8231L491.773 67.7136L492.087 68.6042L492.401 69.4948L492.716 70.3854L493.03 71.276L493.344 72.1666L493.658 73.0572L493.973 73.9479L493.722 73.3008L493.368 72.5676L493.285 72.3736L493.698 72.9945L494.11 73.6154L492.051 71.4419L487.739 69.6365L483.491 70.0016L484.004 69.7981L480.997 71.7424L479.33 73.9121L478.84 74.7668L479.083 73.9212L479.326 73.0757L479.57 72.2301L479.813 71.3846L480.057 70.539L479.974 70.8151L479.901 71.0853L480.033 70.4499L480.228 69.5503L480.423 68.6509L480.618 67.7514L480.812 66.8519L481.007 65.9524L481.202 65.0529L481.397 64.1534L481.591 63.2538L481.786 62.3544L481.981 61.4549L482.176 60.5554L482.186 60.5085L482.197 60.4618L482.421 59.517L482.635 58.6188L482.848 57.7206L483.061 56.8223L483.275 55.9241L483.488 55.0258L483.701 54.1276L483.915 53.2294L484.128 52.3311L484.341 51.4329L484.555 50.5347L484.768 49.6364L484.981 48.7382L485.194 47.8399L485.408 46.9417L485.621 46.0435L485.834 45.1452L486.048 44.247L486.261 43.3487L486.474 42.4505L486.688 41.5523L486.901 40.654L487.114 39.7558L487.328 38.8576L487.357 38.7378L487.389 38.6148L487.662 37.6393L487.901 36.7902L488.14 35.941L488.379 35.0919L488.617 34.2427L488.856 33.3935L489.095 32.5444L489.334 31.6953L489.573 30.8461L489.811 29.9969L490.05 29.1478L490.08 29.0453L490.11 28.943L490.415 28.0047L490.689 27.1687L490.962 26.3326L491.235 25.4965L491.508 24.6605L491.782 23.8244L491.799 23.7691L491.819 23.7095L492.093 22.9063L492.345 22.1676L492.597 21.4289L492.85 20.6902L493.102 19.9516L493.156 19.7968L493.206 19.661L493.658 18.6941L494.065 17.8472L495.286 15.658L510.875 16.7289L511.98 21.7156L511.921 22.5137L511.862 23.3119L511.803 24.1101L511.801 24.0691L511.8 24.031L511.838 24.8814L511.878 25.7673L511.917 26.6532L511.957 27.5391L511.997 28.425L512.037 29.3109L512.077 30.1968L512.117 31.0827L512.11 30.9614L512.102 30.842L512.172 31.6278L512.252 32.5311L512.332 33.4345L512.412 34.3378L512.492 35.2411L512.572 36.1444L512.653 37.0477L512.733 37.9511L512.813 38.8544L512.893 39.7577L512.86 39.4503L512.816 39.1399L512.932 39.6998L513.103 40.5722L513.275 41.4447L513.446 42.3171L513.617 43.1896L513.789 44.062L513.96 44.9345L514.131 45.8069L514.303 46.6793L514.474 47.5518L514.364 47.0652L514.227 46.5831L514.377 46.9396L514.691 47.769L515.005 48.5985L515.319 49.4279L515.632 50.2573L515.946 51.0868L516.26 51.9162L516.574 52.7457L516.888 53.5751L517.201 54.4045L517.515 55.234L517.829 56.0634L517.516 55.3356L517.123 54.6089L517.158 54.5781L517.664 55.252L518.17 55.9259L518.676 56.5998L519.182 57.2737L517.838 55.8241L515.885 54.5384L514.28 53.8962L514.995 54.0105L515.711 54.1248L516.427 54.2391L513.799 54.1537L511.307 54.8077L510.065 55.3605L510.708 54.8337L511.35 54.3068L511.993 53.78L512.636 53.2532L513.278 52.7264L512.164 53.7051L511.279 54.7664L511.052 54.9703L511.476 54.1214L511.899 53.2724L512.323 52.4235L512.746 51.5746L513.17 50.7258L513.593 49.8769L514.017 49.028L514.44 48.179L514.864 47.3301L515.288 46.4813L515.711 45.6324L516.135 44.7835L516.558 43.9345L516.982 43.0856L517.405 42.2368L517.829 41.3879L518.252 40.539L518.048 40.9471L517.863 41.3681L518.008 40.9137L518.321 40.028L518.633 39.1423L518.945 38.2567L519.257 37.371L519.57 36.4853L519.882 35.5996L520.194 34.7139L520.506 33.8283L520.818 32.9426L521.131 32.0569L521.443 31.1712L521.755 30.2855L522.067 29.3998L522.379 28.5142L522.692 27.6285L523.004 26.7428L523.316 25.8571L523.273 25.9796L523.231 26.1052L523.455 25.3639L523.721 24.4936L523.987 23.6234L524.253 22.7531L524.518 21.8829L524.784 21.0126L525.05 20.1424L525.316 19.2721L525.581 18.4019L525.847 17.5316L526.113 16.6614L526.379 15.7911L526.645 14.9208L526.657 14.882L526.669 14.8434L526.949 13.9266L527.216 13.048L527.484 12.1695L527.751 11.291L528.019 10.4125L528.286 9.53394L528.237 9.68686L528.191 9.8406L528.382 9.10745L528.616 8.21982L528.849 7.33221L529.084 6.44461L529.317 5.55701L529.551 4.66938L529.785 3.78178L530.019 2.89418L529.934 3.22724L529.852 3.60683L529.884 3.28713L529.991 2.533L530.066 2.00567L530.055 2.09536L530.237 1.15918L549.222 2.87268L547.433 3.38393L546.551 3.94968L545.668 4.51543H534.388L533.505 3.94968L532.623 3.38393L530.834 2.87268L549.819 4.58618L550.001 4.4695L549.99 4.55919L549.837 5.53801L549.716 6.29008L549.52 7.47653L549.437 7.85612L549.352 8.18919L549.101 9.07215L548.85 9.95511L548.599 10.838L548.348 11.721L548.098 12.604L547.847 13.4869L547.596 14.3699L547.301 15.4073L547.255 15.561L547.206 15.7139L546.904 16.5809L546.601 17.4479L546.298 18.3149L545.995 19.1818L545.693 20.0488L545.402 20.8775L545.415 20.8389L545.427 20.8L545.149 21.6665L544.871 22.533L544.593 23.3995L544.315 24.2659L544.038 25.1324L543.76 25.9989L543.482 26.8654L543.204 27.7318L542.926 28.5983L542.648 29.4648L542.37 30.3313L542.093 31.1978L541.773 32.1931L541.731 32.3188L541.688 32.4412L541.367 33.3236L541.045 34.206L540.724 35.0884L540.403 35.9708L540.081 36.8531L539.76 37.7355L539.438 38.6179L539.117 39.5003L538.795 40.3826L538.474 41.265L538.153 42.1474L537.831 43.0298L537.51 43.9122L537.188 44.7945L536.867 45.6769L536.545 46.5593L536.224 47.4417L535.736 48.7553L535.55 49.1763L535.347 49.5844L534.883 50.4121L534.419 51.2398L533.956 52.0675L533.492 52.8952L533.029 53.7229L532.565 54.5505L532.101 55.3782L531.638 56.2059L531.174 57.0336L530.71 57.8613L530.247 58.689L529.783 59.5167L529.32 60.3443L528.856 61.172L528.392 61.9997L527.929 62.8274L527.465 63.6551L526.351 65.5355L525.466 66.5969L524.352 67.5755L523.664 68.0411L522.976 68.5067L522.287 68.9723L521.599 69.4379L520.911 69.9035L518.338 71.4487L515.847 72.1027L513.218 72.0173L512.508 71.8741L511.797 71.7309L511.086 71.5877L508.054 70.688L506.101 69.4023L504.757 67.9527L504.26 67.2718L503.763 66.5909L503.267 65.91L502.77 65.2291L501.801 63.8435L501.408 63.1168L501.095 62.389L500.782 61.5594L500.469 60.7298L500.155 59.9002L499.842 59.0706L499.529 58.241L499.215 57.4114L498.902 56.5818L498.589 55.7522L498.275 54.9226L497.962 54.093L497.649 53.2634L497.171 51.9608L497.034 51.4787L496.925 50.9921L496.754 50.1196L496.583 49.247L496.412 48.3745L496.242 47.5019L496.071 46.6293L495.9 45.7568L495.729 44.8842L495.559 44.0117L495.388 43.1391L495.162 41.9541L495.118 41.6436L495.085 41.3362L495.005 40.4329L494.925 39.5295L494.845 38.6262L494.765 37.7229L494.685 36.8195L494.605 35.9162L494.525 35.0129L494.444 34.1096L494.364 33.2063L494.275 32.1854L494.266 32.066L494.26 31.9447L494.214 31.0591L494.168 30.1735L494.123 29.2879L494.077 28.4023L494.031 27.5167L493.986 26.6311L493.94 25.7454L493.893 24.8244L493.891 24.7863L493.889 24.7453L493.774 23.9533L493.658 23.1614L493.543 22.3694L494.591 25.766L510.181 26.8369L511.402 24.6477L511.124 25.545L510.893 26.3224L510.943 26.1866L510.997 26.0318L510.747 26.7712L510.497 27.5107L510.247 28.2501L509.997 28.9895L509.768 29.6644L509.788 29.6048L509.806 29.5495L509.546 30.39L509.287 31.2305L509.028 32.071L508.768 32.9115L508.509 33.7521L508.282 34.4904L508.312 34.3881L508.342 34.2856L508.103 35.1349L507.865 35.9842L507.627 36.8335L507.389 37.6828L507.15 38.5321L506.912 39.3814L506.674 40.2307L506.436 41.08L506.197 41.9293L505.959 42.7786L505.755 43.5016L505.787 43.3786L505.816 43.2588L505.602 44.1569L505.388 45.0549L505.174 45.9529L504.959 46.8509L504.745 47.7489L504.531 48.6469L504.316 49.5449L504.102 50.4429L503.888 51.341L503.674 52.239L503.459 53.137L503.245 54.035L503.031 54.933L502.817 55.831L502.602 56.729L502.388 57.627L502.174 58.5251L501.959 59.4231L501.745 60.3211L501.531 61.2191L501.317 62.1171L501.102 63.0151L500.888 63.9131L500.685 64.7646L500.695 64.7179L500.706 64.6711L500.502 65.5684L500.297 66.4658L500.093 67.3632L499.889 68.2605L499.684 69.1579L499.48 70.0553L499.276 70.9527L499.071 71.8501L498.867 72.7475L498.663 73.6448L498.458 74.5422L498.191 75.7036L498.119 75.9739L498.036 76.2499L497.747 77.0809L497.458 77.912L497.168 78.743L496.879 79.574L496.59 80.4051L495.567 82.9364L493.9 85.106L490.893 87.0503L490.38 87.2566L485.106 88.0315L480.793 86.226L478.735 84.0525L478.31 83.4404L477.885 82.8283L476.966 81.4013L476.611 80.6681L476.361 80.0211L476.059 79.1261L475.758 78.2311L475.456 77.3361L475.155 76.4411L474.854 75.5461L474.552 74.6511L474.251 73.7561L473.949 72.8611L473.648 71.9661L473.256 70.7969L473.176 70.5232L473.105 70.2507L472.887 69.314L472.67 68.3773L472.452 67.4405L472.234 66.5038L472.017 65.5671L471.799 64.6303L471.582 63.6936L471.364 62.7569L471.146 61.8201L470.92 60.8477L470.911 60.8108L470.902 60.7728L470.717 59.8718L470.531 58.9708L470.345 58.0699L470.159 57.1689L469.974 56.2679L469.788 55.367L469.602 54.466L469.416 53.565L469.231 52.664L469.045 51.763L468.842 50.7855L468.825 50.7082L468.809 50.63L468.66 49.7338L468.511 48.8376L468.363 47.9414L468.214 47.0452L468.066 46.149L467.917 45.2528L467.769 44.3566L467.62 43.4604L467.471 42.5642L467.323 41.6679L467.174 40.7718L467.046 39.9725L467.067 40.0663L467.088 40.1571L466.936 39.2171L466.784 38.277L466.631 37.3369L466.479 36.3968L466.327 35.4568L466.175 34.5167L466.023 33.5766L465.871 32.6366L465.718 31.6965L465.566 30.7564L465.414 29.8164L465.262 28.8763L465.11 27.9362L464.958 26.9961L464.844 26.2106L464.888 26.3728L464.939 26.5429L464.813 25.6654L464.687 24.7878L464.562 23.9102L464.436 23.0327L464.31 22.1551L464.184 21.2775L464.102 20.5343L464.145 20.6595L464.189 20.7764L464.045 19.8025L463.901 18.8285L463.757 17.8546L463.428 16.3024L463.296 15.6321L463.246 14.8832L463.522 14.0618L463.799 13.2404L463.917 12.1541L473.124 11.6802L471.022 12.4492L467.891 13.9442Z" fill="black" style="fill:black;fill-opacity:1;"/>
</svg>
