<svg width="406" height="199" viewBox="0 0 406 199" fill="none" xmlns="http://www.w3.org/2000/svg">
<path d="M37.2839 148.014L41.9745 148.225H46.5888L22.0974 118.164L15.6622 119.124L16.3802 117.998L17.0983 116.871L17.8163 115.745L18.5343 114.619L19.2524 113.492L19.9704 112.366L20.6884 111.239L21.4065 110.113L22.1245 108.986L22.8426 107.86L23.5606 106.734L24.2787 105.607L23.6562 105.776L23.0308 105.956L23.2048 105.473L24.0068 104.799L24.8088 104.125L25.6109 103.451L26.4129 102.776L27.2149 102.102L28.0169 101.428L28.8189 100.754L29.6209 100.08L30.4229 99.4055L31.2249 98.7313L32.0269 98.0571L32.8289 97.383L33.6309 96.7088L33.5292 96.7408L33.4281 96.7729L34.1982 96.3242L35.0687 95.8434L35.9392 95.3626L36.8097 94.8818L37.6802 94.401L38.5507 93.9201L39.4212 93.4393L40.2917 92.9585L41.1622 92.4777L42.0327 91.9969L42.9032 91.516L43.7737 91.0352L44.6442 90.5544L45.5147 90.0736L46.3852 89.5927L47.2556 89.1119L48.1261 88.6311L48.9966 88.1503L49.8671 87.6695L50.7376 87.1886L51.6081 86.7078L52.4786 86.227L53.3491 85.7462L54.2196 85.2654L55.0901 84.7845L54.4525 84.994L53.8163 85.2124L54.0445 84.9659L54.9072 84.4922L55.7699 84.0186L56.6327 83.545L57.4954 83.0714L58.3582 82.5978L59.2209 82.1242L60.0836 81.6506L60.9464 81.177L61.8091 80.7034L62.6719 80.2297L63.5346 79.7561L64.3973 79.2825L65.2601 78.8089L66.1228 78.3353L66.9856 77.8617L67.8483 77.3881L68.711 76.9145L69.5738 76.4409L70.4365 75.9673L71.2993 75.4937L72.162 75.0201L73.0247 74.5464L73.8875 74.0728L74.7502 73.5992L75.613 73.1256L76.4757 72.652L77.3384 72.1784L78.2012 71.7048L79.0639 71.2312L79.9267 70.7576L79.3141 70.9854L78.7144 71.2163L79.0009 70.9488L79.8743 70.4474L80.7478 69.9461L81.6212 69.4447L82.4947 68.9434L83.3682 68.442L84.2417 67.9407L85.1151 67.4393L85.9886 66.938L86.862 66.4366L87.7355 65.9353L88.609 65.4339L89.4825 64.9326L90.3559 64.4312L91.2294 63.9299L92.1029 63.4285L92.9763 62.9272L93.8498 62.4258L94.7233 61.9244L95.5967 61.4231L96.4702 60.9218L97.3436 60.4204L98.2171 59.919L99.0906 59.4177L99.9641 58.9164L100.838 58.415L101.711 57.9136L102.584 57.4123L103.458 56.9109L104.331 56.4096L105.205 55.9082L106.078 55.4069L106.952 54.9055L107.825 54.4042L108.699 53.9028L109.572 53.4015L110.446 52.9001L111.319 52.3988L112.193 51.8974L113.066 51.3961L113.94 50.8947L114.813 50.3934L115.686 49.892L116.56 49.3907L117.433 48.8893L118.307 48.388L119.18 47.8866L120.054 47.3853L120.927 46.8839L121.801 46.3826L122.674 45.8812L123.761 45.453L124.855 45.045L126.879 44.2711L127.802 43.8845L128.725 43.4978L129.649 43.1111L130.572 42.7244L131.495 42.3377L132.419 41.951L133.342 41.5643L134.265 41.1776L135.188 40.7909L136.112 40.4042L137.035 40.0175L137.958 39.6308L138.881 39.2441L139.805 38.8574L140.728 38.4707L141.651 38.084L142.574 37.6973L143.498 37.3106L144.421 36.9239L145.344 36.5372L146.268 36.1505L147.191 35.7638L148.114 35.3771L149.037 34.9904L149.961 34.6037L150.884 34.217L151.807 33.8303L152.73 33.4436L153.654 33.0569L154.577 32.6702L155.5 32.2835L156.423 31.8968L157.347 31.5101L158.27 31.1234L159.193 30.7367L160.117 30.35L161.04 29.9633L161.963 29.5766L163.87 28.9579L165.811 28.3932L168.73 27.6075L169.679 27.3297L170.628 27.0518L171.576 26.774L172.525 26.4962L173.474 26.2183L174.422 25.9405L175.371 25.6627L176.319 25.3849L177.268 25.107L178.217 24.8292L179.165 24.5514L180.114 24.2736L181.063 23.9957L182.011 23.7179L182.96 23.4401L183.908 23.1622L184.857 22.8844L185.806 22.6066L186.754 22.3288L187.703 22.0509L188.652 21.7731L189.6 21.4953L190.549 21.2175L191.497 20.9396L192.446 20.6618L193.395 20.384L194.343 20.1061L195.292 19.8283L196.241 19.5505L197.189 19.2727L198.138 18.9948L199.086 18.717L200.035 18.4392L200.984 18.1614L201.932 17.8835L202.881 17.6057L203.83 17.3279L204.778 17.05L205.727 16.7722L206.675 16.4944L209.123 15.9518L211.602 15.4983L215.075 15.0019L216.048 14.8672L217.02 14.7325L217.993 14.5977L218.965 14.463L219.938 14.3282L220.91 14.1935L221.883 14.0587L222.855 13.924L223.828 13.7893L224.8 13.6545L225.773 13.5198L226.745 13.3851L227.718 13.2503L228.69 13.1156L229.663 12.9808L230.635 12.8461L231.608 12.7114L232.58 12.5766L233.553 12.4419L234.526 12.3071L235.498 12.1724L236.471 12.0377L237.443 11.9029L238.416 11.7682L239.388 11.6335L240.361 11.4987L241.333 11.364L242.306 11.2292L243.278 11.0945L244.251 10.9597L245.223 10.825L246.196 10.6902L247.168 10.5555L248.141 10.4208L249.113 10.286L250.086 10.1513L251.058 10.0166L252.031 9.88184L253.004 9.74707L253.976 9.61234L256.288 9.362L258.604 9.19095L261.9 9.07736L262.886 9.0556L263.871 9.03384L264.857 9.01208L265.842 8.9903L266.828 8.96854L267.814 8.94678L268.799 8.92499L269.785 8.90323L270.771 8.88147L271.756 8.85971L272.742 8.83792L273.727 8.81616L274.713 8.7944L275.699 8.77264L276.684 8.75085L277.67 8.7291L278.656 8.70734L279.641 8.68558L280.627 8.66379L281.612 8.64203L282.598 8.62027L283.584 8.59848L284.569 8.57672L285.555 8.55496L286.541 8.5332L287.526 8.51141L288.512 8.48965L289.497 8.4679L290.483 8.44614L291.469 8.42435L292.454 8.40259L293.44 8.38083L294.426 8.35904L295.411 8.33728L296.397 8.31552L297.382 8.29376L298.368 8.27197L302.763 8.31396L307.174 8.64246L312.504 9.47928L313.463 9.70346L314.421 9.92764L315.38 10.1519L316.338 10.376L317.297 10.6002L318.255 10.8244L319.214 11.0486L320.173 11.2728L321.131 11.4969L322.09 11.7211L323.048 11.9453L324.007 12.1695L324.965 12.3937L325.924 12.6179L326.883 12.8421L327.841 13.0663L328.8 13.2904L329.758 13.5146L330.717 13.7388L331.675 13.963L332.634 14.1872L333.593 14.4114L334.551 14.6356L335.51 14.8597L336.468 15.0839L337.427 15.3081L338.385 15.5323L339.344 15.7565L340.303 15.9807L341.261 16.2049L342.22 16.429L343.178 16.6532L344.137 16.8774L345.095 17.1016L346.054 17.3258L347.013 17.55L347.971 17.7742L348.93 17.9984L349.888 18.2225L350.847 18.4467L351.805 18.6709L352.764 18.8951L353.723 19.1193L354.681 19.3435L355.64 19.5677L356.598 19.7918L362.558 21.1143L368.467 23.0236L374.878 26.2282L375.594 26.9743L376.31 27.7205L377.026 28.4666L377.742 29.2128L378.459 29.9589L379.175 30.705L379.891 31.4512L380.607 32.1974L381.323 32.9435L382.039 33.6896L382.755 34.4358L383.471 35.1819L384.187 35.9281L384.903 36.6742L385.619 37.4204L386.336 38.1665L387.052 38.9127L387.768 39.6588L388.484 40.405L389.2 41.1511L389.916 41.8972L390.632 42.6434L391.348 43.3895L392.064 44.1357L396.855 46.7738L401.35 49.8488L405.228 54.9543L405.017 56.649L404.807 58.3436L404.597 60.0383L404.386 61.733L404.176 63.4276L403.965 65.1223L403.755 66.817L403.545 68.5116L403.334 70.2063L403.124 71.901L402.914 73.5956L402.703 75.2903L402.493 76.985L402.282 78.6797L402.072 80.3743L401.862 82.069L401.651 83.7637L401.441 85.4583L401.231 87.153L401.02 88.8477L400.81 90.5424L400.599 92.237L400.389 93.9317L400.179 95.6264L370.793 127.651L369.123 128.006L367.452 128.361L365.782 128.716L364.112 129.071L362.441 129.426L360.771 129.781L359.1 130.136L357.43 130.491L355.76 130.846L354.089 131.201L352.419 131.556L350.748 131.911L349.078 132.266L347.408 132.621L345.737 132.976L344.067 133.331L342.397 133.686L340.726 134.041L339.056 134.396L337.385 134.751L335.715 135.106L334.045 135.461L332.374 135.816L330.704 136.171L333.122 139.936L337.617 143.011L342.407 145.65L341.379 145.542L340.35 145.435L339.322 145.328L338.293 145.22L337.264 145.113L336.236 145.006L335.207 144.899L334.179 144.791L333.15 144.684L332.121 144.577L331.093 144.469L330.064 144.362L329.036 144.255L328.007 144.148L326.978 144.04L325.95 143.933L324.921 143.826L323.893 143.718L322.864 143.611L321.835 143.504L320.807 143.396L319.778 143.289L318.75 143.182L317.721 143.075L322.388 145.426L328.296 147.335L334.256 148.658L333.278 148.546L332.3 148.434L331.322 148.323L330.344 148.211L329.366 148.1L328.388 147.988L327.409 147.876L326.431 147.765L325.453 147.653L324.475 147.542L323.497 147.43L322.519 147.318L321.541 147.207L320.563 147.095L319.585 146.984L318.607 146.872L317.629 146.761L316.65 146.649L315.672 146.537L314.694 146.426L313.716 146.314L312.738 146.203L311.76 146.091L310.782 145.979L309.804 145.868L308.826 145.756L307.848 145.645L306.869 145.533L305.891 145.422L304.913 145.31L303.935 145.198L302.957 145.087L301.979 144.975L301.001 144.864L300.023 144.752L299.045 144.64L298.067 144.529L297.089 144.417L296.11 144.306L295.132 144.194L294.154 144.083L293.176 143.971L292.198 143.859L291.22 143.748L290.242 143.636L289.264 143.525L292.657 144.026L297.068 144.354L301.463 144.396L300.477 144.419L299.492 144.442L298.506 144.465L297.521 144.488L296.535 144.511L295.549 144.534L294.564 144.557L293.578 144.581L292.593 144.604L291.607 144.627L290.621 144.65L289.636 144.673L288.65 144.696L287.665 144.719L286.679 144.742L285.694 144.765L284.708 144.788L283.722 144.811L282.737 144.834L281.751 144.857L280.766 144.88L279.78 144.903L278.794 144.926L277.809 144.949L276.823 144.972L275.838 144.995L274.852 145.018L273.866 145.042L272.881 145.065L271.895 145.088L270.91 145.111L269.924 145.134L268.938 145.157L267.953 145.18L266.967 145.203L265.982 145.226L264.996 145.249L266.321 145.18L268.637 145.009L270.949 144.759L269.973 144.869L268.997 144.979L268.022 145.089L267.046 145.199L266.07 145.309L265.095 145.418L264.119 145.528L263.144 145.638L262.168 145.748L261.192 145.858L260.217 145.968L259.241 146.078L258.265 146.188L257.29 146.298L256.314 146.408L255.338 146.518L254.363 146.628L253.387 146.738L252.411 146.847L251.436 146.957L250.46 147.067L249.485 147.177L248.509 147.287L247.533 147.397L246.558 147.507L245.582 147.617L244.606 147.727L243.631 147.837L242.655 147.947L241.679 148.057L240.704 148.167L239.728 148.276L238.752 148.386L237.777 148.496L236.801 148.606L235.826 148.716L234.85 148.826L233.874 148.936L232.899 149.046L231.923 149.156L233.448 148.904L235.927 148.451L238.374 147.908L237.403 148.093L236.432 148.278L235.461 148.464L234.49 148.649L233.52 148.834L232.549 149.019L231.578 149.204L230.607 149.39L229.636 149.575L228.665 149.76L227.694 149.945L226.723 150.131L225.752 150.316L224.781 150.501L223.81 150.686L222.839 150.871L221.868 151.057L220.897 151.242L219.926 151.427L218.955 151.612L217.984 151.797L217.013 151.983L216.042 152.168L215.071 152.353L214.1 152.538L213.129 152.723L212.158 152.909L211.187 153.094L210.216 153.279L209.245 153.464L208.274 153.649L207.303 153.835L206.333 154.02L205.362 154.205L204.391 154.39L203.42 154.576L202.449 154.761L201.478 154.946L200.507 155.131L199.536 155.316L200.536 154.994L202.477 154.429L204.384 153.81L203.417 154.069L202.45 154.328L201.483 154.586L200.516 154.845L199.549 155.104L198.582 155.363L197.615 155.621L196.648 155.88L195.681 156.139L194.714 156.398L193.747 156.656L192.78 156.915L191.813 157.174L190.846 157.432L189.879 157.691L188.912 157.95L187.945 158.209L186.978 158.467L186.011 158.726L185.044 158.985L184.077 159.244L183.111 159.502L182.144 159.761L181.177 160.02L180.21 160.279L179.243 160.537L178.276 160.796L177.309 161.055L176.342 161.314L175.375 161.572L174.408 161.831L173.441 162.09L172.474 162.348L171.507 162.607L170.54 162.866L169.573 163.125L168.606 163.383L167.639 163.642L167.773 163.514L168.867 163.106L169.954 162.678L168.977 162.925L168.001 163.172L167.025 163.42L166.049 163.667L165.072 163.915L164.096 164.162L163.12 164.409L162.144 164.657L161.167 164.904L160.191 165.152L159.215 165.399L158.239 165.647L157.262 165.894L156.286 166.141L155.31 166.389L154.334 166.636L153.357 166.884L152.381 167.131L151.405 167.379L150.429 167.626L149.452 167.873L148.476 168.121L147.5 168.368L146.524 168.616L145.547 168.863L144.571 169.111L143.595 169.358L142.619 169.605L141.642 169.853L140.666 170.1L139.69 170.348L138.713 170.595L137.737 170.842L136.761 171.09L135.785 171.337L134.808 171.585L133.832 171.832L132.856 172.08L131.88 172.327L130.903 172.574L129.927 172.822L128.951 173.069L127.975 173.317L126.998 173.564L126.022 173.812L125.046 174.059L124.07 174.306L123.093 174.554L122.117 174.801L121.141 175.049L119.578 175.53L118.978 175.761L118.365 175.989L117.4 176.183L116.436 176.377L115.471 176.571L114.506 176.765L113.541 176.959L112.576 177.153L111.611 177.347L110.646 177.54L109.681 177.734L108.717 177.928L107.752 178.122L106.787 178.316L105.822 178.51L104.857 178.704L103.892 178.898L102.927 179.092L101.962 179.286L100.997 179.48L100.033 179.674L99.0677 179.868L98.1028 180.062L97.1379 180.256L96.173 180.45L95.2081 180.644L94.2433 180.838L93.2784 181.032L92.3135 181.226L91.3486 181.42L90.3837 181.614L89.4189 181.808L87.8195 182.229L87.1832 182.447L86.5456 182.657L85.558 182.773L84.5703 182.89L83.5827 183.006L82.5951 183.122L81.6075 183.239L80.6198 183.355L79.6322 183.472L78.6446 183.588L77.6569 183.704L76.6693 183.821L75.6817 183.937L74.694 184.053L73.7064 184.17L72.7188 184.286L71.7312 184.402L70.7435 184.519L69.7559 184.635L68.7683 184.752L67.7806 184.868L66.793 184.984L65.8054 185.101L64.8177 185.217L63.8301 185.333L62.8425 185.45L61.7545 185.598L61.6534 185.63L61.5517 185.662L60.5083 185.568L59.4648 185.473L58.4214 185.378L57.378 185.283L56.3346 185.188L55.2912 185.093L54.2477 184.998L53.2043 184.903L52.1609 184.808L51.1175 184.713L50.0741 184.618L49.0307 184.523L47.9872 184.428L46.3158 184.525L45.6904 184.705L45.068 184.873L43.8896 184.244L42.7111 183.615L41.5327 182.986L40.3542 182.357L39.1758 181.728L37.9973 181.099L36.8189 180.47L35.6404 179.841L34.462 179.212L33.2836 178.583L32.1051 177.954L30.9267 177.325L24.4915 178.286L0 148.225H4.61432L37.2839 148.014Z" fill="#4B1EFC" style="fill:#4B1EFC;fill:color(display-p3 0.2941 0.1176 0.9882);fill-opacity:1;"/>
<path d="M132.095 14.4409V13.4033V11.779L126.399 11.1532L126.514 10.138L126.629 9.12277L126.744 8.10757L126.601 7.44363L126.49 7.60718L124.584 6.88278L134.228 25.0904L136.103 24.9496L137.21 24.9792L136.563 25.4044L138.546 24.6219L140.132 23.6956L140.648 23.3854L139.945 24.0179L139.243 24.6503L138.541 25.2828L137.839 25.9153L137.137 26.5478L137.634 26.0902L138.094 25.6205L137.88 25.8966L137.243 26.6495L136.605 27.4025L135.968 28.1554L135.33 28.9083L134.693 29.6612L134.055 30.4142L133.418 31.1671L132.78 31.92L132.143 32.6729L131.505 33.4259L130.867 34.1788L130.23 34.9317L129.592 35.6846L128.955 36.4376L128.317 37.1905L128.633 36.8017L128.943 36.3883L128.725 36.7377L128.205 37.525L127.686 38.3123L127.166 39.0996L126.646 39.8869L126.126 40.6742L125.606 41.4615L125.086 42.2488L124.566 43.0361L124.046 43.8234L123.526 44.6107L123.006 45.398L122.486 46.1853L122.791 45.7004L123.07 45.2107L122.898 45.5903L122.473 46.4614L122.048 47.3325L121.623 48.2036L121.199 49.0747L120.774 49.9458L120.349 50.8169L119.924 51.688L119.499 52.5591L119.075 53.4302L118.65 54.3013L118.225 55.1724L118.645 54.2152L119.002 53.1781L119.095 52.9688L118.91 53.861L118.726 54.7532L118.542 55.6454L118.357 56.5375L118.173 57.4297L117.989 58.3219L117.804 59.2141L117.62 60.1062L117.436 60.9984L117.251 61.8906L117.514 59.5792L117.366 57.2863L117.157 56.1335L117.444 57.0595L117.731 57.9855L118.018 58.9115L118.305 59.8375L118.592 60.7635L118.879 61.6895L119.166 62.6155L119.453 63.5415L119.74 64.4675L120.027 65.3935L117.88 61.4027L113.637 57.9325L109.952 56.6905L110.879 56.7905L111.807 56.8905L112.734 56.9905L113.661 57.0905L114.589 57.1906L115.516 57.2906L116.443 57.3906L117.371 57.4906L118.298 57.5906L119.225 57.6906L120.153 57.7906L118.045 57.7641L115.956 58.087L114.94 58.3481L115.835 57.9855L116.73 57.623L117.626 57.2605L118.521 56.898L119.416 56.5355L120.311 56.1729L121.206 55.8104L122.101 55.4479L122.996 55.0854L123.891 54.7229L124.786 54.3604L125.681 53.9978L126.576 53.6353L127.471 53.2728L128.366 52.9103L129.261 52.5478L130.156 52.1852L131.051 51.8227L131.946 51.4602L132.841 51.0977L133.736 50.7352L134.631 50.3726L134.08 50.6178L133.544 50.8877L133.871 50.6878L134.714 50.1956L135.558 49.7034L136.401 49.2112L137.245 48.7191L138.088 48.2269L138.932 47.7347L139.776 47.2425L140.619 46.7503L141.463 46.2581L142.306 45.766L143.15 45.2738L143.993 44.7816L144.837 44.2894L145.681 43.7972L146.524 43.305L147.368 42.8128L148.211 42.3206L149.055 41.8285L149.898 41.3363L150.742 40.8441L151.586 40.3519L152.429 39.8597L153.273 39.3675L154.116 38.8754L154.96 38.3832L154.839 38.4562L154.719 38.5305L155.424 38.0764L156.247 37.5468L157.07 37.0172L157.893 36.4876L158.716 35.9579L159.539 35.4283L160.362 34.8987L161.186 34.3691L162.009 33.8395L162.832 33.3099L163.655 32.7803L164.478 32.2507L165.301 31.7211L166.124 31.1914L166.947 30.6618L167.771 30.1322L168.594 29.6026L169.417 29.073L170.24 28.5434L171.063 28.0138L171.886 27.4842L172.709 26.9546L173.532 26.4249L174.355 25.8953L175.179 25.3657L176.002 24.8361L176.825 24.3065L177.648 23.7769L178.471 23.2473L179.294 22.7177L180.117 22.188L180.94 21.6584L181.763 21.1288L182.587 20.5992L182.777 20.4789L182.972 20.3606L184.007 19.7682L184.841 19.2917L185.675 18.8152L186.51 18.3388L187.344 17.8623L188.179 17.3858L189.013 16.9094L189.848 16.4329L190.682 15.9565L191.517 15.48L192.351 15.0035L193.186 14.527L194.02 14.0506L194.855 13.5741L195.689 13.0977L196.524 12.6212L197.358 12.1447L198.193 11.6682L199.027 11.1918L199.862 10.7153L200.419 10.4175L200.979 10.1539L202.464 9.56598L203.392 9.20764L204.319 8.84933L205.246 8.49103L206.174 8.13269L207.101 7.77438L208.028 7.41608L208.956 7.05774L209.883 6.69943L210.81 6.34109L211.737 5.98279L212.665 5.62448L213.705 5.27826L214.887 5.00479L217.061 4.78445L217.925 4.72827L218.789 4.67212L219.652 4.61594L220.516 4.55978L221.38 4.5036L222.243 4.44745L225.17 4.58951L228.12 5.48193L231.276 7.50018L231.961 8.0484L232.646 8.59662L233.331 9.14487L234.016 9.69308L234.702 10.2413L235.387 10.7895L236.072 11.3378L238.482 13.8015L240.082 16.7859L240.857 20.5791L240.965 21.5695L241.074 22.56L241.182 23.5505L241.29 24.5409L241.399 25.5314L241.507 26.5219L241.616 27.5123L241.724 28.5027L241.832 29.4932L241.941 30.4837L242.049 31.4741L242.158 32.4646L242.266 33.455L242.374 34.4455L242.483 35.4359L242.591 36.4264L242.7 37.4169L242.808 38.4073L242.917 39.3978L243.025 40.3882L243.133 41.3787L243.242 42.3691L243.35 43.3596L243.459 44.3501L243.537 45.6667L243.466 47.0261L243.032 49.3233L242.824 50.2695L242.616 51.2156L242.407 52.1618L242.199 53.108L241.991 54.0542L241.783 55.0003L241.575 55.9465L241.367 56.8927L241.159 57.8388L240.951 58.785L240.743 59.7312L240.535 60.6773L240.327 61.6235L240.119 62.5697L239.911 63.5158L239.703 64.462L239.495 65.4082L239.287 66.3543L239.079 67.3005L238.871 68.2467L238.772 68.6479L238.659 69.05L238.264 70.3683L237.996 71.2851L237.729 72.2018L237.462 73.1186L237.194 74.0353L236.927 74.9521L236.66 75.8688L236.392 76.7856L236.125 77.7023L235.857 78.6191L235.59 79.5358L235.323 80.4526L235.055 81.3694L234.788 82.2861L234.521 83.2029L234.253 84.1196L233.986 85.0363L233.718 85.9531L233.451 86.8699L233.507 86.7002L233.559 86.5347L233.369 87.3417L233.131 88.3101L232.892 89.2786L232.653 90.247L232.415 91.2155L232.176 92.1839L231.937 93.1524L231.699 94.1208L231.46 95.0893L231.221 96.0577L230.983 97.0262L230.744 97.9946L230.505 98.963L230.267 99.9315L230.028 100.9L229.789 101.868L229.551 102.837L229.312 103.805L229.073 104.774L228.835 105.742L228.596 106.711L228.357 107.679L228.119 108.648L227.88 109.616L227.641 110.584L227.403 111.553L227.164 112.521L227.33 111.907L227.473 111.259L227.468 111.512L227.348 112.444L227.228 113.376L227.108 114.308L226.988 115.24L226.868 116.172L226.748 117.104L226.865 115.999L226.896 114.899L226.945 114.785L227.046 115.743L227.146 116.702L227.247 117.661L227.348 118.619L227.449 119.578L227.55 120.536L227.651 121.495L227.752 122.454L227.853 123.412L226.904 119.377L224.484 115.339L221.956 112.963L222.741 113.456L223.526 113.949L224.311 114.442L225.097 114.935L225.882 115.429L226.667 115.922L227.452 116.415L225.591 115.428L223.655 114.737L222.745 114.478L223.725 114.609L224.705 114.741L225.686 114.873L226.666 115.005L227.646 115.137L228.626 115.269L229.606 115.401L230.586 115.533L231.566 115.665L232.547 115.797L233.527 115.929L234.507 116.061L235.487 116.193L236.467 116.325L235.546 116.228L234.607 116.19L234.635 116.152L235.608 116.091L236.581 116.029L237.554 115.968L238.526 115.907L239.499 115.846L240.472 115.784L241.445 115.723L242.417 115.662L243.39 115.601L244.363 115.539L245.336 115.478L246.308 115.417L247.281 115.355L248.254 115.294L249.227 115.233L250.2 115.172L251.172 115.11L252.145 115.049L251.687 115.083L251.225 115.132L251.708 115.045L252.656 114.893L253.603 114.742L254.551 114.591L255.498 114.44L256.446 114.289L257.393 114.138L258.341 113.986L259.288 113.835L260.236 113.684L261.184 113.533L262.131 113.382L263.079 113.231L264.026 113.079L264.974 112.928L265.921 112.777L266.869 112.626L267.816 112.475L268.764 112.324L269.711 112.172L270.659 112.021L271.607 111.87L272.554 111.719L273.502 111.568L274.127 111.485L274.771 111.428L276.358 111.372L277.284 111.344L278.21 111.317L279.137 111.29L280.063 111.262L280.989 111.235L281.916 111.208L282.842 111.181L283.768 111.153L284.695 111.126L285.621 111.099L286.454 111.105L287.289 111.158L289.033 111.395L289.948 111.532L290.862 111.668L291.776 111.804L292.69 111.941L293.604 112.077L294.519 112.214L296.249 112.581L297.882 113.136L300.221 114.31L301.077 114.782L301.933 115.254L302.79 115.726L303.646 116.198L304.503 116.67L305.359 117.142L306.216 117.615L307.51 118.407L308.714 119.327L310.479 121.063L311.165 121.784L311.85 122.506L312.536 123.227L313.222 123.948L313.907 124.669L314.593 125.39L315.279 126.111L315.964 126.833L316.65 127.554L317.335 128.275L318.304 129.39L319.171 130.623L320.34 132.816L320.775 133.696L321.209 134.576L321.644 135.457L322.078 136.337L322.512 137.217L322.947 138.097L323.381 138.977L323.815 139.857L324.25 140.738L324.684 141.618L325.118 142.498L325.553 143.378L325.987 144.258L326.421 145.138L326.856 146.018L327.29 146.899L327.724 147.779L328.159 148.659L328.593 149.539L329.027 150.419L329.462 151.299L329.896 152.18L330.33 153.06L330.359 153.117L330.386 153.174L330.844 154.132L331.274 155.034L331.704 155.936L332.134 156.838L332.565 157.74L332.995 158.642L333.425 159.544L333.855 160.446L334.286 161.347L334.716 162.249L335.146 163.151L334.702 162.295L334.172 161.424L334.114 161.286L334.677 162.02L335.239 162.754L335.801 163.487L336.364 164.221L336.926 164.955L337.489 165.689L338.051 166.423L337.225 165.44L336.318 164.535L336.083 164.32L336.811 164.912L337.54 165.505L338.269 166.097L338.998 166.69L339.726 167.282L340.455 167.875L341.184 168.468L341.913 169.06L342.642 169.653L343.37 170.245L344.099 170.838L344.828 171.43L345.557 172.023L344.069 171.024L342.5 170.234L341.826 170.114L342.725 170.562L343.624 171.01L344.522 171.458L345.421 171.906L346.32 172.354L347.219 172.801L348.117 173.249L347.285 173.033L346.423 172.871L346.468 173.29L347.394 173.814L348.32 174.337L349.246 174.861L350.172 175.384L351.098 175.907L352.024 176.431L352.95 176.954L352.708 176.937L352.452 176.926L353.071 178.097L353.96 179.271L354.849 180.445L355.739 181.619L356.628 182.793L357.517 183.968V188.435L356.628 189.61L355.739 190.784L354.849 191.958L353.96 193.132L353.071 194.306L351.91 195.477L351.654 195.465L351.412 195.449L350.413 195.812L349.413 196.175L348.413 196.538L347.413 196.902L346.414 197.265L345.414 197.628L344.414 197.992L342.534 198.251L341.672 198.088L340.839 197.872L339.842 197.76L338.844 197.647L337.846 197.534L336.848 197.422L335.85 197.309L334.853 197.196L333.855 197.083L331.285 196.404L329.716 195.613L328.228 194.614L327.467 194.064L326.706 193.514L325.945 192.963L325.183 192.413L324.422 191.863L323.661 191.313L322.9 190.762L322.139 190.212L321.377 189.662L320.616 189.111L319.855 188.561L319.094 188.011L318.333 187.461L316.607 186.102L315.7 185.198L314.874 184.214L314.311 183.481L313.747 182.748L313.184 182.016L312.62 181.283L312.056 180.55L311.493 179.817L310.929 179.084L309.746 177.479L309.215 176.608L308.771 175.752L308.34 174.85L307.909 173.949L307.478 173.048L307.046 172.146L306.615 171.245L306.184 170.343L305.753 169.442L305.321 168.541L304.89 167.639L304.459 166.738L304.055 165.893L304.082 165.95L304.111 166.007L303.676 165.127L303.241 164.247L302.806 163.367L302.371 162.487L301.937 161.608L301.502 160.728L301.067 159.848L300.632 158.968L300.197 158.088L299.763 157.208L299.328 156.328L298.893 155.448L298.458 154.568L298.023 153.688L297.589 152.808L297.154 151.928L296.719 151.048L296.284 150.168L295.849 149.288L295.415 148.409L294.98 147.529L294.545 146.649L294.11 145.769L294.41 146.202L295.277 147.434L296.246 148.55L295.552 147.836L294.859 147.123L294.165 146.409L293.472 145.696L292.778 144.982L292.084 144.269L291.391 143.555L290.697 142.842L290.003 142.129L289.31 141.415L289.696 141.717L290.9 142.637L292.194 143.429L291.332 142.967L290.469 142.506L289.607 142.045L288.745 141.583L287.882 141.122L287.02 140.66L286.158 140.199L286.777 140.439L288.411 140.994L290.141 141.361L289.227 141.223L288.313 141.085L287.399 140.947L286.485 140.809L285.571 140.67L284.657 140.532L284.573 140.495L285.409 140.548L286.242 140.554L285.315 140.566L284.389 140.578L283.462 140.59L282.535 140.601L281.609 140.613L280.682 140.625L279.755 140.637L278.829 140.648L277.902 140.66L276.975 140.672L276.709 140.655L277.353 140.598L277.978 140.515L277.029 140.657L276.08 140.799L275.132 140.941L274.183 141.083L273.234 141.225L272.285 141.368L271.336 141.51L270.387 141.652L269.438 141.794L268.489 141.936L267.54 142.078L266.591 142.22L265.642 142.362L264.693 142.505L263.744 142.647L262.795 142.789L261.846 142.931L260.897 143.073L259.948 143.215L258.999 143.357L258.051 143.499L257.102 143.642L256.153 143.784L254.739 143.99L254.277 144.039L253.819 144.072L252.846 144.123L251.872 144.174L250.899 144.225L249.926 144.276L248.952 144.327L247.979 144.378L247.006 144.429L246.032 144.48L245.059 144.531L244.086 144.582L243.112 144.633L242.139 144.684L241.165 144.735L240.192 144.786L239.219 144.837L238.245 144.888L237.272 144.939L236.299 144.99L234.381 145.065L233.442 145.027L232.521 144.93L231.541 144.791L230.562 144.653L229.583 144.515L228.604 144.376L227.624 144.238L226.645 144.1L225.666 143.961L224.687 143.823L223.708 143.684L222.728 143.546L221.749 143.408L220.77 143.269L219.791 143.131L218.811 142.993L215.942 142.463L214.006 141.772L212.145 140.785L211.36 140.292L210.575 139.799L209.79 139.305L209.004 138.812L208.219 138.319L207.434 137.826L206.649 137.333L202.551 133.97L200.131 129.932L199.182 125.897L199.116 124.935L199.051 123.973L198.985 123.012L198.92 122.05L198.854 121.088L198.789 120.127L198.723 119.165L198.658 118.203L198.592 117.242L198.475 115.207L198.505 114.108L198.623 113.002L198.774 112.074L198.925 111.147L199.076 110.22L199.227 109.292L199.378 108.365L199.529 107.437L199.796 105.831L199.939 105.184L200.105 104.569L200.428 103.625L200.752 102.682L201.075 101.738L201.398 100.795L201.721 99.8511L202.045 98.9075L202.368 97.964L202.691 97.0204L203.014 96.0768L203.338 95.1332L203.661 94.1896L203.984 93.246L204.307 92.3024L204.631 91.3588L204.954 90.4152L205.277 89.4716L205.6 88.528L205.924 87.5845L206.247 86.6409L206.57 85.6973L206.893 84.7537L207.217 83.8101L207.54 82.8665L207.863 81.9229L208.186 80.9793L208.51 80.0358L208.881 78.9307L208.934 78.7652L208.99 78.5955L209.334 77.7047L209.678 76.8139L210.022 75.9231L210.366 75.0323L210.71 74.1415L211.054 73.2506L211.398 72.3598L211.742 71.469L212.086 70.5782L212.43 69.6874L212.774 68.7966L213.118 67.9058L213.463 67.015L213.807 66.1241L214.151 65.2333L214.495 64.3425L214.839 63.4517L215.183 62.5609L215.399 62.0717L215.286 62.4738L215.187 62.875L215.408 61.9316L215.628 60.9883L215.849 60.0449L216.07 59.1016L216.29 58.1583L216.511 57.2149L216.731 56.2716L216.952 55.3282L217.172 54.3849L217.393 53.4416L217.613 52.4982L217.834 51.5549L218.054 50.6115L218.275 49.6682L218.495 48.7249L218.716 47.7815L218.936 46.8382L219.157 45.8948L219.377 44.9515L219.598 44.0081L219.592 44.4158L219.521 45.7752L219.599 47.0919L219.48 46.1027L219.361 45.1134L219.242 44.1242L219.123 43.135L219.004 42.1458L218.885 41.1565L218.766 40.1673L218.647 39.178L218.528 38.1888L218.409 37.1996L218.29 36.2104L218.17 35.2211L218.051 34.2319L217.932 33.2427L217.813 32.2534L217.694 31.2642L217.575 30.275L217.456 29.2857L217.337 28.2965L217.218 27.3073L217.099 26.3181L216.98 25.3288L216.86 24.3396L216.741 23.3504L217.288 25.1638L218.888 28.1483L221.299 30.612L220.591 30.0929L219.884 29.5737L219.176 29.0545L218.469 28.5354L217.761 28.0162L217.054 27.4971L216.347 26.9779L218.11 27.9288L221.06 28.8212L223.987 28.9633L223.124 29.0298L222.261 29.0965L221.398 29.1631L220.535 29.2297L219.672 29.2963L218.809 29.3629L219.257 29.2653L220.439 28.9918L221.479 28.6456L220.55 28.9982L219.62 29.3509L218.691 29.7035L217.761 30.0561L216.832 30.4087L215.902 30.7613L214.973 31.114L214.043 31.4666L213.114 31.8192L212.185 32.1718L211.255 32.5244L210.884 32.6474L211.444 32.3838L212.001 32.086L211.164 32.5588L210.328 33.0315L209.491 33.5043L208.654 33.977L207.818 34.4498L206.981 34.9225L206.145 35.3953L205.308 35.868L204.471 36.3408L203.635 36.8135L202.798 37.2863L201.962 37.759L201.125 38.2318L200.288 38.7046L199.452 39.1773L198.615 39.6501L197.779 40.1228L196.942 40.5956L196.105 41.0683L195.469 41.4251L195.664 41.3068L195.854 41.1865L195.032 41.7173L194.21 42.2481L193.387 42.779L192.565 43.3098L191.743 43.8406L190.92 44.3714L190.098 44.9023L189.276 45.4331L188.453 45.9639L187.631 46.4947L186.809 47.0255L185.986 47.5563L185.164 48.0872L184.342 48.618L183.519 49.1488L182.697 49.6796L181.875 50.2104L181.052 50.7413L180.23 51.2721L179.408 51.8029L178.585 52.3337L177.763 52.8645L176.941 53.3954L176.118 53.9262L175.296 54.457L174.474 54.9878L173.651 55.5186L172.829 56.0495L172.007 56.5803L171.184 57.1111L170.362 57.6419L169.54 58.1727L168.717 58.7036L167.776 59.3099L167.656 59.3842L167.536 59.4572L166.702 59.9659L165.868 60.4747L165.035 60.9834L164.201 61.4921L163.367 62.0008L162.533 62.5095L161.7 63.0182L160.866 63.5269L160.032 64.0357L159.199 64.5444L158.365 65.0531L157.531 65.5618L156.697 66.0705L155.864 66.5793L155.03 67.088L154.196 67.5967L153.363 68.1054L152.529 68.6141L151.695 69.1228L150.861 69.6315L150.028 70.1403L149.194 70.649L148.36 71.1577L147.527 71.6664L146.693 72.1751L145.342 72.9761L144.806 73.246L144.255 73.4912L143.367 73.8708L142.479 74.2505L141.591 74.6302L140.703 75.0099L139.815 75.3895L138.927 75.7692L138.04 76.1489L137.152 76.5285L136.264 76.9082L135.376 77.2879L134.488 77.6675L133.6 78.0472L132.712 78.4269L131.824 78.8065L130.936 79.1862L130.048 79.5659L129.161 79.9456L128.273 80.3252L127.385 80.7049L126.497 81.0846L125.609 81.4642L124.721 81.8439L121.922 82.8472L119.833 83.1701L117.726 83.1436L116.796 83.0658L115.867 82.9881L114.937 82.9104L114.008 82.8326L113.079 82.7549L112.149 82.6772L111.22 82.5995L110.29 82.5217L109.361 82.444L108.431 82.3663L107.502 82.2885L101.96 80.8688L97.7171 77.3986L95.5697 73.4078L95.2531 72.4915L94.9364 71.5752L94.6198 70.6588L94.3032 69.7425L93.9866 68.8262L93.67 67.9099L93.3534 66.9935L93.0368 66.0772L92.7202 65.1609L92.4036 64.2446L91.5901 61.2494L91.4424 58.9565L91.7051 56.6451L91.8873 55.7525L92.0694 54.8599L92.2516 53.9673L92.4337 53.0746L92.6159 52.182L92.798 51.2894L92.9802 50.3968L93.1624 49.5041L93.3445 48.6115L93.5267 47.7189L93.9854 45.7248L94.3425 44.6877L94.7627 43.7305L95.1875 42.8594L95.6123 41.9883L96.0371 41.1172L96.4619 40.2462L96.8867 39.3751L97.3115 38.504L97.7363 37.6329L98.1611 36.7618L98.586 35.8907L99.0108 35.0196L99.4356 34.1485L100.113 32.7859L100.392 32.2962L100.697 31.8113L101.216 31.0235L101.735 30.2357L102.254 29.4479L102.773 28.6601L103.292 27.8722L103.812 27.0844L104.331 26.2966L104.85 25.5088L105.369 24.7209L105.888 23.9331L106.407 23.1453L106.926 22.3575L107.747 21.1318L108.058 20.7184L108.374 20.3296L109.01 19.5757L109.646 18.8218L110.283 18.0678L110.919 17.3139L111.556 16.56L112.192 15.8061L112.828 15.0522L113.465 14.2983L114.101 13.5444L114.737 12.7905L115.374 12.0366L116.01 11.2827L116.647 10.5287L117.283 9.77484L117.919 9.02094L118.979 7.79016L119.44 7.3205L119.937 6.86295L120.658 6.25192L121.379 5.6409L122.1 5.02991L122.821 4.41888L123.542 3.80786L125.48 2.25421L127.066 1.32782L129.05 0.54538L129.825 0.540863L132.354 0.140808L134.228 0L143.873 18.2076L141.967 17.9129L141.856 18.0764L140.647 18.7992L139.695 19.1707L138.743 19.5422L137.791 19.9138L132.095 19.288V17.6636V14.4409Z" fill="#1EFC6A" style="fill:#1EFC6A;fill:color(display-p3 0.1176 0.9882 0.4157);fill-opacity:1;"/>
<path d="M296.972 29.4673L297.101 28.8768L296.98 28.6767L298.433 28.625L299.096 29.6114L299.161 30.6625L299.124 30.7673L298.686 31.7148L298.213 32.7307L297.792 33.6364L297.371 34.5421L296.95 35.4478L296.529 36.3535L296.517 36.3758L296.505 36.399L296.044 37.2429L295.597 38.0629L295.149 38.8828L294.702 39.7028L294.254 40.5228L293.807 41.3427L293.359 42.1627L292.912 42.9827L292.906 42.9932L292.9 43.0035L292.413 43.8468L291.932 44.68L291.451 45.5132L290.97 46.3464L290.489 47.1796L290.008 48.0128L289.527 48.846L289.046 49.6792L288.565 50.5124L288.568 50.5081L288.57 50.5038L288.078 51.3683L287.583 52.2368L287.088 53.1054L286.593 53.974L286.098 54.8426L285.602 55.7112L285.107 56.5797L284.612 57.4483L284.117 58.3169L284.136 58.2845L284.154 58.2517L283.721 59.1099L283.271 60.0011L282.822 60.8923L282.372 61.7835L281.922 62.6747L281.472 63.566L281.023 64.4572L280.573 65.3484L280.123 66.2396L279.673 67.1309L279.224 68.0221L278.774 68.9133L278.78 68.9012L278.786 68.8887L278.38 69.73L277.968 70.5844L277.556 71.4388L277.144 72.2932L276.731 73.1475L276.319 74.0019L276.338 73.9631L276.356 73.9232L276.019 74.7372L275.665 75.592L275.328 76.4059L275.334 76.3914L275.111 77.1072L275.147 77.0042L275.153 77.0061L270.788 76.334H270.865L271.118 75.4886L271.146 75.3972L271.647 74.7586L272.161 74.0887L272.646 73.4979L272.711 73.3607L272.78 73.2504L273.532 72.5234L274.217 71.8841L274.902 71.2447L275.587 70.6054L276.272 69.9661L276.958 69.3267L277.643 68.6874L278.337 69.2619L277.837 70.0545L277.337 70.8471L276.837 71.6397L276.337 72.4323L275.837 73.2249L275.337 74.0175L274.903 74.7224L274.972 74.6121L275.037 74.4749L274.969 75.2357L274.932 75.9173L274.88 76.6303L274.908 76.5389L275.162 76.334H275.239L270.874 75.662L270.88 75.6638L270.916 75.5609L271.161 74.7845L271.167 74.77L271.541 73.8755L271.898 73.0221L272.273 72.1277L272.291 72.0878L272.309 72.049L272.728 71.1976L273.146 70.3463L273.565 69.4949L273.983 68.6436L274.401 67.7922L274.826 66.9279L274.833 66.9153L274.839 66.9033L275.297 66.0165L275.756 65.1297L276.214 64.2429L276.673 63.3561L277.131 62.4694L277.589 61.5826L278.048 60.6958L278.506 59.809L278.965 58.9223L279.423 58.0355L279.882 57.1487L280.357 56.2289L280.375 56.1961L280.394 56.1637L280.899 55.3014L281.405 54.439L281.911 53.5767L282.417 52.7144L282.923 51.8521L283.429 50.9897L283.934 50.1274L284.44 49.2651L284.949 48.3986L284.951 48.3944L284.954 48.39L285.447 47.5644L285.941 46.7387L286.435 45.9131L286.929 45.0875L287.423 44.2618L287.917 43.4362L288.41 42.6105L288.904 41.7849L289.392 40.9693L289.386 40.9796L289.38 40.9901L289.851 40.1831L290.321 39.3761L290.792 38.5692L291.262 37.7622L291.733 36.9552L292.203 36.1482L292.674 35.3412L293.131 34.5582L293.118 34.5813L293.107 34.6036L293.595 33.732L294.082 32.8604L294.57 31.9887L295.058 31.1171L295.494 30.3556L295.965 29.5258L295.928 29.6306L295.993 29.6114L296.656 30.5978L298.109 30.5461L297.989 30.346L296.972 29.4673Z" fill="#1EFCFC" style="fill:#1EFCFC;fill:color(display-p3 0.1176 0.9882 0.9882);fill-opacity:1;"/>
<path d="M305.486 36.7342V36.6036V36.3923L304.811 36.3831L305.228 35.5539L305.645 34.7248L305.436 34.5757L308.101 35.6566L308.258 35.6852L308.181 36.5545L308.163 36.6108L307.848 37.4565L307.514 38.3486L307.208 39.1694L306.902 39.9902L306.596 40.811L306.584 40.8394L306.573 40.8662L306.178 41.7506L305.794 42.6097L305.411 43.4687L305.028 44.3277L304.645 45.1868L304.261 46.0458L304.25 46.0699L304.238 46.0939L303.803 46.9611L303.379 47.8046L302.956 48.648L302.532 49.4915L302.108 50.3349L301.685 51.1784L301.261 52.0219L300.838 52.8653L300.838 52.8644L300.412 53.7125L299.986 54.561L299.56 55.4096L299.134 56.2582L298.708 57.1067L298.282 57.9553L297.856 58.8038L297.43 59.6524L297.004 60.501L296.578 61.3495L296.152 62.1981L295.726 63.0466L295.3 63.8952L294.874 64.7438L294.875 64.7425L294.445 65.5974L294.015 66.4529L293.585 67.3084L293.154 68.1639L292.724 69.0194L292.294 69.8749L291.864 70.7304L291.434 71.586L291.004 72.4415L291.007 72.4347L291.011 72.428L290.594 73.2759L290.173 74.1306L289.753 74.9854L289.332 75.8401L288.912 76.6949L288.491 77.5497L288.071 78.4044L288.068 78.4091L288.066 78.4138L287.62 79.2986L287.177 80.179L286.733 81.0594L286.29 81.9397L286.308 81.9043L286.327 81.862L286.051 82.5028L285.752 83.1952L285.748 83.1935L283.677 80.0847V80.1634V80.313L282.439 81.1339L283.311 80.583L284.183 80.0321L285.055 79.4812L285.928 78.9303L286.8 78.3795L287.43 78.9764L286.927 79.8771L286.424 80.7778L285.921 81.6785L285.418 82.5792L284.916 83.4798L283.677 84.3007V84.4503V84.529L281.606 81.4202L281.603 81.4185L281.897 80.7242L282.215 79.9783L282.235 79.9359L282.252 79.9005L282.697 79.0211L283.143 78.1418L283.588 77.2624L284.031 76.3875L284.029 76.3921L284.026 76.3968L284.453 75.5451L284.879 74.6934L285.306 73.8416L285.733 72.9899L286.159 72.1382L286.586 71.2865L287.016 70.4279L287.019 70.4212L287.023 70.4144L287.461 69.5634L287.9 68.7122L288.339 67.8612L288.778 67.0101L289.217 66.159L289.656 65.3079L290.094 64.4568L290.533 63.6057L290.972 62.754L290.973 62.7527L291.41 61.9099L291.847 61.0671L292.285 60.2242L292.722 59.3814L293.159 58.5385L293.596 57.6957L294.034 56.8528L294.471 56.01L294.908 55.1671L295.345 54.3243L295.783 53.4814L296.22 52.6386L296.657 51.7957L297.094 50.9525L297.095 50.9515L297.531 50.1143L297.967 49.2771L298.402 48.4399L298.838 47.6027L299.274 46.7655L299.71 45.9283L300.146 45.0911L300.569 44.2776L300.558 44.3016L300.546 44.3257L300.953 43.4777L301.361 42.6297L301.768 41.7817L302.175 40.9337L302.582 40.0857L302.977 39.2631L302.966 39.2899L302.954 39.3183L303.312 38.5188L303.67 37.7193L304.028 36.9198L304.358 36.1916L304.708 35.4169L304.689 35.4732L304.847 35.0613L305.004 35.09L307.668 36.1708L307.46 36.0218L306.81 36.6848L306.161 37.3478L305.486 37.3386V37.1273V36.7342Z" fill="#1EFCFC" style="fill:#1EFCFC;fill:color(display-p3 0.1176 0.9882 0.9882);fill-opacity:1;"/>
<path d="M323.064 36.4959L323.68 35.8344L323.472 35.6682L323.293 35.4695L322.613 36.1196L325.266 36.9365L325.291 36.8969L324.891 37.7428L324.47 38.6252L324.464 38.6367L324.457 38.6483L323.984 39.5127L323.518 40.3656L323.052 41.2184L322.586 42.0713L322.12 42.9241L321.654 43.777L321.188 44.6298L321.193 44.622L321.198 44.6139L320.77 45.399L320.338 46.1927L319.906 46.9865L319.474 47.7803L319.042 48.574L318.609 49.3678L318.177 50.1615L317.745 50.9553L317.746 50.9541L317.746 50.953L317.269 51.8221L316.791 52.6921L316.313 53.5621L315.835 54.4322L315.356 55.3022L314.878 56.1723L314.4 57.0423L313.922 57.9124L313.444 58.7824L313.458 58.7567L313.473 58.7299L313.067 59.5481L312.647 60.3943L312.226 61.2404L311.806 62.0866L311.386 62.9328L310.966 63.7789L310.546 64.6251L310.125 65.4713L309.705 66.3174L309.285 67.1636L309.287 67.1584L309.29 67.1534L308.864 68.0282L308.435 68.908L308.006 69.7878L307.578 70.6676L307.149 71.5475L306.72 72.4273L306.292 73.3071L305.863 74.1869L305.434 75.0667L305.443 75.0485L305.452 75.0299L305.065 75.8794L304.669 76.7478L304.272 77.6163L303.876 78.4847L303.48 79.3531L303.084 80.2215L302.688 81.09L302.292 81.9584L302.286 81.9704L302.28 81.9826L301.876 82.8224L301.477 83.6497L301.078 84.477L300.68 85.3043L300.281 86.1316L299.883 86.9589L299.484 87.7862L299.085 88.6135L299.089 88.6061L299.093 88.5977L298.782 89.2641L298.467 89.9403L298.156 90.606L298.158 90.6021L297.927 91.1292L297.939 91.1002L297.894 91.0804L295.888 88.1071V88.3018V88.7035L296.122 90.7541L295.888 91.6998V92.1014V92.2962L293.881 89.3229L293.836 89.3031L293.848 89.274L294.086 88.7308L294.088 88.727L294.41 88.0411L294.728 87.3658L295.05 86.6806L295.054 86.6721L295.057 86.6648L295.458 85.8387L295.86 85.0127L296.261 84.1867L296.662 83.3607L297.063 82.5346L297.464 81.7086L297.866 80.8826L298.261 80.0691L298.255 80.0813L298.249 80.0933L298.653 79.2283L299.057 78.3634L299.46 77.4984L299.864 76.6334L300.268 75.7684L300.671 74.9035L301.075 74.0385L301.487 73.1546L301.496 73.136L301.505 73.1178L301.946 72.2441L302.387 71.3705L302.829 70.4968L303.27 69.6232L303.711 68.7495L304.152 67.8759L304.593 67.0022L305.034 66.1285L305.478 65.2499L305.48 65.2448L305.483 65.2397L305.916 64.3999L306.349 63.5601L306.781 62.7204L307.214 61.8806L307.647 61.0408L308.08 60.201L308.513 59.3613L308.946 58.5215L309.379 57.6817L309.826 56.814L309.84 56.7872L309.855 56.7615L310.35 55.9015L310.846 55.0415L311.342 54.1815L311.838 53.3215L312.334 52.4615L312.83 51.6015L313.326 50.7415L313.822 49.8815L314.318 49.0205L314.319 49.0194L314.319 49.0183L314.777 48.2388L315.234 47.4593L315.692 46.6798L316.149 45.9003L316.607 45.1208L317.064 44.3414L317.522 43.5619L317.984 42.7738L317.989 42.7656L317.993 42.7578L318.509 41.9343L319.025 41.1108L319.542 40.2874L320.058 39.4639L320.574 38.6404L321.09 37.8169L321.599 37.0049L321.593 37.0165L321.586 37.0281L322.111 36.2034L322.657 35.3423L322.681 35.3027L325.334 36.1196L324.654 36.9806L324.475 36.782L324.268 36.6157L323.064 36.4959Z" fill="#1EFCFC" style="fill:#1EFCFC;fill:color(display-p3 0.1176 0.9882 0.9882);fill-opacity:1;"/>
<path d="M64.1809 66.917L64.302 66.7766V66.5752L64.9128 66.7166L65.3396 66.9475L65.5776 67.2678L65.895 67.6936L66.0685 68.1255L66.3655 68.8165L66.5413 69.2175L66.5396 69.6701L66.5188 70.2015L66.4481 70.4315L66.2585 71.0077L66.0063 71.7242L65.8058 72.4302L65.8111 72.4149L65.6145 73.0992L65.4027 73.8287L65.4296 73.7461L65.4588 73.6453L65.381 74.0554L65.2728 74.5906L65.2494 74.6886L65.223 74.7839L65.022 75.4115L64.8812 75.8473L64.6547 76.8329L64.6484 76.8535L64.4765 77.3358L64.2545 77.9659L64.275 77.9084L64.2912 77.8604L64.114 78.4613L63.9238 79.1031L63.7337 79.7448L63.725 79.7723L63.7166 79.798L63.4808 80.5186L63.2532 81.2149L63.2283 81.2848L63.2058 81.3438L62.8383 82.2512L62.4913 83.1082L62.5052 83.0745L62.5193 83.0387L62.2883 83.8206L62.0429 84.6405L62.0534 84.6116L62.0646 84.5801L61.8471 85.259L61.6178 85.9725L61.3886 86.686L61.3961 86.6631L61.4044 86.637L61.239 87.1936L61.0641 87.7805L61.1094 87.6144L61.1482 87.4301L61.1189 87.76L61.0603 88.2932L61.0704 88.1826L61.0766 88.0712L61.0725 88.4924L61.0664 89.0256L61.0603 89.6135L61.0542 90.2014L61.0511 91.1604L61.0481 92.1194L61.0511 92.8655L61.0542 93.6116L61.0455 93.3824L61.0228 93.1765L61.1951 93.8411L61.3997 94.689L61.3826 94.6116L61.3597 94.5206L61.5603 95.0423L61.7919 95.6722L62.0235 96.3021L61.9972 96.2202L61.9711 96.1458L62.2779 96.7676L62.6102 97.4571L62.9425 98.1466L62.9457 98.1548L62.9485 98.162L63.3358 98.9995L63.7206 99.8306L64.1053 100.662L64.4901 101.493L64.4762 101.457L64.4607 101.418L64.7847 102.112L65.126 102.847L65.4674 103.582L65.4453 103.53L65.4229 103.48L65.7757 104.169L66.1514 104.907L66.527 105.645L66.5166 105.623L66.5057 105.601L66.8663 106.281L67.2381 106.983L67.6099 107.686L67.5832 107.634L67.5569 107.584L68.0169 108.244L68.5026 108.95L68.9883 109.657L69.474 110.364L69.4011 110.238L69.3163 110.103L69.6938 110.535L70.17 111.111L70.6462 111.687L70.668 111.718L70.689 111.748L71.1745 112.396L71.6396 113.015L72.1048 113.633L72.0924 113.615L72.0804 113.598L72.5479 114.254L73.0268 114.926L73.5058 115.598L73.4503 115.521L73.393 115.445L73.8927 115.972L74.4518 116.574L75.0108 117.176L74.9461 117.097L74.887 117.028L75.5407 117.638L76.2485 118.309L76.9563 118.979L77.664 119.65L77.7072 119.698L77.7512 119.749L78.4196 120.486L79.0433 121.171L79.667 121.856L79.5965 121.773L79.5269 121.695L80.2115 122.255L80.9648 122.889L81.718 123.523L81.6953 123.5L81.6708 123.474L82.2946 124.031L82.945 124.616L83.5954 125.201L84.2458 125.785L84.8962 126.37L85.5467 126.954L85.4875 126.895L85.4318 126.841L86.1581 127.385L86.9369 127.978L87.7156 128.572L88.4944 129.166L88.4679 129.141L88.439 129.114L89.0759 129.631L89.7444 130.175L90.4128 130.72L91.0813 131.265L91.7497 131.81L91.6913 131.758L91.6338 131.708L92.3032 132.19L93.0291 132.72L93.755 133.25L94.4809 133.78L95.2068 134.31L95.1835 134.29L95.1615 134.272L95.9286 134.838L96.7165 135.421L97.5045 136.003L98.2924 136.586L99.0803 137.169L99.0095 137.112L98.9318 137.051L99.5632 137.468L100.28 137.949L100.997 138.431L101.714 138.912L102.431 139.393L103.148 139.875L103.048 139.801L102.952 139.733L103.681 140.126L104.502 140.581L105.323 141.037L106.144 141.492L106.965 141.947L107.786 142.402L108.608 142.858L109.429 143.313L110.25 143.768L110.143 143.698L110.031 143.627L110.708 143.96L111.502 144.365L112.296 144.77L113.089 145.174L113.883 145.579L114.677 145.984L115.47 146.388L115.281 146.278L115.101 146.18L115.847 146.464L116.762 146.836L117.677 147.208L118.593 147.579L119.508 147.951L120.423 148.323L121.338 148.695L121.076 148.569L120.81 148.451L121.489 148.624L122.437 148.905L123.386 149.186L124.334 149.467L125.283 149.748L126.231 150.03L127.18 150.311L128.129 150.592L129.077 150.873L130.026 151.154L130.974 151.435L131.923 151.717L132.871 151.998L132.584 151.893L132.279 151.792L132.854 151.883L133.753 152.068L134.653 152.254L135.552 152.439L136.451 152.625L137.35 152.81L138.249 152.996L139.148 153.181L140.047 153.367L140.946 153.552L141.845 153.738L141.766 153.716L141.69 153.696L142.605 153.856L143.59 154.034L144.576 154.212L145.562 154.39L146.547 154.568L147.533 154.746L148.519 154.924L149.504 155.101L150.49 155.279L151.476 155.457L152.461 155.635L152.385 155.616L152.306 155.597L153.175 155.742L154.124 155.906L155.074 156.07L156.024 156.233L156.974 156.397L157.923 156.56L158.873 156.724L159.823 156.888L160.773 157.051L161.722 157.215L162.672 157.379L163.622 157.542L163.575 157.531L163.528 157.521L164.444 157.69L165.407 157.868L166.37 158.047L167.333 158.225L168.297 158.404L169.26 158.583L170.223 158.761L171.186 158.94L172.149 159.119L173.112 159.297L174.075 159.476L175.038 159.654L176.001 159.833L175.984 159.829L175.967 159.826L176.899 160.016L177.848 160.21L178.797 160.405L179.746 160.599L180.695 160.793L181.643 160.987L182.592 161.181L183.541 161.376L184.49 161.57L185.439 161.764L186.388 161.958L187.337 162.152L188.286 162.346L189.235 162.541L190.184 162.735L190.086 162.715L189.987 162.695L190.829 162.848L191.77 163.02L192.712 163.192L193.653 163.364L194.594 163.536L195.535 163.708L196.476 163.879L197.417 164.051L198.359 164.223L199.3 164.395L200.241 164.567L201.182 164.739L202.123 164.91L203.065 165.082L204.006 165.254L204.947 165.426L204.774 165.395L204.604 165.368L205.422 165.482L206.406 165.621L207.389 165.759L208.373 165.898L209.357 166.037L210.34 166.175L211.324 166.314L212.307 166.453L213.291 166.591L214.275 166.73L213.967 166.691L213.66 166.659L214.346 166.741L215.339 166.846L216.332 166.952L217.325 167.057L218.318 167.163L219.311 167.268L220.304 167.374L221.297 167.479L222.29 167.585L223.283 167.69L222.797 167.669L222.301 167.668L222.809 168.289L223.82 168.889L224.83 169.489L225.841 170.089L226.852 170.689L227.863 171.289L228.874 171.89L229.885 172.49L230.896 173.09L231.907 173.69L232.918 174.29L233.929 174.89L234.939 175.491L235.95 176.091L236.961 176.691L237.972 177.291L238.124 179.752L237.194 180.472L236.265 181.192L235.335 181.912L234.406 182.632L233.476 183.351L232.547 184.071L231.617 184.791L230.688 185.511L229.758 186.231L228.829 186.95L227.899 187.67L226.97 188.39L226.04 189.11L225.111 189.83L224.181 190.549L222.748 191.289L222.252 191.288L221.766 191.267L220.768 191.245L219.769 191.222L218.771 191.199L217.773 191.177L216.774 191.154L215.776 191.131L214.778 191.109L213.779 191.086L212.781 191.063L211.475 191.017L211.168 190.986L210.861 190.946L209.877 190.808L208.893 190.669L207.91 190.53L206.926 190.392L205.943 190.253L204.959 190.114L203.975 189.975L202.992 189.837L202.008 189.698L200.859 189.535L200.69 189.508L200.516 189.477L199.576 189.302L198.635 189.127L197.694 188.952L196.754 188.777L195.813 188.603L194.872 188.428L193.932 188.253L192.991 188.078L192.05 187.903L191.11 187.728L190.169 187.554L189.229 187.379L188.288 187.204L187.347 187.029L186.407 186.854L185.366 186.661L185.268 186.641L185.17 186.621L184.223 186.417L183.276 186.214L182.329 186.01L181.383 185.806L180.436 185.602L179.489 185.399L178.542 185.195L177.595 184.991L176.648 184.788L175.701 184.584L174.754 184.38L173.807 184.176L172.86 183.973L171.913 183.769L170.949 183.561L170.932 183.558L170.916 183.554L169.964 183.322L169.012 183.091L168.061 182.859L167.109 182.627L166.157 182.395L165.206 182.163L164.254 181.931L163.303 181.699L162.351 181.468L161.399 181.236L160.448 181.004L159.496 180.772L158.498 180.53L158.451 180.52L158.404 180.509L157.477 180.246L156.549 179.984L155.622 179.721L154.695 179.458L153.768 179.195L152.841 178.932L151.913 178.669L150.986 178.407L150.059 178.144L149.132 177.881L148.205 177.618L147.197 177.337L147.118 177.318L147.041 177.299L146.088 176.992L145.135 176.685L144.181 176.377L143.228 176.07L142.275 175.763L141.322 175.456L140.368 175.149L139.415 174.841L138.462 174.534L137.508 174.227L136.484 173.902L136.409 173.882L136.329 173.861L135.461 173.562L134.593 173.263L133.725 172.964L132.857 172.665L131.989 172.366L131.121 172.067L130.253 171.768L129.385 171.469L128.517 171.17L127.649 170.871L126.458 170.478L126.153 170.377L125.866 170.272L124.972 169.847L124.079 169.422L123.185 168.997L122.292 168.572L121.398 168.147L120.505 167.722L119.612 167.297L118.718 166.872L117.825 166.448L116.931 166.023L116.038 165.598L115.145 165.173L113.982 164.639L113.715 164.522L113.453 164.395L112.608 163.883L111.764 163.371L110.919 162.859L110.074 162.347L109.229 161.835L108.384 161.323L107.37 160.723L107.19 160.625L107.001 160.514L106.27 160.005L105.539 159.496L104.808 158.986L104.077 158.477L103.346 157.968L102.615 157.458L101.768 156.877L101.656 156.806L101.549 156.736L100.817 156.149L100.084 155.562L99.3513 154.974L98.6187 154.387L97.886 153.8L97.1534 153.213L96.4207 152.625L95.6881 152.038L94.8633 151.388L94.7672 151.32L94.667 151.247L94.0011 150.697L93.3353 150.147L92.6694 149.597L92.0035 149.047L91.3376 148.497L90.5861 147.883L90.5084 147.822L90.4377 147.765L89.7084 147.11L88.9791 146.456L88.2499 145.801L87.5206 145.146L86.7705 144.474L86.7485 144.456L86.7253 144.437L86.0762 143.815L85.4271 143.194L84.778 142.572L84.1289 141.95L83.4232 141.281L83.3658 141.231L83.3073 141.179L82.6961 140.571L82.0848 139.962L81.4736 139.354L80.8624 138.746L80.2196 138.109L80.1907 138.082L80.1642 138.058L79.5211 137.319L78.878 136.581L78.2349 135.842L77.5393 135.054L77.4836 135L77.4244 134.941L76.8509 134.28L76.2774 133.62L75.7038 132.96L75.1303 132.3L74.5568 131.64L73.9565 130.952L73.932 130.927L73.9094 130.903L73.3188 130.115L72.7283 129.327L72.0692 128.465L71.9996 128.387L71.9291 128.304L71.3679 127.567L70.8067 126.83L70.2902 126.146L70.3342 126.197L70.3774 126.245L69.7805 125.474L69.1836 124.704L68.5866 123.933L67.9357 123.101L67.8766 123.032L67.8118 122.953L67.3448 122.277L66.8778 121.601L66.3516 120.849L66.2942 120.772L66.2388 120.695L65.7698 120.016L65.3008 119.337L64.8203 118.641L64.8084 118.623L64.796 118.605L64.3914 117.945L63.9867 117.285L63.6024 116.655L63.6234 116.685L63.6452 116.716L63.2516 116.081L62.858 115.445L62.3657 114.667L62.2809 114.532L62.208 114.406L61.8636 113.621L61.5193 112.835L61.1749 112.05L60.8048 111.217L60.7785 111.168L60.7518 111.115L60.4127 110.396L60.0736 109.677L59.7232 108.935L59.7123 108.913L59.7019 108.891L59.3666 108.134L59.0314 107.377L58.6732 106.571L58.6508 106.521L58.6287 106.47L58.3399 105.713L58.051 104.955L57.7448 104.156L57.7293 104.118L57.7153 104.082L57.4478 103.206L57.1802 102.33L56.9127 101.454L56.6476 100.585L56.6504 100.592L56.6536 100.6L56.4312 99.8676L56.2088 99.1352L55.9609 98.3351L55.9348 98.2608L55.9085 98.1789L55.7469 97.5275L55.5853 96.8761L55.3926 96.1166L55.3698 96.0256L55.3526 95.9482L55.2018 95.0891L55.0186 94.0466L54.9959 93.8408L54.9872 93.6116L54.9903 92.8655L54.9933 92.1194L54.9903 91.1604L54.9872 90.2014L54.9811 89.6135L54.975 89.0256L54.9689 88.4924L54.9648 87.8473L54.971 87.7358L54.9811 87.6252L55.0397 87.092L55.1276 86.3555L55.1664 86.1712L55.2117 86.0052L55.3923 85.4201L55.5823 84.8049L55.5906 84.7788L55.5982 84.7559L55.8429 84.0475L56.0876 83.3391L56.344 82.5962L56.3552 82.5646L56.3657 82.5358L56.7141 81.7541L57.0768 80.9344L57.0909 80.8987L57.1048 80.8649L57.4687 80.0149L57.8122 79.2153L57.7896 79.2743L57.7648 79.3442L58.0098 78.6538L58.2467 77.9876L58.2383 78.0134L58.2296 78.0409L58.4353 77.404L58.641 76.767L58.8596 76.0894L58.8758 76.0413L58.8963 75.9838L59.0298 75.653L59.2133 75.1743L59.2071 75.1949L59.4571 74.2587L59.6717 73.6281L59.8262 73.1892L59.7998 73.2846L59.7764 73.3826L59.9026 72.8513L60.0592 72.195L60.0883 72.0942L60.1153 72.0116L60.38 71.3544L60.66 70.6519L60.6653 70.6367L60.9335 69.8506L61.1579 69.2858L61.4449 68.5807L61.6085 68.381L61.5878 68.4905L61.8205 68.5134L62.2384 68.2739L62.5354 67.9024L62.7089 67.6936L63.0263 67.2678L63.2643 66.9475L63.6911 67.1785L64.302 67.3198V67.1184L64.1809 66.917Z" fill="#FC1ED8" style="fill:#FC1ED8;fill:color(display-p3 0.9882 0.1176 0.8471);fill-opacity:1;"/>
</svg>
