<svg width="506" height="72" viewBox="0 0 506 72" fill="none" xmlns="http://www.w3.org/2000/svg">
<path d="M37.9885 23.1906L38.5591 23.1898L38.7542 22.7608L38.7587 22.5465L38.3843 22.3535L38.5015 22.2046V22.0384V21.7308V25.6621V25.9149L38.1461 26.3105L37.1988 26.3654L36.2515 26.4203L36.1954 26.4198L36.1344 26.4179L35.2375 26.3635L34.4072 26.3125L33.577 26.2616L32.7467 26.2107L32.7919 26.2132L32.8325 26.2149L31.8973 26.1966L30.9254 26.1772L29.9535 26.1578L28.9816 26.1384L28.0097 26.119L28.0294 26.1194L28.0502 26.1196L27.1636 26.1199L26.2554 26.1201L25.3472 26.1203L24.439 26.1205L23.5308 26.1207L22.6226 26.1209L22.7494 26.1181L22.8734 26.1099L22.0626 26.2184L21.1312 26.3401L20.1998 26.4617L19.2685 26.5834L18.3371 26.705L17.4058 26.8267L16.4744 26.9483L16.9136 26.8555L17.4084 26.6581L17.3128 26.8099L16.7173 27.287L16.1218 27.7641L15.5263 28.2412L15.8316 27.9542L16.1005 27.612L15.9882 27.9078L15.6637 28.5798L15.3392 29.2518L15.5026 28.8103L15.59 28.3504L15.6105 28.6921L15.6191 29.475L15.6278 30.2578L15.4949 29.5464L15.1671 28.8763L15.3358 28.9374L15.9419 29.5027L16.5481 30.0679L17.1542 30.6331L17.7604 31.1983L17.6298 31.088L17.5056 30.9956L18.2002 31.4375L19.0113 31.9566L19.8225 32.4756L20.6337 32.9947L21.4448 33.5138L22.256 34.0329L23.0672 34.5519L23.8783 35.071L24.6895 35.5901L24.7341 35.6186L24.7785 35.6483L25.5907 36.2334L26.3585 36.7875L27.1263 37.3416L27.8941 37.8957L28.6619 38.4497L29.4298 39.0038L29.5183 39.0701L29.6026 39.1391L30.3918 39.8736L31.1013 40.537L31.8107 41.2003L32.5202 41.8636L33.2296 42.5269L33.3659 42.6639L33.5079 42.8321L34.0752 43.7192L34.5003 44.4022L34.9254 45.0851L35.3505 45.768L35.7756 46.451L35.9637 46.8145L36.0804 47.1631L36.2631 48.436L36.3867 49.3956L36.5103 50.3551L36.6339 51.3147L36.7575 52.2742L36.7753 52.6689L36.7232 53.1046L36.3062 54.3632L36.0238 55.1809L35.7414 55.9985L35.4591 56.8162L35.2461 57.2324L34.9796 57.59L33.9836 58.5247L33.2769 59.1763L32.5702 59.8279L31.8636 60.4796L31.1569 61.1312L30.9794 61.2696L30.7928 61.3933L29.7464 61.9745L28.892 62.4481L28.0377 62.9218L27.1834 63.3954L26.3291 63.869L25.4748 64.3427L25.3176 64.4177L25.1566 64.4838L24.0619 64.8496L23.1306 65.1585L22.1992 65.4675L21.2678 65.7765L20.3365 66.0855L19.4051 66.3945L18.4738 66.7035L17.5424 67.0125L16.6111 67.3214L16.4269 67.3739L16.2392 67.4156L15.0788 67.5795L14.1077 67.7129L13.1367 67.8463L12.1656 67.9797L11.1945 68.1131L11.0832 68.1257L10.9713 68.1346L9.8814 68.1606L8.90369 68.1815L7.92596 68.2025L6.94825 68.2234L6.87721 68.2246L6.80661 68.2243L5.75199 68.1197L4.76746 68.017L3.78293 67.9142L3.15242 67.8247L2.4383 67.5474L1.31834 66.3498L0.86348 65.6375L0.408615 64.9252L0.197281 64.6948L0 64.4119L0.0120621 63.2224L0.188667 62.3613L0.36528 61.5001L2.20808 60.7424L2.93938 61.2302L3.67068 61.718L4.23743 61.8775L4.04015 61.5946L3.82881 61.3641L4.55885 61.7899L5.28888 62.2157L5.35381 62.156L4.63969 61.8787L4.00919 61.7892L4.99861 61.7594L5.98804 61.7295L6.90738 61.6979L6.83678 61.6975L6.76574 61.6988L7.7431 61.665L8.72046 61.6313L9.69782 61.5975L10.563 61.5688L10.4511 61.5777L10.3398 61.5904L11.3125 61.4691L12.2852 61.3478L13.2578 61.2265L14.2305 61.1052L15.0138 61.0144L14.8261 61.0561L14.642 61.1086L15.5813 60.8247L16.5206 60.5408L17.4599 60.2569L18.3992 59.973L19.3385 59.6891L20.2778 59.4052L21.2171 59.1213L22.1564 58.8374L22.9324 58.6103L22.7713 58.6764L22.6142 58.7513L23.4982 58.3357L24.3821 57.92L25.2661 57.5043L26.1501 57.0886L27.034 56.6729L27.7259 56.3648L27.5393 56.4886L27.3618 56.6269L28.1239 56.041L28.8859 55.4552L29.648 54.8693L30.4101 54.2834L30.8828 53.9806L30.6163 54.3382L30.4034 54.7544L30.7733 53.9725L31.1433 53.1905L31.5133 52.4086L31.7486 52.0676L31.6965 52.5033L31.7143 52.8979L31.6004 51.9372L31.4865 50.9764L31.3726 50.0157L31.2587 49.0549L31.2039 48.4075L31.3206 48.7561L31.5087 49.1196L31.0807 48.4385L30.6527 47.7574L30.2247 47.0763L29.7966 46.3951L29.5108 45.9182L29.6527 46.0864L29.7891 46.2234L29.0766 45.5633L28.3642 44.9031L27.6518 44.243L26.9393 43.5829L26.3067 42.994L26.391 43.063L26.4795 43.1293L25.707 42.5818L24.9344 42.0343L24.1619 41.4869L23.3893 40.9394L22.6168 40.3919L21.8886 39.8755L21.9331 39.9052L21.9776 39.9337L21.1551 39.4328L20.3326 38.9319L19.5101 38.431L18.6876 37.9301L17.8651 37.4292L17.0425 36.9283L16.22 36.4274L15.3975 35.9265L14.4584 35.3484L14.3342 35.256L14.2036 35.1458L13.5785 34.6016L12.9534 34.0574L12.3283 33.5133L11.7032 32.9691L10.6406 31.9208L10.3129 31.2508L10.18 30.5393L10.1079 29.7597L10.0358 28.9801L9.97552 27.7592L10.063 27.2993L10.2263 26.8579L10.5346 26.1783L10.8429 25.4987L11.3635 24.443L11.6324 24.1008L11.9377 23.8138L12.5277 23.3299L13.1178 22.8461L13.7078 22.3623L14.7978 21.5532L15.2925 21.3557L15.7318 21.2629L16.6631 21.1413L17.5945 21.0196L18.5259 20.8979L19.4572 20.7763L20.3886 20.6546L21.32 20.533L22.3719 20.3982L22.4958 20.39L22.6226 20.3872L23.5308 20.3874L24.439 20.3876L25.3472 20.3878L26.2554 20.388L27.1636 20.3882L28.0935 20.3885L28.1142 20.3887L28.134 20.3891L29.1059 20.4119L30.0777 20.4347L31.0495 20.4575L32.0214 20.4803L33.0299 20.5041L33.0705 20.5058L33.1157 20.5084L33.9456 20.5649L34.7755 20.6214L35.6054 20.6779L36.3687 20.7308L36.3076 20.729L36.2515 20.7284L37.1988 20.7834L38.1461 20.8383L38.5015 21.2338V21.4866V25.418V25.1104V24.9442L38.3843 24.7953L38.01 24.6022L38.0145 24.388L38.2096 23.9589L37.9885 23.1906Z" fill="white" style="fill:white;fill-opacity:1;"/>
<path d="M56.7398 28.6917L56.4051 27.8401H55.8497L55.6001 28.7437L57.2281 30.1099L58.9072 29.1843L59.1517 28.6736L59.1696 29.5544L59.3307 29.7384L59.3327 29.7072L59.3343 29.677L59.3509 30.5486L59.3662 31.4493L59.3816 32.3502L59.3969 33.251L59.4123 34.1518L59.4276 35.0526L59.4429 35.9534L59.4441 35.9165L59.4448 35.8788L59.4701 36.7084L59.4953 37.5767L59.5204 38.445L59.5455 39.3133L59.5706 40.1816L59.5957 41.0499L59.6208 41.9182L59.6208 41.9386L59.6206 41.9573L59.6266 42.9654L59.6328 43.9563L59.639 44.9472L59.6453 45.9381L59.6515 46.9291L59.6578 47.92L59.664 48.9109L59.664 48.9098L59.664 48.9086L59.661 49.8011L59.658 50.6948L59.6549 51.5885L59.6518 52.4823L59.6488 53.376L59.6457 54.2698L59.6427 55.1635L59.6396 56.0573L59.6394 56.0712L59.6391 56.0845L59.6166 57.0454L59.5945 57.9934L59.5723 58.9415L59.5502 59.8895L59.5281 60.8376L59.5059 61.7856L59.4838 62.7336L59.4616 63.6817L59.4395 64.6297L59.4403 64.5967L59.4407 64.5639L59.4417 65.4924L59.4425 66.4534L59.4415 67.5279L59.3849 68.0528L59.1225 69.1391L54.7335 71.1912L53.329 70.4733L52.4817 68.629L52.2367 67.4457L52.1168 66.5279L51.997 65.6102L51.8771 64.6924L51.7573 63.7746L51.6374 62.8569L51.5176 61.9391L53.9307 60.9442L54.4925 61.6797L55.0543 62.4153L55.6161 63.1509L56.1779 63.8864L56.7397 64.622L57.3015 65.3575L57.7381 65.8275L57.5725 65.6365L56.168 64.9187L52.4899 67.1817L52.4618 66.7758L52.4053 67.3007L52.4042 66.4534L52.4051 65.4924L52.406 64.4991L52.4065 64.4663L52.4072 64.4333L52.4381 63.4855L52.4689 62.5377L52.4997 61.5899L52.5305 60.6421L52.5613 59.6943L52.5921 58.7465L52.6229 57.7987L52.6538 56.8509L52.6842 55.916L52.6839 55.9293L52.6837 55.9432L52.7099 55.0499L52.7362 54.1565L52.7624 53.2631L52.7887 52.3698L52.8149 51.4764L52.8411 50.583L52.8674 49.6897L52.8937 48.795L52.8937 48.7938L52.8937 48.7927L52.9345 47.8026L52.9754 46.8125L53.0162 45.8224L53.057 44.8323L53.0979 43.8422L53.1387 42.8521L53.1793 41.8791L53.1791 41.8978L53.1791 41.9182L53.2042 41.0499L53.2293 40.1816L53.2544 39.3133L53.2795 38.445L53.3046 37.5767L53.3297 36.7084L53.3551 35.8014L53.3558 35.7636L53.357 35.7267L53.4393 34.8296L53.5216 33.9324L53.6039 33.0352L53.6862 32.138L53.7685 31.2409L53.8508 30.3437L53.9343 29.4173L53.9359 29.3871L53.938 29.3558L54.2202 27.8328L54.3591 27.0066L54.6037 26.4958L57.2281 25.5703L58.856 26.9365L58.6064 27.8401H58.051L56.7398 28.6917Z" fill="white" style="fill:white;fill-opacity:1;"/>
<path d="M39.8066 27.5018L39.6895 27.9865V26.2724V25.6936L40.4934 25.2719L40.5196 25.2732L41.4474 25.2135L42.4014 25.1557L43.319 25.0953L43.2578 25.0913L43.1925 25.0887L43.9527 25.016L44.7824 24.9442L45.6121 24.8723L46.4418 24.8005L47.2715 24.7287L48.2198 24.677L49.1682 24.6254L50.1165 24.5737L51.0649 24.522L52.0132 24.4703L52.9616 24.4186L53.9099 24.367L54.8583 24.3153L55.8066 24.2636L55.6604 24.2668L55.5097 24.2768L56.2492 24.1491L57.1434 24.0041L58.0376 23.8592L58.9317 23.7142L59.8259 23.5692L60.72 23.4242L61.6142 23.2792L61.526 23.2923L61.4355 23.3081L62.1883 23.1394L63.0339 22.952L63.8795 22.7645L64.7251 22.577L65.5706 22.3896L66.4162 22.2021L67.2618 22.0146L67.3113 22.0043L67.3619 21.9945L68.243 21.8431L69.0724 21.701L69.9018 21.5589L70.7312 21.4167L71.5606 21.2746L72.39 21.1325L72.4958 21.116L72.592 21.1038L73.6582 21.0868L74.6368 21.0785L75.6154 21.0702L76.594 21.0619L77.5726 21.0536L77.6464 21.048L77.7368 21.0435L78.5605 21.4181L79.2715 21.7948L79.627 25.5974L79.2715 26.6346L78.5605 27.0113L77.9624 27.386L78.0528 27.3815L78.1266 27.3759L77.1615 27.5379L76.1963 27.6999L75.2312 27.8619L74.266 28.0239L73.3884 28.1772L73.4846 28.165L73.5905 28.1485L72.761 28.2903L71.9316 28.432L71.1021 28.5737L70.2727 28.7154L69.4432 28.8572L68.6655 28.9897L68.7161 28.9798L68.7655 28.9695L67.918 29.1481L67.0706 29.3267L66.2231 29.5053L65.3755 29.6839L64.5281 29.8625L63.6806 30.0411L62.7403 30.2385L62.6498 30.2543L62.5616 30.2674L61.6611 30.3657L60.7606 30.4641L59.8601 30.5624L58.9597 30.6607L58.0592 30.759L57.1587 30.8573L56.1036 30.973L55.9529 30.9829L55.8066 30.9861L54.8583 30.9344L53.9099 30.8828L52.9616 30.8311L52.0132 30.7794L51.0649 30.7278L50.1165 30.6761L49.1682 30.6244L48.2198 30.5727L47.2715 30.521L46.4418 30.4492L45.6121 30.3774L44.7824 30.3056L43.9527 30.2338L43.0536 30.161L42.9883 30.1584L42.9271 30.1544L42.0296 29.9535L41.1684 29.755L40.2812 29.5547L40.3073 29.556L39.6895 29.1342V28.5555V26.8414L39.8066 27.5018Z" fill="white" style="fill:white;fill-opacity:1;"/>
<path d="M100.963 19.5598V18.9053L99.1006 20.1603L101.803 22.3435L101.927 22.5604L101.961 22.9523L102.188 22.767L101.862 23.3259L101.627 23.7475L101.151 24.4511L101.213 24.3665L101.267 24.2881L100.803 25.0548L100.293 25.8941L99.7829 26.7334L99.2726 27.5727L98.7623 28.412L98.7638 28.4096L98.7654 28.4071L98.2983 29.1671L97.8294 29.9298L97.3606 30.6926L96.8918 31.4554L96.4229 32.2181L95.9541 32.9809L95.4852 33.7436L95.0164 34.5063L95.0326 34.48L95.0476 34.4553L94.5631 35.2872L94.0647 36.1424L93.5664 36.9977L93.068 37.8529L92.5697 38.7081L92.0714 39.5633L91.573 40.4185L91.0747 41.2737L90.5763 42.129L90.078 42.9842L89.5796 43.8394L89.0813 44.6946L88.5829 45.5499L88.608 45.5065L88.6336 45.4605L88.2358 46.2235L87.8117 47.0354L87.3876 47.8472L86.9635 48.6591L86.5395 49.4709L86.1154 50.2828L85.6913 51.0946L85.2672 51.9065L84.8431 52.7184L84.4191 53.5302L84.4435 53.4828L84.4675 53.4346L84.1093 54.2034L83.7277 55.0213L83.3461 55.8392L82.9646 56.6571L82.583 57.4749L82.2014 58.2928L81.8198 59.1107L81.4382 59.9286L81.0567 60.7465L81.0825 60.6899L81.1073 60.6327L80.7952 61.411L80.4592 62.2469L80.1233 63.0829L79.7873 63.9188L79.4514 64.7548L79.1155 65.5907L79.1754 65.43L79.2282 65.263L78.9823 65.9219L78.6916 66.7532L78.4144 67.5239L78.4221 67.4861L73.8301 64.8257L73.3028 65.567L73.8549 64.7994L74.4108 64.0237L74.9586 63.2654L75.5064 62.5071L76.0543 61.7487L76.6021 60.9904L77.1499 60.2321L77.6978 59.4737L78.2456 58.7154L78.7934 57.9571L79.991 58.5199L79.7568 59.4256L79.5226 60.3313L79.2884 61.2371L79.0542 62.1428L78.82 63.0485L78.5858 63.9542L78.3516 64.86L78.1174 65.7657L77.8912 66.6541L77.6613 67.5506L77.134 68.2919L72.2998 66.272L72.3075 66.2343L72.4261 65.2992L72.5313 64.4248L72.6813 63.378L72.7341 63.211L72.794 63.0503L73.1299 62.2144L73.4658 61.3784L73.8018 60.5425L74.1377 59.7065L74.4736 58.8706L74.8334 57.977L74.8582 57.9199L74.884 57.8633L75.2663 57.0457L75.6486 56.2282L76.0309 55.4106L76.4133 54.5931L76.7956 53.7756L77.1779 52.958L77.5602 52.1405L77.9425 51.323L78.3482 50.4564L78.3722 50.4081L78.3966 50.3608L78.8257 49.5515L79.2547 48.7423L79.6837 47.9331L80.1128 47.1238L80.5418 46.3146L80.9709 45.5053L81.3999 44.6961L81.829 43.8869L82.258 43.0776L82.7133 42.2195L82.739 42.1735L82.764 42.1302L83.2687 41.2787L83.7733 40.4272L84.278 39.5757L84.7826 38.7242L85.2873 37.8727L85.7919 37.0211L86.2966 36.1696L86.8013 35.3181L87.3059 34.4666L87.8106 33.6151L88.3152 32.7636L88.8199 31.9121L89.3384 31.0373L89.3533 31.0125L89.3696 30.9862L89.848 30.2294L90.3264 29.4726L90.8049 28.7159L91.2833 27.9591L91.7617 27.2023L92.2401 26.4455L92.7186 25.6888L93.1987 24.9292L93.2003 24.9267L93.2018 24.9243L93.7352 24.0995L94.2687 23.2747L94.8022 22.45L95.3356 21.6252L95.916 20.7279L95.9698 20.6495L96.0319 20.5649L96.5815 19.9169L97.373 18.987L98.0733 18.1943L98.3001 18.009L99.9979 17.5493L100.122 17.9772L102.824 20.1603L100.963 21.4154V19.5598Z" fill="white" style="fill:white;fill-opacity:1;"/>
<path d="M100.841 13.59V13.1725V12.6597L102.569 13.7329L102.984 14.6346L103.399 15.5363L103.815 16.4379L104.23 17.3396L104.646 18.2412L105.061 19.1429L105.074 19.1782L105.087 19.2146L105.456 20.1393L105.813 21.0266L106.169 21.9137L106.526 22.8009L106.883 23.6881L107.239 24.5753L107.265 24.6578L107.287 24.7394L107.561 25.771L107.815 26.722L108.069 27.6731L108.324 28.6241L108.578 29.5751L108.833 30.5261L109.087 31.4771L109.341 32.4282L109.596 33.3792L109.85 34.3302L109.866 34.4069L109.88 34.4847L110.053 35.5201L110.213 36.4764L110.372 37.4328L110.532 38.3892L110.692 39.3456L110.852 40.302L111.012 41.2584L111.024 41.3487L111.033 41.4409L111.103 42.4788L111.168 43.4229L111.232 44.3669L111.296 45.3109L111.36 46.2549L111.424 47.199L111.488 48.143L111.491 48.2042L111.493 48.2632L111.494 49.3202L111.495 50.3202L111.496 51.3202L111.498 52.3202L111.499 53.3202L111.5 54.3202L111.501 55.3202L111.502 56.3202L111.462 57.1463L111.422 57.9725L111.382 58.7987L111.342 59.6248L111.326 59.9431L111.271 60.2878L110.651 61.245L110.132 61.8417L109.534 62.8065L108.616 63.4021L106.881 62.9958L105.898 62.43L105.746 59.8119L106.658 59.1367L106.817 58.6211L105.899 59.2166L105.301 60.1814L105.258 59.3914L105.115 58.9619L105.06 59.3066L105.044 59.6248L105.004 58.7987L104.964 57.9725L104.924 57.1463L104.884 56.3202L104.885 55.3202L104.886 54.3202L104.887 53.3202L104.889 52.3202L104.89 51.3202L104.891 50.3202L104.892 49.3202L104.893 48.3771L104.895 48.4361L104.898 48.4973L104.86 47.5518L104.823 46.6064L104.785 45.6609L104.748 44.7154L104.711 43.7699L104.673 42.8244L104.642 41.9728L104.651 42.065L104.663 42.1554L104.552 41.1921L104.44 40.2289L104.329 39.2656L104.218 38.3023L104.107 37.3391L103.995 36.3758L103.896 35.4915L103.91 35.5694L103.926 35.6461L103.754 34.6768L103.582 33.7075L103.41 32.7382L103.238 31.7689L103.066 30.7996L102.894 29.8303L102.721 28.861L102.549 27.8917L102.377 26.9224L102.224 26.0337L102.246 26.1154L102.272 26.1978L102.036 25.2712L101.8 24.3446L101.564 23.418L101.328 22.4914L101.092 21.5648L100.869 20.6757L100.882 20.7122L100.895 20.7475L100.599 19.8001L100.302 18.8528L100.005 17.9055L99.708 16.9582L99.4111 16.0109L99.1143 15.0636L100.841 16.1369V15.6241V13.59Z" fill="white" style="fill:white;fill-opacity:1;"/>
<path d="M84.4064 51.4539L83.6839 51.6053L83.4472 52.2715L83.289 52.7167L81.3911 50.8282L81.2217 50.1613L81.0522 49.4945L80.8828 48.8277L81.113 47.0812L82.3017 45.7805L84.1762 45.2254L85.1196 45.0162L86.0631 44.8071L86.1535 44.7915L86.2494 44.778L87.2392 44.6837L88.1276 44.6003L89.0159 44.5169L89.9043 44.4335L89.8734 44.4364L89.8424 44.4397L90.688 44.3387L91.5647 44.2342L92.4415 44.1296L93.3183 44.0251L94.195 43.9205L94.2307 43.9164L94.2641 43.913L95.2724 43.8845L96.2495 43.859L97.2266 43.8335L98.2037 43.8079L99.1808 43.7824L99.2105 43.7799L99.2401 43.7778L100.26 43.9531L101.251 44.13L102.242 44.307L103.232 44.484L104.223 44.661L105.214 44.838L106.205 45.015L107.195 45.192L107.293 46.9646L106.327 47.2491L105.362 47.5335L104.396 47.8179L103.431 48.1023L102.466 48.3867L101.5 48.6712L100.535 48.9556L99.5992 49.2382L99.6288 49.2361L99.6585 49.2337L98.6918 49.3784L97.7252 49.5232L96.7585 49.668L95.7919 49.8128L94.8565 49.9547L94.8899 49.9512L94.9255 49.9471L94.0492 50.055L93.1728 50.163L92.2965 50.2709L91.4201 50.3789L90.5125 50.4904L90.4815 50.4937L90.4507 50.4966L89.5617 50.5734L88.6727 50.6501L87.7837 50.7268L86.9962 50.7927L87.092 50.7793L87.1825 50.7637L86.2275 50.9113L85.2725 51.0589L85.2486 50.8605L86.4372 49.5598L86.6674 47.8134L86.735 48.4981L86.8025 49.1828L86.8701 49.8676L84.9722 47.979L84.814 48.4243L84.5773 49.0905L84.4064 51.4539Z" fill="white" style="fill:white;fill-opacity:1;"/>
<path d="M122.157 22.6133L121.091 22.293H120.647L125.25 21.6431L125.308 21.913L125.55 22.6396L125.791 23.3661L125.785 23.3273L125.779 23.2935L126.048 24.1519L126.322 25.0399L126.597 25.9279L126.872 26.8158L127.146 27.7038L127.421 28.5918L127.436 28.6758L127.449 28.7565L127.62 29.81L127.781 30.7861L127.942 31.7622L128.104 32.7382L128.265 33.7143L128.268 33.7473L128.272 33.7827L128.372 34.7079L128.468 35.595L128.565 36.4822L128.661 37.3694L128.757 38.2565L128.853 39.1437L128.858 39.196L128.861 39.2492L128.908 40.1741L128.952 41.045L128.995 41.9159L129.039 42.7868L129.083 43.6577L129.127 44.5285L129.127 44.5482L129.128 44.5681L129.153 45.4423L129.177 46.2962L129.201 47.1501L129.225 48.004L129.249 48.8579L129.248 48.8518L129.248 48.8459L129.214 49.722L129.179 50.604L129.145 51.486L129.111 52.3802L129.111 52.3853L127.785 54.8284L122.995 53.7132L123.253 52.5322L123.512 51.3494L123.792 50.2377L124.072 49.1259L125.26 48.796L126.073 49.6042L126.886 50.4124L127.678 51.1495L128.47 51.8884L123.68 50.7732L122.354 52.5757L122.354 52.5808L122.262 51.7152L122.169 50.8374L122.076 49.9597L121.982 49.0761L121.982 49.0701L121.982 49.064L121.957 48.2101L121.933 47.3562L121.908 46.5023L121.884 45.6484L121.86 44.8147L121.861 44.8347L121.862 44.8543L121.827 43.983L121.793 43.1117L121.759 42.2404L121.724 41.3691L121.69 40.4978L121.658 39.6805L121.662 39.7337L121.666 39.7861L121.604 38.8959L121.541 38.0057L121.478 37.1155L121.416 36.2254L121.353 35.3352L121.294 34.483L121.298 34.5183L121.302 34.5514L121.227 33.5649L121.152 32.5785L121.077 31.5921L121.002 30.6057L120.938 29.6967L120.951 29.7774L120.966 29.8614L120.884 28.9356L120.802 28.0097L120.72 27.0839L120.637 26.1581L120.555 25.2322L120.467 24.2769L120.461 24.2431L120.455 24.2043L120.462 23.4386L120.469 22.673L120.527 22.9429L125.13 22.293H124.686L122.157 22.6133Z" fill="white" style="fill:white;fill-opacity:1;"/>
<path d="M120.485 22.8355L119.983 22.1499L119.178 22.2764L118.686 22.3537L119.338 20.0534L119.964 19.44L120.59 18.8266L121.216 18.2132L121.841 17.5999L122.467 16.9865L123.093 16.373L123.719 15.7596L124.081 15.4764L124.498 15.251L125.775 14.8615L126.618 14.6207L127.46 14.3799L128.302 14.1392L129.144 13.8983L129.986 13.6576L130.072 13.6373L130.158 13.6196L131.108 13.4609L131.971 13.3173L132.834 13.1736L133.697 13.03L134.559 12.8864L135.422 12.7428L136.285 12.5992L136.393 12.5841L136.495 12.5735L137.557 12.5136L138.525 12.4604L139.492 12.4072L140.46 12.354L141.427 12.3008L142.394 12.2477L142.447 12.2452L142.502 12.2437L143.461 12.2484L144.362 12.2538L145.263 12.2592L146.163 12.2646L147.064 12.27L147.534 12.3071L147.98 12.414L149.23 13.0329L150.083 13.4919L150.937 13.951L151.549 14.3549L152.126 15.0349L152.642 16.6917L152.814 17.5069L152.986 18.3222L153.157 19.1374L153.329 19.9526L153.4 20.4951L153.369 21.0086L152.967 22.3576L152.671 23.2649L152.374 24.1722L152.078 25.0795L151.907 25.4877L151.653 25.8921L150.681 26.866L150.037 27.4784L149.393 28.0908L148.749 28.7032L148.105 29.3155L147.461 29.9279L147.213 30.1326L146.95 30.305L145.844 30.8505L145.006 31.2591L144.168 31.6678L143.331 32.0764L142.493 32.485L141.655 32.8936L140.817 33.3023L139.98 33.7109L139.142 34.1196L138.304 34.5282L137.467 34.9368L137.26 35.0201L137.042 35.0907L135.941 35.3574L135.066 35.5685L134.192 35.7795L133.317 35.9905L132.442 36.2016L131.567 36.4126L130.693 36.6237L130.616 36.6387L130.533 36.6529L129.643 36.803L128.842 36.9402L128.04 37.0775L127.239 37.2147L126.437 37.3519L126.288 37.3685L126.132 37.3789L125.199 37.4284L124.428 37.4743L127.306 35.9796L126.26 30.6711L126.824 31.0316L127.348 31.3705L127.96 31.7604L127.835 31.6932L127.73 31.6416L128.519 31.985L129.396 32.3689L130.274 32.7529L131.151 33.1368L132.029 33.5207L132.087 33.547L132.147 33.5753L133.023 34.0145L133.836 34.4233L134.65 34.8321L135.464 35.2409L136.278 35.6497L137.091 36.0584L137.905 36.4672L137.95 36.4905L137.993 36.5134L138.882 37.0074L139.729 37.4788L140.576 37.9503L141.423 38.4217L142.271 38.8931L143.118 39.3646L143.965 39.836L144.156 39.9506L144.342 40.0782L145.257 40.833L145.994 41.4487L146.732 42.0643L147.47 42.68L148.207 43.2957L148.945 43.9114L149.682 44.527L150.42 45.1427L151.158 45.7584L151.298 45.8816L151.443 46.0245L152.138 46.83L152.684 47.4705L153.229 48.1109L153.775 48.7514L154.32 49.3918L154.402 49.4912L154.476 49.5885L155.058 50.4293L155.572 51.1754L156.087 51.9215L156.237 52.1583L156.403 52.4801L156.742 53.5114L156.876 53.9826L156.96 54.1159L156.465 53.7879L151.948 55.2907L150.703 56.931L150.207 56.603L150.057 56.3067L149.836 55.606L149.82 55.4654L149.986 55.7872L150.136 56.024L149.621 55.2779L149.107 54.5318L148.66 53.8805L148.735 53.9777L148.816 54.0771L148.271 53.4363L147.726 52.7955L147.181 52.1547L146.636 51.5139L146.24 51.0382L146.386 51.1811L146.526 51.3043L145.788 50.6882L145.051 50.0721L144.314 49.456L143.577 48.8399L142.839 48.2238L142.102 47.6077L141.365 46.9916L140.628 46.3755L140.068 45.8986L140.254 46.0261L140.445 46.1407L139.599 45.6669L138.753 45.193L137.907 44.7191L137.061 44.2452L136.216 43.7714L135.37 43.2975L134.565 42.8461L134.608 42.869L134.653 42.8923L133.842 42.4786L133.031 42.0648L132.219 41.6511L131.408 41.2373L130.597 40.8235L129.786 40.4098L129.036 40.0264L129.096 40.0547L129.155 40.081L128.277 39.6962L127.4 39.3114L126.523 38.9265L125.646 38.5417L124.68 38.1164L124.575 38.0648L124.449 37.9976L123.799 37.6765L123.06 37.3045L122.361 36.9541L121.315 31.6456L124.428 30.1509L125.199 30.1967L125.809 30.2462L125.653 30.2567L125.504 30.2733L126.313 30.198L127.123 30.1227L127.932 30.0475L128.742 29.9722L129.463 29.9098L129.38 29.924L129.303 29.939L130.19 29.784L131.076 29.629L131.962 29.4739L132.849 29.3189L133.735 29.1638L134.622 29.0088L135.281 28.9095L135.064 28.9801L134.857 29.0634L135.722 28.7156L136.587 28.3678L137.451 28.0201L138.316 27.6723L139.181 27.3246L140.046 26.9768L140.91 26.6291L141.775 26.2813L142.64 25.9335L143.504 25.5858L144.101 25.3748L143.837 25.5472L143.59 25.752L144.249 25.156L144.908 24.5601L145.567 23.9641L146.227 23.3681L146.886 22.7722L147.218 22.5378L146.964 22.9422L146.793 23.3503L147.09 22.4432L147.388 21.5361L147.685 20.6289L147.876 20.1635L147.846 20.677L147.917 21.2195L147.709 20.4128L147.501 19.6061L147.293 18.7995L147.084 17.9929L147.221 18.0278L147.798 18.7078L148.41 19.1117L147.524 18.7192L146.638 18.3267L146.148 18.094L146.595 18.2009L147.064 18.238L146.163 18.2434L145.263 18.2488L144.362 18.2542L143.461 18.2596L142.618 18.2643L142.674 18.2628L142.726 18.2603L141.759 18.3139L140.791 18.3675L139.824 18.4211L138.857 18.4747L137.889 18.5283L137.017 18.5751L137.118 18.5645L137.227 18.5494L136.362 18.6792L135.497 18.8091L134.632 18.9389L133.767 19.0687L132.902 19.1985L132.037 19.3284L131.259 19.4431L131.346 19.4254L131.432 19.4051L130.576 19.5914L129.72 19.7777L128.864 19.964L128.008 20.1503L127.153 20.3366L126.733 20.3741L127.149 20.1488L127.511 19.8655L126.85 20.4407L126.189 21.016L125.528 21.5912L124.867 22.1664L124.206 22.7416L123.545 23.3169L122.884 23.8921L123.537 21.5918L123.045 21.6691L122.239 21.7956L120.485 22.8355Z" fill="white" style="fill:white;fill-opacity:1;"/>
<path d="M169.4 20.4805L168.773 20.0547H167.963L167.627 20.6245L167.728 20.9656L167.398 20.3593L167.067 19.7529L167.518 20.5426L172.376 19.6282L172.518 19.4669L172.526 20.1602L172.58 21.12L172.634 22.0799L172.688 23.0397L172.743 23.9995L172.797 24.9593L172.851 25.9192L172.905 26.879L172.93 27.8087L172.955 28.7383L172.98 29.668L173.004 30.5977L173.029 31.5274L173.054 32.4571L173.079 33.3868L173.099 34.3315L173.119 35.2763L173.139 36.221L173.159 37.1658L173.179 38.1106L173.199 39.0553L173.219 40.0001L173.24 40.9955L173.261 41.9909L173.281 42.9864L173.302 43.9818L173.323 44.9773L173.344 45.9727L173.343 46.031L173.342 46.0915L173.303 47.094L173.267 48.0336L173.231 48.9732L173.196 49.9128L173.16 50.8524L173.159 50.8675L173.158 50.8824L173.098 51.8571L173.039 52.8171L172.98 53.7771L172.924 54.6957L172.893 55.0203L172.826 55.8159L168.977 58.6059L166.871 57.8824L166.032 56.2318L165.781 55.0763L165.717 54.9254L165.672 54.8033L165.599 53.6902L165.559 52.6772L165.518 51.6642L165.478 50.6513L165.438 49.6383L168.518 48.7055L169.046 49.5707L169.575 50.4359L170.103 51.3011L170.631 52.1662L171.127 52.9312L171.082 52.8091L171.018 52.6582L171.357 52.78L171.107 52.4068L169.002 51.6833L165.629 54.4733L165.563 53.9955L165.532 54.32L165.594 53.3187L165.654 52.3588L165.715 51.3989L165.774 50.4536L165.773 50.4685L165.772 50.4836L165.83 49.5451L165.888 48.6066L165.946 47.6681L166.004 46.7296L166.059 45.8539L166.057 45.9144L166.057 45.9727L166.078 44.9773L166.098 43.9818L166.119 42.9864L166.14 41.9909L166.161 40.9955L166.182 40.0001L166.202 39.0553L166.222 38.1106L166.242 37.1658L166.262 36.221L166.282 35.2763L166.302 34.3315L166.322 33.3868L166.347 32.4571L166.371 31.5274L166.396 30.5977L166.421 29.668L166.446 28.7383L166.471 27.8087L166.495 26.879L166.55 25.9192L166.604 24.9593L166.658 23.9995L166.712 23.0397L166.767 22.0799L166.821 21.12L166.875 20.1602L166.883 19.4669L167.024 17.9188L171.883 17.0044L172.333 17.7941L172.48 18.469L172.626 19.1439L172.727 19.485L172.39 20.0547H171.581L169.4 20.4805Z" fill="white" style="fill:white;fill-opacity:1;"/>
<path d="M158.606 16.3184L157.849 16.5664L157.723 16.9208L157.34 17.7666L157.035 18.2099L156.384 18.3875L155.934 12.8982L157.034 12.4819L158.443 12.382L159.271 12.3344L159.299 12.3345L159.327 12.3348L160.209 12.302L161.064 12.2687L161.919 12.2353L162.775 12.202L163.63 12.1686L163.622 12.1684L163.614 12.1682L164.47 12.1553L165.334 12.1425L166.197 12.1297L167.061 12.1169L167.925 12.1041L168.789 12.0913L169.653 12.0785L169.627 12.0781L169.604 12.0779L170.582 12.0688L171.581 12.0598L172.58 12.0507L173.579 12.0416L174.578 12.0325L175.577 12.0235L176.576 12.0144L177.524 12.0135L178.472 12.0127L179.42 12.0118L180.368 12.011L181.316 12.0101L182.264 12.0093L183.212 12.0084L184.16 12.0076L185.108 12.0067L186.056 12.0059L186.934 12.0176L187.811 12.0293L188.688 12.041L189.566 12.0527L190.443 12.0645L190.55 12.0659L190.669 12.0711L191.544 12.2239L192.289 12.3668L193.31 12.5464L193.55 12.596L194.479 13.3868L195.815 15.9012L194.909 18.4612L192.959 18.4905L192.103 18.0856V14.9771L192.669 14.5722L192.141 14.6015L191.235 17.1615L192.57 19.465L191.844 19.6151L192.083 19.6647L191.602 19.7037L190.844 19.7059L190.217 19.7181L190.335 19.7233L190.443 19.7248L189.566 19.7365L188.688 19.7482L187.811 19.7599L186.934 19.7717L186.056 19.7834L185.108 19.7825L184.16 19.7817L183.212 19.7808L182.264 19.78L181.316 19.7791L180.368 19.7783L179.42 19.7774L178.472 19.7766L177.524 19.7757L176.576 19.7748L175.577 19.7658L174.578 19.7567L173.579 19.7476L172.58 19.7386L171.581 19.7295L170.582 19.7204L169.563 19.7113L169.54 19.7111L169.514 19.7107L168.652 19.6667L167.789 19.6227L166.926 19.5786L166.063 19.5345L165.201 19.4905L164.338 19.4465L163.467 19.4023L163.459 19.4021L163.451 19.4019L162.599 19.3264L161.746 19.2508L160.894 19.1753L160.041 19.0997L159.215 19.0247L159.243 19.0251L159.271 19.0252L158.443 18.9776L158.195 18.8777L159.296 18.4614L158.846 12.9721L159.14 13.5793L158.835 14.0226L158.452 14.8684L158.326 15.2228L158.606 16.3184Z" fill="white" style="fill:white;fill-opacity:1;"/>
<path d="M227.088 15.6123L227.326 15.1666V14.7381V14.3388V13.7905L229.933 16.1055H230.118L230.185 16.7461L230.204 17.5638L230.223 18.3815L230.242 19.1992L230.269 20.1328L230.297 21.0664L230.325 22L230.353 22.9336L230.38 23.8672L230.408 24.8008L230.436 25.7344L230.464 26.668L230.462 26.7631L230.458 26.8583L230.384 27.884L230.317 28.8148L230.25 29.7455L230.183 30.6763L230.116 31.6071L230.049 32.5378L229.982 33.4686L229.979 33.5054L229.975 33.5417L229.87 34.5244L229.769 35.4713L229.668 36.4183L229.568 37.3652L229.467 38.3122L229.366 39.2592L229.266 40.2061L229.264 40.2206L229.262 40.2359L229.155 41.1081L229.05 41.9639L228.946 42.8196L228.841 43.6754L228.736 44.5312L228.632 45.3869L228.527 46.2427L228.524 46.2655L228.52 46.2875L228.389 47.2064L228.261 48.1039L228.132 49.0014L228.004 49.899L227.876 50.7965L227.874 50.8101L227.872 50.8233L227.728 51.7634L227.587 52.6906L227.445 53.6179L227.443 53.6317L227.44 53.649L227.328 54.3143L227.23 54.9081L227.169 55.1949L227.155 55.5086L226.062 57.2082L226.126 57.2798L223.533 58.286V50.5121V50.5292L223.65 50.5732L224.539 50.5896L225.427 50.6061L225.163 50.6154L224.902 50.6427L225.537 50.5002L226.426 50.3134L227.314 50.1265L228.203 49.9397L227.996 49.9893L227.783 50.0532L228.363 49.8123L229.159 49.4922L229.955 49.1721L230.75 48.852L231.546 48.532L232.341 48.2119L233.137 47.8918L233.044 47.9306L232.956 47.9701L233.69 47.609L234.508 47.2079L235.326 46.8068L236.144 46.4056L236.961 46.0045L237.779 45.6033L238.597 45.2022L239.415 44.801L240.233 44.3999L240.124 44.4558L240.022 44.5125L240.761 44.0679L241.595 43.5661L242.43 43.0643L243.265 42.5626L244.1 42.0608L244.934 41.559L245.769 41.0572L246.604 40.5554L247.439 40.0536L248.274 39.5518L249.108 39.0501L249.943 38.5483L250.778 38.0465L251.613 37.5447L251.46 37.644L251.312 37.7515L251.918 37.2486L252.666 36.6309L253.415 36.0133L254.163 35.3957L254.912 34.7781L255.661 34.1605L256.409 33.5428L257.158 32.9252L256.929 33.137L256.715 33.3743L257.061 32.8549L257.601 32.0776L258.141 31.3003L258.68 30.5229L259.22 29.7456L259.76 28.9683L259.521 29.3759L259.321 29.8686L259.311 29.6175L259.431 28.8067L259.551 27.996L259.672 27.1853L259.792 26.3746L259.775 27.2519L259.982 28.115L259.853 28.0905L259.36 27.361L258.866 26.6315L258.373 25.902L257.88 25.1726L257.386 24.4431L256.893 23.7136L257.314 24.2271L257.823 24.6513L257.515 24.5726L256.668 24.1916L255.822 23.8106L254.975 23.4296L254.128 23.0486L253.282 22.6677L252.435 22.2867L252.706 22.3953L252.973 22.4778L252.249 22.3531L251.267 22.17L250.285 21.987L249.303 21.804L248.32 21.6209L247.338 21.4379L246.356 21.2549L246.546 21.2849L246.742 21.3048L245.978 21.3042L245.013 21.2947L244.048 21.2852L243.083 21.2758L242.118 21.2663L241.153 21.2568L240.189 21.2473L240.377 21.2452L240.571 21.2326L239.855 21.3461L238.94 21.4838L238.026 21.6214L237.111 21.759L236.197 21.8966L235.282 22.0342L234.367 22.1719L234.588 22.1316L234.797 22.0797L234.067 22.3381L233.138 22.6582L232.21 22.9782L231.282 23.2983L230.354 23.6183L229.425 23.9384L229.506 23.9094L229.59 23.877L228.829 24.2045L227.982 24.5679L227.134 24.9314L226.287 25.2948L225.439 25.6582L224.592 26.0217L223.745 26.3851L223.677 26.4136L223.609 26.4402L222.644 26.7596L221.782 27.041L223.042 25.372L220.552 20.8169L221.352 22.0635L222.111 23.3086V24.4805L221.093 25.7256L220.115 26.9722L217.625 22.4171L219.354 20.5293L220.269 20.1701L221.082 19.8488L221.014 19.8755L220.946 19.904L221.792 19.5364L222.637 19.1688L223.483 18.8012L224.329 18.4336L225.174 18.066L226.02 17.6984L226.952 17.2949L227.036 17.2625L227.117 17.2335L228.045 16.9142L228.974 16.595L229.902 16.2757L230.831 15.9564L231.759 15.6371L232.885 15.2563L233.095 15.2043L233.316 15.1641L234.23 15.0271L235.145 14.8902L236.06 14.7533L236.974 14.6163L237.889 14.4794L238.804 14.3425L239.916 14.1815L240.111 14.1688L240.299 14.1667L241.264 14.1874L242.229 14.208L243.193 14.2287L244.158 14.2494L245.123 14.27L246.088 14.2906L247.253 14.3202L247.45 14.3401L247.639 14.3701L248.621 14.5532L249.604 14.7362L250.586 14.9193L251.568 15.1023L252.55 15.2853L253.532 15.4684L254.772 15.7097L255.039 15.7922L255.31 15.9008L256.157 16.2821L257.003 16.6634L257.85 17.0447L258.696 17.426L259.543 17.8073L260.389 18.1886L261.774 18.8721L262.283 19.2964L262.704 19.8098L263.193 20.5424L263.682 21.275L264.17 22.0076L264.659 22.7401L265.148 23.4727L265.637 24.2053L266.49 25.6429L266.697 26.5059L266.68 27.3832L266.563 28.1944L266.446 29.0056L266.328 29.8167L266.211 30.6278L265.964 31.9986L265.763 32.4912L265.524 32.8989L264.998 33.6853L264.471 34.4718L263.945 35.2583L263.418 36.0448L262.892 36.8313L262.172 37.8757L261.957 38.113L261.728 38.3248L260.995 38.9611L260.263 39.5974L259.53 40.2336L258.797 40.8699L258.064 41.5062L257.331 42.1425L256.598 42.7788L255.723 43.5298L255.575 43.6372L255.422 43.7365L254.598 44.2554L253.773 44.7743L252.949 45.2931L252.125 45.812L251.301 46.3308L250.476 46.8497L249.652 47.3686L248.828 47.8875L248.003 48.4063L247.179 48.9252L246.355 49.444L245.531 49.9629L244.706 50.4818L243.786 51.0578L243.684 51.1145L243.575 51.1704L242.759 51.5757L241.943 51.981L241.128 52.3863L240.312 52.7915L239.496 53.1968L238.68 53.6021L237.864 54.0074L237.048 54.4127L236.149 54.858L236.061 54.8976L235.968 54.9363L235.172 55.2558L234.376 55.5752L233.58 55.8946L232.784 56.2141L231.988 56.5335L231.192 56.8529L230.181 57.2515L229.968 57.3154L229.761 57.365L228.873 57.5512L227.984 57.7374L227.095 57.9237L225.953 58.1542L225.692 58.1815L225.427 58.1908L224.539 58.2072L223.65 58.2237L223.533 58.2677V58.2848V50.5109L220.94 51.517L221.004 51.5887L220.145 53.2883L220.131 53.391L220.07 53.6778L220.21 52.9904L220.337 52.3744L220.334 52.3918L220.332 52.4056L220.505 51.4838L220.679 50.5621L220.85 49.6533L220.848 49.6665L220.846 49.6801L221.002 48.787L221.158 47.8939L221.315 47.0008L221.471 46.1077L221.624 45.2359L221.62 45.2579L221.617 45.2807L221.75 44.4289L221.883 43.5771L222.016 42.7253L222.149 41.8734L222.282 41.0216L222.415 40.1698L222.546 39.3344L222.544 39.3498L222.542 39.3642L222.678 38.4216L222.814 37.4791L222.95 36.5366L223.086 35.594L223.222 34.6515L223.358 33.7089L223.49 32.8021L223.486 32.8384L223.482 32.8752L223.585 31.9477L223.687 31.0202L223.79 30.0927L223.893 29.1652L223.996 28.2377L224.098 27.3102L224.194 26.4777L224.189 26.5728L224.188 26.668L224.216 25.7344L224.243 24.8008L224.271 23.8672L224.299 22.9336L224.327 22L224.355 21.0664L224.382 20.1328L224.41 19.1992L224.429 18.3815L224.448 17.5638L224.466 16.7461L224.534 16.1055H224.719L227.326 18.4204V17.8722V17.4728V17.0443L227.088 15.6123Z" fill="white" style="fill:white;fill-opacity:1;"/>
<path d="M276.16 20.4568L275.393 19.7549L274.866 19.462L274.517 19.2681L279.026 20.3751L279.126 21.255L279.226 22.1349L279.326 23.0148L279.427 23.8947L279.478 24.7907L279.529 25.6868L279.58 26.5829L279.632 27.479L279.683 28.3751L279.718 29.2814L279.754 30.1876L279.789 31.0939L279.824 32.0001L279.86 32.9064L279.895 33.8126L279.922 34.7729L279.949 35.7332L279.976 36.6935L280.004 37.6538L280.031 38.614L280.058 39.5743L280.057 39.6298L280.056 39.6869L280.029 40.6664L280.004 41.5872L279.979 42.5081L279.954 43.429L279.93 44.3499L279.905 45.2708L279.88 46.1916L279.855 47.1125L279.858 47.0597L279.859 47.0005L279.869 47.7072L279.879 48.4806L279.888 49.254L279.898 50.0275L279.899 50.7208L279.9 51.4142V51.6251L272.537 52.162L272.525 52.0751L272.685 51.2399L272.851 50.4677L273.018 49.6954L273.009 49.6003L273.004 49.5161L273.378 48.5348L273.755 47.6285L274.131 46.7221L274.508 45.8158L274.885 44.9095L275.261 44.0032L275.638 43.0969L275.96 43.0909L276.37 43.9825L276.78 44.8742L277.19 45.7659L277.6 46.6576L278.01 47.5492L278.42 48.4409L278.827 49.2576L278.823 49.1734L278.814 49.0783L279.139 49.7982L279.465 50.5181L279.783 51.1752L279.771 51.0883L272.408 51.6251V51.4142L272.409 50.7208L272.411 50.0275L272.42 49.254L272.43 48.4806L272.439 47.7072L272.449 46.867L272.451 46.8078L272.453 46.7549L272.517 45.836L272.581 44.917L272.645 43.998L272.709 43.079L272.773 42.1601L272.837 41.2411L272.902 40.3221L272.963 39.4618L272.962 39.5189L272.962 39.5743L272.989 38.614L273.016 37.6538L273.043 36.6935L273.07 35.7332L273.097 34.7729L273.124 33.8126L273.159 32.9064L273.195 32.0001L273.23 31.0939L273.266 30.1876L273.301 29.2814L273.336 28.3751L273.388 27.479L273.439 26.5829L273.49 25.6868L273.541 24.7907L273.593 23.8947L273.693 23.0148L273.793 22.1349L273.893 21.255L273.993 20.3751L278.502 21.4822L278.153 21.2882L277.626 20.9953L276.16 20.4568Z" fill="white" style="fill:white;fill-opacity:1;"/>
<path d="M275.373 16.7458L275.006 16.2146H274.602H273.989L274.651 14.0704L274.558 13.9268L275.565 13.2094L275.664 13.1601L276.252 12.9351L277.101 12.6011L277.221 12.5612L277.311 12.5351L278.306 12.2649L279.231 12.0128L280.157 11.7608L281.082 11.5087L282.007 11.2567L282.932 11.0046L283.858 10.7525L284.783 10.5005L285.708 10.2484L286.634 9.99631L287.559 9.74426L288.484 9.49219L289.41 9.24011L290.335 8.98804L290.488 8.95456L290.652 8.92719L291.698 8.83609L292.568 8.76447L293.438 8.69284L293.509 8.68781L293.578 8.68445L294.559 8.67105L295.473 8.65948L296.387 8.64789L297.301 8.63632L298.215 8.62473L299.13 8.61316L300.044 8.60156L300.563 8.63632L301.091 8.76367L302.36 9.42249L303.14 9.86905L303.919 10.3156L304.538 10.756L305.077 11.4104L305.627 12.982L305.846 13.8049L306.065 14.6279L306.161 15.1021L306.181 15.5749L305.967 16.9096L305.801 17.8058L305.635 18.702L305.469 19.5982L305.303 20.4944L305.148 21.0394L304.857 21.6008L303.856 22.6814L303.268 23.2621L302.68 23.8429L302.092 24.4237L301.503 25.0044L301.292 25.1922L301.089 25.3425L300.049 25.9572L299.199 26.4531L298.349 26.949L297.498 27.4449L296.648 27.9408L296.511 28.0154L296.361 28.0866L295.354 28.4835L294.508 28.8142L293.663 29.1449L292.817 29.4756L291.972 29.8063L291.126 30.137L291.042 30.1675L290.955 30.196L290.014 30.4864L289.161 30.7505L288.308 31.0147L287.455 31.2789L286.603 31.5431L285.75 31.8073L284.897 32.0715L284.045 32.3357L284.066 32.3297L284.085 32.324L283.166 32.6372L282.229 32.9557L281.291 33.2743L281.376 33.2477L281.48 33.2117L280.978 33.478L280.165 33.8634L279.803 33.9547L282.058 29.1171L281.697 28.4621L281.719 28.4618L282.111 28.9094L281.798 28.6248L281.522 28.423L281.994 28.6702L282.705 29.0608L283.416 29.4514L283.349 29.4153L283.281 29.3809L283.955 29.6939L284.696 30.0398L285.438 30.3857L286.179 30.7315L286.177 30.7303L286.174 30.7292L286.907 31.0681L287.642 31.4082L288.377 31.7483L289.112 32.0884L289.847 32.4284L289.963 32.485L290.067 32.5404L290.957 33.0664L291.753 33.5386L292.549 34.0108L293.345 34.483L294.141 34.9552L294.937 35.4274L295.733 35.8997L295.866 35.9826L296.002 36.0767L296.806 36.716L297.47 37.2492L298.134 37.7824L298.799 38.3156L299.463 38.8489L299.618 38.9803L299.752 39.1085L300.521 39.9513L301.173 40.6706L301.825 41.39L302.477 42.1093L302.557 42.201L302.643 42.3069L303.21 43.0953L303.685 43.761L304.16 44.4267L304.635 45.0923L304.72 45.2177L304.804 45.353L305.241 46.1735L305.598 46.8487L306.018 47.6514L306.045 47.7088L306.117 48.0713L304.672 52.4482L304.668 52.4418L300.862 52.2425L300.604 52.0813L300.266 51.178L299.691 50.0879L302.866 46.5523L303.479 46.5286L304.329 46.6917L304.071 46.5304L300.975 46.3312L300.971 46.3248L299.527 50.7017L299.599 50.6345L299.625 50.6919L299.335 50.143L298.981 49.4667L298.707 48.9356L298.791 49.0709L298.876 49.1963L298.402 48.5299L297.928 47.8635L297.454 47.1971L297.071 46.6535L297.157 46.7594L297.237 46.8512L296.586 46.131L295.935 45.4109L295.284 44.6908L294.751 44.0941L294.886 44.2223L295.04 44.3538L294.376 43.8198L293.712 43.2858L293.049 42.7519L292.385 42.2179L291.86 41.79L291.997 41.8841L292.129 41.967L291.334 41.494L290.538 41.0208L289.743 40.5477L288.947 40.0746L288.152 39.6015L287.356 39.1284L286.655 38.7091L286.759 38.7645L286.875 38.8211L286.141 38.4783L285.407 38.1356L284.674 37.7929L283.94 37.4501L283.204 37.1062L283.201 37.1051L283.199 37.1039L282.458 36.7564L281.717 36.4089L280.976 36.0614L280.167 35.6812L280.1 35.6467L280.032 35.6106L279.321 35.22L278.61 34.8293L277.661 34.2953L277.384 34.0935L277.072 33.8089L276.636 33.4049L275.83 32.553L275.468 31.8981L277.723 27.0604L277.831 27.1517L278.322 27.002L279.125 26.7332L279.229 26.6972L279.314 26.6706L280.272 26.4214L281.23 26.1722L282.207 25.9177L282.226 25.912L282.247 25.906L283.113 25.6898L283.98 25.4735L284.846 25.2572L285.712 25.0409L286.578 24.8246L287.444 24.6083L288.31 24.3921L289.087 24.202L289.001 24.2304L288.916 24.261L289.769 23.9523L290.623 23.6437L291.477 23.3351L292.331 23.0265L293.185 22.7179L293.877 22.4754L293.727 22.5466L293.589 22.6212L294.445 22.1359L295.301 21.6505L296.158 21.1652L297.014 20.6799L297.68 20.3133L297.477 20.4636L297.265 20.6513L297.862 20.079L298.458 19.5066L299.054 18.9342L299.65 18.3619L299.833 18.2893L299.543 18.8507L299.387 19.3958L299.554 18.4998L299.721 17.6038L299.888 16.7078L300.055 15.8118L300.173 15.3543L300.193 15.8271L300.29 16.3013L300.035 15.4888L299.78 14.6764L299.856 14.6126L300.395 15.2669L301.014 15.7073L300.213 15.3023L299.411 14.8973L299.099 14.7046L299.627 14.8319L300.147 14.8667L299.233 14.8853L298.319 14.9038L297.405 14.9224L296.491 14.9409L295.577 14.9595L294.663 14.978L293.816 14.9948L293.885 14.9914L293.956 14.9864L293.086 15.058L292.216 15.1296L291.523 15.1817L291.687 15.1543L291.84 15.1208L290.903 15.3258L289.966 15.5308L289.029 15.7357L288.093 15.9407L287.156 16.1457L286.219 16.3506L285.282 16.5556L284.345 16.7606L283.408 16.9655L282.471 17.1705L281.535 17.3754L280.598 17.5804L279.661 17.7854L278.794 17.9722L278.884 17.9461L279.003 17.9062L278.665 17.998L278.066 18.1988L278.164 18.1495L277.515 18.5023L277.422 18.3588L278.084 16.2146H277.471H277.067L275.373 16.7458Z" fill="white" style="fill:white;fill-opacity:1;"/>
<path d="M326.657 15.6797L325.689 15.4649L325.494 16.308L325.617 16.9876L325.485 17.1929L326.472 17.7877L327.232 17.5469L327.717 17.5629L327.874 17.5976L327.958 17.4511L328.021 17.3276L327.813 17.9339L327.557 18.6449L327.301 19.3559L327.046 20.067L327.042 20.0757L327.038 20.0838L326.727 20.8679L326.42 21.6443L326.112 22.4207L325.804 23.1971L325.497 23.9735L325.189 24.75L325.202 24.7197L325.214 24.6909L324.907 25.5099L324.589 26.3563L324.27 27.2027L323.952 28.0491L323.634 28.8955L323.315 29.7419L322.997 30.5883L322.996 30.5895L322.996 30.5907L322.649 31.5071L322.303 32.4224L321.957 33.3377L321.611 34.2531L321.265 35.1684L320.918 36.0837L320.572 36.999L320.226 37.9143L319.88 38.8296L319.534 39.7449L319.523 39.7708L319.512 39.7981L319.156 40.6505L318.814 41.4738L318.471 42.2971L318.129 43.1204L317.786 43.9437L317.444 44.767L317.46 44.7284L317.476 44.6894L317.174 45.4807L316.856 46.311L316.538 47.1414L316.22 47.9718L316.248 47.899L316.276 47.8193L316.064 48.4762L315.793 49.3118L314.003 51.3117L309.12 48.9966L309.724 47.2504L309.785 46.9425L310.607 46.3448L311.452 45.6978L312.235 45.2288L313.792 45.8651L314.022 46.7477L314.316 47.4522L314.586 48.2061L314.646 47.8982L315.251 47.6442L310.367 45.329L308.812 46.8993L309.013 46.2427L309.274 45.4074L309.302 45.3276L309.33 45.2549L309.664 44.4309L309.999 43.6071L310.333 42.7831L310.683 41.9201L310.699 41.8811L310.716 41.8425L311.084 41.0304L311.453 40.2183L311.821 39.4062L312.189 38.5941L312.558 37.7819L312.914 36.9989L312.902 37.0262L312.892 37.0521L313.281 36.1541L313.67 35.2561L314.059 34.3582L314.447 33.4602L314.836 32.5622L315.225 31.6643L315.614 30.7663L316.003 29.8683L316.392 28.9704L316.781 28.0735L316.78 28.0746L316.78 28.0759L317.139 27.2459L317.498 26.416L317.857 25.5861L318.216 24.7561L318.575 23.9262L318.935 23.0963L319.305 22.2389L319.317 22.2101L319.33 22.1798L319.693 21.4276L320.056 20.6754L320.419 19.9232L320.781 19.1709L321.144 18.4187L321.504 17.6741L321.5 17.6823L321.497 17.691L321.835 17.0153L322.173 16.3396L322.511 15.6639L322.897 14.8835L322.959 14.7599L323.044 14.6134L323.794 13.6873L324.873 12.7423L325.632 12.5015L327.331 13.0963L327.91 13.9422L328.033 14.6218L327.838 15.4649L326.657 15.6797Z" fill="white" style="fill:white;fill-opacity:1;"/>
<path d="M328.657 13.5345V12.5871V11.9595L326.36 13.7616L326.272 12.979L326.185 12.1965L326.257 10.5239L326.585 9.91113L331.017 10.0084L331.711 10.8572L332.142 11.6613L332.636 12.616L333.037 13.3639L333.067 13.4402L333.095 13.5199L333.414 14.3541L333.706 15.1053L333.997 15.8564L334.289 16.6076L334.581 17.3587L334.598 17.4158L334.613 17.4697L334.874 18.3659L335.122 19.2111L335.37 20.0562L335.617 20.9014L335.865 21.7466L336.113 22.5917L336.127 22.6526L336.14 22.709L336.363 23.7307L336.575 24.7L336.786 25.6693L336.998 26.6386L337.21 27.608L337.422 28.5773L337.633 29.5467L337.845 30.516L338.057 31.4853L338.055 31.4739L338.052 31.4622L338.25 32.3737L338.451 33.2975L338.652 34.2212L338.853 35.1449L339.054 36.0686L339.255 36.9923L339.26 37.0181L339.266 37.0458L339.431 37.9106L339.591 38.7457L339.75 39.5807L339.91 40.4157L340.069 41.2507L340.229 42.0857L340.222 42.0522L340.216 42.0219L340.417 42.9544L340.624 43.9144L340.831 44.8745L341.037 45.8345L341.031 45.8048L341.024 45.7729L341.173 46.6043L341.331 47.4701L341.489 48.3358L341.667 49.287L341.738 49.7954L341.437 50.9298L339.703 52.5817L339.224 52.9688L337.432 52.7953L336.677 52.2888L336.005 51.7805V50.1957L336.677 49.6874L337.265 49.181L336.818 49.0075L336.338 49.3946L335.316 50.8277L334.78 50.259L334.851 50.7674L334.613 50.0115L334.355 49.1702L334.097 48.3289L333.83 47.4533L333.823 47.4215L333.816 47.3918L333.609 46.4319L333.402 45.472L333.195 44.5121L332.981 43.5247L332.975 43.4943L332.969 43.4608L332.812 42.6253L332.655 41.7897L332.498 40.9542L332.341 40.1186L332.185 39.2831L332.034 38.4773L332.039 38.505L332.045 38.5308L331.851 37.6056L331.657 36.6803L331.464 35.7551L331.27 34.8298L331.076 33.9046L330.88 32.9672L330.878 32.9555L330.875 32.9441L330.692 31.969L330.509 30.9938L330.325 30.0187L330.142 29.0436L329.959 28.0685L329.776 27.0934L329.592 26.1183L329.409 25.1432L329.237 24.2204L329.25 24.2767L329.265 24.3376L329.078 23.4771L328.89 22.6165L328.703 21.756L328.516 20.8954L328.328 20.0349L328.155 19.2253L328.17 19.2792L328.187 19.3363L328.004 18.5515L327.82 17.7667L327.637 16.9819L327.454 16.1972L327.298 15.4954L327.326 15.5751L327.356 15.6514L327.127 14.8342L326.991 14.2238L326.791 13.4628L327.485 14.3116L330.73 12.9167L331.058 12.3039L331.13 12.1965L331.043 12.979L330.955 13.7616L328.657 15.5637V14.9361V13.5345Z" fill="white" style="fill:white;fill-opacity:1;"/>
<path d="M318.466 40.3357V39.4286V38.8645L316.844 43.7896L316.301 43.5709L315.412 43.0819L316.89 37.5501L318.307 37.4814L319.153 37.5363L320.081 37.6059L320.115 37.6128L320.151 37.6202L320.988 37.7598L321.789 37.8913L322.59 38.0228L322.437 37.9917L322.302 37.9697L323.155 38.0459L324.128 38.1374L325.102 38.2288L326.075 38.3203L327.049 38.4117L326.922 38.4L326.786 38.3923L327.53 38.3898L328.419 38.3901L329.308 38.3904L330.196 38.3907L330.967 38.4289L331.737 38.467L332.508 38.5052L333.278 38.5433L334.148 38.6838L335.018 38.8242L335.888 38.9646L335.502 38.9883L335.132 39.0562L335.89 39.464L336.989 39.7677L338.087 40.0713L338.899 42.2729L338.261 43.2171L337.623 44.1614L336.644 45.2099L336.274 45.2778L335.888 45.3014L335.018 45.4418L334.148 45.5823L333.278 45.7227L332.508 45.7609L331.737 45.799L330.967 45.8372L330.196 45.8753L329.308 45.8756L328.419 45.8759L327.53 45.8762L326.497 45.8737L326.362 45.866L326.235 45.8543L325.265 45.7333L324.294 45.6122L323.324 45.4912L322.354 45.3701L321.263 45.2339L321.128 45.2119L320.975 45.1808L320.195 44.9555L319.415 44.7302L318.672 44.513L318.707 44.5204L318.742 44.5273L318.013 44.2766L317.203 44.0112L318.62 43.9425L319.621 38.4107L319.681 38.5623L320.087 38.9843L318.466 43.9094V43.3453V40.3357Z" fill="white" style="fill:white;fill-opacity:1;"/>
<path d="M345.903 15.5742L345.553 15.1445H345.025H344.493L344.181 15.039H343.875L346.931 12.9082L347.381 12.9458L348.657 13.634L348.791 13.8213L349.224 14.5163L349.855 15.5612L349.911 15.687L349.959 15.8085L350.329 16.7623L350.659 17.5995L350.988 18.4366L351.019 18.537L351.048 18.6458L351.279 19.5451L351.482 20.3263L351.685 21.1075L351.888 21.8886L352.091 22.6698L352.115 22.797L352.133 22.9144L352.259 23.9333L352.373 24.8439L352.486 25.7545L352.6 26.6651L352.713 27.5757L352.827 28.4863L352.94 29.3969L353.054 30.3074L353.167 31.218L353.172 31.2672L353.176 31.3143L353.25 32.3365L353.322 33.3136L353.394 34.2907L353.466 35.2679L353.538 36.2449L353.61 37.222L353.607 37.1864L353.604 37.1476L353.687 37.9573L353.773 38.8096L353.859 39.6618L353.945 40.514L354.031 41.3663L354.117 42.2185L354.104 42.0947L354.087 41.9796L354.252 42.8054L354.435 43.7379L354.618 44.6705L354.801 45.6031L354.785 45.5232L354.767 45.4428L354.983 46.2684L355.048 46.6703L354.422 45.6591L350.621 45.1731L350.978 44.6946L349.89 45.3727L349.659 45.7221L349.518 45.9895L349.776 45.3139L350.126 44.4316L350.475 43.5493L350.825 42.667L350.849 42.6079L350.876 42.5465L351.28 41.6823L351.655 40.8821L352.03 40.0819L352.405 39.2817L352.779 38.4815L353.154 37.6812L353.171 37.6455L353.189 37.61L353.608 36.789L354.01 36.0035L354.413 35.218L354.815 34.4325L355.217 33.6469L355.619 32.8614L356.021 32.0759L356.423 31.2904L356.444 31.2497L356.465 31.2097L356.927 30.3907L357.367 29.6111L357.987 28.5414L358.533 27.9118L359.654 27.1435L363.809 27.6163L364.515 28.2145L365.415 30.1359L365.765 31.2733L366.029 32.1654L366.055 32.2539L366.078 32.3398L366.316 33.3831L366.534 34.3432L366.752 35.3033L366.971 36.2634L367.189 37.2235L367.407 38.1837L367.393 38.1231L367.377 38.0623L367.629 38.9341L367.898 39.867L368.167 40.8L368.436 41.7329L368.418 41.6714L368.396 41.6017L368.636 42.268L368.903 43.0139L369.17 43.7597L369.437 44.5056L369.358 44.3032L369.253 44.0829L369.474 44.416L369.829 44.9853L370.184 45.5545L369.489 44.7541L368.67 44.2428L368.77 44.1753L369.6 44.3361L368.195 44.3603L366.836 45.0139L366.55 45.0312L367.03 44.1926L367.509 43.3539L367.456 43.441L367.403 43.5356L367.734 42.8508L368.12 42.0635L368.506 41.2762L368.892 40.4888L369.277 39.7015L369.663 38.9142L369.633 38.9739L369.607 39.0305L369.971 38.2L370.359 37.316L370.747 36.4321L371.136 35.5482L371.524 34.6642L371.912 33.7803L372.3 32.8964L372.281 32.94L372.263 32.9849L372.585 32.1645L372.926 31.2977L373.266 30.431L373.607 29.5642L373.948 28.6974L374.288 27.8307L374.629 26.964L374.97 26.0972L374.956 26.1316L374.943 26.1663L375.242 25.328L375.554 24.4547L375.865 23.5815L376.177 22.7083L376.488 21.8351L376.8 20.9619L377.111 20.0887L377.423 19.2155L377.735 18.3423L378.046 17.4691L378.358 16.5959L378.322 16.7012L378.29 16.8062L378.496 15.9928L378.731 15.0751L378.965 14.1575L379.2 13.2398L379.435 12.3221L379.411 12.4196L379.39 12.5185L379.518 11.692L379.664 10.7656L379.81 9.83911L379.786 9.9942L379.767 10.1927L379.737 9.81244L379.717 9.17181V8.8515L383.412 5.29736L386.486 9.58459L386.493 9.52191L385.809 10.353L385.124 11.1932L384.443 11.9975L383.762 12.8018L382.116 12.5808L381.672 11.6254L381.227 10.67L380.778 9.75043L380.331 8.82172L380.338 8.75903L383.412 12.4056L387.107 8.8515V9.17181L387.086 9.81244L387.057 10.7134L387.037 10.9119L387.014 11.067L386.845 11.9895L386.676 12.912L386.488 13.9345L386.467 14.0334L386.443 14.1309L386.205 15.0476L385.966 15.9643L385.728 16.881L385.489 17.7977L385.222 18.8187L385.19 18.9236L385.154 19.029L384.84 19.9015L384.527 20.774L384.213 21.6466L383.9 22.5191L383.587 23.3916L383.273 24.2642L382.96 25.1367L382.646 26.0092L382.333 26.8818L382.019 27.7543L381.693 28.6617L381.68 28.6964L381.667 28.7308L381.326 29.5974L380.985 30.4641L380.644 31.3307L380.303 32.1974L379.962 33.064L379.621 33.9307L379.28 34.7973L378.921 35.7103L378.902 35.7552L378.883 35.7988L378.492 36.6816L378.101 37.5645L377.711 38.4472L377.32 39.33L376.929 40.2129L376.538 41.0957L376.123 42.0319L376.097 42.0884L376.067 42.1482L375.663 42.926L375.258 43.7038L374.853 44.4815L374.449 45.2593L374.044 46.0371L373.585 46.9174L373.532 47.012L373.479 47.0992L372.932 47.8959L372.386 48.6926L371.074 50.3454L369.715 50.999L368.31 51.0232L367.48 50.8636L365.92 50.4759L365.1 49.9645L364.406 49.1641L364.05 48.5953L363.694 48.0265L363.204 47.2216L363.099 47.0014L363.019 46.7989L362.753 46.0526L362.487 45.3063L362.221 44.56L361.928 43.7342L361.906 43.6645L361.888 43.6029L361.623 42.6687L361.359 41.7344L361.095 40.8001L360.814 39.8048L360.798 39.744L360.784 39.6834L360.567 38.723L360.351 37.7625L360.134 36.802L359.917 35.8416L359.701 34.8811L359.504 34.0038L359.527 34.0897L359.553 34.1783L359.264 33.2942L359.062 32.6556L359.411 32.801L360.116 33.3992L363.56 33.2314L363.494 33.3146L364.04 32.685L363.79 33.1805L363.36 33.9659L362.952 34.7121L362.974 34.672L362.995 34.6313L362.597 35.4191L362.199 36.2068L361.802 36.9945L361.404 37.7823L361.006 38.57L360.608 39.3577L360.211 40.1454L359.831 40.8977L359.848 40.8622L359.865 40.8264L359.49 41.6265L359.115 42.4265L358.739 43.2266L358.364 44.0266L357.989 44.8267L357.643 45.5628L357.67 45.5013L357.694 45.4422L357.333 46.3197L356.972 47.1972L356.61 48.0747L356.158 49.1588L356.016 49.4262L355.785 49.7757L353.983 51.4107L353.625 51.8893L349.824 51.4033L348.252 49.5405L347.845 48.1299L347.588 47.143L347.57 47.0627L347.554 46.9827L347.382 46.0481L347.209 45.1135L347.037 44.1789L346.846 43.1374L346.829 43.0224L346.816 42.8985L346.743 42.045L346.67 41.1916L346.598 40.3381L346.525 39.4846L346.452 38.6311L346.376 37.7351L346.373 37.6963L346.37 37.6606L346.324 36.682L346.277 35.7034L346.231 34.7248L346.184 33.7461L346.137 32.7675L346.094 31.834L346.097 31.8811L346.102 31.9303L346.031 31.0154L345.961 30.1004L345.89 29.1855L345.82 28.2706L345.749 27.3557L345.679 26.4407L345.608 25.5258L345.538 24.6109L345.48 23.8042L345.498 23.9216L345.522 24.0488L345.394 23.2519L345.265 22.4549L345.137 21.658L345.009 20.8611L344.908 20.1822L344.938 20.291L344.968 20.3914L344.743 19.5202L344.518 18.6491L344.334 17.8945L344.382 18.016L344.438 18.1418L344.357 17.6945L344.08 16.8974L344.214 17.0846L344.544 17.1322L344.994 17.1698L348.05 15.039H347.744L347.433 15.1445H346.9H346.373L345.903 15.5742Z" fill="white" style="fill:white;fill-opacity:1;"/>
<path d="M397.873 11.6094V11.1553L396.687 11.6252H399.892L400.271 11.4143L400.497 11.8401L400.558 12.551L400.619 13.262L400.681 13.9729L400.753 14.8479L400.825 15.7229L400.896 16.5979L400.968 17.4729L401.04 18.3479L401.04 18.3891L401.039 18.4272L401.036 19.445L401.034 20.4275L401.032 21.41L401.03 22.3924L401.029 23.3749L401.027 24.3574L401.025 25.3398L401.023 26.3223L401.021 27.3048L401.019 28.2873L401.011 28.4296L400.996 28.5811L400.843 29.6244L400.714 30.5074L400.584 31.3904L400.455 32.2733L400.325 33.1563L400.195 34.0393L400.066 34.9222L399.936 35.8052L399.928 35.8515L399.92 35.8968L399.737 36.8426L399.563 37.7442L399.389 38.6457L399.214 39.5473L399.04 40.4488L398.866 41.3503L398.692 42.2519L398.684 42.2899L398.675 42.33L398.474 43.1918L398.282 44.0111L398.091 44.8304L397.9 45.6497L397.708 46.4689L397.517 47.2882L397.511 47.3123L397.505 47.3364L397.285 48.1714L397.072 48.9824L396.859 49.7933L396.645 50.6042L396.454 51.3294L396.417 51.4699L395.446 53.6426L393.146 54.5851L390.33 52.7363L389.458 51.4233L389.577 50.4459L389.721 49.4782L389.91 48.7709L393.984 48.2921L394.332 48.9363L394.635 49.3202L394.912 49.6944L394.041 48.3814L391.935 47.8138L389.87 48.7563L389.133 49.4368L389.097 49.5774L389.331 48.6806L389.545 47.8697L389.758 47.0587L389.971 46.2478L390.178 45.461L390.172 45.4851L390.166 45.5091L390.371 44.693L390.575 43.8769L390.78 43.0608L390.984 42.2446L391.189 41.4285L391.383 40.6548L391.374 40.695L391.366 40.733L391.565 39.8365L391.763 38.9401L391.962 38.0436L392.161 37.1472L392.359 36.2507L392.558 35.3543L392.748 34.5022L392.739 34.5475L392.731 34.5937L392.897 33.7169L393.064 32.8401L393.23 31.9633L393.396 31.0865L393.563 30.2097L393.729 29.3329L393.895 28.4561L394.039 27.7397L394.024 27.8912L394.016 28.0335L394.085 27.0535L394.154 26.0735L394.223 25.0934L394.292 24.1134L394.362 23.1334L394.431 22.1534L394.5 21.1733L394.569 20.1933L394.638 19.2133L394.707 18.2686L394.706 18.3067L394.706 18.3479L394.777 17.4729L394.849 16.5979L394.921 15.7229L394.993 14.8479L395.065 13.9729L395.126 13.262L395.188 12.551L395.249 11.8401L395.475 11.4143L395.853 11.6252H399.058L397.873 12.0952V11.6094Z" fill="white" style="fill:white;fill-opacity:1;"/>
<path d="M415.579 14.4968L414.916 13.6281L414.054 13.5529L413.536 13.4897L418.436 13.547H418.839L418.915 14.3854L418.914 14.4036L418.869 15.2462L418.821 16.1297L418.778 16.9508L418.777 16.9605L418.776 16.9694L418.722 17.8993L418.669 18.8209L418.616 19.7424L418.563 20.664L418.51 21.5856L418.499 21.6773L418.486 21.7682L418.322 22.7761L418.173 23.6938L418.024 24.6116L417.875 25.5294L417.726 26.4472L417.577 27.365L417.428 28.2827L417.421 28.3182L417.414 28.3526L417.216 29.339L417.024 30.292L416.832 31.2451L416.641 32.1982L416.449 33.1512L416.257 34.1042L416.066 35.0573L415.874 36.0104L415.683 36.9634L415.491 37.9165L415.299 38.8696L415.3 38.8647L415.301 38.8595L415.123 39.7394L414.943 40.6247L414.763 41.51L414.583 42.3953L414.403 43.2806L414.223 44.1659L414.043 45.0512L414.051 45.0153L414.058 44.98L413.899 45.8629L413.735 46.7803L413.57 47.6978L413.405 48.6153L413.24 49.5328L413.249 49.4833L413.257 49.4311L413.147 50.2301L413.029 51.0843L412.908 51.9538L412.793 52.4838L412.407 53.5297L406.057 53.8058L405.551 52.866L405.588 51.3202L405.756 50.2073L405.949 49.2942L405.943 49.2131L405.94 49.1373L406.259 48.076L406.578 47.0855L406.898 46.095L407.217 45.1045L407.537 44.114L407.856 43.1234L408.176 42.1329H408.906L409.225 43.1234L409.545 44.114L409.864 45.1045L410.184 46.095L410.504 47.0855L410.823 48.076L411.142 48.9957L411.139 48.92L411.133 48.8388L411.482 49.7044L411.807 50.3701L412 50.603L411.493 49.6632L405.62 50.7909L405.468 50.3446L405.354 50.8746L405.47 50.0357L405.588 49.1816L405.715 48.2723L405.723 48.22L405.732 48.1706L405.9 47.2537L406.068 46.3368L406.236 45.4199L406.404 44.503L406.579 43.5515L406.586 43.5162L406.593 43.4803L406.786 42.5977L406.979 41.7151L407.172 40.8326L407.365 39.95L407.557 39.0675L407.75 38.1849L407.944 37.297L407.945 37.2918L407.946 37.2869L408.164 36.3394L408.381 35.3919L408.599 34.4444L408.816 33.4969L409.034 32.5494L409.251 31.6019L409.469 30.6544L409.686 29.7069L409.904 28.7594L410.121 27.8119L410.331 26.8977L410.325 26.932L410.318 26.9675L410.507 26.0572L410.696 25.1468L410.885 24.2365L411.075 23.3261L411.264 22.4158L411.453 21.5054L411.627 20.6851L411.613 20.7761L411.603 20.8678L411.74 19.955L411.878 19.0422L412.015 18.1294L412.153 17.2166L412.29 16.3121L412.289 16.321L412.288 16.3307L412.401 15.5164L412.509 14.7644L412.621 13.9716L412.62 13.9899L412.695 13.547H413.098L417.999 14.0339L417.481 13.9708L416.619 13.8956L415.579 14.4968Z" fill="white" style="fill:white;fill-opacity:1;"/>
<path d="M413.386 14.5078L412.626 13.8672H412.166H411.879L413.517 12.0407L414.907 12.3253L415.57 12.662L416.232 12.9987L416.2 12.9696L416.17 12.944L416.869 13.3634L417.596 13.8054L417.671 13.8691L417.747 13.9383L418.415 14.5443L419.008 15.0753L419.6 15.6062L419.658 15.6675L419.71 15.7253L420.358 16.4482L420.961 17.1165L421.564 17.7849L422.166 18.4532L422.769 19.1216L423.371 19.79L423.453 19.8938L423.533 20.0047L424.079 20.8421L424.547 21.5619L425.016 22.2817L425.484 23.0015L425.953 23.7213L426.421 24.4411L426.444 24.4789L426.467 24.5172L426.919 25.2985L427.35 26.0414L427.78 26.7843L428.21 27.5271L428.64 28.27L429.07 29.0128L429.501 29.7557L429.496 29.748L429.492 29.7404L429.934 30.4912L430.38 31.2495L430.826 32.0078L431.272 32.7661L431.718 33.5244L432.165 34.2828L432.611 35.0411L432.599 35.0211L432.588 35.0018L433.054 35.7635L433.531 36.5441L434.008 37.3246L434.486 38.1052L434.963 38.8857L435.44 39.6663L435.391 39.5882L435.341 39.513L435.847 40.2021L436.404 40.9636L436.961 41.725L437.517 42.4865L438.074 43.248L438.631 44.0094L438.575 43.9348L438.506 43.8477L438.894 44.2776L439.105 44.5446L437.664 43.7831L436.255 43.73L433.672 45.1649L433.621 45.3389L433.64 44.9582L433.739 44.2055L433.836 43.455L433.934 42.7046L433.943 42.6519L433.951 42.6073L434.14 41.6237L434.322 40.6781L434.503 39.7326L434.685 38.787L434.867 37.8414L435.048 36.8959L435.23 35.9503L435.224 35.9845L435.217 36.0218L435.344 35.2265L435.479 34.3905L435.613 33.5546L435.748 32.7186L435.882 31.8826L436.017 31.0466L436.009 31.0929L436.003 31.137L436.107 30.2709L436.218 29.363L436.328 28.455L436.439 27.5471L436.549 26.6391L436.659 25.7312L436.65 25.8094L436.643 25.8841L436.7 24.9736L436.764 23.9919L436.828 23.0101L436.892 22.0283L436.956 21.0465L436.95 21.1418L436.946 21.237L436.941 20.3457L436.937 19.3594L436.933 18.373L436.928 17.3867L436.926 16.4805L436.924 15.5742L436.922 14.668L436.92 13.7617L436.942 13.2266L436.964 12.6914L437.172 12.1602H437.646L441.793 11.8398L444.147 12.1602H444.62L444.829 12.6914L444.851 13.2266L444.873 13.7617L444.871 14.668L444.869 15.5742L444.867 16.4805L444.864 17.3867L444.86 18.373L444.856 19.3594L444.852 20.3457L444.846 21.4271L444.843 21.5223L444.837 21.6176L444.759 22.5983L444.68 23.579L444.602 24.5597L444.523 25.5404L444.439 26.5924L444.432 26.6671L444.422 26.7454L444.296 27.6512L444.169 28.5571L444.043 29.463L443.916 30.3688L443.789 31.2746L443.657 32.2224L443.651 32.2664L443.643 32.3128L443.5 33.1474L443.358 33.9819L443.215 34.8165L443.072 35.6511L442.929 36.4857L442.779 37.361L442.772 37.3983L442.766 37.4325L442.576 38.3764L442.386 39.3204L442.196 40.2643L442.006 41.2083L441.816 42.1522L441.626 43.0962L441.443 44.002L441.451 43.9575L441.46 43.9048L441.32 44.6485L441.179 45.3921L441.039 46.1336L440.82 47.247L440.77 47.421L437.952 50.3481L436.066 50.2951L434.625 49.5336L433.887 48.7342L433.326 48.0976L433.257 48.0105L433.201 47.9359L432.652 47.1687L432.104 46.4015L431.555 45.6343L431.006 44.8672L430.457 44.1L429.858 43.2605L429.808 43.1852L429.759 43.1071L429.288 42.3226L428.818 41.538L428.347 40.7535L427.876 39.9689L427.406 39.1844L426.924 38.381L426.912 38.3617L426.901 38.3417L426.466 37.5766L426.032 36.8115L425.597 36.0464L425.163 35.2812L424.729 34.5161L424.294 33.751L423.855 32.9784L423.851 32.9708L423.847 32.963L423.43 32.2126L423.013 31.4622L422.596 30.7117L422.179 29.9613L421.762 29.2108L421.345 28.4604L420.951 27.7485L420.973 27.7867L420.997 27.8245L420.556 27.0873L420.116 26.3501L419.675 25.6128L419.235 24.8756L418.795 24.1383L418.431 23.5188L418.511 23.6296L418.593 23.7335L418.051 23.0151L417.509 22.2968L416.967 21.5784L416.425 20.86L415.883 20.1417L415.388 19.4778L415.439 19.5356L415.497 19.5969L414.983 18.9899L414.468 18.3828L414.03 17.8507L414.106 17.92L414.181 17.9837L413.603 17.3593L412.998 16.7122L412.968 16.6867L412.935 16.6576L412.532 16.0333L412.128 15.4091L413.517 15.6937L415.156 13.8672H414.869H414.409L413.386 14.5078Z" fill="white" style="fill:white;fill-opacity:1;"/>
<path d="M473.013 10.8017V10.6259V10.2486L471.928 10.5912L471.455 10.4184L471.854 12.5512L471.463 13.1293L472.13 13.8578L473.018 13.8485L472.26 14.0968L471.688 14.3119L472.018 14.2257L472.328 14.1114L471.871 14.378L471.132 14.7803L470.394 15.1827L469.655 15.5851L469.818 15.491L469.973 15.3904L469.426 15.8173L468.734 16.35L468.042 16.8828L467.351 17.4155L466.659 17.9482L465.967 18.4809L466.183 18.2993L466.373 18.1122L465.932 18.6705L465.327 19.4165L464.723 20.1624L464.119 20.9084L463.514 21.6544L462.91 22.4003L462.306 23.1463L461.701 23.8923L461.097 24.6382L460.492 25.3842L459.888 26.1302L460.021 25.9536L460.146 25.764L459.829 26.3899L459.399 27.2164L458.969 28.0429L458.539 28.8695L458.109 29.696L457.679 30.5225L457.249 31.349L456.819 32.1755L456.911 31.9852L456.99 31.7898L456.788 32.4915L456.52 33.3914L456.252 34.2913L455.983 35.1911L455.715 36.0909L455.446 36.9908L455.178 37.8907L455.24 37.6558L455.287 37.4039L455.261 38.0091L455.207 38.8806L455.152 39.752L455.098 40.6234L455.044 41.4948L454.989 42.3662L454.994 41.9752L454.952 41.5796L455.104 42.0302L455.341 42.8654L455.578 43.7007L455.815 44.5359L456.053 45.3711L456.29 46.2063L455.93 45.3759L455.348 44.65L455.479 44.6081L456.28 45.0622L457.08 45.5163L457.881 45.9704L457.521 45.7929L457.101 45.6472L457.441 45.6517L458.248 45.751L459.054 45.8502L459.86 45.9494L460.667 46.0487L460.505 46.0312L460.354 46.0217L461.113 46.0115L462.014 46.0042L462.915 45.9969L463.816 45.9895L464.716 45.9822L464.438 45.9933L464.16 46.0266L464.765 45.8683L465.642 45.655L466.519 45.4417L467.397 45.2284L468.274 45.0151L468.026 45.0851L467.773 45.1776L468.283 44.9208L469.047 44.5481L469.812 44.1754L470.576 43.8027L471.34 43.43L471.007 43.6223L470.705 43.844L471.146 43.5152L471.851 42.9464L472.555 42.3774L473.259 41.8085L473.963 41.2397L474.667 40.6707L474.489 40.8683L474.323 41.093L474.753 40.6906L475.331 40.0399L475.909 39.3892L479.837 41.4628L479.625 42.3069L479.414 43.151L479.055 44.2433L478.889 44.4681L478.711 44.6656L478.151 45.3766L477.591 46.0877L477.031 46.7988L476.47 47.5098L475.91 48.2209L475.087 49.1721L474.785 49.3937L474.453 49.586L473.7 49.9805L472.946 50.375L472.193 50.7695L471.44 51.164L470.433 51.6744L470.18 51.7669L469.932 51.8369L469.055 52.0501L468.178 52.2634L467.3 52.4767L466.423 52.69L465.273 52.9582L464.995 52.9915L464.716 53.0026L463.816 52.9953L462.915 52.9879L462.014 52.9806L461.113 52.9733L460.071 52.9631L459.92 52.9536L459.758 52.9361L458.954 52.8229L458.149 52.7096L457.345 52.5963L456.54 52.4831L455.269 52.2751L454.85 52.1294L454.489 51.9519L453.688 51.4978L452.888 51.0437L452.087 50.5896L450.616 49.6395L450.034 48.9136L449.674 48.0832L449.438 47.2478L449.201 46.4125L448.964 45.5771L448.727 44.7418L448.491 43.9064L448.168 42.6865L448.127 42.2909L448.131 41.8998L448.195 41.0291L448.259 40.1583L448.324 39.2875L448.388 38.4167L448.452 37.546L448.545 36.4091L448.591 36.1571L448.653 35.9223L448.927 35.0241L449.201 34.126L449.475 33.2278L449.749 32.3297L450.023 31.4316L450.298 30.5334L450.638 29.4372L450.717 29.2418L450.809 29.0515L451.238 28.2246L451.668 27.3979L452.097 26.571L452.527 25.7442L452.956 24.9174L453.385 24.0906L453.815 23.2638L454.357 22.2364L454.482 22.0468L454.615 21.8702L455.218 21.1226L455.82 20.375L456.422 19.6273L457.024 18.8797L457.627 18.132L458.229 17.3844L458.831 16.6367L459.434 15.8891L460.036 15.1415L460.638 14.3938L461.404 13.4586L461.593 13.2714L461.81 13.0898L462.501 12.5562L463.192 12.0225L463.883 11.4888L464.574 10.9551L465.265 10.4214L466.101 9.78195L466.255 9.6813L466.419 9.58722L467.16 9.19077L467.902 8.79431L468.644 8.39783L469.668 7.86563L469.977 7.75131L470.308 7.66513L471.278 7.55988L472.063 7.48785L472.951 7.47852L474.798 8.20703L474.407 8.78519L474.572 11.5586L474.099 11.3857L473.013 11.7284V11.351V10.8017Z" fill="white" style="fill:white;fill-opacity:1;"/>
<path d="M478.111 48.4145V48.2094V47.8235V47.0934V46.5549L475.342 48.8515L475.239 48.1406L475.135 47.4297L475.031 46.7187L475.043 46.4493L475.073 46.2096L475.302 45.1782L475.487 44.3578L475.673 43.5374L475.72 43.3649L475.778 43.1911L476.168 42.2693L476.488 41.5206L476.808 40.772L477.129 40.0233L477.126 40.0297L477.123 40.0357L477.47 39.2115L477.819 38.3817L478.169 37.5519L478.518 36.7221L478.51 36.7397L478.503 36.7579L478.816 35.9748L479.137 35.1729L479.458 34.371L479.779 33.5691L479.766 33.6018L479.754 33.6334L480.047 32.8069L480.352 31.9496L480.656 31.0924L480.629 31.1678L480.601 31.2548L480.749 30.6387L480.927 29.9212L481.077 29.31L481.067 29.3542L480.993 29.135L480.831 29.7617L483.667 33.1835L485.032 33.1521L484.245 33.338L483.458 33.5238L482.671 33.7096L482.835 33.6688L482.994 33.6207L482.379 33.8612L481.61 34.1565L480.84 34.4517L480.07 34.747L479.993 34.7755L479.924 34.7991L478.916 35.1197L477.97 35.4207L477.024 35.7216L476.078 36.0225L476.019 36.0402L475.959 36.057L474.956 36.3353L474.014 36.5978L473.071 36.8602L472.128 37.1227L472.002 37.1524L471.869 37.1784L470.81 37.3394L469.887 37.4788L468.965 37.6183L468.042 37.7577L467.119 37.8971L467.089 37.9012L467.06 37.9048L466.081 38.0157L465.13 38.1234L465.099 38.1267L464.125 38.1426L463.822 37.8032L463.424 33.4397L463.244 31.3139L463.41 30.9745L464.335 30.7794L464.304 30.7828L465.251 30.6757L466.171 30.5717L466.141 30.5753L466.111 30.5794L467.037 30.4641L467.963 30.3489L468.889 30.2336L469.815 30.1184L470.603 30.0247L470.471 30.0506L470.344 30.0804L471.298 29.8624L472.252 29.6443L473.206 29.4263L474.099 29.2242L474.04 29.241L473.981 29.2587L474.931 28.9717L475.882 28.6848L476.832 28.3978L477.721 28.1306L477.652 28.1541L477.574 28.1826L478.346 27.892L479.117 27.6013L479.888 27.3106L480.815 26.9652L480.974 26.9171L481.138 26.8763L481.929 26.7079L482.72 26.5396L483.511 26.3712L484.876 26.3398L487.712 29.7617L487.55 30.3884L487.476 30.802L487.466 30.8462L487.223 31.6594L487.008 32.3665L486.763 33.1748L486.734 33.2619L486.707 33.3372L486.379 34.1857L486.051 35.0342L485.711 35.9134L485.699 35.945L485.685 35.9777L485.354 36.7754L485.023 37.5732L484.692 38.3709L484.353 39.1873L484.345 39.2055L484.338 39.2231L483.976 40.0476L483.614 40.8721L483.253 41.6966L482.889 42.5267L482.886 42.5327L482.883 42.5391L482.551 43.2827L482.219 44.0262L481.887 44.7697L481.625 45.3401L481.683 45.1663L481.73 44.9937L481.522 45.8088L481.314 46.6238L481.15 47.2279L481.18 46.9881L481.192 46.7187L481.088 47.4297L480.984 48.1406L480.88 48.8515L478.111 51.1482V50.6097V49.8795V49.4936V48.4145Z" fill="white" style="fill:white;fill-opacity:1;"/>
<path d="M501.202 0.640625L500.558 0.105469H499.941H499.505L504.375 0L504.476 0.853516L504.577 1.70703L504.671 2.61328L504.765 3.51953L504.86 4.42578L504.954 5.33203L505.048 6.23828L505.142 7.14453L505.177 8.12656L505.211 9.10858L505.245 10.0906L505.28 11.0727L505.314 12.0547L505.325 12.89L505.335 13.7253L505.345 14.5605L505.355 15.3958L505.365 16.2311L505.375 17.0664L505.376 17.9625L505.376 18.8586L505.377 19.7547L505.377 20.6508L505.378 21.5469L505.378 21.573L505.377 21.5996L505.318 22.497L505.259 23.3672L505.201 24.2374L505.142 25.1076L505.083 25.9778L505.024 26.8481L505.018 26.9846L505.005 27.1344L504.729 28.0227L504.474 28.7472L504.476 28.7338L504.478 28.7225L503.933 29.6133L503.386 30.5136L502.84 31.4139L502.294 32.3142L501.747 33.2145L499.747 32.9183L499.486 31.8983L499.224 30.8783L498.962 29.8583L498.7 28.8383L498.439 27.8087L498.441 27.7975L498.443 27.7841L498.427 27.0164L498.388 26.4125L498.375 26.5623L498.369 26.6988L498.35 25.8268L498.33 24.9549L498.31 24.0829L498.29 23.2109L498.271 22.339L498.25 21.4941L498.25 21.5208L498.25 21.5469L498.25 20.6508L498.251 19.7547L498.251 18.8586L498.252 17.9625L498.252 17.0664L498.263 16.2311L498.273 15.3958L498.283 14.5605L498.293 13.7253L498.303 12.89L498.313 12.0547L498.348 11.0727L498.382 10.0906L498.417 9.10858L498.451 8.12656L498.486 7.14453L498.58 6.23828L498.674 5.33203L498.768 4.42578L498.862 3.51953L498.957 2.61328L499.051 1.70703L499.152 0.853516L499.252 0L504.123 0.105469H503.687H503.07L501.202 0.640625Z" fill="white" style="fill:white;fill-opacity:1;"/>
<path d="M501.942 49.7581L502.199 49.3224L501.926 48.4036L500.977 51.6232L501.669 52.0398L500.847 51.8037L500.025 51.5677L499.203 51.3316L498.381 51.0955L498.625 51.1706L498.902 51.2227L498.455 51.2839L497.705 51.3258L496.955 51.3677L497.013 51.367L497.064 51.3653L496.224 51.4706L495.339 51.5783L496.055 51.4322L496.816 51.0089L496.943 51.0526L496.504 51.7253L496.064 52.398L496.28 51.986L496.427 51.5005L496.47 51.7341L496.463 52.4802L496.461 52.4072L496.458 52.3223L496.497 52.8096L496.544 53.3967L496.067 52.1438L495.229 51.4044L495.468 51.4042L496.349 51.6521L496.179 51.6176L495.985 51.593L496.538 51.5966L497.308 51.6097L498.079 51.6229L498.849 51.636L498.532 51.6567L498.257 51.7088L498.913 51.4561L499.8 51.1331L499.514 51.2566L499.164 51.4737L499.18 51.3479L499.295 51.2769L499.179 51.5149L499.152 51.0006L499.266 52.6361L499.903 53.3437L499.729 53.807L499.52 53.9864L499.562 53.9884L499.614 53.9901L499.029 53.9903L498.831 53.9538L499.672 53.6839L499.959 53.1385L500.191 53.1964L500.447 52.906L499.679 50.9874L499.541 50.5049L499.088 50.3506L498.821 50.3645L498.609 50.3959L499.521 50.6957L500.603 50.9572L501.685 51.2187L502.178 53.1011L501.364 53.86L500.55 54.6189L499.567 55.4161L499.354 55.4475L499.088 55.4614L497.213 55.3071L495.652 54.8246L494.885 52.906L494.906 51.1234L495.373 49.6891L497.082 48.5031L497.922 48.2332L499.029 48.1967L499.749 48.1969L499.801 48.1986L499.843 48.2006L501.529 48.4854L503.249 49.0543L503.886 49.7618L504 52.4677L503.739 53.4455L503.623 53.6836L502.906 54.5735L502.09 55.4086L501.74 55.6258L501.454 55.7492L500.563 56.063L499.442 56.4469L499.167 56.4991L498.849 56.5198L498.079 56.5329L497.308 56.546L496.538 56.5591L495.55 56.5627L495.356 56.5381L495.186 56.5036L494.289 56.3258L492.751 55.8998L491.914 55.1604L491.436 53.9075L491.366 53.3227L491.288 52.6382L491.284 52.5532L491.283 52.4802L491.275 51.7341L491.318 50.4756L491.466 49.9901L491.682 49.578L492.112 48.8992L492.542 48.2203L493.54 46.9125L494.3 46.4892L495.017 46.3431L495.908 46.3414L496.846 46.3373L496.897 46.3356L496.955 46.335L497.705 46.3769L498.455 46.4188L499.508 46.4799L499.785 46.5321L500.029 46.6071L500.808 46.9589L501.588 47.3107L502.367 47.6626L503.147 48.0144L503.84 48.431L502.89 51.6506L502.617 50.7318L501.942 49.7581Z" fill="white" style="fill:white;fill-opacity:1;"/>
</svg>
